<?xml version="1.0" encoding="utf-8" standalone="no"?>
<!DOCTYPE svg PUBLIC "-//W3C//DTD SVG 1.1//EN"
  "http://www.w3.org/Graphics/SVG/1.1/DTD/svg11.dtd">
<!-- Created with matplotlib (https://matplotlib.org/) -->
<svg height="288pt" version="1.1" viewBox="0 0 576 288" width="576pt" xmlns="http://www.w3.org/2000/svg" xmlns:xlink="http://www.w3.org/1999/xlink">
 <defs>
  <style type="text/css">
*{stroke-linecap:butt;stroke-linejoin:round;}
  </style>
 </defs>
 <g id="figure_1">
  <g id="patch_1">
   <path d="M 0 288 
L 576 288 
L 576 0 
L 0 0 
z
" style="fill:#ffffff;"/>
  </g>
  <g id="axes_1">
   <g id="patch_2">
    <path d="M 44.203125 246.84375 
L 554.067188 246.84375 
L 554.067188 26.514375 
L 44.203125 26.514375 
z
" style="fill:#ffffff;"/>
   </g>
   <g id="patch_3">
    <path clip-path="url(#p3ffd16a374)" d="M 47.389775 246.84375 
L 53.763076 246.84375 
L 53.763076 246.84375 
L 47.389775 246.84375 
z
" style="fill:#1f77b4;"/>
   </g>
   <g id="patch_4">
    <path clip-path="url(#p3ffd16a374)" d="M 60.136377 246.84375 
L 66.509678 246.84375 
L 66.509678 246.84375 
L 60.136377 246.84375 
z
" style="fill:#1f77b4;"/>
   </g>
   <g id="patch_5">
    <path clip-path="url(#p3ffd16a374)" d="M 72.882979 246.84375 
L 79.256279 246.84375 
L 79.256279 246.84375 
L 72.882979 246.84375 
z
" style="fill:#1f77b4;"/>
   </g>
   <g id="patch_6">
    <path clip-path="url(#p3ffd16a374)" d="M 85.62958 246.84375 
L 92.002881 246.84375 
L 92.002881 246.84375 
L 85.62958 246.84375 
z
" style="fill:#1f77b4;"/>
   </g>
   <g id="patch_7">
    <path clip-path="url(#p3ffd16a374)" d="M 98.376182 246.84375 
L 104.749482 246.84375 
L 104.749482 246.84375 
L 98.376182 246.84375 
z
" style="fill:#1f77b4;"/>
   </g>
   <g id="patch_8">
    <path clip-path="url(#p3ffd16a374)" d="M 111.122783 246.84375 
L 117.496084 246.84375 
L 117.496084 246.84375 
L 111.122783 246.84375 
z
" style="fill:#1f77b4;"/>
   </g>
   <g id="patch_9">
    <path clip-path="url(#p3ffd16a374)" d="M 123.869385 246.84375 
L 130.242686 246.84375 
L 130.242686 242.437162 
L 123.869385 242.437162 
z
" style="fill:#1f77b4;"/>
   </g>
   <g id="patch_10">
    <path clip-path="url(#p3ffd16a374)" d="M 136.615986 246.84375 
L 142.989287 246.84375 
L 142.989287 246.84375 
L 136.615986 246.84375 
z
" style="fill:#1f77b4;"/>
   </g>
   <g id="patch_11">
    <path clip-path="url(#p3ffd16a374)" d="M 149.362588 246.84375 
L 155.735889 246.84375 
L 155.735889 246.84375 
L 149.362588 246.84375 
z
" style="fill:#1f77b4;"/>
   </g>
   <g id="patch_12">
    <path clip-path="url(#p3ffd16a374)" d="M 162.109189 246.84375 
L 168.48249 246.84375 
L 168.48249 246.84375 
L 162.109189 246.84375 
z
" style="fill:#1f77b4;"/>
   </g>
   <g id="patch_13">
    <path clip-path="url(#p3ffd16a374)" d="M 174.855791 246.84375 
L 181.229092 246.84375 
L 181.229092 246.84375 
L 174.855791 246.84375 
z
" style="fill:#1f77b4;"/>
   </g>
   <g id="patch_14">
    <path clip-path="url(#p3ffd16a374)" d="M 187.602393 246.84375 
L 193.975693 246.84375 
L 193.975693 246.84375 
L 187.602393 246.84375 
z
" style="fill:#1f77b4;"/>
   </g>
   <g id="patch_15">
    <path clip-path="url(#p3ffd16a374)" d="M 200.348994 246.84375 
L 206.722295 246.84375 
L 206.722295 246.84375 
L 200.348994 246.84375 
z
" style="fill:#1f77b4;"/>
   </g>
   <g id="patch_16">
    <path clip-path="url(#p3ffd16a374)" d="M 213.095596 246.84375 
L 219.468896 246.84375 
L 219.468896 246.84375 
L 213.095596 246.84375 
z
" style="fill:#1f77b4;"/>
   </g>
   <g id="patch_17">
    <path clip-path="url(#p3ffd16a374)" d="M 225.842197 246.84375 
L 232.215498 246.84375 
L 232.215498 246.84375 
L 225.842197 246.84375 
z
" style="fill:#1f77b4;"/>
   </g>
   <g id="patch_18">
    <path clip-path="url(#p3ffd16a374)" d="M 238.588799 246.84375 
L 244.9621 246.84375 
L 244.9621 246.84375 
L 238.588799 246.84375 
z
" style="fill:#1f77b4;"/>
   </g>
   <g id="patch_19">
    <path clip-path="url(#p3ffd16a374)" d="M 251.3354 246.84375 
L 257.708701 246.84375 
L 257.708701 242.437162 
L 251.3354 242.437162 
z
" style="fill:#1f77b4;"/>
   </g>
   <g id="patch_20">
    <path clip-path="url(#p3ffd16a374)" d="M 264.082002 246.84375 
L 270.455303 246.84375 
L 270.455303 198.371287 
L 264.082002 198.371287 
z
" style="fill:#1f77b4;"/>
   </g>
   <g id="patch_21">
    <path clip-path="url(#p3ffd16a374)" d="M 276.828604 246.84375 
L 283.201904 246.84375 
L 283.201904 79.393425 
L 276.828604 79.393425 
z
" style="fill:#1f77b4;"/>
   </g>
   <g id="patch_22">
    <path clip-path="url(#p3ffd16a374)" d="M 289.575205 246.84375 
L 295.948506 246.84375 
L 295.948506 44.140725 
L 289.575205 44.140725 
z
" style="fill:#1f77b4;"/>
   </g>
   <g id="patch_23">
    <path clip-path="url(#p3ffd16a374)" d="M 302.321807 246.84375 
L 308.695107 246.84375 
L 308.695107 52.9539 
L 302.321807 52.9539 
z
" style="fill:#1f77b4;"/>
   </g>
   <g id="patch_24">
    <path clip-path="url(#p3ffd16a374)" d="M 315.068408 246.84375 
L 321.441709 246.84375 
L 321.441709 193.9647 
L 315.068408 193.9647 
z
" style="fill:#1f77b4;"/>
   </g>
   <g id="patch_25">
    <path clip-path="url(#p3ffd16a374)" d="M 327.81501 246.84375 
L 334.188311 246.84375 
L 334.188311 242.437162 
L 327.81501 242.437162 
z
" style="fill:#1f77b4;"/>
   </g>
   <g id="patch_26">
    <path clip-path="url(#p3ffd16a374)" d="M 340.561611 246.84375 
L 346.934912 246.84375 
L 346.934912 242.437162 
L 340.561611 242.437162 
z
" style="fill:#1f77b4;"/>
   </g>
   <g id="patch_27">
    <path clip-path="url(#p3ffd16a374)" d="M 353.308213 246.84375 
L 359.681514 246.84375 
L 359.681514 246.84375 
L 353.308213 246.84375 
z
" style="fill:#1f77b4;"/>
   </g>
   <g id="patch_28">
    <path clip-path="url(#p3ffd16a374)" d="M 366.054814 246.84375 
L 372.428115 246.84375 
L 372.428115 246.84375 
L 366.054814 246.84375 
z
" style="fill:#1f77b4;"/>
   </g>
   <g id="patch_29">
    <path clip-path="url(#p3ffd16a374)" d="M 378.801416 246.84375 
L 385.174717 246.84375 
L 385.174717 246.84375 
L 378.801416 246.84375 
z
" style="fill:#1f77b4;"/>
   </g>
   <g id="patch_30">
    <path clip-path="url(#p3ffd16a374)" d="M 391.548018 246.84375 
L 397.921318 246.84375 
L 397.921318 246.84375 
L 391.548018 246.84375 
z
" style="fill:#1f77b4;"/>
   </g>
   <g id="patch_31">
    <path clip-path="url(#p3ffd16a374)" d="M 404.294619 246.84375 
L 410.66792 246.84375 
L 410.66792 246.84375 
L 404.294619 246.84375 
z
" style="fill:#1f77b4;"/>
   </g>
   <g id="patch_32">
    <path clip-path="url(#p3ffd16a374)" d="M 417.041221 246.84375 
L 423.414521 246.84375 
L 423.414521 246.84375 
L 417.041221 246.84375 
z
" style="fill:#1f77b4;"/>
   </g>
   <g id="patch_33">
    <path clip-path="url(#p3ffd16a374)" d="M 429.787822 246.84375 
L 436.161123 246.84375 
L 436.161123 246.84375 
L 429.787822 246.84375 
z
" style="fill:#1f77b4;"/>
   </g>
   <g id="patch_34">
    <path clip-path="url(#p3ffd16a374)" d="M 442.534424 246.84375 
L 448.907725 246.84375 
L 448.907725 246.84375 
L 442.534424 246.84375 
z
" style="fill:#1f77b4;"/>
   </g>
   <g id="patch_35">
    <path clip-path="url(#p3ffd16a374)" d="M 455.281025 246.84375 
L 461.654326 246.84375 
L 461.654326 246.84375 
L 455.281025 246.84375 
z
" style="fill:#1f77b4;"/>
   </g>
   <g id="patch_36">
    <path clip-path="url(#p3ffd16a374)" d="M 468.027627 246.84375 
L 474.400928 246.84375 
L 474.400928 246.84375 
L 468.027627 246.84375 
z
" style="fill:#1f77b4;"/>
   </g>
   <g id="patch_37">
    <path clip-path="url(#p3ffd16a374)" d="M 480.774229 246.84375 
L 487.147529 246.84375 
L 487.147529 246.84375 
L 480.774229 246.84375 
z
" style="fill:#1f77b4;"/>
   </g>
   <g id="patch_38">
    <path clip-path="url(#p3ffd16a374)" d="M 493.52083 246.84375 
L 499.894131 246.84375 
L 499.894131 246.84375 
L 493.52083 246.84375 
z
" style="fill:#1f77b4;"/>
   </g>
   <g id="patch_39">
    <path clip-path="url(#p3ffd16a374)" d="M 506.267432 246.84375 
L 512.640732 246.84375 
L 512.640732 246.84375 
L 506.267432 246.84375 
z
" style="fill:#1f77b4;"/>
   </g>
   <g id="patch_40">
    <path clip-path="url(#p3ffd16a374)" d="M 519.014033 246.84375 
L 525.387334 246.84375 
L 525.387334 246.84375 
L 519.014033 246.84375 
z
" style="fill:#1f77b4;"/>
   </g>
   <g id="patch_41">
    <path clip-path="url(#p3ffd16a374)" d="M 531.760635 246.84375 
L 538.133936 246.84375 
L 538.133936 246.84375 
L 531.760635 246.84375 
z
" style="fill:#1f77b4;"/>
   </g>
   <g id="patch_42">
    <path clip-path="url(#p3ffd16a374)" d="M 544.507236 246.84375 
L 550.880537 246.84375 
L 550.880537 246.84375 
L 544.507236 246.84375 
z
" style="fill:#1f77b4;"/>
   </g>
   <g id="matplotlib.axis_1">
    <g id="xtick_1">
     <g id="line2d_1">
      <defs>
       <path d="M 0 0 
L 0 3.5 
" id="m4dfc2ef45e" style="stroke:#000000;stroke-width:0.8;"/>
      </defs>
      <g>
       <use style="stroke:#000000;stroke-width:0.8;" x="44.203125" xlink:href="#m4dfc2ef45e" y="246.84375"/>
      </g>
     </g>
     <g id="text_1">
      <!-- −1.00 -->
      <defs>
       <path d="M 10.59375 35.5 
L 73.1875 35.5 
L 73.1875 27.203125 
L 10.59375 27.203125 
z
" id="DejaVuSans-8722"/>
       <path d="M 12.40625 8.296875 
L 28.515625 8.296875 
L 28.515625 63.921875 
L 10.984375 60.40625 
L 10.984375 69.390625 
L 28.421875 72.90625 
L 38.28125 72.90625 
L 38.28125 8.296875 
L 54.390625 8.296875 
L 54.390625 0 
L 12.40625 0 
z
" id="DejaVuSans-49"/>
       <path d="M 10.6875 12.40625 
L 21 12.40625 
L 21 0 
L 10.6875 0 
z
" id="DejaVuSans-46"/>
       <path d="M 31.78125 66.40625 
Q 24.171875 66.40625 20.328125 58.90625 
Q 16.5 51.421875 16.5 36.375 
Q 16.5 21.390625 20.328125 13.890625 
Q 24.171875 6.390625 31.78125 6.390625 
Q 39.453125 6.390625 43.28125 13.890625 
Q 47.125 21.390625 47.125 36.375 
Q 47.125 51.421875 43.28125 58.90625 
Q 39.453125 66.40625 31.78125 66.40625 
z
M 31.78125 74.21875 
Q 44.046875 74.21875 50.515625 64.515625 
Q 56.984375 54.828125 56.984375 36.375 
Q 56.984375 17.96875 50.515625 8.265625 
Q 44.046875 -1.421875 31.78125 -1.421875 
Q 19.53125 -1.421875 13.0625 8.265625 
Q 6.59375 17.96875 6.59375 36.375 
Q 6.59375 54.828125 13.0625 64.515625 
Q 19.53125 74.21875 31.78125 74.21875 
z
" id="DejaVuSans-48"/>
      </defs>
      <g transform="translate(28.880469 261.442187)scale(0.1 -0.1)">
       <use xlink:href="#DejaVuSans-8722"/>
       <use x="83.789062" xlink:href="#DejaVuSans-49"/>
       <use x="147.412109" xlink:href="#DejaVuSans-46"/>
       <use x="179.199219" xlink:href="#DejaVuSans-48"/>
       <use x="242.822266" xlink:href="#DejaVuSans-48"/>
      </g>
     </g>
    </g>
    <g id="xtick_2">
     <g id="line2d_2">
      <g>
       <use style="stroke:#000000;stroke-width:0.8;" x="107.936133" xlink:href="#m4dfc2ef45e" y="246.84375"/>
      </g>
     </g>
     <g id="text_2">
      <!-- −0.75 -->
      <defs>
       <path d="M 8.203125 72.90625 
L 55.078125 72.90625 
L 55.078125 68.703125 
L 28.609375 0 
L 18.3125 0 
L 43.21875 64.59375 
L 8.203125 64.59375 
z
" id="DejaVuSans-55"/>
       <path d="M 10.796875 72.90625 
L 49.515625 72.90625 
L 49.515625 64.59375 
L 19.828125 64.59375 
L 19.828125 46.734375 
Q 21.96875 47.46875 24.109375 47.828125 
Q 26.265625 48.1875 28.421875 48.1875 
Q 40.625 48.1875 47.75 41.5 
Q 54.890625 34.8125 54.890625 23.390625 
Q 54.890625 11.625 47.5625 5.09375 
Q 40.234375 -1.421875 26.90625 -1.421875 
Q 22.3125 -1.421875 17.546875 -0.640625 
Q 12.796875 0.140625 7.71875 1.703125 
L 7.71875 11.625 
Q 12.109375 9.234375 16.796875 8.0625 
Q 21.484375 6.890625 26.703125 6.890625 
Q 35.15625 6.890625 40.078125 11.328125 
Q 45.015625 15.765625 45.015625 23.390625 
Q 45.015625 31 40.078125 35.4375 
Q 35.15625 39.890625 26.703125 39.890625 
Q 22.75 39.890625 18.8125 39.015625 
Q 14.890625 38.140625 10.796875 36.28125 
z
" id="DejaVuSans-53"/>
      </defs>
      <g transform="translate(92.613477 261.442187)scale(0.1 -0.1)">
       <use xlink:href="#DejaVuSans-8722"/>
       <use x="83.789062" xlink:href="#DejaVuSans-48"/>
       <use x="147.412109" xlink:href="#DejaVuSans-46"/>
       <use x="179.199219" xlink:href="#DejaVuSans-55"/>
       <use x="242.822266" xlink:href="#DejaVuSans-53"/>
      </g>
     </g>
    </g>
    <g id="xtick_3">
     <g id="line2d_3">
      <g>
       <use style="stroke:#000000;stroke-width:0.8;" x="171.669141" xlink:href="#m4dfc2ef45e" y="246.84375"/>
      </g>
     </g>
     <g id="text_3">
      <!-- −0.50 -->
      <g transform="translate(156.346484 261.442187)scale(0.1 -0.1)">
       <use xlink:href="#DejaVuSans-8722"/>
       <use x="83.789062" xlink:href="#DejaVuSans-48"/>
       <use x="147.412109" xlink:href="#DejaVuSans-46"/>
       <use x="179.199219" xlink:href="#DejaVuSans-53"/>
       <use x="242.822266" xlink:href="#DejaVuSans-48"/>
      </g>
     </g>
    </g>
    <g id="xtick_4">
     <g id="line2d_4">
      <g>
       <use style="stroke:#000000;stroke-width:0.8;" x="235.402148" xlink:href="#m4dfc2ef45e" y="246.84375"/>
      </g>
     </g>
     <g id="text_4">
      <!-- −0.25 -->
      <defs>
       <path d="M 19.1875 8.296875 
L 53.609375 8.296875 
L 53.609375 0 
L 7.328125 0 
L 7.328125 8.296875 
Q 12.9375 14.109375 22.625 23.890625 
Q 32.328125 33.6875 34.8125 36.53125 
Q 39.546875 41.84375 41.421875 45.53125 
Q 43.3125 49.21875 43.3125 52.78125 
Q 43.3125 58.59375 39.234375 62.25 
Q 35.15625 65.921875 28.609375 65.921875 
Q 23.96875 65.921875 18.8125 64.3125 
Q 13.671875 62.703125 7.8125 59.421875 
L 7.8125 69.390625 
Q 13.765625 71.78125 18.9375 73 
Q 24.125 74.21875 28.421875 74.21875 
Q 39.75 74.21875 46.484375 68.546875 
Q 53.21875 62.890625 53.21875 53.421875 
Q 53.21875 48.921875 51.53125 44.890625 
Q 49.859375 40.875 45.40625 35.40625 
Q 44.1875 33.984375 37.640625 27.21875 
Q 31.109375 20.453125 19.1875 8.296875 
z
" id="DejaVuSans-50"/>
      </defs>
      <g transform="translate(220.079492 261.442187)scale(0.1 -0.1)">
       <use xlink:href="#DejaVuSans-8722"/>
       <use x="83.789062" xlink:href="#DejaVuSans-48"/>
       <use x="147.412109" xlink:href="#DejaVuSans-46"/>
       <use x="179.199219" xlink:href="#DejaVuSans-50"/>
       <use x="242.822266" xlink:href="#DejaVuSans-53"/>
      </g>
     </g>
    </g>
    <g id="xtick_5">
     <g id="line2d_5">
      <g>
       <use style="stroke:#000000;stroke-width:0.8;" x="299.135156" xlink:href="#m4dfc2ef45e" y="246.84375"/>
      </g>
     </g>
     <g id="text_5">
      <!-- 0.00 -->
      <g transform="translate(288.002344 261.442187)scale(0.1 -0.1)">
       <use xlink:href="#DejaVuSans-48"/>
       <use x="63.623047" xlink:href="#DejaVuSans-46"/>
       <use x="95.410156" xlink:href="#DejaVuSans-48"/>
       <use x="159.033203" xlink:href="#DejaVuSans-48"/>
      </g>
     </g>
    </g>
    <g id="xtick_6">
     <g id="line2d_6">
      <g>
       <use style="stroke:#000000;stroke-width:0.8;" x="362.868164" xlink:href="#m4dfc2ef45e" y="246.84375"/>
      </g>
     </g>
     <g id="text_6">
      <!-- 0.25 -->
      <g transform="translate(351.735352 261.442187)scale(0.1 -0.1)">
       <use xlink:href="#DejaVuSans-48"/>
       <use x="63.623047" xlink:href="#DejaVuSans-46"/>
       <use x="95.410156" xlink:href="#DejaVuSans-50"/>
       <use x="159.033203" xlink:href="#DejaVuSans-53"/>
      </g>
     </g>
    </g>
    <g id="xtick_7">
     <g id="line2d_7">
      <g>
       <use style="stroke:#000000;stroke-width:0.8;" x="426.601172" xlink:href="#m4dfc2ef45e" y="246.84375"/>
      </g>
     </g>
     <g id="text_7">
      <!-- 0.50 -->
      <g transform="translate(415.468359 261.442187)scale(0.1 -0.1)">
       <use xlink:href="#DejaVuSans-48"/>
       <use x="63.623047" xlink:href="#DejaVuSans-46"/>
       <use x="95.410156" xlink:href="#DejaVuSans-53"/>
       <use x="159.033203" xlink:href="#DejaVuSans-48"/>
      </g>
     </g>
    </g>
    <g id="xtick_8">
     <g id="line2d_8">
      <g>
       <use style="stroke:#000000;stroke-width:0.8;" x="490.33418" xlink:href="#m4dfc2ef45e" y="246.84375"/>
      </g>
     </g>
     <g id="text_8">
      <!-- 0.75 -->
      <g transform="translate(479.201367 261.442187)scale(0.1 -0.1)">
       <use xlink:href="#DejaVuSans-48"/>
       <use x="63.623047" xlink:href="#DejaVuSans-46"/>
       <use x="95.410156" xlink:href="#DejaVuSans-55"/>
       <use x="159.033203" xlink:href="#DejaVuSans-53"/>
      </g>
     </g>
    </g>
    <g id="xtick_9">
     <g id="line2d_9">
      <g>
       <use style="stroke:#000000;stroke-width:0.8;" x="554.067188" xlink:href="#m4dfc2ef45e" y="246.84375"/>
      </g>
     </g>
     <g id="text_9">
      <!-- 1.00 -->
      <g transform="translate(542.934375 261.442187)scale(0.1 -0.1)">
       <use xlink:href="#DejaVuSans-49"/>
       <use x="63.623047" xlink:href="#DejaVuSans-46"/>
       <use x="95.410156" xlink:href="#DejaVuSans-48"/>
       <use x="159.033203" xlink:href="#DejaVuSans-48"/>
      </g>
     </g>
    </g>
    <g id="text_10">
     <!-- time (sec) -->
     <defs>
      <path d="M 18.3125 70.21875 
L 18.3125 54.6875 
L 36.8125 54.6875 
L 36.8125 47.703125 
L 18.3125 47.703125 
L 18.3125 18.015625 
Q 18.3125 11.328125 20.140625 9.421875 
Q 21.96875 7.515625 27.59375 7.515625 
L 36.8125 7.515625 
L 36.8125 0 
L 27.59375 0 
Q 17.1875 0 13.234375 3.875 
Q 9.28125 7.765625 9.28125 18.015625 
L 9.28125 47.703125 
L 2.6875 47.703125 
L 2.6875 54.6875 
L 9.28125 54.6875 
L 9.28125 70.21875 
z
" id="DejaVuSans-116"/>
      <path d="M 9.421875 54.6875 
L 18.40625 54.6875 
L 18.40625 0 
L 9.421875 0 
z
M 9.421875 75.984375 
L 18.40625 75.984375 
L 18.40625 64.59375 
L 9.421875 64.59375 
z
" id="DejaVuSans-105"/>
      <path d="M 52 44.1875 
Q 55.375 50.25 60.0625 53.125 
Q 64.75 56 71.09375 56 
Q 79.640625 56 84.28125 50.015625 
Q 88.921875 44.046875 88.921875 33.015625 
L 88.921875 0 
L 79.890625 0 
L 79.890625 32.71875 
Q 79.890625 40.578125 77.09375 44.375 
Q 74.3125 48.1875 68.609375 48.1875 
Q 61.625 48.1875 57.5625 43.546875 
Q 53.515625 38.921875 53.515625 30.90625 
L 53.515625 0 
L 44.484375 0 
L 44.484375 32.71875 
Q 44.484375 40.625 41.703125 44.40625 
Q 38.921875 48.1875 33.109375 48.1875 
Q 26.21875 48.1875 22.15625 43.53125 
Q 18.109375 38.875 18.109375 30.90625 
L 18.109375 0 
L 9.078125 0 
L 9.078125 54.6875 
L 18.109375 54.6875 
L 18.109375 46.1875 
Q 21.1875 51.21875 25.484375 53.609375 
Q 29.78125 56 35.6875 56 
Q 41.65625 56 45.828125 52.96875 
Q 50 49.953125 52 44.1875 
z
" id="DejaVuSans-109"/>
      <path d="M 56.203125 29.59375 
L 56.203125 25.203125 
L 14.890625 25.203125 
Q 15.484375 15.921875 20.484375 11.0625 
Q 25.484375 6.203125 34.421875 6.203125 
Q 39.59375 6.203125 44.453125 7.46875 
Q 49.3125 8.734375 54.109375 11.28125 
L 54.109375 2.78125 
Q 49.265625 0.734375 44.1875 -0.34375 
Q 39.109375 -1.421875 33.890625 -1.421875 
Q 20.796875 -1.421875 13.15625 6.1875 
Q 5.515625 13.8125 5.515625 26.8125 
Q 5.515625 40.234375 12.765625 48.109375 
Q 20.015625 56 32.328125 56 
Q 43.359375 56 49.78125 48.890625 
Q 56.203125 41.796875 56.203125 29.59375 
z
M 47.21875 32.234375 
Q 47.125 39.59375 43.09375 43.984375 
Q 39.0625 48.390625 32.421875 48.390625 
Q 24.90625 48.390625 20.390625 44.140625 
Q 15.875 39.890625 15.1875 32.171875 
z
" id="DejaVuSans-101"/>
      <path id="DejaVuSans-32"/>
      <path d="M 31 75.875 
Q 24.46875 64.65625 21.28125 53.65625 
Q 18.109375 42.671875 18.109375 31.390625 
Q 18.109375 20.125 21.3125 9.0625 
Q 24.515625 -2 31 -13.1875 
L 23.1875 -13.1875 
Q 15.875 -1.703125 12.234375 9.375 
Q 8.59375 20.453125 8.59375 31.390625 
Q 8.59375 42.28125 12.203125 53.3125 
Q 15.828125 64.359375 23.1875 75.875 
z
" id="DejaVuSans-40"/>
      <path d="M 44.28125 53.078125 
L 44.28125 44.578125 
Q 40.484375 46.53125 36.375 47.5 
Q 32.28125 48.484375 27.875 48.484375 
Q 21.1875 48.484375 17.84375 46.4375 
Q 14.5 44.390625 14.5 40.28125 
Q 14.5 37.15625 16.890625 35.375 
Q 19.28125 33.59375 26.515625 31.984375 
L 29.59375 31.296875 
Q 39.15625 29.25 43.1875 25.515625 
Q 47.21875 21.78125 47.21875 15.09375 
Q 47.21875 7.46875 41.1875 3.015625 
Q 35.15625 -1.421875 24.609375 -1.421875 
Q 20.21875 -1.421875 15.453125 -0.5625 
Q 10.6875 0.296875 5.421875 2 
L 5.421875 11.28125 
Q 10.40625 8.6875 15.234375 7.390625 
Q 20.0625 6.109375 24.8125 6.109375 
Q 31.15625 6.109375 34.5625 8.28125 
Q 37.984375 10.453125 37.984375 14.40625 
Q 37.984375 18.0625 35.515625 20.015625 
Q 33.0625 21.96875 24.703125 23.78125 
L 21.578125 24.515625 
Q 13.234375 26.265625 9.515625 29.90625 
Q 5.8125 33.546875 5.8125 39.890625 
Q 5.8125 47.609375 11.28125 51.796875 
Q 16.75 56 26.8125 56 
Q 31.78125 56 36.171875 55.265625 
Q 40.578125 54.546875 44.28125 53.078125 
z
" id="DejaVuSans-115"/>
      <path d="M 48.78125 52.59375 
L 48.78125 44.1875 
Q 44.96875 46.296875 41.140625 47.34375 
Q 37.3125 48.390625 33.40625 48.390625 
Q 24.65625 48.390625 19.8125 42.84375 
Q 14.984375 37.3125 14.984375 27.296875 
Q 14.984375 17.28125 19.8125 11.734375 
Q 24.65625 6.203125 33.40625 6.203125 
Q 37.3125 6.203125 41.140625 7.25 
Q 44.96875 8.296875 48.78125 10.40625 
L 48.78125 2.09375 
Q 45.015625 0.34375 40.984375 -0.53125 
Q 36.96875 -1.421875 32.421875 -1.421875 
Q 20.0625 -1.421875 12.78125 6.34375 
Q 5.515625 14.109375 5.515625 27.296875 
Q 5.515625 40.671875 12.859375 48.328125 
Q 20.21875 56 33.015625 56 
Q 37.15625 56 41.109375 55.140625 
Q 45.0625 54.296875 48.78125 52.59375 
z
" id="DejaVuSans-99"/>
      <path d="M 8.015625 75.875 
L 15.828125 75.875 
Q 23.140625 64.359375 26.78125 53.3125 
Q 30.421875 42.28125 30.421875 31.390625 
Q 30.421875 20.453125 26.78125 9.375 
Q 23.140625 -1.703125 15.828125 -13.1875 
L 8.015625 -13.1875 
Q 14.5 -2 17.703125 9.0625 
Q 20.90625 20.125 20.90625 31.390625 
Q 20.90625 42.671875 17.703125 53.65625 
Q 14.5 64.65625 8.015625 75.875 
z
" id="DejaVuSans-41"/>
     </defs>
     <g transform="translate(273.917969 275.120313)scale(0.1 -0.1)">
      <use xlink:href="#DejaVuSans-116"/>
      <use x="39.208984" xlink:href="#DejaVuSans-105"/>
      <use x="66.992188" xlink:href="#DejaVuSans-109"/>
      <use x="164.404297" xlink:href="#DejaVuSans-101"/>
      <use x="225.927734" xlink:href="#DejaVuSans-32"/>
      <use x="257.714844" xlink:href="#DejaVuSans-40"/>
      <use x="296.728516" xlink:href="#DejaVuSans-115"/>
      <use x="348.828125" xlink:href="#DejaVuSans-101"/>
      <use x="410.351562" xlink:href="#DejaVuSans-99"/>
      <use x="465.332031" xlink:href="#DejaVuSans-41"/>
     </g>
    </g>
   </g>
   <g id="matplotlib.axis_2">
    <g id="ytick_1">
     <g id="line2d_10">
      <defs>
       <path d="M 0 0 
L -3.5 0 
" id="m4a592f2774" style="stroke:#000000;stroke-width:0.8;"/>
      </defs>
      <g>
       <use style="stroke:#000000;stroke-width:0.8;" x="44.203125" xlink:href="#m4a592f2774" y="246.84375"/>
      </g>
     </g>
     <g id="text_11">
      <!-- 0 -->
      <g transform="translate(30.840625 250.642969)scale(0.1 -0.1)">
       <use xlink:href="#DejaVuSans-48"/>
      </g>
     </g>
    </g>
    <g id="ytick_2">
     <g id="line2d_11">
      <g>
       <use style="stroke:#000000;stroke-width:0.8;" x="44.203125" xlink:href="#m4a592f2774" y="202.777875"/>
      </g>
     </g>
     <g id="text_12">
      <!-- 10 -->
      <g transform="translate(24.478125 206.577094)scale(0.1 -0.1)">
       <use xlink:href="#DejaVuSans-49"/>
       <use x="63.623047" xlink:href="#DejaVuSans-48"/>
      </g>
     </g>
    </g>
    <g id="ytick_3">
     <g id="line2d_12">
      <g>
       <use style="stroke:#000000;stroke-width:0.8;" x="44.203125" xlink:href="#m4a592f2774" y="158.712"/>
      </g>
     </g>
     <g id="text_13">
      <!-- 20 -->
      <g transform="translate(24.478125 162.511219)scale(0.1 -0.1)">
       <use xlink:href="#DejaVuSans-50"/>
       <use x="63.623047" xlink:href="#DejaVuSans-48"/>
      </g>
     </g>
    </g>
    <g id="ytick_4">
     <g id="line2d_13">
      <g>
       <use style="stroke:#000000;stroke-width:0.8;" x="44.203125" xlink:href="#m4a592f2774" y="114.646125"/>
      </g>
     </g>
     <g id="text_14">
      <!-- 30 -->
      <defs>
       <path d="M 40.578125 39.3125 
Q 47.65625 37.796875 51.625 33 
Q 55.609375 28.21875 55.609375 21.1875 
Q 55.609375 10.40625 48.1875 4.484375 
Q 40.765625 -1.421875 27.09375 -1.421875 
Q 22.515625 -1.421875 17.65625 -0.515625 
Q 12.796875 0.390625 7.625 2.203125 
L 7.625 11.71875 
Q 11.71875 9.328125 16.59375 8.109375 
Q 21.484375 6.890625 26.8125 6.890625 
Q 36.078125 6.890625 40.9375 10.546875 
Q 45.796875 14.203125 45.796875 21.1875 
Q 45.796875 27.640625 41.28125 31.265625 
Q 36.765625 34.90625 28.71875 34.90625 
L 20.21875 34.90625 
L 20.21875 43.015625 
L 29.109375 43.015625 
Q 36.375 43.015625 40.234375 45.921875 
Q 44.09375 48.828125 44.09375 54.296875 
Q 44.09375 59.90625 40.109375 62.90625 
Q 36.140625 65.921875 28.71875 65.921875 
Q 24.65625 65.921875 20.015625 65.03125 
Q 15.375 64.15625 9.8125 62.3125 
L 9.8125 71.09375 
Q 15.4375 72.65625 20.34375 73.4375 
Q 25.25 74.21875 29.59375 74.21875 
Q 40.828125 74.21875 47.359375 69.109375 
Q 53.90625 64.015625 53.90625 55.328125 
Q 53.90625 49.265625 50.4375 45.09375 
Q 46.96875 40.921875 40.578125 39.3125 
z
" id="DejaVuSans-51"/>
      </defs>
      <g transform="translate(24.478125 118.445344)scale(0.1 -0.1)">
       <use xlink:href="#DejaVuSans-51"/>
       <use x="63.623047" xlink:href="#DejaVuSans-48"/>
      </g>
     </g>
    </g>
    <g id="ytick_5">
     <g id="line2d_14">
      <g>
       <use style="stroke:#000000;stroke-width:0.8;" x="44.203125" xlink:href="#m4a592f2774" y="70.58025"/>
      </g>
     </g>
     <g id="text_15">
      <!-- 40 -->
      <defs>
       <path d="M 37.796875 64.3125 
L 12.890625 25.390625 
L 37.796875 25.390625 
z
M 35.203125 72.90625 
L 47.609375 72.90625 
L 47.609375 25.390625 
L 58.015625 25.390625 
L 58.015625 17.1875 
L 47.609375 17.1875 
L 47.609375 0 
L 37.796875 0 
L 37.796875 17.1875 
L 4.890625 17.1875 
L 4.890625 26.703125 
z
" id="DejaVuSans-52"/>
      </defs>
      <g transform="translate(24.478125 74.379469)scale(0.1 -0.1)">
       <use xlink:href="#DejaVuSans-52"/>
       <use x="63.623047" xlink:href="#DejaVuSans-48"/>
      </g>
     </g>
    </g>
    <g id="ytick_6">
     <g id="line2d_15">
      <g>
       <use style="stroke:#000000;stroke-width:0.8;" x="44.203125" xlink:href="#m4a592f2774" y="26.514375"/>
      </g>
     </g>
     <g id="text_16">
      <!-- 50 -->
      <g transform="translate(24.478125 30.313594)scale(0.1 -0.1)">
       <use xlink:href="#DejaVuSans-53"/>
       <use x="63.623047" xlink:href="#DejaVuSans-48"/>
      </g>
     </g>
    </g>
    <g id="text_17">
     <!-- frequency -->
     <defs>
      <path d="M 37.109375 75.984375 
L 37.109375 68.5 
L 28.515625 68.5 
Q 23.6875 68.5 21.796875 66.546875 
Q 19.921875 64.59375 19.921875 59.515625 
L 19.921875 54.6875 
L 34.71875 54.6875 
L 34.71875 47.703125 
L 19.921875 47.703125 
L 19.921875 0 
L 10.890625 0 
L 10.890625 47.703125 
L 2.296875 47.703125 
L 2.296875 54.6875 
L 10.890625 54.6875 
L 10.890625 58.5 
Q 10.890625 67.625 15.140625 71.796875 
Q 19.390625 75.984375 28.609375 75.984375 
z
" id="DejaVuSans-102"/>
      <path d="M 41.109375 46.296875 
Q 39.59375 47.171875 37.8125 47.578125 
Q 36.03125 48 33.890625 48 
Q 26.265625 48 22.1875 43.046875 
Q 18.109375 38.09375 18.109375 28.8125 
L 18.109375 0 
L 9.078125 0 
L 9.078125 54.6875 
L 18.109375 54.6875 
L 18.109375 46.1875 
Q 20.953125 51.171875 25.484375 53.578125 
Q 30.03125 56 36.53125 56 
Q 37.453125 56 38.578125 55.875 
Q 39.703125 55.765625 41.0625 55.515625 
z
" id="DejaVuSans-114"/>
      <path d="M 14.796875 27.296875 
Q 14.796875 17.390625 18.875 11.75 
Q 22.953125 6.109375 30.078125 6.109375 
Q 37.203125 6.109375 41.296875 11.75 
Q 45.40625 17.390625 45.40625 27.296875 
Q 45.40625 37.203125 41.296875 42.84375 
Q 37.203125 48.484375 30.078125 48.484375 
Q 22.953125 48.484375 18.875 42.84375 
Q 14.796875 37.203125 14.796875 27.296875 
z
M 45.40625 8.203125 
Q 42.578125 3.328125 38.25 0.953125 
Q 33.9375 -1.421875 27.875 -1.421875 
Q 17.96875 -1.421875 11.734375 6.484375 
Q 5.515625 14.40625 5.515625 27.296875 
Q 5.515625 40.1875 11.734375 48.09375 
Q 17.96875 56 27.875 56 
Q 33.9375 56 38.25 53.625 
Q 42.578125 51.265625 45.40625 46.390625 
L 45.40625 54.6875 
L 54.390625 54.6875 
L 54.390625 -20.796875 
L 45.40625 -20.796875 
z
" id="DejaVuSans-113"/>
      <path d="M 8.5 21.578125 
L 8.5 54.6875 
L 17.484375 54.6875 
L 17.484375 21.921875 
Q 17.484375 14.15625 20.5 10.265625 
Q 23.53125 6.390625 29.59375 6.390625 
Q 36.859375 6.390625 41.078125 11.03125 
Q 45.3125 15.671875 45.3125 23.6875 
L 45.3125 54.6875 
L 54.296875 54.6875 
L 54.296875 0 
L 45.3125 0 
L 45.3125 8.40625 
Q 42.046875 3.421875 37.71875 1 
Q 33.40625 -1.421875 27.6875 -1.421875 
Q 18.265625 -1.421875 13.375 4.4375 
Q 8.5 10.296875 8.5 21.578125 
z
M 31.109375 56 
z
" id="DejaVuSans-117"/>
      <path d="M 54.890625 33.015625 
L 54.890625 0 
L 45.90625 0 
L 45.90625 32.71875 
Q 45.90625 40.484375 42.875 44.328125 
Q 39.84375 48.1875 33.796875 48.1875 
Q 26.515625 48.1875 22.3125 43.546875 
Q 18.109375 38.921875 18.109375 30.90625 
L 18.109375 0 
L 9.078125 0 
L 9.078125 54.6875 
L 18.109375 54.6875 
L 18.109375 46.1875 
Q 21.34375 51.125 25.703125 53.5625 
Q 30.078125 56 35.796875 56 
Q 45.21875 56 50.046875 50.171875 
Q 54.890625 44.34375 54.890625 33.015625 
z
" id="DejaVuSans-110"/>
      <path d="M 32.171875 -5.078125 
Q 28.375 -14.84375 24.75 -17.8125 
Q 21.140625 -20.796875 15.09375 -20.796875 
L 7.90625 -20.796875 
L 7.90625 -13.28125 
L 13.1875 -13.28125 
Q 16.890625 -13.28125 18.9375 -11.515625 
Q 21 -9.765625 23.484375 -3.21875 
L 25.09375 0.875 
L 2.984375 54.6875 
L 12.5 54.6875 
L 29.59375 11.921875 
L 46.6875 54.6875 
L 56.203125 54.6875 
z
" id="DejaVuSans-121"/>
     </defs>
     <g transform="translate(18.398438 161.755625)rotate(-90)scale(0.1 -0.1)">
      <use xlink:href="#DejaVuSans-102"/>
      <use x="35.205078" xlink:href="#DejaVuSans-114"/>
      <use x="74.068359" xlink:href="#DejaVuSans-101"/>
      <use x="135.591797" xlink:href="#DejaVuSans-113"/>
      <use x="199.068359" xlink:href="#DejaVuSans-117"/>
      <use x="262.447266" xlink:href="#DejaVuSans-101"/>
      <use x="323.970703" xlink:href="#DejaVuSans-110"/>
      <use x="387.349609" xlink:href="#DejaVuSans-99"/>
      <use x="442.330078" xlink:href="#DejaVuSans-121"/>
     </g>
    </g>
   </g>
   <g id="LineCollection_1">
    <path clip-path="url(#p3ffd16a374)" d="M 292.855993 246.84375 
L 292.855993 26.514375 
" style="fill:none;stroke:#000000;stroke-width:0.5;"/>
   </g>
   <g id="line2d_16">
    <path clip-path="url(#p3ffd16a374)" d="M 215.710568 246.783337 
L 218.859361 246.729208 
L 222.008153 246.632293 
L 225.156946 246.463647 
L 228.305739 246.178469 
L 231.454532 245.709961 
L 234.603325 244.962341 
L 237.752118 243.80386 
L 240.900911 242.061239 
L 244.049703 239.517566 
L 247.198496 235.916189 
L 250.347289 230.973187 
L 253.496082 224.400536 
L 256.644875 215.940696 
L 259.793668 205.411226 
L 262.942461 192.75524 
L 266.091254 178.09065 
L 269.240046 161.748918 
L 272.388839 144.293263 
L 275.537632 126.507659 
L 278.686425 109.35166 
L 281.835218 93.881887 
L 284.984011 81.147662 
L 288.132804 72.074517 
L 291.281596 67.353302 
L 294.430389 67.353302 
L 297.579182 72.074517 
L 300.727975 81.147662 
L 303.876768 93.881887 
L 307.025561 109.35166 
L 310.174354 126.507659 
L 313.323147 144.293263 
L 316.471939 161.748918 
L 319.620732 178.09065 
L 322.769525 192.75524 
L 325.918318 205.411226 
L 329.067111 215.940696 
L 332.215904 224.400536 
L 335.364697 230.973187 
L 338.513489 235.916189 
L 341.662282 239.517566 
L 344.811075 242.061239 
L 347.959868 243.80386 
L 351.108661 244.962341 
L 354.257454 245.709961 
L 357.406247 246.178469 
L 360.555039 246.463647 
L 363.703832 246.632293 
L 366.852625 246.729208 
L 370.001418 246.783337 
" style="fill:none;stroke:#ff7f0e;stroke-linecap:square;stroke-width:0.8;"/>
   </g>
   <g id="patch_43">
    <path d="M 44.203125 246.84375 
L 44.203125 26.514375 
" style="fill:none;stroke:#000000;stroke-linecap:square;stroke-linejoin:miter;stroke-width:0.8;"/>
   </g>
   <g id="patch_44">
    <path d="M 554.067188 246.84375 
L 554.067188 26.514375 
" style="fill:none;stroke:#000000;stroke-linecap:square;stroke-linejoin:miter;stroke-width:0.8;"/>
   </g>
   <g id="patch_45">
    <path d="M 44.203125 246.84375 
L 554.067188 246.84375 
" style="fill:none;stroke:#000000;stroke-linecap:square;stroke-linejoin:miter;stroke-width:0.8;"/>
   </g>
   <g id="patch_46">
    <path d="M 44.203125 26.514375 
L 554.067188 26.514375 
" style="fill:none;stroke:#000000;stroke-linecap:square;stroke-linejoin:miter;stroke-width:0.8;"/>
   </g>
   <g id="text_18">
    <!-- avg.=-0.0246 -->
    <defs>
     <path d="M 34.28125 27.484375 
Q 23.390625 27.484375 19.1875 25 
Q 14.984375 22.515625 14.984375 16.5 
Q 14.984375 11.71875 18.140625 8.90625 
Q 21.296875 6.109375 26.703125 6.109375 
Q 34.1875 6.109375 38.703125 11.40625 
Q 43.21875 16.703125 43.21875 25.484375 
L 43.21875 27.484375 
z
M 52.203125 31.203125 
L 52.203125 0 
L 43.21875 0 
L 43.21875 8.296875 
Q 40.140625 3.328125 35.546875 0.953125 
Q 30.953125 -1.421875 24.3125 -1.421875 
Q 15.921875 -1.421875 10.953125 3.296875 
Q 6 8.015625 6 15.921875 
Q 6 25.140625 12.171875 29.828125 
Q 18.359375 34.515625 30.609375 34.515625 
L 43.21875 34.515625 
L 43.21875 35.40625 
Q 43.21875 41.609375 39.140625 45 
Q 35.0625 48.390625 27.6875 48.390625 
Q 23 48.390625 18.546875 47.265625 
Q 14.109375 46.140625 10.015625 43.890625 
L 10.015625 52.203125 
Q 14.9375 54.109375 19.578125 55.046875 
Q 24.21875 56 28.609375 56 
Q 40.484375 56 46.34375 49.84375 
Q 52.203125 43.703125 52.203125 31.203125 
z
" id="DejaVuSans-97"/>
     <path d="M 2.984375 54.6875 
L 12.5 54.6875 
L 29.59375 8.796875 
L 46.6875 54.6875 
L 56.203125 54.6875 
L 35.6875 0 
L 23.484375 0 
z
" id="DejaVuSans-118"/>
     <path d="M 45.40625 27.984375 
Q 45.40625 37.75 41.375 43.109375 
Q 37.359375 48.484375 30.078125 48.484375 
Q 22.859375 48.484375 18.828125 43.109375 
Q 14.796875 37.75 14.796875 27.984375 
Q 14.796875 18.265625 18.828125 12.890625 
Q 22.859375 7.515625 30.078125 7.515625 
Q 37.359375 7.515625 41.375 12.890625 
Q 45.40625 18.265625 45.40625 27.984375 
z
M 54.390625 6.78125 
Q 54.390625 -7.171875 48.1875 -13.984375 
Q 42 -20.796875 29.203125 -20.796875 
Q 24.46875 -20.796875 20.265625 -20.09375 
Q 16.0625 -19.390625 12.109375 -17.921875 
L 12.109375 -9.1875 
Q 16.0625 -11.328125 19.921875 -12.34375 
Q 23.78125 -13.375 27.78125 -13.375 
Q 36.625 -13.375 41.015625 -8.765625 
Q 45.40625 -4.15625 45.40625 5.171875 
L 45.40625 9.625 
Q 42.625 4.78125 38.28125 2.390625 
Q 33.9375 0 27.875 0 
Q 17.828125 0 11.671875 7.65625 
Q 5.515625 15.328125 5.515625 27.984375 
Q 5.515625 40.671875 11.671875 48.328125 
Q 17.828125 56 27.875 56 
Q 33.9375 56 38.28125 53.609375 
Q 42.625 51.21875 45.40625 46.390625 
L 45.40625 54.6875 
L 54.390625 54.6875 
z
" id="DejaVuSans-103"/>
     <path d="M 10.59375 45.40625 
L 73.1875 45.40625 
L 73.1875 37.203125 
L 10.59375 37.203125 
z
M 10.59375 25.484375 
L 73.1875 25.484375 
L 73.1875 17.1875 
L 10.59375 17.1875 
z
" id="DejaVuSans-61"/>
     <path d="M 4.890625 31.390625 
L 31.203125 31.390625 
L 31.203125 23.390625 
L 4.890625 23.390625 
z
" id="DejaVuSans-45"/>
     <path d="M 33.015625 40.375 
Q 26.375 40.375 22.484375 35.828125 
Q 18.609375 31.296875 18.609375 23.390625 
Q 18.609375 15.53125 22.484375 10.953125 
Q 26.375 6.390625 33.015625 6.390625 
Q 39.65625 6.390625 43.53125 10.953125 
Q 47.40625 15.53125 47.40625 23.390625 
Q 47.40625 31.296875 43.53125 35.828125 
Q 39.65625 40.375 33.015625 40.375 
z
M 52.59375 71.296875 
L 52.59375 62.3125 
Q 48.875 64.0625 45.09375 64.984375 
Q 41.3125 65.921875 37.59375 65.921875 
Q 27.828125 65.921875 22.671875 59.328125 
Q 17.53125 52.734375 16.796875 39.40625 
Q 19.671875 43.65625 24.015625 45.921875 
Q 28.375 48.1875 33.59375 48.1875 
Q 44.578125 48.1875 50.953125 41.515625 
Q 57.328125 34.859375 57.328125 23.390625 
Q 57.328125 12.15625 50.6875 5.359375 
Q 44.046875 -1.421875 33.015625 -1.421875 
Q 20.359375 -1.421875 13.671875 8.265625 
Q 6.984375 17.96875 6.984375 36.375 
Q 6.984375 53.65625 15.1875 63.9375 
Q 23.390625 74.21875 37.203125 74.21875 
Q 40.921875 74.21875 44.703125 73.484375 
Q 48.484375 72.75 52.59375 71.296875 
z
" id="DejaVuSans-54"/>
    </defs>
    <g transform="translate(343.842399 114.646125)scale(0.1 -0.1)">
     <use xlink:href="#DejaVuSans-97"/>
     <use x="61.279297" xlink:href="#DejaVuSans-118"/>
     <use x="120.458984" xlink:href="#DejaVuSans-103"/>
     <use x="183.935547" xlink:href="#DejaVuSans-46"/>
     <use x="215.722656" xlink:href="#DejaVuSans-61"/>
     <use x="299.511719" xlink:href="#DejaVuSans-45"/>
     <use x="335.595703" xlink:href="#DejaVuSans-48"/>
     <use x="399.21875" xlink:href="#DejaVuSans-46"/>
     <use x="431.005859" xlink:href="#DejaVuSans-48"/>
     <use x="494.628906" xlink:href="#DejaVuSans-50"/>
     <use x="558.251953" xlink:href="#DejaVuSans-52"/>
     <use x="621.875" xlink:href="#DejaVuSans-54"/>
    </g>
   </g>
   <g id="text_19">
    <!-- std.=0.0757 -->
    <defs>
     <path d="M 45.40625 46.390625 
L 45.40625 75.984375 
L 54.390625 75.984375 
L 54.390625 0 
L 45.40625 0 
L 45.40625 8.203125 
Q 42.578125 3.328125 38.25 0.953125 
Q 33.9375 -1.421875 27.875 -1.421875 
Q 17.96875 -1.421875 11.734375 6.484375 
Q 5.515625 14.40625 5.515625 27.296875 
Q 5.515625 40.1875 11.734375 48.09375 
Q 17.96875 56 27.875 56 
Q 33.9375 56 38.25 53.625 
Q 42.578125 51.265625 45.40625 46.390625 
z
M 14.796875 27.296875 
Q 14.796875 17.390625 18.875 11.75 
Q 22.953125 6.109375 30.078125 6.109375 
Q 37.203125 6.109375 41.296875 11.75 
Q 45.40625 17.390625 45.40625 27.296875 
Q 45.40625 37.203125 41.296875 42.84375 
Q 37.203125 48.484375 30.078125 48.484375 
Q 22.953125 48.484375 18.875 42.84375 
Q 14.796875 37.203125 14.796875 27.296875 
z
" id="DejaVuSans-100"/>
    </defs>
    <g transform="translate(343.842399 132.272475)scale(0.1 -0.1)">
     <use xlink:href="#DejaVuSans-115"/>
     <use x="52.099609" xlink:href="#DejaVuSans-116"/>
     <use x="91.308594" xlink:href="#DejaVuSans-100"/>
     <use x="154.785156" xlink:href="#DejaVuSans-46"/>
     <use x="186.572266" xlink:href="#DejaVuSans-61"/>
     <use x="270.361328" xlink:href="#DejaVuSans-48"/>
     <use x="333.984375" xlink:href="#DejaVuSans-46"/>
     <use x="365.771484" xlink:href="#DejaVuSans-48"/>
     <use x="429.394531" xlink:href="#DejaVuSans-55"/>
     <use x="493.017578" xlink:href="#DejaVuSans-53"/>
     <use x="556.640625" xlink:href="#DejaVuSans-55"/>
    </g>
   </g>
   <g id="text_20">
    <!-- 弾着予想時間との差 (弾速 80%) -->
    <defs>
     <path d="M 66.0625 26.375 
L 66.0625 15.828125 
L 80.5625 15.828125 
L 94.671875 16.015625 
Q 95.359375 16.015625 95.359375 15.328125 
L 95.359375 12.3125 
Q 95.359375 11.625 94.671875 11.625 
L 80.5625 11.8125 
L 66.0625 11.8125 
L 66.0625 8.40625 
L 66.265625 -6.109375 
Q 66.265625 -6.78125 65.578125 -6.78125 
L 62.25 -6.78125 
Q 61.578125 -6.78125 61.578125 -6.109375 
L 61.765625 8.40625 
L 61.765625 11.8125 
L 49.5625 11.8125 
L 35.59375 11.625 
Q 34.859375 11.625 34.859375 12.3125 
L 34.859375 15.328125 
Q 34.859375 16.015625 35.59375 16.015625 
L 49.5625 15.828125 
L 61.765625 15.828125 
L 61.765625 26.375 
L 54.046875 26.375 
L 40.96875 26.171875 
Q 40.28125 26.171875 40.28125 26.859375 
L 40.484375 36.578125 
L 40.484375 51.515625 
L 40.28125 61.234375 
Q 40.28125 61.921875 40.96875 61.921875 
L 54.046875 61.71875 
L 74.75 61.71875 
L 87.796875 61.921875 
Q 88.484375 61.921875 88.484375 61.234375 
L 88.28125 51.515625 
L 88.28125 36.578125 
L 88.484375 26.859375 
Q 88.484375 26.171875 87.796875 26.171875 
L 74.75 26.375 
z
M 61.765625 46.1875 
L 61.765625 57.90625 
L 44.671875 57.90625 
L 44.671875 46.1875 
z
M 61.765625 42.484375 
L 44.671875 42.484375 
L 44.671875 30.171875 
L 61.765625 30.171875 
z
M 66.0625 46.1875 
L 84.078125 46.1875 
L 84.078125 57.90625 
L 66.0625 57.90625 
z
M 66.0625 42.484375 
L 66.0625 30.171875 
L 84.078125 30.171875 
L 84.078125 42.484375 
z
M 11.765625 30.71875 
Q 11.578125 29.296875 10.984375 26.515625 
Q 10.75 25.484375 10.203125 25.484375 
Q 9.8125 25.484375 8.40625 25.78125 
Q 6.34375 26.265625 6.34375 26.8125 
Q 6.34375 27 6.5 27.59375 
Q 8.84375 37.15625 10.0625 47.515625 
Q 10.40625 50.640625 10.40625 52.734375 
L 10.40625 54.296875 
Q 10.40625 55.078125 11.1875 55.078125 
L 17.484375 54.890625 
L 27.875 54.890625 
L 27.875 72.796875 
L 15.96875 72.796875 
L 7.671875 72.609375 
Q 6.984375 72.609375 6.984375 73.296875 
L 6.984375 76.3125 
Q 6.984375 77 7.671875 77 
L 15.96875 76.8125 
L 23.6875 76.8125 
L 31.6875 77 
Q 32.46875 77 32.46875 76.3125 
L 32.28125 67.921875 
L 32.28125 59.765625 
L 32.46875 51.46875 
Q 32.46875 50.78125 31.6875 50.78125 
L 23.6875 50.984375 
L 14.796875 50.984375 
Q 13.671875 41.40625 12.5 34.625 
L 24.171875 34.625 
L 31.34375 34.8125 
Q 32.171875 34.8125 32.171875 34.125 
Q 32.171875 34.03125 32.171875 33.9375 
Q 31.890625 32.125 31.640625 28.71875 
Q 30.078125 5.609375 26.5625 -0.875 
Q 24.21875 -5.078125 18.65625 -5.078125 
Q 14.796875 -5.078125 12.3125 -4.890625 
Q 11.140625 -4.78125 10.9375 -4.546875 
Q 10.6875 -4.25 10.5 -3.078125 
Q 10.203125 -1.5625 9.375 0.09375 
Q 13.765625 -0.59375 17.671875 -0.59375 
Q 21.046875 -0.59375 22.5625 1.421875 
Q 25.640625 5.8125 27.390625 30.71875 
z
M 77.09375 66.109375 
Q 81.15625 72.125 83.796875 77.6875 
Q 84.671875 79.6875 85.203125 82.171875 
Q 87.359375 81.546875 89.703125 80.421875 
Q 90.484375 79.9375 90.484375 79.390625 
Q 90.484375 78.8125 89.59375 78.21875 
Q 88.671875 77.546875 87.703125 75.59375 
Q 84.765625 70.015625 81.984375 65.921875 
Q 81.296875 64.84375 80.8125 64.84375 
Q 80.46875 64.84375 79.6875 65.328125 
Q 78.609375 65.921875 77.09375 66.109375 
z
M 42.390625 80.8125 
Q 45.90625 76.265625 49.359375 68.890625 
Q 49.515625 68.5625 49.515625 68.359375 
Q 49.515625 67.96875 48.484375 67.484375 
L 46.78125 66.703125 
Q 45.84375 66.265625 45.609375 66.265625 
Q 45.3125 66.265625 45.0625 66.890625 
Q 42.671875 73.046875 38.484375 78.71875 
Q 38.1875 79.046875 38.1875 79.25 
Q 38.1875 79.546875 39.3125 80.078125 
L 40.96875 80.90625 
Q 41.65625 81.25 41.796875 81.25 
Q 42.046875 81.25 42.390625 80.8125 
z
M 61.859375 81.78125 
Q 65.4375 76.65625 67.78125 69.28125 
Q 67.875 69.09375 67.875 69 
Q 67.875 68.703125 66.890625 68.3125 
L 65.28125 67.671875 
Q 64.265625 67.234375 64.015625 67.234375 
Q 63.71875 67.234375 63.578125 67.78125 
Q 61.46875 74.5625 57.953125 80.078125 
Q 57.765625 80.421875 57.765625 80.5625 
Q 57.765625 80.8125 58.890625 81.296875 
L 60.5 81.890625 
Q 61.1875 82.171875 61.328125 82.171875 
Q 61.625 82.171875 61.859375 81.78125 
z
" id="YuGothic-Regular-24382"/>
     <path d="M 47.078125 47.703125 
L 47.078125 56.390625 
L 32.28125 56.390625 
L 18.0625 56.203125 
Q 17.484375 56.203125 17.484375 56.890625 
L 17.484375 59.625 
Q 17.484375 60.296875 18.0625 60.296875 
L 32.28125 60.109375 
L 47.078125 60.109375 
L 47.078125 68.109375 
L 27.6875 68.109375 
L 13.578125 67.921875 
Q 12.890625 67.921875 12.890625 68.609375 
L 12.890625 71.4375 
Q 12.890625 72.125 13.578125 72.125 
L 27.6875 71.921875 
L 36.1875 71.921875 
Q 33.34375 76.765625 29.78125 80.609375 
Q 29.4375 80.953125 29.4375 81.15625 
Q 29.4375 81.453125 30.375 81.9375 
L 31.890625 82.71875 
Q 32.5625 83.015625 32.8125 83.015625 
Q 33.109375 83.015625 33.40625 82.71875 
Q 37.796875 77.9375 41.0625 71.921875 
L 58.40625 71.921875 
Q 59.90625 74.078125 62.59375 79.4375 
Q 63.421875 81.296875 63.875 83.34375 
Q 66.109375 82.859375 68.0625 82.125 
Q 69.09375 81.6875 69.09375 81.109375 
Q 69.09375 80.609375 68.265625 80.03125 
Q 67.625 79.59375 66.546875 77.9375 
Q 64.65625 74.515625 62.796875 71.921875 
L 72.5625 71.921875 
L 86.578125 72.125 
Q 87.25 72.125 87.25 71.4375 
L 87.25 68.609375 
Q 87.25 67.921875 86.578125 67.921875 
L 72.5625 68.109375 
L 51.46875 68.109375 
L 51.46875 60.109375 
L 66.546875 60.109375 
L 80.765625 60.296875 
Q 81.453125 60.296875 81.453125 59.625 
L 81.453125 56.890625 
Q 81.453125 56.203125 80.765625 56.203125 
L 66.546875 56.390625 
L 51.46875 56.390625 
L 51.46875 47.703125 
L 78.65625 47.703125 
L 92.046875 47.90625 
Q 92.78125 47.90625 92.78125 47.21875 
L 92.78125 44.390625 
Q 92.78125 43.703125 92.046875 43.703125 
L 78.65625 43.890625 
L 35.296875 43.890625 
Q 33.9375 39.359375 32.671875 36.078125 
L 65.875 36.078125 
L 79.6875 36.28125 
Q 80.375 36.28125 80.375 35.59375 
L 80.171875 22.796875 
L 80.171875 13.03125 
L 80.375 -6.203125 
Q 80.375 -6.78125 79.6875 -6.78125 
L 76.46875 -6.78125 
Q 75.78125 -6.78125 75.78125 -6.203125 
L 75.78125 -1.703125 
L 35.296875 -1.703125 
L 35.296875 -6.5 
Q 35.296875 -7.125 34.578125 -7.125 
L 31.6875 -7.125 
Q 31 -7.125 31 -6.5 
L 31.203125 13.234375 
L 31.203125 32.5625 
Q 23.578125 15.1875 9.671875 3.125 
Q 8.734375 2.34375 8.453125 2.34375 
Q 8.0625 2.34375 7.171875 3.21875 
Q 6.0625 4.34375 4.59375 4.984375 
Q 24.171875 20.453125 30.8125 43.890625 
L 20.609375 43.890625 
L 7.171875 43.703125 
Q 6.5 43.703125 6.5 44.390625 
L 6.5 47.21875 
Q 6.5 47.90625 7.171875 47.90625 
L 20.609375 47.703125 
z
M 35.296875 10.296875 
L 35.296875 2.09375 
L 75.78125 2.09375 
L 75.78125 10.296875 
z
M 35.296875 13.71875 
L 75.78125 13.71875 
L 75.78125 21.390625 
L 35.296875 21.390625 
z
M 35.296875 24.8125 
L 75.78125 24.8125 
L 75.78125 32.28125 
L 35.296875 32.28125 
z
" id="YuGothic-Regular-30528"/>
     <path d="M 55.46875 44.921875 
Q 46.578125 53.953125 33.796875 61.140625 
Q 33.296875 61.375 33.296875 61.578125 
Q 33.296875 61.71875 33.984375 62.59375 
L 35.15625 64.015625 
Q 35.640625 64.546875 35.9375 64.546875 
Q 36.078125 64.546875 36.375 64.40625 
Q 43.3125 60.59375 48.96875 56.390625 
Q 66.109375 65.71875 73.4375 72.3125 
L 32.5625 72.3125 
L 18.359375 72.125 
Q 17.78125 72.125 17.78125 72.796875 
L 17.78125 76.3125 
Q 17.78125 77 18.359375 77 
L 32.5625 76.8125 
L 74.65625 76.8125 
Q 76.21875 76.8125 76.953125 77.09375 
Q 77.984375 77.484375 78.171875 77.484375 
Q 79 77.484375 80.671875 75.6875 
Q 82.46875 73.875 82.46875 72.90625 
Q 82.46875 72.21875 81.25 71.6875 
Q 79.390625 71.046875 77.78125 69.734375 
Q 68.703125 61.96875 52.78125 53.609375 
Q 56.34375 50.78125 59.46875 47.796875 
Q 59.71875 47.5625 59.71875 47.40625 
Q 59.71875 47.171875 58.9375 46.53125 
L 57.171875 44.921875 
L 84.765625 44.921875 
Q 86.671875 44.921875 87.25 45.21875 
Q 88.03125 45.609375 88.375 45.609375 
Q 89.109375 45.609375 90.96875 44 
Q 92.578125 42.671875 92.578125 41.890625 
Q 92.578125 41.015625 91.453125 40.53125 
Q 90.1875 39.890625 87.890625 37.3125 
Q 82.171875 30.71875 75.25 25.484375 
Q 74.421875 24.859375 74.078125 24.859375 
Q 73.734375 24.859375 72.65625 25.734375 
Q 71.4375 26.609375 69.4375 27.4375 
Q 78.46875 33.203125 84.28125 40.328125 
L 53.859375 40.328125 
L 53.859375 16.40625 
L 53.953125 3.421875 
Q 53.953125 0.296875 53.375 -1.171875 
Q 52.828125 -2.390625 51.5625 -3.375 
Q 49.421875 -5.03125 41.546875 -5.03125 
Q 39.984375 -5.03125 38.09375 -4.984375 
Q 36.765625 -4.984375 36.46875 -4.734375 
Q 36.28125 -4.5 35.984375 -3.265625 
Q 35.546875 -1.515625 34.375 0.296875 
Q 39.015625 -0.203125 44.1875 -0.203125 
Q 47.171875 -0.203125 48.09375 0.734375 
Q 48.96875 1.5625 48.96875 3.8125 
L 48.96875 40.328125 
L 23.390625 40.328125 
L 9.765625 40.140625 
Q 9.078125 40.140625 9.078125 40.828125 
L 9.078125 44.4375 
Q 9.078125 45.125 9.765625 45.125 
L 23.390625 44.921875 
z
" id="YuGothic-Regular-20104"/>
     <path d="M 30.5625 58.109375 
Q 30.71875 47.265625 30.953125 35.359375 
L 31.0625 28.859375 
Q 31.109375 27.09375 31.109375 26.90625 
Q 31.109375 26.125 30.375 26.125 
L 27 26.125 
Q 26.265625 26.125 26.265625 26.90625 
Q 26.265625 27.09375 26.46875 37.3125 
Q 26.703125 48.140625 26.90625 57.515625 
Q 20.75 44.390625 9.375 35.203125 
Q 8.640625 34.578125 8.296875 34.578125 
Q 7.90625 34.578125 7.171875 35.59375 
Q 6.296875 36.859375 4.78125 37.703125 
Q 18.40625 47.3125 25.6875 61.921875 
L 19.875 61.921875 
L 8.59375 61.71875 
Q 7.859375 61.71875 7.859375 62.40625 
L 7.859375 65.1875 
Q 7.859375 65.921875 8.59375 65.921875 
L 19.875 65.71875 
L 26.46875 65.71875 
L 26.46875 72.703125 
Q 26.46875 79.4375 25.875 82.078125 
Q 28.375 81.984375 30.765625 81.59375 
Q 31.78125 81.453125 31.78125 80.8125 
Q 31.78125 80.421875 31.390625 79.203125 
Q 30.90625 77.6875 30.90625 72.703125 
L 30.90625 65.71875 
L 34.1875 65.71875 
L 45.359375 65.921875 
Q 46.09375 65.921875 46.09375 65.1875 
L 46.09375 62.40625 
Q 46.09375 61.71875 45.359375 61.71875 
L 34.1875 61.921875 
L 31.296875 61.921875 
Q 38.140625 50.34375 46 44.28125 
Q 44.78125 43.5 44 42.1875 
Q 43.3125 41.21875 42.921875 41.21875 
Q 42.578125 41.21875 41.796875 42 
Q 35.203125 48.578125 30.5625 58.109375 
z
M 62.703125 77.296875 
L 75 77.296875 
L 85.890625 77.484375 
Q 86.578125 77.484375 86.578125 76.8125 
L 86.375 64.890625 
L 86.375 39.984375 
L 86.578125 28.078125 
Q 86.578125 27.390625 85.890625 27.390625 
L 75 27.59375 
L 62.703125 27.59375 
L 51.859375 27.390625 
Q 51.171875 27.390625 51.171875 28.078125 
L 51.375 39.984375 
L 51.375 64.890625 
L 51.171875 76.8125 
Q 51.171875 77.484375 51.859375 77.484375 
z
M 55.671875 43.703125 
L 55.671875 31.5 
L 81.984375 31.5 
L 81.984375 43.703125 
z
M 55.671875 47.515625 
L 81.984375 47.515625 
L 81.984375 58.59375 
L 55.671875 58.59375 
z
M 55.671875 62.40625 
L 81.984375 62.40625 
L 81.984375 73.296875 
L 55.671875 73.296875 
z
M 70.171875 12.109375 
Q 71.578125 10.984375 73.1875 10.40625 
Q 74.515625 9.859375 74.515625 9.078125 
Q 74.515625 8.796875 74.421875 8.109375 
Q 72.953125 0.09375 68.5 -2.296875 
Q 64.265625 -4.59375 51.171875 -4.59375 
Q 39.0625 -4.59375 36.1875 -2.875 
Q 33.984375 -1.515625 33.25 0.046875 
Q 32.375 1.859375 32.375 5.328125 
L 32.375 15.484375 
Q 32.375 20.0625 31.78125 23.1875 
Q 34.375 23.046875 36.765625 22.515625 
Q 37.890625 22.171875 37.890625 21.6875 
Q 37.890625 21.578125 37.40625 20.3125 
Q 36.859375 19.140625 36.859375 14.984375 
L 36.859375 6.59375 
Q 36.859375 2.390625 38.765625 1.125 
Q 41.3125 -0.390625 51.078125 -0.390625 
Q 62.703125 -0.390625 66.0625 1.703125 
Q 69.671875 3.71875 70.171875 12.109375 
z
M 81.390625 21.296875 
Q 88.234375 13.71875 93.265625 4.5 
Q 93.40625 4.25 93.40625 4.109375 
Q 93.40625 3.765625 92.28125 3.078125 
L 90.671875 2.09375 
Q 89.59375 1.421875 89.359375 1.421875 
Q 89.0625 1.421875 88.875 1.90625 
Q 83.640625 12.546875 77.59375 19.09375 
Q 77.390625 19.390625 77.390625 19.53125 
Q 77.390625 19.828125 78.375 20.40625 
L 79.890625 21.296875 
Q 80.5625 21.6875 80.8125 21.6875 
Q 81.109375 21.6875 81.390625 21.296875 
z
M 21.78125 17.828125 
Q 18.359375 7.8125 12.109375 0.09375 
Q 11.71875 -0.34375 11.421875 -0.34375 
Q 11.140625 -0.34375 10.40625 0.09375 
L 8.890625 1.125 
Q 7.71875 1.90625 7.71875 2.15625 
Q 7.71875 2.34375 8.0625 2.6875 
Q 14.84375 10.5 17.578125 19.578125 
Q 17.71875 20.125 18.0625 20.125 
Q 18.359375 20.125 19.390625 19.671875 
L 20.90625 19.09375 
Q 21.875 18.65625 21.875 18.21875 
Q 21.875 18.015625 21.78125 17.828125 
z
M 48.296875 25.78125 
Q 54.4375 21.046875 59.671875 13.8125 
Q 59.96875 13.375 59.96875 13.140625 
Q 59.96875 12.75 59.1875 12.203125 
L 57.765625 11.1875 
Q 56.84375 10.546875 56.5 10.546875 
Q 56.203125 10.546875 55.90625 10.984375 
Q 51.46875 18.109375 44.921875 23.484375 
Q 44.578125 23.78125 44.578125 23.921875 
Q 44.578125 24.21875 45.359375 24.8125 
L 46.78125 25.6875 
Q 47.3125 26.078125 47.65625 26.078125 
Q 47.953125 26.078125 48.296875 25.78125 
z
" id="YuGothic-Regular-24819"/>
     <path d="M 75.78125 29.109375 
L 52.203125 29.109375 
L 38.484375 28.90625 
Q 37.796875 28.90625 37.796875 29.59375 
L 37.796875 32.71875 
Q 37.796875 33.296875 38.484375 33.296875 
L 52.203125 33.203125 
L 75.78125 33.203125 
L 75.78125 33.890625 
Q 75.78125 41.359375 75.09375 44.578125 
Q 78.21875 44.4375 80.171875 44 
Q 81.390625 43.84375 81.390625 43.3125 
Q 81.390625 42.828125 80.765625 41.609375 
Q 80.28125 40.328125 80.28125 34.078125 
L 80.28125 33.203125 
L 92.875 33.296875 
Q 93.5625 33.296875 93.5625 32.71875 
L 93.5625 29.59375 
Q 93.5625 28.90625 92.875 28.90625 
L 80.28125 29.109375 
L 80.28125 14.203125 
L 80.375 1.3125 
Q 80.375 -3.078125 77.78125 -4.890625 
Q 75.59375 -6.390625 68.359375 -6.390625 
Q 67.875 -6.390625 66.703125 -6.390625 
Q 65.4375 -6.390625 65.1875 -6.15625 
Q 64.9375 -5.90625 64.59375 -4.78125 
Q 63.96875 -2.6875 62.890625 -1.3125 
Q 66.109375 -1.703125 69.875 -1.703125 
Q 70.90625 -1.703125 72.171875 -1.65625 
Q 75.78125 -1.65625 75.78125 2.203125 
z
M 15.1875 11.53125 
L 15.1875 3.03125 
Q 15.1875 2.4375 14.5 2.4375 
L 11.28125 2.4375 
Q 10.59375 2.4375 10.59375 3.03125 
L 10.796875 33.796875 
L 10.796875 52.875 
L 10.59375 76.125 
Q 10.59375 76.8125 11.28125 76.8125 
L 19.09375 76.609375 
L 25.484375 76.609375 
L 33.296875 76.8125 
Q 33.984375 76.8125 33.984375 76.125 
L 33.796875 55.90625 
L 33.796875 35.6875 
L 33.984375 6.34375 
Q 33.984375 5.609375 33.296875 5.609375 
L 30.171875 5.609375 
Q 29.5 5.609375 29.5 6.34375 
L 29.5 11.53125 
z
M 15.1875 46.78125 
L 29.5 46.78125 
L 29.5 72.515625 
L 15.1875 72.515625 
z
M 15.1875 42.78125 
L 15.1875 15.53125 
L 29.5 15.53125 
L 29.5 42.78125 
z
M 61.71875 50.59375 
L 61.71875 64.984375 
L 55.03125 64.984375 
L 42.140625 64.796875 
Q 41.3125 64.796875 41.3125 65.484375 
L 41.3125 68.5 
Q 41.3125 69.1875 42.140625 69.1875 
L 55.03125 69 
L 61.71875 69 
L 61.71875 69.484375 
Q 61.71875 78.421875 61.03125 82.375 
Q 62.890625 82.328125 66.21875 81.890625 
Q 67.1875 81.734375 67.1875 81.109375 
Q 67.1875 80.8125 66.796875 79.390625 
Q 66.21875 77.734375 66.21875 69.671875 
L 66.21875 69 
L 76.03125 69 
L 88.921875 69.1875 
Q 89.59375 69.1875 89.59375 68.5 
L 89.59375 65.484375 
Q 89.59375 64.796875 88.921875 64.796875 
L 76.03125 64.984375 
L 66.21875 64.984375 
L 66.21875 50.59375 
L 80.21875 50.59375 
L 94.09375 50.78125 
Q 94.828125 50.78125 94.828125 50.09375 
L 94.828125 47.078125 
Q 94.828125 46.390625 94.09375 46.390625 
L 80.21875 46.578125 
L 51.703125 46.578125 
L 37.9375 46.390625 
Q 37.203125 46.390625 37.203125 47.078125 
L 37.203125 50.09375 
Q 37.203125 50.78125 37.9375 50.78125 
L 51.703125 50.59375 
z
M 50.390625 22.40625 
Q 56.390625 17.140625 60.59375 10.109375 
Q 60.75 9.859375 60.75 9.625 
Q 60.75 9.28125 60.109375 8.796875 
L 58.40625 7.625 
Q 57.46875 6.984375 57.28125 6.984375 
Q 57.03125 6.984375 56.78125 7.421875 
Q 52.78125 14.453125 47.015625 19.921875 
Q 46.6875 20.171875 46.6875 20.359375 
Q 46.6875 20.65625 47.609375 21.296875 
L 48.96875 22.3125 
Q 49.609375 22.703125 49.859375 22.703125 
Q 50.046875 22.703125 50.390625 22.40625 
z
" id="YuGothic-Regular-26178"/>
     <path d="M 37.3125 8.203125 
L 37.3125 2.484375 
Q 37.3125 1.8125 36.625 1.8125 
L 33.59375 1.8125 
Q 32.90625 1.8125 32.90625 2.484375 
L 33.109375 20.015625 
L 33.109375 28.328125 
L 32.90625 39.59375 
Q 32.90625 40.28125 33.59375 40.28125 
L 43.890625 40.09375 
L 54.890625 40.09375 
L 65.1875 40.28125 
Q 65.765625 40.28125 65.765625 39.59375 
L 65.578125 29.6875 
L 65.578125 20.703125 
L 65.765625 3.609375 
Q 65.765625 2.875 65.1875 2.875 
L 62.0625 2.875 
Q 61.375 2.875 61.375 3.609375 
L 61.375 8.203125 
z
M 37.3125 26.3125 
L 61.375 26.3125 
L 61.375 36.28125 
L 37.3125 36.28125 
z
M 37.3125 22.515625 
L 37.3125 11.921875 
L 61.375 11.921875 
L 61.375 22.515625 
z
M 84.625 49.078125 
L 65.828125 49.078125 
L 55.078125 48.875 
Q 54.390625 48.875 54.390625 49.5625 
L 54.5 58.203125 
L 54.5 69.4375 
L 54.390625 78.03125 
Q 54.390625 78.71875 55.078125 78.71875 
L 65.828125 78.515625 
L 77.9375 78.515625 
L 88.625 78.71875 
Q 89.3125 78.71875 89.3125 78.03125 
L 89.109375 63.71875 
L 89.109375 17.1875 
L 89.40625 4.109375 
Q 89.40625 0.78125 88.765625 -0.78125 
Q 88.234375 -2 86.921875 -3.03125 
Q 84.71875 -4.734375 77.15625 -4.734375 
Q 76.515625 -4.734375 75 -4.734375 
Q 73.828125 -4.734375 73.578125 -4.5 
Q 73.390625 -4.296875 73.09375 -3.21875 
Q 72.5625 -1.3125 71.484375 0.203125 
Q 74.859375 -0.25 78.90625 -0.25 
Q 82.71875 -0.25 83.734375 0.875 
Q 84.625 1.859375 84.625 4.984375 
z
M 84.625 52.78125 
L 84.625 62.203125 
L 58.890625 62.203125 
L 58.890625 52.78125 
z
M 84.625 65.921875 
L 84.625 74.703125 
L 58.890625 74.703125 
L 58.890625 65.921875 
z
M 22.3125 78.515625 
L 33.40625 78.515625 
L 43.40625 78.71875 
Q 44.09375 78.71875 44.09375 78.03125 
L 43.890625 69 
L 43.890625 58.6875 
L 44.09375 49.5625 
Q 44.09375 48.875 43.40625 48.875 
L 33.40625 49.078125 
L 15.1875 49.078125 
L 15.1875 14.890625 
L 15.375 -5.421875 
Q 15.375 -6.109375 14.703125 -6.109375 
L 11.1875 -6.109375 
Q 10.5 -6.109375 10.5 -5.421875 
L 10.6875 14.890625 
L 10.6875 57.46875 
L 10.5 78.03125 
Q 10.5 78.71875 11.1875 78.71875 
z
M 15.1875 62.203125 
L 15.1875 52.78125 
L 39.5 52.78125 
L 39.5 62.203125 
z
M 15.1875 65.921875 
L 39.5 65.921875 
L 39.5 74.703125 
L 15.1875 74.703125 
z
" id="YuGothic-Regular-38291"/>
     <path d="M 33.890625 77.78125 
Q 37.796875 77.78125 40.765625 77 
Q 41.796875 76.765625 41.796875 75.984375 
L 41.15625 72.609375 
Q 41.15625 69.921875 41.65625 66.3125 
Q 42.96875 54.984375 46 44.921875 
Q 48.4375 46.1875 56.109375 50 
Q 61.625 52.78125 64.890625 54.5 
Q 68.5 56.390625 70.265625 58.6875 
Q 72.953125 56.34375 74.703125 54 
Q 75.046875 53.5625 75.046875 53.03125 
Q 75.046875 51.90625 73.484375 51.703125 
Q 71.09375 51.265625 64.703125 48.484375 
Q 51.375 42.53125 42.578125 37.5 
Q 26.859375 28.421875 26.859375 18.40625 
Q 26.859375 11.921875 32.515625 9.234375 
Q 38.09375 6.59375 50.59375 6.59375 
Q 62.0625 6.59375 76.8125 8.734375 
Q 76.953125 8.734375 77.046875 8.734375 
Q 77.875 8.734375 77.984375 7.90625 
Q 78.375 5.609375 78.515625 4.203125 
Q 78.515625 4.046875 78.515625 3.953125 
Q 78.515625 3.03125 77.203125 2.9375 
Q 63.53125 1.515625 50.875 1.515625 
Q 35.0625 1.515625 27.984375 6 
Q 21.6875 10.015625 21.6875 18.015625 
Q 21.6875 25.296875 27.296875 31.546875 
Q 31.9375 36.71875 41.5 42.484375 
Q 37.9375 53.03125 35.984375 68.609375 
Q 35.40625 73.921875 33.890625 77.78125 
z
" id="YuGothic-Regular-12392"/>
     <path d="M 53.125 63.921875 
Q 51.65625 50.4375 47.75 37.890625 
Q 44.34375 26.859375 39.984375 19.921875 
Q 33.734375 9.90625 25.734375 9.90625 
Q 19.96875 9.90625 15.921875 16.3125 
Q 12.109375 22.40625 12.109375 31.59375 
Q 12.109375 39.015625 15.578125 46.34375 
Q 18.65625 52.984375 23.828125 57.625 
Q 35.453125 68.109375 52.78125 68.109375 
Q 70.21875 68.109375 79.6875 58.296875 
Q 87.796875 49.953125 87.796875 36.71875 
Q 87.796875 23.53125 79.296875 14.546875 
Q 71.234375 5.953125 56.296875 2.390625 
Q 55.953125 2.34375 55.765625 2.34375 
Q 54.828125 2.34375 54.296875 3.421875 
Q 53.375 5.078125 51.609375 6.109375 
Q 67.921875 9.46875 75.6875 18.609375 
Q 82.28125 26.375 82.28125 37.703125 
Q 82.28125 50.203125 73.296875 57.71875 
Q 65.875 63.921875 55.421875 63.921875 
Q 53.71875 63.921875 53.125 63.921875 
z
M 47.796875 63.625 
Q 35.546875 62.40625 27.203125 54.390625 
Q 21.734375 49.171875 19.09375 42.140625 
Q 17.09375 36.765625 17.09375 31.546875 
Q 17.09375 23.09375 20.515625 18.5 
Q 23 15.234375 26.078125 15.234375 
Q 31.25 15.234375 35.890625 23.140625 
Q 40.375 30.8125 43.796875 42.671875 
Q 46.875 53.46875 47.796875 63.625 
z
" id="YuGothic-Regular-12398"/>
     <path d="M 47.171875 41.015625 
L 47.171875 51.609375 
L 32.765625 51.609375 
L 18.5625 51.421875 
Q 17.96875 51.421875 17.96875 52.09375 
L 17.96875 54.9375 
Q 17.96875 55.609375 18.5625 55.609375 
L 32.765625 55.421875 
L 47.171875 55.421875 
L 47.171875 65.1875 
L 27.78125 65.1875 
L 13.671875 64.984375 
Q 12.984375 64.984375 12.984375 65.671875 
L 12.984375 68.703125 
Q 12.984375 69.390625 13.671875 69.390625 
L 27.78125 69.1875 
L 57.171875 69.1875 
Q 60.5 74.125 62.546875 78.46875 
Q 63.53125 80.46875 63.96875 82.671875 
Q 66.40625 82.125 68.265625 81.203125 
Q 69.234375 80.671875 69.234375 80.171875 
Q 69.234375 79.546875 68.359375 79 
Q 67.625 78.515625 66.75 77.09375 
Q 64.84375 73.78125 61.578125 69.1875 
L 72.5625 69.1875 
L 86.671875 69.390625 
Q 87.359375 69.390625 87.359375 68.703125 
L 87.359375 65.671875 
Q 87.359375 64.984375 86.671875 64.984375 
L 72.5625 65.1875 
L 51.65625 65.1875 
L 51.65625 55.421875 
L 67.140625 55.421875 
L 81.34375 55.609375 
Q 82.078125 55.609375 82.078125 54.9375 
L 82.078125 52.09375 
Q 82.078125 51.421875 81.34375 51.421875 
L 67.140625 51.609375 
L 51.65625 51.609375 
L 51.65625 41.015625 
L 79.34375 41.015625 
L 92.671875 41.21875 
Q 93.359375 41.21875 93.359375 40.53125 
L 93.359375 37.5 
Q 93.359375 36.71875 92.671875 36.71875 
L 79.34375 36.921875 
L 35.15625 36.921875 
Q 31.6875 23.484375 25.640625 13.96875 
Q 19.625 4.546875 9.96875 -3.171875 
Q 9.078125 -3.859375 8.796875 -3.859375 
Q 8.40625 -3.859375 7.671875 -2.875 
Q 6.546875 -1.46875 4.984375 -0.6875 
Q 24.46875 12.0625 30.671875 36.921875 
L 20.953125 36.921875 
L 7.671875 36.71875 
Q 6.984375 36.71875 6.984375 37.5 
L 6.984375 40.53125 
Q 6.984375 41.21875 7.671875 41.21875 
L 20.953125 41.015625 
z
M 59.46875 20.40625 
L 59.46875 1.8125 
L 76.46875 1.8125 
L 90.765625 2 
Q 91.453125 2 91.453125 1.3125 
L 91.453125 -1.703125 
Q 91.453125 -2.390625 90.765625 -2.390625 
L 76.46875 -2.203125 
L 38.671875 -2.203125 
L 24.46875 -2.390625 
Q 23.78125 -2.390625 23.78125 -1.703125 
L 23.78125 1.3125 
Q 23.78125 2 24.46875 2 
L 38.671875 1.8125 
L 54.984375 1.8125 
L 54.984375 20.40625 
L 48.09375 20.40625 
L 34.859375 20.21875 
Q 34.28125 20.21875 34.28125 20.90625 
L 34.28125 23.921875 
Q 34.28125 24.609375 34.859375 24.609375 
L 48.09375 24.421875 
L 70.5625 24.421875 
L 83.6875 24.609375 
Q 84.375 24.609375 84.375 23.921875 
L 84.375 20.90625 
Q 84.375 20.21875 83.6875 20.21875 
L 70.5625 20.40625 
z
M 29.984375 79.78125 
Q 29.6875 80.125 29.6875 80.328125 
Q 29.6875 80.671875 30.671875 81.203125 
L 32.171875 81.890625 
Q 32.859375 82.28125 33.109375 82.28125 
Q 33.34375 82.28125 33.59375 82.03125 
Q 37.109375 78.21875 39.9375 73.09375 
Q 40.140625 72.75 40.140625 72.609375 
Q 40.140625 72.21875 39.15625 71.6875 
L 37.703125 70.90625 
Q 36.671875 70.3125 36.421875 70.3125 
Q 36.1875 70.3125 35.984375 70.796875 
Q 33.734375 75.53125 29.984375 79.78125 
z
" id="YuGothic-Regular-24046"/>
     <path d="M 0 0 
z
" id="YuGothic-Regular-32"/>
     <path d="M 34.90625 84.375 
Q 25.046875 72.125 21.046875 60.5 
Q 17.53125 50.34375 17.53125 37.984375 
Q 17.53125 23.921875 22.171875 12.453125 
Q 26.265625 2.296875 34.90625 -8.40625 
L 32.328125 -10.5 
Q 20.953125 1.421875 16.15625 13.421875 
Q 11.71875 24.515625 11.71875 37.984375 
Q 11.71875 53.265625 17.53125 65.625 
Q 22.40625 76.03125 32.328125 86.375 
z
" id="YuGothic-Regular-40"/>
     <path d="M 64.890625 35.109375 
Q 71.09375 27.59375 78.859375 22.609375 
Q 85.40625 18.359375 94.921875 14.84375 
Q 93.3125 13.421875 92.578125 11.8125 
Q 92.046875 10.640625 91.703125 10.640625 
Q 91.453125 10.640625 90.375 11.140625 
Q 71.875 19.625 62.453125 33.640625 
Q 62.890625 6.984375 62.890625 5.515625 
Q 62.890625 4.9375 62.15625 4.9375 
L 59.078125 4.9375 
Q 58.34375 4.9375 58.34375 5.515625 
Q 58.34375 6.734375 58.796875 33.296875 
Q 50.828125 20.40625 34.625 11.328125 
Q 33.59375 10.6875 33.25 10.6875 
Q 32.8125 10.6875 32.125 11.8125 
Q 31.25 13.28125 29.6875 14.203125 
Q 39.15625 18.609375 45.359375 23.578125 
Q 51.46875 28.46875 56.203125 35.109375 
L 50 35.109375 
L 36.71875 34.90625 
Q 36.140625 34.90625 36.140625 35.59375 
L 36.234375 42.828125 
L 36.234375 49.078125 
L 36.140625 56.109375 
Q 36.140625 56.78125 36.71875 56.78125 
L 50 56.59375 
L 58.5 56.59375 
L 58.5 65.828125 
L 45.609375 65.828125 
L 31.5 65.625 
Q 30.8125 65.625 30.8125 66.3125 
L 30.8125 69.4375 
Q 30.8125 70.125 31.5 70.125 
L 45.609375 69.921875 
L 58.5 69.921875 
L 58.5 72.125 
Q 58.5 78.71875 57.765625 82.421875 
Q 60.25 82.28125 62.796875 81.9375 
Q 63.921875 81.734375 63.921875 81.109375 
Q 63.921875 80.859375 63.375 79.546875 
Q 62.796875 77.484375 62.796875 71.828125 
L 62.796875 69.921875 
L 78.375 69.921875 
L 92.578125 70.125 
Q 93.3125 70.125 93.3125 69.4375 
L 93.3125 66.3125 
Q 93.3125 65.625 92.578125 65.625 
L 78.375 65.828125 
L 62.796875 65.828125 
L 62.796875 56.59375 
L 73 56.59375 
L 86.28125 56.78125 
Q 86.921875 56.78125 86.921875 56.109375 
L 86.71875 49.078125 
L 86.71875 42.828125 
L 86.921875 35.59375 
Q 86.921875 34.90625 86.28125 34.90625 
L 73 35.109375 
z
M 62.796875 38.8125 
L 82.421875 38.8125 
L 82.421875 52.875 
L 62.796875 52.875 
z
M 58.5 52.875 
L 40.4375 52.875 
L 40.4375 38.8125 
L 58.5 38.8125 
z
M 14.109375 78.328125 
Q 19.671875 72.703125 25.203125 64.59375 
Q 25.390625 64.359375 25.390625 64.203125 
Q 25.390625 63.96875 24.515625 63.28125 
L 23 62.203125 
Q 22.078125 61.53125 21.734375 61.53125 
Q 21.484375 61.53125 21.1875 62.015625 
Q 15.625 70.65625 10.59375 75.6875 
Q 10.296875 76.03125 10.296875 76.171875 
Q 10.296875 76.46875 11.1875 77.09375 
L 12.59375 78.078125 
Q 13.234375 78.5625 13.578125 78.5625 
Q 13.8125 78.5625 14.109375 78.328125 
z
M 96.828125 2.296875 
Q 95.609375 0.828125 95.3125 -1.21875 
Q 95.0625 -2.546875 94.78125 -2.734375 
Q 94.53125 -2.9375 93.40625 -2.984375 
Q 72.125 -4.296875 57.8125 -4.296875 
Q 39.703125 -4.296875 32.8125 -0.984375 
Q 26.515625 2.15625 23.390625 9.421875 
Q 18.796875 4.25 12.703125 -0.828125 
Q 10.6875 -2.484375 10.40625 -3.03125 
Q 9.90625 -3.8125 9.421875 -3.8125 
Q 8.890625 -3.8125 8.296875 -3.125 
Q 7.078125 -1.421875 5.8125 0.875 
Q 9.46875 2.828125 12.015625 4.78125 
Q 16.890625 8.40625 21.4375 13.375 
L 21.4375 39.109375 
L 13.234375 39.109375 
L 6.5 38.921875 
Q 5.71875 38.921875 5.71875 39.59375 
L 5.71875 42.921875 
Q 5.71875 43.609375 6.5 43.609375 
L 13.234375 43.40625 
L 18.3125 43.40625 
L 25.296875 43.609375 
Q 25.984375 43.609375 25.984375 42.921875 
L 25.828125 33.59375 
L 25.828125 13.1875 
Q 28.46875 5.859375 34.71875 2.875 
Q 40.578125 0.203125 55.21875 0.203125 
Q 74.703125 0.203125 96.828125 2.296875 
z
" id="YuGothic-Regular-36895"/>
     <path d="M 33.5 40.28125 
Q 43.015625 36.078125 46.6875 30.90625 
Q 49.703125 26.65625 49.703125 20.40625 
Q 49.703125 10.6875 42.78125 5.375 
Q 36.921875 0.875 27.734375 0.875 
Q 17.234375 0.875 11.234375 6.640625 
Q 5.8125 11.8125 5.8125 20.171875 
Q 5.8125 27 10.15625 31.6875 
Q 13.921875 35.75 22.015625 39.5 
Q 13.921875 43.359375 10.75 48 
Q 8.015625 51.90625 8.015625 57.625 
Q 8.015625 65.765625 14.15625 70.75 
Q 19.578125 75.09375 27.6875 75.09375 
Q 37.15625 75.09375 42.828125 69.625 
Q 47.703125 64.890625 47.703125 57.90625 
Q 47.703125 51.375 44.140625 47.21875 
Q 40.875 43.5 33.5 40.28125 
z
M 28.609375 42.578125 
Q 36.375 45.90625 39.203125 49.859375 
Q 41.5 52.984375 41.5 57.8125 
Q 41.5 63.625 37.203125 67 
Q 33.5 69.921875 27.6875 69.921875 
Q 21.140625 69.921875 17.4375 66.109375 
Q 14.203125 62.796875 14.203125 57.625 
Q 14.203125 52.59375 17.234375 49.359375 
Q 20.125 46.34375 26.90625 43.40625 
z
M 27.09375 37.109375 
Q 18.40625 33.203125 15.046875 29.046875 
Q 12.109375 25.4375 12.109375 20.40625 
Q 12.109375 13.375 16.84375 9.578125 
Q 20.953125 6.203125 27.734375 6.203125 
Q 35.640625 6.203125 39.84375 10.5 
Q 43.40625 14.15625 43.40625 20.3125 
Q 43.40625 25.984375 39.84375 29.640625 
Q 36.578125 32.953125 28.8125 36.28125 
z
" id="YuGothic-Regular-56"/>
     <path d="M 27.9375 75.09375 
Q 49.21875 75.09375 49.21875 38.375 
Q 49.21875 0.875 27.6875 0.875 
Q 6.390625 0.875 6.390625 38.1875 
Q 6.390625 75.09375 27.9375 75.09375 
z
M 27.9375 69.578125 
Q 19.828125 69.578125 16.359375 61.53125 
Q 13.09375 54 13.09375 38.375 
Q 13.09375 20.359375 17.1875 12.796875 
Q 20.65625 6.390625 27.6875 6.390625 
Q 35.796875 6.390625 39.3125 14.84375 
Q 42.53125 22.5625 42.53125 38.28125 
Q 42.53125 56.109375 38.375 63.421875 
Q 34.90625 69.578125 27.9375 69.578125 
z
" id="YuGothic-Regular-48"/>
     <path d="M 20.90625 75.09375 
Q 27.875 75.09375 31.78125 69.875 
Q 35.40625 65.09375 35.40625 56.984375 
Q 35.40625 47.75 30.71875 42.875 
Q 26.859375 38.8125 20.796875 38.8125 
Q 13.875 38.8125 10.015625 44.046875 
Q 6.390625 48.828125 6.390625 56.890625 
Q 6.390625 66.109375 11.078125 71.046875 
Q 14.9375 75.09375 20.90625 75.09375 
z
M 20.796875 70.796875 
Q 11.578125 70.796875 11.578125 56.890625 
Q 11.578125 43.109375 20.796875 43.109375 
Q 29.984375 43.109375 29.984375 56.890625 
Q 29.984375 70.796875 20.796875 70.796875 
z
M 64.59375 75.09375 
L 20.125 0.875 
L 15.1875 0.875 
L 59.8125 75.09375 
z
M 59.28125 37.109375 
Q 66.265625 37.109375 70.171875 31.890625 
Q 73.78125 27.09375 73.78125 19 
Q 73.78125 9.71875 69.09375 4.828125 
Q 65.234375 0.78125 59.1875 0.78125 
Q 52.25 0.78125 48.390625 6 
Q 44.78125 10.796875 44.78125 18.890625 
Q 44.78125 28.078125 49.46875 33.015625 
Q 53.328125 37.109375 59.28125 37.109375 
z
M 59.1875 32.8125 
Q 49.953125 32.8125 49.953125 18.890625 
Q 49.953125 5.078125 59.1875 5.078125 
Q 68.359375 5.078125 68.359375 18.890625 
Q 68.359375 32.8125 59.1875 32.8125 
z
" id="YuGothic-Regular-37"/>
     <path d="M 6.296875 86.375 
Q 17.625 74.5625 22.46875 62.5 
Q 26.90625 51.421875 26.90625 37.984375 
Q 26.90625 22.65625 21.09375 10.296875 
Q 16.265625 -0.046875 6.296875 -10.5 
L 3.71875 -8.40625 
Q 13.578125 3.765625 17.578125 15.4375 
Q 21.09375 25.640625 21.09375 37.984375 
Q 21.09375 52.046875 16.453125 63.53125 
Q 12.40625 73.578125 3.71875 84.375 
z
" id="YuGothic-Regular-41"/>
    </defs>
    <g transform="translate(213.594844 20.514375)scale(0.12 -0.12)">
     <use xlink:href="#YuGothic-Regular-24382"/>
     <use x="100" xlink:href="#YuGothic-Regular-30528"/>
     <use x="200" xlink:href="#YuGothic-Regular-20104"/>
     <use x="300" xlink:href="#YuGothic-Regular-24819"/>
     <use x="400" xlink:href="#YuGothic-Regular-26178"/>
     <use x="500" xlink:href="#YuGothic-Regular-38291"/>
     <use x="600" xlink:href="#YuGothic-Regular-12392"/>
     <use x="700" xlink:href="#YuGothic-Regular-12398"/>
     <use x="800" xlink:href="#YuGothic-Regular-24046"/>
     <use x="900" xlink:href="#YuGothic-Regular-32"/>
     <use x="928.515625" xlink:href="#YuGothic-Regular-40"/>
     <use x="967.138672" xlink:href="#YuGothic-Regular-24382"/>
     <use x="1067.138672" xlink:href="#YuGothic-Regular-36895"/>
     <use x="1167.138672" xlink:href="#YuGothic-Regular-32"/>
     <use x="1195.654297" xlink:href="#YuGothic-Regular-56"/>
     <use x="1251.269531" xlink:href="#YuGothic-Regular-48"/>
     <use x="1306.884766" xlink:href="#YuGothic-Regular-37"/>
     <use x="1387.060547" xlink:href="#YuGothic-Regular-41"/>
    </g>
   </g>
  </g>
 </g>
 <defs>
  <clipPath id="p3ffd16a374">
   <rect height="220.329375" width="509.864063" x="44.203125" y="26.514375"/>
  </clipPath>
 </defs>
</svg>
