<?xml version="1.0" encoding="utf-8" standalone="no"?>
<!DOCTYPE svg PUBLIC "-//W3C//DTD SVG 1.1//EN"
  "http://www.w3.org/Graphics/SVG/1.1/DTD/svg11.dtd">
<!-- Created with matplotlib (https://matplotlib.org/) -->
<svg height="144pt" version="1.1" viewBox="0 0 576 144" width="576pt" xmlns="http://www.w3.org/2000/svg" xmlns:xlink="http://www.w3.org/1999/xlink">
 <defs>
  <style type="text/css">
*{stroke-linecap:butt;stroke-linejoin:round;}
  </style>
 </defs>
 <g id="figure_1">
  <g id="patch_1">
   <path d="M 0 144 
L 576 144 
L 576 0 
L 0 0 
z
" style="fill:#ffffff;"/>
  </g>
  <g id="axes_1">
   <g id="patch_2">
    <path d="M 52.582813 102.84375 
L 558.8375 102.84375 
L 558.8375 14.599219 
L 52.582813 14.599219 
z
" style="fill:#ffffff;"/>
   </g>
   <g id="patch_3">
    <path clip-path="url(#pbf80f6dae4)" d="M 51.82343 58.721484 
L 53.342195 58.721484 
L 53.342195 58.721484 
L 51.82343 58.721484 
z
" style="fill:#1f77b4;"/>
   </g>
   <g id="patch_4">
    <path clip-path="url(#pbf80f6dae4)" d="M 53.511049 58.721484 
L 55.029813 58.721484 
L 55.029813 58.721484 
L 53.511049 58.721484 
z
" style="fill:#1f77b4;"/>
   </g>
   <g id="patch_5">
    <path clip-path="url(#pbf80f6dae4)" d="M 55.198668 58.721484 
L 56.717432 58.721484 
L 56.717432 58.721484 
L 55.198668 58.721484 
z
" style="fill:#1f77b4;"/>
   </g>
   <g id="patch_6">
    <path clip-path="url(#pbf80f6dae4)" d="M 56.903281 58.721484 
L 58.422045 58.721484 
L 58.422045 58.721484 
L 56.903281 58.721484 
z
" style="fill:#1f77b4;"/>
   </g>
   <g id="patch_7">
    <path clip-path="url(#pbf80f6dae4)" d="M 58.590385 58.721484 
L 60.109149 58.721484 
L 60.109149 58.721484 
L 58.590385 58.721484 
z
" style="fill:#1f77b4;"/>
   </g>
   <g id="patch_8">
    <path clip-path="url(#pbf80f6dae4)" d="M 60.421685 58.721484 
L 61.940449 58.721484 
L 61.940449 58.721484 
L 60.421685 58.721484 
z
" style="fill:#1f77b4;"/>
   </g>
   <g id="patch_9">
    <path clip-path="url(#pbf80f6dae4)" d="M 62.244231 58.721484 
L 63.762995 58.721484 
L 63.762995 58.721484 
L 62.244231 58.721484 
z
" style="fill:#1f77b4;"/>
   </g>
   <g id="patch_10">
    <path clip-path="url(#pbf80f6dae4)" d="M 63.957084 58.721484 
L 65.475848 58.721484 
L 65.475848 58.721484 
L 63.957084 58.721484 
z
" style="fill:#1f77b4;"/>
   </g>
   <g id="patch_11">
    <path clip-path="url(#pbf80f6dae4)" d="M 65.762635 58.721484 
L 67.281399 58.721484 
L 67.281399 58.721484 
L 65.762635 58.721484 
z
" style="fill:#1f77b4;"/>
   </g>
   <g id="patch_12">
    <path clip-path="url(#pbf80f6dae4)" d="M 67.585181 58.721484 
L 69.103945 58.721484 
L 69.103945 76.370391 
L 67.585181 76.370391 
z
" style="fill:#1f77b4;"/>
   </g>
   <g id="patch_13">
    <path clip-path="url(#pbf80f6dae4)" d="M 69.281039 58.721484 
L 70.799803 58.721484 
L 70.799803 58.721484 
L 69.281039 58.721484 
z
" style="fill:#1f77b4;"/>
   </g>
   <g id="patch_14">
    <path clip-path="url(#pbf80f6dae4)" d="M 70.976898 58.721484 
L 72.495662 58.721484 
L 72.495662 63.133711 
L 70.976898 63.133711 
z
" style="fill:#1f77b4;"/>
   </g>
   <g id="patch_15">
    <path clip-path="url(#pbf80f6dae4)" d="M 72.791204 58.721484 
L 74.309968 58.721484 
L 74.309968 58.721484 
L 72.791204 58.721484 
z
" style="fill:#1f77b4;"/>
   </g>
   <g id="patch_16">
    <path clip-path="url(#pbf80f6dae4)" d="M 74.487062 58.721484 
L 76.005826 58.721484 
L 76.005826 58.721484 
L 74.487062 58.721484 
z
" style="fill:#1f77b4;"/>
   </g>
   <g id="patch_17">
    <path clip-path="url(#pbf80f6dae4)" d="M 76.174681 58.721484 
L 77.693445 58.721484 
L 77.693445 58.721484 
L 76.174681 58.721484 
z
" style="fill:#1f77b4;"/>
   </g>
   <g id="patch_18">
    <path clip-path="url(#pbf80f6dae4)" d="M 77.861784 58.721484 
L 79.380548 58.721484 
L 79.380548 58.721484 
L 77.861784 58.721484 
z
" style="fill:#1f77b4;"/>
   </g>
   <g id="patch_19">
    <path clip-path="url(#pbf80f6dae4)" d="M 79.549403 58.721484 
L 81.068167 58.721484 
L 81.068167 58.721484 
L 79.549403 58.721484 
z
" style="fill:#1f77b4;"/>
   </g>
   <g id="patch_20">
    <path clip-path="url(#pbf80f6dae4)" d="M 81.245261 58.721484 
L 82.764025 58.721484 
L 82.764025 58.721484 
L 81.245261 58.721484 
z
" style="fill:#1f77b4;"/>
   </g>
   <g id="patch_21">
    <path clip-path="url(#pbf80f6dae4)" d="M 82.93288 58.721484 
L 84.451644 58.721484 
L 84.451644 58.721484 
L 82.93288 58.721484 
z
" style="fill:#1f77b4;"/>
   </g>
   <g id="patch_22">
    <path clip-path="url(#pbf80f6dae4)" d="M 84.76418 58.721484 
L 86.282944 58.721484 
L 86.282944 58.721484 
L 84.76418 58.721484 
z
" style="fill:#1f77b4;"/>
   </g>
   <g id="patch_23">
    <path clip-path="url(#pbf80f6dae4)" d="M 86.451284 58.721484 
L 87.970048 58.721484 
L 87.970048 58.721484 
L 86.451284 58.721484 
z
" style="fill:#1f77b4;"/>
   </g>
   <g id="patch_24">
    <path clip-path="url(#pbf80f6dae4)" d="M 88.138903 58.721484 
L 89.657667 58.721484 
L 89.657667 58.721484 
L 88.138903 58.721484 
z
" style="fill:#1f77b4;"/>
   </g>
   <g id="patch_25">
    <path clip-path="url(#pbf80f6dae4)" d="M 89.826521 58.721484 
L 91.345285 58.721484 
L 91.345285 58.721484 
L 89.826521 58.721484 
z
" style="fill:#1f77b4;"/>
   </g>
   <g id="patch_26">
    <path clip-path="url(#pbf80f6dae4)" d="M 91.52238 58.721484 
L 93.041144 58.721484 
L 93.041144 58.721484 
L 91.52238 58.721484 
z
" style="fill:#1f77b4;"/>
   </g>
   <g id="patch_27">
    <path clip-path="url(#pbf80f6dae4)" d="M 93.344925 58.721484 
L 94.86369 58.721484 
L 94.86369 58.721484 
L 93.344925 58.721484 
z
" style="fill:#1f77b4;"/>
   </g>
   <g id="patch_28">
    <path clip-path="url(#pbf80f6dae4)" d="M 95.032544 58.721484 
L 96.551308 58.721484 
L 96.551308 58.721484 
L 95.032544 58.721484 
z
" style="fill:#1f77b4;"/>
   </g>
   <g id="patch_29">
    <path clip-path="url(#pbf80f6dae4)" d="M 96.720163 58.721484 
L 98.238927 58.721484 
L 98.238927 58.721484 
L 96.720163 58.721484 
z
" style="fill:#1f77b4;"/>
   </g>
   <g id="patch_30">
    <path clip-path="url(#pbf80f6dae4)" d="M 98.416021 58.721484 
L 99.934785 58.721484 
L 99.934785 58.721484 
L 98.416021 58.721484 
z
" style="fill:#1f77b4;"/>
   </g>
   <g id="patch_31">
    <path clip-path="url(#pbf80f6dae4)" d="M 100.238567 58.721484 
L 101.757331 58.721484 
L 101.757331 58.721484 
L 100.238567 58.721484 
z
" style="fill:#1f77b4;"/>
   </g>
   <g id="patch_32">
    <path clip-path="url(#pbf80f6dae4)" d="M 101.926185 58.721484 
L 103.44495 58.721484 
L 103.44495 58.721484 
L 101.926185 58.721484 
z
" style="fill:#1f77b4;"/>
   </g>
   <g id="patch_33">
    <path clip-path="url(#pbf80f6dae4)" d="M 103.622044 58.721484 
L 105.140808 58.721484 
L 105.140808 58.721484 
L 103.622044 58.721484 
z
" style="fill:#1f77b4;"/>
   </g>
   <g id="patch_34">
    <path clip-path="url(#pbf80f6dae4)" d="M 105.309663 58.721484 
L 106.828427 58.721484 
L 106.828427 58.721484 
L 105.309663 58.721484 
z
" style="fill:#1f77b4;"/>
   </g>
   <g id="patch_35">
    <path clip-path="url(#pbf80f6dae4)" d="M 106.996766 58.721484 
L 108.51553 58.721484 
L 108.51553 58.721484 
L 106.996766 58.721484 
z
" style="fill:#1f77b4;"/>
   </g>
   <g id="patch_36">
    <path clip-path="url(#pbf80f6dae4)" d="M 108.684385 58.721484 
L 110.203149 58.721484 
L 110.203149 58.721484 
L 108.684385 58.721484 
z
" style="fill:#1f77b4;"/>
   </g>
   <g id="patch_37">
    <path clip-path="url(#pbf80f6dae4)" d="M 110.372003 58.721484 
L 111.890767 58.721484 
L 111.890767 58.721484 
L 110.372003 58.721484 
z
" style="fill:#1f77b4;"/>
   </g>
   <g id="patch_38">
    <path clip-path="url(#pbf80f6dae4)" d="M 112.059622 58.721484 
L 113.578386 58.721484 
L 113.578386 58.721484 
L 112.059622 58.721484 
z
" style="fill:#1f77b4;"/>
   </g>
   <g id="patch_39">
    <path clip-path="url(#pbf80f6dae4)" d="M 113.747241 58.721484 
L 115.266005 58.721484 
L 115.266005 58.721484 
L 113.747241 58.721484 
z
" style="fill:#1f77b4;"/>
   </g>
   <g id="patch_40">
    <path clip-path="url(#pbf80f6dae4)" d="M 115.443099 58.721484 
L 116.961863 58.721484 
L 116.961863 58.721484 
L 115.443099 58.721484 
z
" style="fill:#1f77b4;"/>
   </g>
   <g id="patch_41">
    <path clip-path="url(#pbf80f6dae4)" d="M 117.147197 58.721484 
L 118.665961 58.721484 
L 118.665961 58.721484 
L 117.147197 58.721484 
z
" style="fill:#1f77b4;"/>
   </g>
   <g id="patch_42">
    <path clip-path="url(#pbf80f6dae4)" d="M 118.961503 58.721484 
L 120.480267 58.721484 
L 120.480267 58.721484 
L 118.961503 58.721484 
z
" style="fill:#1f77b4;"/>
   </g>
   <g id="patch_43">
    <path clip-path="url(#pbf80f6dae4)" d="M 120.649122 58.721484 
L 122.167886 58.721484 
L 122.167886 58.721484 
L 120.649122 58.721484 
z
" style="fill:#1f77b4;"/>
   </g>
   <g id="patch_44">
    <path clip-path="url(#pbf80f6dae4)" d="M 122.336226 58.721484 
L 123.85499 58.721484 
L 123.85499 58.721484 
L 122.336226 58.721484 
z
" style="fill:#1f77b4;"/>
   </g>
   <g id="patch_45">
    <path clip-path="url(#pbf80f6dae4)" d="M 124.023844 58.721484 
L 125.542608 58.721484 
L 125.542608 58.721484 
L 124.023844 58.721484 
z
" style="fill:#1f77b4;"/>
   </g>
   <g id="patch_46">
    <path clip-path="url(#pbf80f6dae4)" d="M 125.719703 58.721484 
L 127.238467 58.721484 
L 127.238467 58.721484 
L 125.719703 58.721484 
z
" style="fill:#1f77b4;"/>
   </g>
   <g id="patch_47">
    <path clip-path="url(#pbf80f6dae4)" d="M 127.407321 58.721484 
L 128.926085 58.721484 
L 128.926085 67.545937 
L 127.407321 67.545937 
z
" style="fill:#1f77b4;"/>
   </g>
   <g id="patch_48">
    <path clip-path="url(#pbf80f6dae4)" d="M 129.09494 58.721484 
L 130.613704 58.721484 
L 130.613704 58.721484 
L 129.09494 58.721484 
z
" style="fill:#1f77b4;"/>
   </g>
   <g id="patch_49">
    <path clip-path="url(#pbf80f6dae4)" d="M 130.917486 58.721484 
L 132.43625 58.721484 
L 132.43625 58.721484 
L 130.917486 58.721484 
z
" style="fill:#1f77b4;"/>
   </g>
   <g id="patch_50">
    <path clip-path="url(#pbf80f6dae4)" d="M 132.605104 58.721484 
L 134.123868 58.721484 
L 134.123868 67.545937 
L 132.605104 67.545937 
z
" style="fill:#1f77b4;"/>
   </g>
   <g id="patch_51">
    <path clip-path="url(#pbf80f6dae4)" d="M 134.309202 58.721484 
L 135.827967 58.721484 
L 135.827967 80.782617 
L 134.309202 80.782617 
z
" style="fill:#1f77b4;"/>
   </g>
   <g id="patch_52">
    <path clip-path="url(#pbf80f6dae4)" d="M 136.131748 58.721484 
L 137.650512 58.721484 
L 137.650512 58.721484 
L 136.131748 58.721484 
z
" style="fill:#1f77b4;"/>
   </g>
   <g id="patch_53">
    <path clip-path="url(#pbf80f6dae4)" d="M 137.819367 58.721484 
L 139.338131 58.721484 
L 139.338131 58.721484 
L 137.819367 58.721484 
z
" style="fill:#1f77b4;"/>
   </g>
   <g id="patch_54">
    <path clip-path="url(#pbf80f6dae4)" d="M 139.506985 58.721484 
L 141.025749 58.721484 
L 141.025749 58.721484 
L 139.506985 58.721484 
z
" style="fill:#1f77b4;"/>
   </g>
   <g id="patch_55">
    <path clip-path="url(#pbf80f6dae4)" d="M 141.211084 58.721484 
L 142.729848 58.721484 
L 142.729848 58.721484 
L 141.211084 58.721484 
z
" style="fill:#1f77b4;"/>
   </g>
   <g id="patch_56">
    <path clip-path="url(#pbf80f6dae4)" d="M 143.02539 58.721484 
L 144.544154 58.721484 
L 144.544154 58.721484 
L 143.02539 58.721484 
z
" style="fill:#1f77b4;"/>
   </g>
   <g id="patch_57">
    <path clip-path="url(#pbf80f6dae4)" d="M 144.713008 58.721484 
L 146.231772 58.721484 
L 146.231772 58.721484 
L 144.713008 58.721484 
z
" style="fill:#1f77b4;"/>
   </g>
   <g id="patch_58">
    <path clip-path="url(#pbf80f6dae4)" d="M 146.408867 58.721484 
L 147.927631 58.721484 
L 147.927631 58.721484 
L 146.408867 58.721484 
z
" style="fill:#1f77b4;"/>
   </g>
   <g id="patch_59">
    <path clip-path="url(#pbf80f6dae4)" d="M 148.231412 58.721484 
L 149.750176 58.721484 
L 149.750176 58.721484 
L 148.231412 58.721484 
z
" style="fill:#1f77b4;"/>
   </g>
   <g id="patch_60">
    <path clip-path="url(#pbf80f6dae4)" d="M 149.927271 58.721484 
L 151.446035 58.721484 
L 151.446035 58.721484 
L 149.927271 58.721484 
z
" style="fill:#1f77b4;"/>
   </g>
   <g id="patch_61">
    <path clip-path="url(#pbf80f6dae4)" d="M 151.614889 58.721484 
L 153.133653 58.721484 
L 153.133653 58.721484 
L 151.614889 58.721484 
z
" style="fill:#1f77b4;"/>
   </g>
   <g id="patch_62">
    <path clip-path="url(#pbf80f6dae4)" d="M 153.302508 58.721484 
L 154.821272 58.721484 
L 154.821272 58.721484 
L 153.302508 58.721484 
z
" style="fill:#1f77b4;"/>
   </g>
   <g id="patch_63">
    <path clip-path="url(#pbf80f6dae4)" d="M 154.990127 58.721484 
L 156.508891 58.721484 
L 156.508891 58.721484 
L 154.990127 58.721484 
z
" style="fill:#1f77b4;"/>
   </g>
   <g id="patch_64">
    <path clip-path="url(#pbf80f6dae4)" d="M 156.67723 58.721484 
L 158.195994 58.721484 
L 158.195994 58.721484 
L 156.67723 58.721484 
z
" style="fill:#1f77b4;"/>
   </g>
   <g id="patch_65">
    <path clip-path="url(#pbf80f6dae4)" d="M 158.373604 58.721484 
L 159.892368 58.721484 
L 159.892368 58.721484 
L 158.373604 58.721484 
z
" style="fill:#1f77b4;"/>
   </g>
   <g id="patch_66">
    <path clip-path="url(#pbf80f6dae4)" d="M 160.204389 58.721484 
L 161.723153 58.721484 
L 161.723153 58.721484 
L 160.204389 58.721484 
z
" style="fill:#1f77b4;"/>
   </g>
   <g id="patch_67">
    <path clip-path="url(#pbf80f6dae4)" d="M 161.892008 58.721484 
L 163.410772 58.721484 
L 163.410772 58.721484 
L 161.892008 58.721484 
z
" style="fill:#1f77b4;"/>
   </g>
   <g id="patch_68">
    <path clip-path="url(#pbf80f6dae4)" d="M 163.579112 58.721484 
L 165.097876 58.721484 
L 165.097876 58.721484 
L 163.579112 58.721484 
z
" style="fill:#1f77b4;"/>
   </g>
   <g id="patch_69">
    <path clip-path="url(#pbf80f6dae4)" d="M 165.26673 58.721484 
L 166.785494 58.721484 
L 166.785494 58.721484 
L 165.26673 58.721484 
z
" style="fill:#1f77b4;"/>
   </g>
   <g id="patch_70">
    <path clip-path="url(#pbf80f6dae4)" d="M 166.954349 58.721484 
L 168.473113 58.721484 
L 168.473113 58.721484 
L 166.954349 58.721484 
z
" style="fill:#1f77b4;"/>
   </g>
   <g id="patch_71">
    <path clip-path="url(#pbf80f6dae4)" d="M 168.658962 58.721484 
L 170.177726 58.721484 
L 170.177726 58.721484 
L 168.658962 58.721484 
z
" style="fill:#1f77b4;"/>
   </g>
   <g id="patch_72">
    <path clip-path="url(#pbf80f6dae4)" d="M 170.472753 58.721484 
L 171.991517 58.721484 
L 171.991517 58.721484 
L 170.472753 58.721484 
z
" style="fill:#1f77b4;"/>
   </g>
   <g id="patch_73">
    <path clip-path="url(#pbf80f6dae4)" d="M 172.160372 58.721484 
L 173.679136 58.721484 
L 173.679136 58.721484 
L 172.160372 58.721484 
z
" style="fill:#1f77b4;"/>
   </g>
   <g id="patch_74">
    <path clip-path="url(#pbf80f6dae4)" d="M 173.84799 58.721484 
L 175.366754 58.721484 
L 175.366754 85.194844 
L 173.84799 85.194844 
z
" style="fill:#1f77b4;"/>
   </g>
   <g id="patch_75">
    <path clip-path="url(#pbf80f6dae4)" d="M 175.535609 58.721484 
L 177.054373 58.721484 
L 177.054373 58.721484 
L 175.535609 58.721484 
z
" style="fill:#1f77b4;"/>
   </g>
   <g id="patch_76">
    <path clip-path="url(#pbf80f6dae4)" d="M 177.222712 58.721484 
L 178.741477 58.721484 
L 178.741477 58.721484 
L 177.222712 58.721484 
z
" style="fill:#1f77b4;"/>
   </g>
   <g id="patch_77">
    <path clip-path="url(#pbf80f6dae4)" d="M 178.919086 58.721484 
L 180.43785 58.721484 
L 180.43785 45.484805 
L 178.919086 45.484805 
z
" style="fill:#1f77b4;"/>
   </g>
   <g id="patch_78">
    <path clip-path="url(#pbf80f6dae4)" d="M 180.60619 58.721484 
L 182.124954 58.721484 
L 182.124954 58.721484 
L 180.60619 58.721484 
z
" style="fill:#1f77b4;"/>
   </g>
   <g id="patch_79">
    <path clip-path="url(#pbf80f6dae4)" d="M 182.293808 58.721484 
L 183.812572 58.721484 
L 183.812572 49.897031 
L 182.293808 49.897031 
z
" style="fill:#1f77b4;"/>
   </g>
   <g id="patch_80">
    <path clip-path="url(#pbf80f6dae4)" d="M 183.981427 58.721484 
L 185.500191 58.721484 
L 185.500191 58.721484 
L 183.981427 58.721484 
z
" style="fill:#1f77b4;"/>
   </g>
   <g id="patch_81">
    <path clip-path="url(#pbf80f6dae4)" d="M 185.669045 58.721484 
L 187.187809 58.721484 
L 187.187809 67.545937 
L 185.669045 67.545937 
z
" style="fill:#1f77b4;"/>
   </g>
   <g id="patch_82">
    <path clip-path="url(#pbf80f6dae4)" d="M 187.364904 58.721484 
L 188.883668 58.721484 
L 188.883668 54.309258 
L 187.364904 54.309258 
z
" style="fill:#1f77b4;"/>
   </g>
   <g id="patch_83">
    <path clip-path="url(#pbf80f6dae4)" d="M 189.052522 58.721484 
L 190.571287 58.721484 
L 190.571287 71.958164 
L 189.052522 71.958164 
z
" style="fill:#1f77b4;"/>
   </g>
   <g id="patch_84">
    <path clip-path="url(#pbf80f6dae4)" d="M 190.748381 58.721484 
L 192.267145 58.721484 
L 192.267145 67.545937 
L 190.748381 67.545937 
z
" style="fill:#1f77b4;"/>
   </g>
   <g id="patch_85">
    <path clip-path="url(#pbf80f6dae4)" d="M 192.570927 58.721484 
L 194.089691 58.721484 
L 194.089691 58.721484 
L 192.570927 58.721484 
z
" style="fill:#1f77b4;"/>
   </g>
   <g id="patch_86">
    <path clip-path="url(#pbf80f6dae4)" d="M 194.258545 58.721484 
L 195.777309 58.721484 
L 195.777309 58.721484 
L 194.258545 58.721484 
z
" style="fill:#1f77b4;"/>
   </g>
   <g id="patch_87">
    <path clip-path="url(#pbf80f6dae4)" d="M 195.945649 58.721484 
L 197.464413 58.721484 
L 197.464413 58.721484 
L 195.945649 58.721484 
z
" style="fill:#1f77b4;"/>
   </g>
   <g id="patch_88">
    <path clip-path="url(#pbf80f6dae4)" d="M 197.642022 58.721484 
L 199.160786 58.721484 
L 199.160786 58.721484 
L 197.642022 58.721484 
z
" style="fill:#1f77b4;"/>
   </g>
   <g id="patch_89">
    <path clip-path="url(#pbf80f6dae4)" d="M 199.329126 58.721484 
L 200.84789 58.721484 
L 200.84789 58.721484 
L 199.329126 58.721484 
z
" style="fill:#1f77b4;"/>
   </g>
   <g id="patch_90">
    <path clip-path="url(#pbf80f6dae4)" d="M 201.016745 58.721484 
L 202.535509 58.721484 
L 202.535509 58.721484 
L 201.016745 58.721484 
z
" style="fill:#1f77b4;"/>
   </g>
   <g id="patch_91">
    <path clip-path="url(#pbf80f6dae4)" d="M 202.704363 58.721484 
L 204.223127 58.721484 
L 204.223127 58.721484 
L 202.704363 58.721484 
z
" style="fill:#1f77b4;"/>
   </g>
   <g id="patch_92">
    <path clip-path="url(#pbf80f6dae4)" d="M 204.400222 58.721484 
L 205.918986 58.721484 
L 205.918986 58.721484 
L 204.400222 58.721484 
z
" style="fill:#1f77b4;"/>
   </g>
   <g id="patch_93">
    <path clip-path="url(#pbf80f6dae4)" d="M 206.214528 58.721484 
L 207.733292 58.721484 
L 207.733292 58.721484 
L 206.214528 58.721484 
z
" style="fill:#1f77b4;"/>
   </g>
   <g id="patch_94">
    <path clip-path="url(#pbf80f6dae4)" d="M 207.918626 58.721484 
L 209.43739 58.721484 
L 209.43739 58.721484 
L 207.918626 58.721484 
z
" style="fill:#1f77b4;"/>
   </g>
   <g id="patch_95">
    <path clip-path="url(#pbf80f6dae4)" d="M 209.732932 58.721484 
L 211.251696 58.721484 
L 211.251696 58.721484 
L 209.732932 58.721484 
z
" style="fill:#1f77b4;"/>
   </g>
   <g id="patch_96">
    <path clip-path="url(#pbf80f6dae4)" d="M 211.42879 58.721484 
L 212.947554 58.721484 
L 212.947554 58.721484 
L 211.42879 58.721484 
z
" style="fill:#1f77b4;"/>
   </g>
   <g id="patch_97">
    <path clip-path="url(#pbf80f6dae4)" d="M 213.116409 58.721484 
L 214.635173 58.721484 
L 214.635173 58.721484 
L 213.116409 58.721484 
z
" style="fill:#1f77b4;"/>
   </g>
   <g id="patch_98">
    <path clip-path="url(#pbf80f6dae4)" d="M 214.804027 58.721484 
L 216.322791 58.721484 
L 216.322791 58.721484 
L 214.804027 58.721484 
z
" style="fill:#1f77b4;"/>
   </g>
   <g id="patch_99">
    <path clip-path="url(#pbf80f6dae4)" d="M 216.491646 58.721484 
L 218.01041 58.721484 
L 218.01041 58.721484 
L 216.491646 58.721484 
z
" style="fill:#1f77b4;"/>
   </g>
   <g id="patch_100">
    <path clip-path="url(#pbf80f6dae4)" d="M 218.17875 58.721484 
L 219.697514 58.721484 
L 219.697514 58.721484 
L 218.17875 58.721484 
z
" style="fill:#1f77b4;"/>
   </g>
   <g id="patch_101">
    <path clip-path="url(#pbf80f6dae4)" d="M 219.875123 58.721484 
L 221.393887 58.721484 
L 221.393887 58.721484 
L 219.875123 58.721484 
z
" style="fill:#1f77b4;"/>
   </g>
   <g id="patch_102">
    <path clip-path="url(#pbf80f6dae4)" d="M 221.562227 58.721484 
L 223.080991 58.721484 
L 223.080991 58.721484 
L 221.562227 58.721484 
z
" style="fill:#1f77b4;"/>
   </g>
   <g id="patch_103">
    <path clip-path="url(#pbf80f6dae4)" d="M 223.2586 58.721484 
L 224.777364 58.721484 
L 224.777364 58.721484 
L 223.2586 58.721484 
z
" style="fill:#1f77b4;"/>
   </g>
   <g id="patch_104">
    <path clip-path="url(#pbf80f6dae4)" d="M 225.072391 58.721484 
L 226.591155 58.721484 
L 226.591155 58.721484 
L 225.072391 58.721484 
z
" style="fill:#1f77b4;"/>
   </g>
   <g id="patch_105">
    <path clip-path="url(#pbf80f6dae4)" d="M 226.768249 58.721484 
L 228.287014 58.721484 
L 228.287014 58.721484 
L 226.768249 58.721484 
z
" style="fill:#1f77b4;"/>
   </g>
   <g id="patch_106">
    <path clip-path="url(#pbf80f6dae4)" d="M 228.472863 58.721484 
L 229.991627 58.721484 
L 229.991627 58.721484 
L 228.472863 58.721484 
z
" style="fill:#1f77b4;"/>
   </g>
   <g id="patch_107">
    <path clip-path="url(#pbf80f6dae4)" d="M 230.278414 58.721484 
L 231.797178 58.721484 
L 231.797178 58.721484 
L 230.278414 58.721484 
z
" style="fill:#1f77b4;"/>
   </g>
   <g id="patch_108">
    <path clip-path="url(#pbf80f6dae4)" d="M 231.974272 58.721484 
L 233.493036 58.721484 
L 233.493036 58.721484 
L 231.974272 58.721484 
z
" style="fill:#1f77b4;"/>
   </g>
   <g id="patch_109">
    <path clip-path="url(#pbf80f6dae4)" d="M 233.661891 58.721484 
L 235.180655 58.721484 
L 235.180655 58.721484 
L 233.661891 58.721484 
z
" style="fill:#1f77b4;"/>
   </g>
   <g id="patch_110">
    <path clip-path="url(#pbf80f6dae4)" d="M 235.349509 58.721484 
L 236.868274 58.721484 
L 236.868274 58.721484 
L 235.349509 58.721484 
z
" style="fill:#1f77b4;"/>
   </g>
   <g id="patch_111">
    <path clip-path="url(#pbf80f6dae4)" d="M 237.045368 58.721484 
L 238.564132 58.721484 
L 238.564132 58.721484 
L 237.045368 58.721484 
z
" style="fill:#1f77b4;"/>
   </g>
   <g id="patch_112">
    <path clip-path="url(#pbf80f6dae4)" d="M 238.732987 58.721484 
L 240.251751 58.721484 
L 240.251751 58.721484 
L 238.732987 58.721484 
z
" style="fill:#1f77b4;"/>
   </g>
   <g id="patch_113">
    <path clip-path="url(#pbf80f6dae4)" d="M 240.420605 58.721484 
L 241.939369 58.721484 
L 241.939369 58.721484 
L 240.420605 58.721484 
z
" style="fill:#1f77b4;"/>
   </g>
   <g id="patch_114">
    <path clip-path="url(#pbf80f6dae4)" d="M 242.107709 58.721484 
L 243.626473 58.721484 
L 243.626473 58.721484 
L 242.107709 58.721484 
z
" style="fill:#1f77b4;"/>
   </g>
   <g id="patch_115">
    <path clip-path="url(#pbf80f6dae4)" d="M 243.795327 58.721484 
L 245.314092 58.721484 
L 245.314092 58.721484 
L 243.795327 58.721484 
z
" style="fill:#1f77b4;"/>
   </g>
   <g id="patch_116">
    <path clip-path="url(#pbf80f6dae4)" d="M 245.482946 58.721484 
L 247.00171 58.721484 
L 247.00171 58.721484 
L 245.482946 58.721484 
z
" style="fill:#1f77b4;"/>
   </g>
   <g id="patch_117">
    <path clip-path="url(#pbf80f6dae4)" d="M 247.178805 58.721484 
L 248.697569 58.721484 
L 248.697569 58.721484 
L 247.178805 58.721484 
z
" style="fill:#1f77b4;"/>
   </g>
   <g id="patch_118">
    <path clip-path="url(#pbf80f6dae4)" d="M 248.866423 58.721484 
L 250.385187 58.721484 
L 250.385187 58.721484 
L 248.866423 58.721484 
z
" style="fill:#1f77b4;"/>
   </g>
   <g id="patch_119">
    <path clip-path="url(#pbf80f6dae4)" d="M 250.554042 58.721484 
L 252.072806 58.721484 
L 252.072806 58.721484 
L 250.554042 58.721484 
z
" style="fill:#1f77b4;"/>
   </g>
   <g id="patch_120">
    <path clip-path="url(#pbf80f6dae4)" d="M 252.2499 58.721484 
L 253.768664 58.721484 
L 253.768664 58.721484 
L 252.2499 58.721484 
z
" style="fill:#1f77b4;"/>
   </g>
   <g id="patch_121">
    <path clip-path="url(#pbf80f6dae4)" d="M 254.072446 58.721484 
L 255.59121 58.721484 
L 255.59121 76.370391 
L 254.072446 76.370391 
z
" style="fill:#1f77b4;"/>
   </g>
   <g id="patch_122">
    <path clip-path="url(#pbf80f6dae4)" d="M 255.760065 58.721484 
L 257.278829 58.721484 
L 257.278829 36.660352 
L 255.760065 36.660352 
z
" style="fill:#1f77b4;"/>
   </g>
   <g id="patch_123">
    <path clip-path="url(#pbf80f6dae4)" d="M 257.455923 58.721484 
L 258.974687 58.721484 
L 258.974687 41.072578 
L 257.455923 41.072578 
z
" style="fill:#1f77b4;"/>
   </g>
   <g id="patch_124">
    <path clip-path="url(#pbf80f6dae4)" d="M 259.143542 58.721484 
L 260.662306 58.721484 
L 260.662306 54.309258 
L 259.143542 54.309258 
z
" style="fill:#1f77b4;"/>
   </g>
   <g id="patch_125">
    <path clip-path="url(#pbf80f6dae4)" d="M 260.966087 58.721484 
L 262.484851 58.721484 
L 262.484851 58.721484 
L 260.966087 58.721484 
z
" style="fill:#1f77b4;"/>
   </g>
   <g id="patch_126">
    <path clip-path="url(#pbf80f6dae4)" d="M 262.661946 58.721484 
L 264.18071 58.721484 
L 264.18071 58.721484 
L 262.661946 58.721484 
z
" style="fill:#1f77b4;"/>
   </g>
   <g id="patch_127">
    <path clip-path="url(#pbf80f6dae4)" d="M 264.484491 58.721484 
L 266.003256 58.721484 
L 266.003256 58.721484 
L 264.484491 58.721484 
z
" style="fill:#1f77b4;"/>
   </g>
   <g id="patch_128">
    <path clip-path="url(#pbf80f6dae4)" d="M 266.17211 58.721484 
L 267.690874 58.721484 
L 267.690874 58.721484 
L 266.17211 58.721484 
z
" style="fill:#1f77b4;"/>
   </g>
   <g id="patch_129">
    <path clip-path="url(#pbf80f6dae4)" d="M 267.859214 58.721484 
L 269.377978 58.721484 
L 269.377978 58.721484 
L 267.859214 58.721484 
z
" style="fill:#1f77b4;"/>
   </g>
   <g id="patch_130">
    <path clip-path="url(#pbf80f6dae4)" d="M 269.555587 58.721484 
L 271.074351 58.721484 
L 271.074351 58.721484 
L 269.555587 58.721484 
z
" style="fill:#1f77b4;"/>
   </g>
   <g id="patch_131">
    <path clip-path="url(#pbf80f6dae4)" d="M 271.251446 58.721484 
L 272.77021 58.721484 
L 272.77021 58.721484 
L 271.251446 58.721484 
z
" style="fill:#1f77b4;"/>
   </g>
   <g id="patch_132">
    <path clip-path="url(#pbf80f6dae4)" d="M 273.073991 58.721484 
L 274.592755 58.721484 
L 274.592755 58.721484 
L 273.073991 58.721484 
z
" style="fill:#1f77b4;"/>
   </g>
   <g id="patch_133">
    <path clip-path="url(#pbf80f6dae4)" d="M 274.904777 58.721484 
L 276.423541 58.721484 
L 276.423541 58.721484 
L 274.904777 58.721484 
z
" style="fill:#1f77b4;"/>
   </g>
   <g id="patch_134">
    <path clip-path="url(#pbf80f6dae4)" d="M 276.592395 58.721484 
L 278.11116 58.721484 
L 278.11116 58.721484 
L 276.592395 58.721484 
z
" style="fill:#1f77b4;"/>
   </g>
   <g id="patch_135">
    <path clip-path="url(#pbf80f6dae4)" d="M 278.423181 58.721484 
L 279.941945 58.721484 
L 279.941945 58.721484 
L 278.423181 58.721484 
z
" style="fill:#1f77b4;"/>
   </g>
   <g id="patch_136">
    <path clip-path="url(#pbf80f6dae4)" d="M 280.245727 58.721484 
L 281.764491 58.721484 
L 281.764491 54.309258 
L 280.245727 54.309258 
z
" style="fill:#1f77b4;"/>
   </g>
   <g id="patch_137">
    <path clip-path="url(#pbf80f6dae4)" d="M 281.941585 58.721484 
L 283.460349 58.721484 
L 283.460349 67.545937 
L 281.941585 67.545937 
z
" style="fill:#1f77b4;"/>
   </g>
   <g id="patch_138">
    <path clip-path="url(#pbf80f6dae4)" d="M 283.764131 58.721484 
L 285.282895 58.721484 
L 285.282895 58.721484 
L 283.764131 58.721484 
z
" style="fill:#1f77b4;"/>
   </g>
   <g id="patch_139">
    <path clip-path="url(#pbf80f6dae4)" d="M 285.45175 58.721484 
L 286.970514 58.721484 
L 286.970514 58.721484 
L 285.45175 58.721484 
z
" style="fill:#1f77b4;"/>
   </g>
   <g id="patch_140">
    <path clip-path="url(#pbf80f6dae4)" d="M 287.147608 58.721484 
L 288.666372 58.721484 
L 288.666372 58.721484 
L 287.147608 58.721484 
z
" style="fill:#1f77b4;"/>
   </g>
   <g id="patch_141">
    <path clip-path="url(#pbf80f6dae4)" d="M 288.835227 58.721484 
L 290.353991 58.721484 
L 290.353991 58.721484 
L 288.835227 58.721484 
z
" style="fill:#1f77b4;"/>
   </g>
   <g id="patch_142">
    <path clip-path="url(#pbf80f6dae4)" d="M 290.522845 58.721484 
L 292.041609 58.721484 
L 292.041609 58.721484 
L 290.522845 58.721484 
z
" style="fill:#1f77b4;"/>
   </g>
   <g id="patch_143">
    <path clip-path="url(#pbf80f6dae4)" d="M 292.218704 58.721484 
L 293.737468 58.721484 
L 293.737468 58.721484 
L 292.218704 58.721484 
z
" style="fill:#1f77b4;"/>
   </g>
   <g id="patch_144">
    <path clip-path="url(#pbf80f6dae4)" d="M 293.906322 58.721484 
L 295.425086 58.721484 
L 295.425086 58.721484 
L 293.906322 58.721484 
z
" style="fill:#1f77b4;"/>
   </g>
   <g id="patch_145">
    <path clip-path="url(#pbf80f6dae4)" d="M 295.593941 58.721484 
L 297.112705 58.721484 
L 297.112705 58.721484 
L 295.593941 58.721484 
z
" style="fill:#1f77b4;"/>
   </g>
   <g id="patch_146">
    <path clip-path="url(#pbf80f6dae4)" d="M 297.281045 58.721484 
L 298.799809 58.721484 
L 298.799809 58.721484 
L 297.281045 58.721484 
z
" style="fill:#1f77b4;"/>
   </g>
   <g id="patch_147">
    <path clip-path="url(#pbf80f6dae4)" d="M 298.968663 58.721484 
L 300.487427 58.721484 
L 300.487427 58.721484 
L 298.968663 58.721484 
z
" style="fill:#1f77b4;"/>
   </g>
   <g id="patch_148">
    <path clip-path="url(#pbf80f6dae4)" d="M 300.656282 58.721484 
L 302.175046 58.721484 
L 302.175046 58.721484 
L 300.656282 58.721484 
z
" style="fill:#1f77b4;"/>
   </g>
   <g id="patch_149">
    <path clip-path="url(#pbf80f6dae4)" d="M 302.3439 58.721484 
L 303.862664 58.721484 
L 303.862664 58.721484 
L 302.3439 58.721484 
z
" style="fill:#1f77b4;"/>
   </g>
   <g id="patch_150">
    <path clip-path="url(#pbf80f6dae4)" d="M 304.031519 58.721484 
L 305.550283 58.721484 
L 305.550283 58.721484 
L 304.031519 58.721484 
z
" style="fill:#1f77b4;"/>
   </g>
   <g id="patch_151">
    <path clip-path="url(#pbf80f6dae4)" d="M 305.718623 58.721484 
L 307.237387 58.721484 
L 307.237387 58.721484 
L 305.718623 58.721484 
z
" style="fill:#1f77b4;"/>
   </g>
   <g id="patch_152">
    <path clip-path="url(#pbf80f6dae4)" d="M 307.423236 58.721484 
L 308.942 58.721484 
L 308.942 58.721484 
L 307.423236 58.721484 
z
" style="fill:#1f77b4;"/>
   </g>
   <g id="patch_153">
    <path clip-path="url(#pbf80f6dae4)" d="M 309.245782 58.721484 
L 310.764546 58.721484 
L 310.764546 58.721484 
L 309.245782 58.721484 
z
" style="fill:#1f77b4;"/>
   </g>
   <g id="patch_154">
    <path clip-path="url(#pbf80f6dae4)" d="M 311.068327 58.721484 
L 312.587091 58.721484 
L 312.587091 58.721484 
L 311.068327 58.721484 
z
" style="fill:#1f77b4;"/>
   </g>
   <g id="patch_155">
    <path clip-path="url(#pbf80f6dae4)" d="M 312.764186 58.721484 
L 314.28295 58.721484 
L 314.28295 58.721484 
L 312.764186 58.721484 
z
" style="fill:#1f77b4;"/>
   </g>
   <g id="patch_156">
    <path clip-path="url(#pbf80f6dae4)" d="M 314.451804 58.721484 
L 315.970568 58.721484 
L 315.970568 58.721484 
L 314.451804 58.721484 
z
" style="fill:#1f77b4;"/>
   </g>
   <g id="patch_157">
    <path clip-path="url(#pbf80f6dae4)" d="M 316.139423 58.721484 
L 317.658187 58.721484 
L 317.658187 58.721484 
L 316.139423 58.721484 
z
" style="fill:#1f77b4;"/>
   </g>
   <g id="patch_158">
    <path clip-path="url(#pbf80f6dae4)" d="M 317.835281 58.721484 
L 319.354046 58.721484 
L 319.354046 58.721484 
L 317.835281 58.721484 
z
" style="fill:#1f77b4;"/>
   </g>
   <g id="patch_159">
    <path clip-path="url(#pbf80f6dae4)" d="M 319.657827 58.721484 
L 321.176591 58.721484 
L 321.176591 58.721484 
L 319.657827 58.721484 
z
" style="fill:#1f77b4;"/>
   </g>
   <g id="patch_160">
    <path clip-path="url(#pbf80f6dae4)" d="M 321.345446 58.721484 
L 322.86421 58.721484 
L 322.86421 58.721484 
L 321.345446 58.721484 
z
" style="fill:#1f77b4;"/>
   </g>
   <g id="patch_161">
    <path clip-path="url(#pbf80f6dae4)" d="M 323.032549 58.721484 
L 324.551314 58.721484 
L 324.551314 58.721484 
L 323.032549 58.721484 
z
" style="fill:#1f77b4;"/>
   </g>
   <g id="patch_162">
    <path clip-path="url(#pbf80f6dae4)" d="M 324.720168 58.721484 
L 326.238932 58.721484 
L 326.238932 58.721484 
L 324.720168 58.721484 
z
" style="fill:#1f77b4;"/>
   </g>
   <g id="patch_163">
    <path clip-path="url(#pbf80f6dae4)" d="M 326.416027 58.721484 
L 327.934791 58.721484 
L 327.934791 58.721484 
L 326.416027 58.721484 
z
" style="fill:#1f77b4;"/>
   </g>
   <g id="patch_164">
    <path clip-path="url(#pbf80f6dae4)" d="M 328.247327 58.721484 
L 329.766091 58.721484 
L 329.766091 45.484805 
L 328.247327 45.484805 
z
" style="fill:#1f77b4;"/>
   </g>
   <g id="patch_165">
    <path clip-path="url(#pbf80f6dae4)" d="M 330.069873 58.721484 
L 331.588637 58.721484 
L 331.588637 49.897031 
L 330.069873 49.897031 
z
" style="fill:#1f77b4;"/>
   </g>
   <g id="patch_166">
    <path clip-path="url(#pbf80f6dae4)" d="M 331.765731 58.721484 
L 333.284495 58.721484 
L 333.284495 76.370391 
L 331.765731 76.370391 
z
" style="fill:#1f77b4;"/>
   </g>
   <g id="patch_167">
    <path clip-path="url(#pbf80f6dae4)" d="M 333.46159 58.721484 
L 334.980354 58.721484 
L 334.980354 41.072578 
L 333.46159 41.072578 
z
" style="fill:#1f77b4;"/>
   </g>
   <g id="patch_168">
    <path clip-path="url(#pbf80f6dae4)" d="M 335.275896 58.721484 
L 336.79466 58.721484 
L 336.79466 58.721484 
L 335.275896 58.721484 
z
" style="fill:#1f77b4;"/>
   </g>
   <g id="patch_169">
    <path clip-path="url(#pbf80f6dae4)" d="M 336.971754 58.721484 
L 338.490518 58.721484 
L 338.490518 58.721484 
L 336.971754 58.721484 
z
" style="fill:#1f77b4;"/>
   </g>
   <g id="patch_170">
    <path clip-path="url(#pbf80f6dae4)" d="M 338.658858 58.721484 
L 340.177622 58.721484 
L 340.177622 58.721484 
L 338.658858 58.721484 
z
" style="fill:#1f77b4;"/>
   </g>
   <g id="patch_171">
    <path clip-path="url(#pbf80f6dae4)" d="M 340.346476 58.721484 
L 341.86524 58.721484 
L 341.86524 58.721484 
L 340.346476 58.721484 
z
" style="fill:#1f77b4;"/>
   </g>
   <g id="patch_172">
    <path clip-path="url(#pbf80f6dae4)" d="M 342.034095 58.721484 
L 343.552859 58.721484 
L 343.552859 58.721484 
L 342.034095 58.721484 
z
" style="fill:#1f77b4;"/>
   </g>
   <g id="patch_173">
    <path clip-path="url(#pbf80f6dae4)" d="M 343.721713 58.721484 
L 345.240478 58.721484 
L 345.240478 58.721484 
L 343.721713 58.721484 
z
" style="fill:#1f77b4;"/>
   </g>
   <g id="patch_174">
    <path clip-path="url(#pbf80f6dae4)" d="M 345.409332 58.721484 
L 346.928096 58.721484 
L 346.928096 58.721484 
L 345.409332 58.721484 
z
" style="fill:#1f77b4;"/>
   </g>
   <g id="patch_175">
    <path clip-path="url(#pbf80f6dae4)" d="M 347.096436 58.721484 
L 348.6152 58.721484 
L 348.6152 58.721484 
L 347.096436 58.721484 
z
" style="fill:#1f77b4;"/>
   </g>
   <g id="patch_176">
    <path clip-path="url(#pbf80f6dae4)" d="M 348.792809 58.721484 
L 350.311573 58.721484 
L 350.311573 58.721484 
L 348.792809 58.721484 
z
" style="fill:#1f77b4;"/>
   </g>
   <g id="patch_177">
    <path clip-path="url(#pbf80f6dae4)" d="M 350.479913 58.721484 
L 351.998677 58.721484 
L 351.998677 58.721484 
L 350.479913 58.721484 
z
" style="fill:#1f77b4;"/>
   </g>
   <g id="patch_178">
    <path clip-path="url(#pbf80f6dae4)" d="M 352.167531 58.721484 
L 353.686296 58.721484 
L 353.686296 58.721484 
L 352.167531 58.721484 
z
" style="fill:#1f77b4;"/>
   </g>
   <g id="patch_179">
    <path clip-path="url(#pbf80f6dae4)" d="M 353.85515 58.721484 
L 355.373914 58.721484 
L 355.373914 58.721484 
L 353.85515 58.721484 
z
" style="fill:#1f77b4;"/>
   </g>
   <g id="patch_180">
    <path clip-path="url(#pbf80f6dae4)" d="M 355.542769 58.721484 
L 357.061533 58.721484 
L 357.061533 58.721484 
L 355.542769 58.721484 
z
" style="fill:#1f77b4;"/>
   </g>
   <g id="patch_181">
    <path clip-path="url(#pbf80f6dae4)" d="M 357.238627 58.721484 
L 358.757391 58.721484 
L 358.757391 58.721484 
L 357.238627 58.721484 
z
" style="fill:#1f77b4;"/>
   </g>
   <g id="patch_182">
    <path clip-path="url(#pbf80f6dae4)" d="M 358.926246 58.721484 
L 360.44501 58.721484 
L 360.44501 58.721484 
L 358.926246 58.721484 
z
" style="fill:#1f77b4;"/>
   </g>
   <g id="patch_183">
    <path clip-path="url(#pbf80f6dae4)" d="M 360.622104 58.721484 
L 362.140868 58.721484 
L 362.140868 58.721484 
L 360.622104 58.721484 
z
" style="fill:#1f77b4;"/>
   </g>
   <g id="patch_184">
    <path clip-path="url(#pbf80f6dae4)" d="M 362.44465 58.721484 
L 363.963414 58.721484 
L 363.963414 58.721484 
L 362.44465 58.721484 
z
" style="fill:#1f77b4;"/>
   </g>
   <g id="patch_185">
    <path clip-path="url(#pbf80f6dae4)" d="M 364.132269 58.721484 
L 365.651033 58.721484 
L 365.651033 58.721484 
L 364.132269 58.721484 
z
" style="fill:#1f77b4;"/>
   </g>
   <g id="patch_186">
    <path clip-path="url(#pbf80f6dae4)" d="M 365.828127 58.721484 
L 367.346891 58.721484 
L 367.346891 58.721484 
L 365.828127 58.721484 
z
" style="fill:#1f77b4;"/>
   </g>
   <g id="patch_187">
    <path clip-path="url(#pbf80f6dae4)" d="M 367.650673 58.721484 
L 369.169437 58.721484 
L 369.169437 58.721484 
L 367.650673 58.721484 
z
" style="fill:#1f77b4;"/>
   </g>
   <g id="patch_188">
    <path clip-path="url(#pbf80f6dae4)" d="M 369.338291 58.721484 
L 370.857055 58.721484 
L 370.857055 58.721484 
L 369.338291 58.721484 
z
" style="fill:#1f77b4;"/>
   </g>
   <g id="patch_189">
    <path clip-path="url(#pbf80f6dae4)" d="M 371.03415 58.721484 
L 372.552914 58.721484 
L 372.552914 58.721484 
L 371.03415 58.721484 
z
" style="fill:#1f77b4;"/>
   </g>
   <g id="patch_190">
    <path clip-path="url(#pbf80f6dae4)" d="M 372.721768 58.721484 
L 374.240532 58.721484 
L 374.240532 58.721484 
L 372.721768 58.721484 
z
" style="fill:#1f77b4;"/>
   </g>
   <g id="patch_191">
    <path clip-path="url(#pbf80f6dae4)" d="M 374.408872 58.721484 
L 375.927636 58.721484 
L 375.927636 58.721484 
L 374.408872 58.721484 
z
" style="fill:#1f77b4;"/>
   </g>
   <g id="patch_192">
    <path clip-path="url(#pbf80f6dae4)" d="M 376.096491 58.721484 
L 377.615255 58.721484 
L 377.615255 58.721484 
L 376.096491 58.721484 
z
" style="fill:#1f77b4;"/>
   </g>
   <g id="patch_193">
    <path clip-path="url(#pbf80f6dae4)" d="M 377.784109 58.721484 
L 379.302873 58.721484 
L 379.302873 58.721484 
L 377.784109 58.721484 
z
" style="fill:#1f77b4;"/>
   </g>
   <g id="patch_194">
    <path clip-path="url(#pbf80f6dae4)" d="M 379.479968 58.721484 
L 380.998732 58.721484 
L 380.998732 58.721484 
L 379.479968 58.721484 
z
" style="fill:#1f77b4;"/>
   </g>
   <g id="patch_195">
    <path clip-path="url(#pbf80f6dae4)" d="M 381.167586 58.721484 
L 382.68635 58.721484 
L 382.68635 58.721484 
L 381.167586 58.721484 
z
" style="fill:#1f77b4;"/>
   </g>
   <g id="patch_196">
    <path clip-path="url(#pbf80f6dae4)" d="M 382.998372 58.721484 
L 384.517136 58.721484 
L 384.517136 58.721484 
L 382.998372 58.721484 
z
" style="fill:#1f77b4;"/>
   </g>
   <g id="patch_197">
    <path clip-path="url(#pbf80f6dae4)" d="M 384.820918 58.721484 
L 386.339682 58.721484 
L 386.339682 54.309258 
L 384.820918 54.309258 
z
" style="fill:#1f77b4;"/>
   </g>
   <g id="patch_198">
    <path clip-path="url(#pbf80f6dae4)" d="M 386.508536 58.721484 
L 388.0273 58.721484 
L 388.0273 58.721484 
L 386.508536 58.721484 
z
" style="fill:#1f77b4;"/>
   </g>
   <g id="patch_199">
    <path clip-path="url(#pbf80f6dae4)" d="M 388.196155 58.721484 
L 389.714919 58.721484 
L 389.714919 54.309258 
L 388.196155 54.309258 
z
" style="fill:#1f77b4;"/>
   </g>
   <g id="patch_200">
    <path clip-path="url(#pbf80f6dae4)" d="M 389.883773 58.721484 
L 391.402538 58.721484 
L 391.402538 58.721484 
L 389.883773 58.721484 
z
" style="fill:#1f77b4;"/>
   </g>
   <g id="patch_201">
    <path clip-path="url(#pbf80f6dae4)" d="M 391.571392 58.721484 
L 393.090156 58.721484 
L 393.090156 67.545937 
L 391.571392 67.545937 
z
" style="fill:#1f77b4;"/>
   </g>
   <g id="patch_202">
    <path clip-path="url(#pbf80f6dae4)" d="M 393.267251 58.721484 
L 394.786015 58.721484 
L 394.786015 63.133711 
L 393.267251 63.133711 
z
" style="fill:#1f77b4;"/>
   </g>
   <g id="patch_203">
    <path clip-path="url(#pbf80f6dae4)" d="M 394.954869 58.721484 
L 396.473633 58.721484 
L 396.473633 63.133711 
L 394.954869 63.133711 
z
" style="fill:#1f77b4;"/>
   </g>
   <g id="patch_204">
    <path clip-path="url(#pbf80f6dae4)" d="M 396.641973 58.721484 
L 398.160737 58.721484 
L 398.160737 58.721484 
L 396.641973 58.721484 
z
" style="fill:#1f77b4;"/>
   </g>
   <g id="patch_205">
    <path clip-path="url(#pbf80f6dae4)" d="M 398.338346 58.721484 
L 399.85711 58.721484 
L 399.85711 85.194844 
L 398.338346 85.194844 
z
" style="fill:#1f77b4;"/>
   </g>
   <g id="patch_206">
    <path clip-path="url(#pbf80f6dae4)" d="M 400.160377 58.721484 
L 401.679141 58.721484 
L 401.679141 58.721484 
L 400.160377 58.721484 
z
" style="fill:#1f77b4;"/>
   </g>
   <g id="patch_207">
    <path clip-path="url(#pbf80f6dae4)" d="M 401.847996 58.721484 
L 403.36676 58.721484 
L 403.36676 58.721484 
L 401.847996 58.721484 
z
" style="fill:#1f77b4;"/>
   </g>
   <g id="patch_208">
    <path clip-path="url(#pbf80f6dae4)" d="M 403.535614 58.721484 
L 405.054378 58.721484 
L 405.054378 45.484805 
L 403.535614 45.484805 
z
" style="fill:#1f77b4;"/>
   </g>
   <g id="patch_209">
    <path clip-path="url(#pbf80f6dae4)" d="M 405.231473 58.721484 
L 406.750237 58.721484 
L 406.750237 58.721484 
L 405.231473 58.721484 
z
" style="fill:#1f77b4;"/>
   </g>
   <g id="patch_210">
    <path clip-path="url(#pbf80f6dae4)" d="M 406.919091 58.721484 
L 408.437855 58.721484 
L 408.437855 58.721484 
L 406.919091 58.721484 
z
" style="fill:#1f77b4;"/>
   </g>
   <g id="patch_211">
    <path clip-path="url(#pbf80f6dae4)" d="M 408.749877 58.721484 
L 410.268641 58.721484 
L 410.268641 58.721484 
L 408.749877 58.721484 
z
" style="fill:#1f77b4;"/>
   </g>
   <g id="patch_212">
    <path clip-path="url(#pbf80f6dae4)" d="M 410.437495 58.721484 
L 411.956259 58.721484 
L 411.956259 58.721484 
L 410.437495 58.721484 
z
" style="fill:#1f77b4;"/>
   </g>
   <g id="patch_213">
    <path clip-path="url(#pbf80f6dae4)" d="M 412.125114 58.721484 
L 413.643878 58.721484 
L 413.643878 58.721484 
L 412.125114 58.721484 
z
" style="fill:#1f77b4;"/>
   </g>
   <g id="patch_214">
    <path clip-path="url(#pbf80f6dae4)" d="M 413.820972 58.721484 
L 415.339737 58.721484 
L 415.339737 58.721484 
L 413.820972 58.721484 
z
" style="fill:#1f77b4;"/>
   </g>
   <g id="patch_215">
    <path clip-path="url(#pbf80f6dae4)" d="M 415.635278 58.721484 
L 417.154042 58.721484 
L 417.154042 58.721484 
L 415.635278 58.721484 
z
" style="fill:#1f77b4;"/>
   </g>
   <g id="patch_216">
    <path clip-path="url(#pbf80f6dae4)" d="M 417.331137 58.721484 
L 418.849901 58.721484 
L 418.849901 58.721484 
L 417.331137 58.721484 
z
" style="fill:#1f77b4;"/>
   </g>
   <g id="patch_217">
    <path clip-path="url(#pbf80f6dae4)" d="M 419.178917 58.721484 
L 420.697681 58.721484 
L 420.697681 58.721484 
L 419.178917 58.721484 
z
" style="fill:#1f77b4;"/>
   </g>
   <g id="patch_218">
    <path clip-path="url(#pbf80f6dae4)" d="M 420.984468 58.721484 
L 422.503232 58.721484 
L 422.503232 58.721484 
L 420.984468 58.721484 
z
" style="fill:#1f77b4;"/>
   </g>
   <g id="patch_219">
    <path clip-path="url(#pbf80f6dae4)" d="M 422.672087 58.721484 
L 424.190851 58.721484 
L 424.190851 58.721484 
L 422.672087 58.721484 
z
" style="fill:#1f77b4;"/>
   </g>
   <g id="patch_220">
    <path clip-path="url(#pbf80f6dae4)" d="M 424.367945 58.721484 
L 425.886709 58.721484 
L 425.886709 58.721484 
L 424.367945 58.721484 
z
" style="fill:#1f77b4;"/>
   </g>
   <g id="patch_221">
    <path clip-path="url(#pbf80f6dae4)" d="M 426.055564 58.721484 
L 427.574328 58.721484 
L 427.574328 58.721484 
L 426.055564 58.721484 
z
" style="fill:#1f77b4;"/>
   </g>
   <g id="patch_222">
    <path clip-path="url(#pbf80f6dae4)" d="M 427.751422 58.721484 
L 429.270186 58.721484 
L 429.270186 58.721484 
L 427.751422 58.721484 
z
" style="fill:#1f77b4;"/>
   </g>
   <g id="patch_223">
    <path clip-path="url(#pbf80f6dae4)" d="M 429.573968 58.721484 
L 431.092732 58.721484 
L 431.092732 54.309258 
L 429.573968 54.309258 
z
" style="fill:#1f77b4;"/>
   </g>
   <g id="patch_224">
    <path clip-path="url(#pbf80f6dae4)" d="M 431.269826 58.721484 
L 432.78859 58.721484 
L 432.78859 63.133711 
L 431.269826 63.133711 
z
" style="fill:#1f77b4;"/>
   </g>
   <g id="patch_225">
    <path clip-path="url(#pbf80f6dae4)" d="M 432.957445 58.721484 
L 434.476209 58.721484 
L 434.476209 63.133711 
L 432.957445 63.133711 
z
" style="fill:#1f77b4;"/>
   </g>
   <g id="patch_226">
    <path clip-path="url(#pbf80f6dae4)" d="M 434.645064 58.721484 
L 436.163828 58.721484 
L 436.163828 41.072578 
L 434.645064 41.072578 
z
" style="fill:#1f77b4;"/>
   </g>
   <g id="patch_227">
    <path clip-path="url(#pbf80f6dae4)" d="M 436.332682 58.721484 
L 437.851446 58.721484 
L 437.851446 45.484805 
L 436.332682 45.484805 
z
" style="fill:#1f77b4;"/>
   </g>
   <g id="patch_228">
    <path clip-path="url(#pbf80f6dae4)" d="M 438.019786 58.721484 
L 439.53855 58.721484 
L 439.53855 67.545937 
L 438.019786 67.545937 
z
" style="fill:#1f77b4;"/>
   </g>
   <g id="patch_229">
    <path clip-path="url(#pbf80f6dae4)" d="M 439.707404 58.721484 
L 441.226169 58.721484 
L 441.226169 58.721484 
L 439.707404 58.721484 
z
" style="fill:#1f77b4;"/>
   </g>
   <g id="patch_230">
    <path clip-path="url(#pbf80f6dae4)" d="M 441.395023 58.721484 
L 442.913787 58.721484 
L 442.913787 54.309258 
L 441.395023 54.309258 
z
" style="fill:#1f77b4;"/>
   </g>
   <g id="patch_231">
    <path clip-path="url(#pbf80f6dae4)" d="M 443.090882 58.721484 
L 444.609646 58.721484 
L 444.609646 63.133711 
L 443.090882 63.133711 
z
" style="fill:#1f77b4;"/>
   </g>
   <g id="patch_232">
    <path clip-path="url(#pbf80f6dae4)" d="M 444.7785 58.721484 
L 446.297264 58.721484 
L 446.297264 67.545937 
L 444.7785 67.545937 
z
" style="fill:#1f77b4;"/>
   </g>
   <g id="patch_233">
    <path clip-path="url(#pbf80f6dae4)" d="M 446.609286 58.721484 
L 448.12805 58.721484 
L 448.12805 58.721484 
L 446.609286 58.721484 
z
" style="fill:#1f77b4;"/>
   </g>
   <g id="patch_234">
    <path clip-path="url(#pbf80f6dae4)" d="M 448.440586 58.721484 
L 449.95935 58.721484 
L 449.95935 58.721484 
L 448.440586 58.721484 
z
" style="fill:#1f77b4;"/>
   </g>
   <g id="patch_235">
    <path clip-path="url(#pbf80f6dae4)" d="M 450.263132 58.721484 
L 451.781896 58.721484 
L 451.781896 58.721484 
L 450.263132 58.721484 
z
" style="fill:#1f77b4;"/>
   </g>
   <g id="patch_236">
    <path clip-path="url(#pbf80f6dae4)" d="M 451.950236 58.721484 
L 453.469 58.721484 
L 453.469 58.721484 
L 451.950236 58.721484 
z
" style="fill:#1f77b4;"/>
   </g>
   <g id="patch_237">
    <path clip-path="url(#pbf80f6dae4)" d="M 453.663089 58.721484 
L 455.181853 58.721484 
L 455.181853 58.721484 
L 453.663089 58.721484 
z
" style="fill:#1f77b4;"/>
   </g>
   <g id="patch_238">
    <path clip-path="url(#pbf80f6dae4)" d="M 455.469155 58.721484 
L 456.987919 58.721484 
L 456.987919 58.721484 
L 455.469155 58.721484 
z
" style="fill:#1f77b4;"/>
   </g>
   <g id="patch_239">
    <path clip-path="url(#pbf80f6dae4)" d="M 457.165013 58.721484 
L 458.683777 58.721484 
L 458.683777 58.721484 
L 457.165013 58.721484 
z
" style="fill:#1f77b4;"/>
   </g>
   <g id="patch_240">
    <path clip-path="url(#pbf80f6dae4)" d="M 458.852632 58.721484 
L 460.371396 58.721484 
L 460.371396 58.721484 
L 458.852632 58.721484 
z
" style="fill:#1f77b4;"/>
   </g>
   <g id="patch_241">
    <path clip-path="url(#pbf80f6dae4)" d="M 460.683417 58.721484 
L 462.202181 58.721484 
L 462.202181 58.721484 
L 460.683417 58.721484 
z
" style="fill:#1f77b4;"/>
   </g>
   <g id="patch_242">
    <path clip-path="url(#pbf80f6dae4)" d="M 462.371036 58.721484 
L 463.8898 58.721484 
L 463.8898 58.721484 
L 462.371036 58.721484 
z
" style="fill:#1f77b4;"/>
   </g>
   <g id="patch_243">
    <path clip-path="url(#pbf80f6dae4)" d="M 464.058655 58.721484 
L 465.577419 58.721484 
L 465.577419 58.721484 
L 464.058655 58.721484 
z
" style="fill:#1f77b4;"/>
   </g>
   <g id="patch_244">
    <path clip-path="url(#pbf80f6dae4)" d="M 465.745758 58.721484 
L 467.264522 58.721484 
L 467.264522 58.721484 
L 465.745758 58.721484 
z
" style="fill:#1f77b4;"/>
   </g>
   <g id="patch_245">
    <path clip-path="url(#pbf80f6dae4)" d="M 467.441617 58.721484 
L 468.960381 58.721484 
L 468.960381 58.721484 
L 467.441617 58.721484 
z
" style="fill:#1f77b4;"/>
   </g>
   <g id="patch_246">
    <path clip-path="url(#pbf80f6dae4)" d="M 469.264162 58.721484 
L 470.782926 58.721484 
L 470.782926 76.370391 
L 469.264162 76.370391 
z
" style="fill:#1f77b4;"/>
   </g>
   <g id="patch_247">
    <path clip-path="url(#pbf80f6dae4)" d="M 471.086708 58.721484 
L 472.605472 58.721484 
L 472.605472 58.721484 
L 471.086708 58.721484 
z
" style="fill:#1f77b4;"/>
   </g>
   <g id="patch_248">
    <path clip-path="url(#pbf80f6dae4)" d="M 472.783082 58.721484 
L 474.301846 58.721484 
L 474.301846 58.721484 
L 472.783082 58.721484 
z
" style="fill:#1f77b4;"/>
   </g>
   <g id="patch_249">
    <path clip-path="url(#pbf80f6dae4)" d="M 474.47894 58.721484 
L 475.997704 58.721484 
L 475.997704 58.721484 
L 474.47894 58.721484 
z
" style="fill:#1f77b4;"/>
   </g>
   <g id="patch_250">
    <path clip-path="url(#pbf80f6dae4)" d="M 476.301486 58.721484 
L 477.82025 58.721484 
L 477.82025 58.721484 
L 476.301486 58.721484 
z
" style="fill:#1f77b4;"/>
   </g>
   <g id="patch_251">
    <path clip-path="url(#pbf80f6dae4)" d="M 477.988589 58.721484 
L 479.507353 58.721484 
L 479.507353 58.721484 
L 477.988589 58.721484 
z
" style="fill:#1f77b4;"/>
   </g>
   <g id="patch_252">
    <path clip-path="url(#pbf80f6dae4)" d="M 479.684963 58.721484 
L 481.203727 58.721484 
L 481.203727 58.721484 
L 479.684963 58.721484 
z
" style="fill:#1f77b4;"/>
   </g>
   <g id="patch_253">
    <path clip-path="url(#pbf80f6dae4)" d="M 481.515748 58.721484 
L 483.034512 58.721484 
L 483.034512 58.721484 
L 481.515748 58.721484 
z
" style="fill:#1f77b4;"/>
   </g>
   <g id="patch_254">
    <path clip-path="url(#pbf80f6dae4)" d="M 483.338294 58.721484 
L 484.857058 58.721484 
L 484.857058 58.721484 
L 483.338294 58.721484 
z
" style="fill:#1f77b4;"/>
   </g>
   <g id="patch_255">
    <path clip-path="url(#pbf80f6dae4)" d="M 485.025913 58.721484 
L 486.544677 58.721484 
L 486.544677 58.721484 
L 485.025913 58.721484 
z
" style="fill:#1f77b4;"/>
   </g>
   <g id="patch_256">
    <path clip-path="url(#pbf80f6dae4)" d="M 486.713531 58.721484 
L 488.232295 58.721484 
L 488.232295 58.721484 
L 486.713531 58.721484 
z
" style="fill:#1f77b4;"/>
   </g>
   <g id="patch_257">
    <path clip-path="url(#pbf80f6dae4)" d="M 488.400635 58.721484 
L 489.919399 58.721484 
L 489.919399 58.721484 
L 488.400635 58.721484 
z
" style="fill:#1f77b4;"/>
   </g>
   <g id="patch_258">
    <path clip-path="url(#pbf80f6dae4)" d="M 490.088254 58.721484 
L 491.607018 58.721484 
L 491.607018 58.721484 
L 490.088254 58.721484 
z
" style="fill:#1f77b4;"/>
   </g>
   <g id="patch_259">
    <path clip-path="url(#pbf80f6dae4)" d="M 491.784112 58.721484 
L 493.302876 58.721484 
L 493.302876 58.721484 
L 491.784112 58.721484 
z
" style="fill:#1f77b4;"/>
   </g>
   <g id="patch_260">
    <path clip-path="url(#pbf80f6dae4)" d="M 493.606658 58.721484 
L 495.125422 58.721484 
L 495.125422 58.721484 
L 493.606658 58.721484 
z
" style="fill:#1f77b4;"/>
   </g>
   <g id="patch_261">
    <path clip-path="url(#pbf80f6dae4)" d="M 495.302516 58.721484 
L 496.82128 58.721484 
L 496.82128 58.721484 
L 495.302516 58.721484 
z
" style="fill:#1f77b4;"/>
   </g>
   <g id="patch_262">
    <path clip-path="url(#pbf80f6dae4)" d="M 496.990135 58.721484 
L 498.508899 58.721484 
L 498.508899 58.721484 
L 496.990135 58.721484 
z
" style="fill:#1f77b4;"/>
   </g>
   <g id="patch_263">
    <path clip-path="url(#pbf80f6dae4)" d="M 498.677753 58.721484 
L 500.196517 58.721484 
L 500.196517 58.721484 
L 498.677753 58.721484 
z
" style="fill:#1f77b4;"/>
   </g>
   <g id="patch_264">
    <path clip-path="url(#pbf80f6dae4)" d="M 500.365372 58.721484 
L 501.884136 58.721484 
L 501.884136 58.721484 
L 500.365372 58.721484 
z
" style="fill:#1f77b4;"/>
   </g>
   <g id="patch_265">
    <path clip-path="url(#pbf80f6dae4)" d="M 502.06123 58.721484 
L 503.579994 58.721484 
L 503.579994 58.721484 
L 502.06123 58.721484 
z
" style="fill:#1f77b4;"/>
   </g>
   <g id="patch_266">
    <path clip-path="url(#pbf80f6dae4)" d="M 503.892016 58.721484 
L 505.41078 58.721484 
L 505.41078 58.721484 
L 503.892016 58.721484 
z
" style="fill:#1f77b4;"/>
   </g>
   <g id="patch_267">
    <path clip-path="url(#pbf80f6dae4)" d="M 505.714562 58.721484 
L 507.233326 58.721484 
L 507.233326 58.721484 
L 505.714562 58.721484 
z
" style="fill:#1f77b4;"/>
   </g>
   <g id="patch_268">
    <path clip-path="url(#pbf80f6dae4)" d="M 507.40218 58.721484 
L 508.920944 58.721484 
L 508.920944 58.721484 
L 507.40218 58.721484 
z
" style="fill:#1f77b4;"/>
   </g>
   <g id="patch_269">
    <path clip-path="url(#pbf80f6dae4)" d="M 509.089799 58.721484 
L 510.608563 58.721484 
L 510.608563 58.721484 
L 509.089799 58.721484 
z
" style="fill:#1f77b4;"/>
   </g>
   <g id="patch_270">
    <path clip-path="url(#pbf80f6dae4)" d="M 510.777418 58.721484 
L 512.296182 58.721484 
L 512.296182 58.721484 
L 510.777418 58.721484 
z
" style="fill:#1f77b4;"/>
   </g>
   <g id="patch_271">
    <path clip-path="url(#pbf80f6dae4)" d="M 512.473276 58.721484 
L 513.99204 58.721484 
L 513.99204 58.721484 
L 512.473276 58.721484 
z
" style="fill:#1f77b4;"/>
   </g>
   <g id="patch_272">
    <path clip-path="url(#pbf80f6dae4)" d="M 514.160895 58.721484 
L 515.679659 58.721484 
L 515.679659 58.721484 
L 514.160895 58.721484 
z
" style="fill:#1f77b4;"/>
   </g>
   <g id="patch_273">
    <path clip-path="url(#pbf80f6dae4)" d="M 515.847998 58.721484 
L 517.366762 58.721484 
L 517.366762 58.721484 
L 515.847998 58.721484 
z
" style="fill:#1f77b4;"/>
   </g>
   <g id="patch_274">
    <path clip-path="url(#pbf80f6dae4)" d="M 517.670544 58.721484 
L 519.189308 58.721484 
L 519.189308 58.721484 
L 517.670544 58.721484 
z
" style="fill:#1f77b4;"/>
   </g>
   <g id="patch_275">
    <path clip-path="url(#pbf80f6dae4)" d="M 519.358163 58.721484 
L 520.876927 58.721484 
L 520.876927 58.721484 
L 519.358163 58.721484 
z
" style="fill:#1f77b4;"/>
   </g>
   <g id="patch_276">
    <path clip-path="url(#pbf80f6dae4)" d="M 521.062776 58.721484 
L 522.58154 58.721484 
L 522.58154 58.721484 
L 521.062776 58.721484 
z
" style="fill:#1f77b4;"/>
   </g>
   <g id="patch_277">
    <path clip-path="url(#pbf80f6dae4)" d="M 522.750394 58.721484 
L 524.269159 58.721484 
L 524.269159 58.721484 
L 522.750394 58.721484 
z
" style="fill:#1f77b4;"/>
   </g>
   <g id="patch_278">
    <path clip-path="url(#pbf80f6dae4)" d="M 524.564185 58.721484 
L 526.082949 58.721484 
L 526.082949 58.721484 
L 524.564185 58.721484 
z
" style="fill:#1f77b4;"/>
   </g>
   <g id="patch_279">
    <path clip-path="url(#pbf80f6dae4)" d="M 526.260044 58.721484 
L 527.778808 58.721484 
L 527.778808 58.721484 
L 526.260044 58.721484 
z
" style="fill:#1f77b4;"/>
   </g>
   <g id="patch_280">
    <path clip-path="url(#pbf80f6dae4)" d="M 527.947662 58.721484 
L 529.466427 58.721484 
L 529.466427 58.721484 
L 527.947662 58.721484 
z
" style="fill:#1f77b4;"/>
   </g>
   <g id="patch_281">
    <path clip-path="url(#pbf80f6dae4)" d="M 529.635281 58.721484 
L 531.154045 58.721484 
L 531.154045 58.721484 
L 529.635281 58.721484 
z
" style="fill:#1f77b4;"/>
   </g>
   <g id="patch_282">
    <path clip-path="url(#pbf80f6dae4)" d="M 531.3229 58.721484 
L 532.841664 58.721484 
L 532.841664 58.721484 
L 531.3229 58.721484 
z
" style="fill:#1f77b4;"/>
   </g>
   <g id="patch_283">
    <path clip-path="url(#pbf80f6dae4)" d="M 533.010518 58.721484 
L 534.529282 58.721484 
L 534.529282 58.721484 
L 533.010518 58.721484 
z
" style="fill:#1f77b4;"/>
   </g>
   <g id="patch_284">
    <path clip-path="url(#pbf80f6dae4)" d="M 534.706377 58.721484 
L 536.225141 58.721484 
L 536.225141 58.721484 
L 534.706377 58.721484 
z
" style="fill:#1f77b4;"/>
   </g>
   <g id="patch_285">
    <path clip-path="url(#pbf80f6dae4)" d="M 536.393995 58.721484 
L 537.912759 58.721484 
L 537.912759 58.721484 
L 536.393995 58.721484 
z
" style="fill:#1f77b4;"/>
   </g>
   <g id="patch_286">
    <path clip-path="url(#pbf80f6dae4)" d="M 538.081099 58.721484 
L 539.599863 58.721484 
L 539.599863 58.721484 
L 538.081099 58.721484 
z
" style="fill:#1f77b4;"/>
   </g>
   <g id="patch_287">
    <path clip-path="url(#pbf80f6dae4)" d="M 539.768718 58.721484 
L 541.287482 58.721484 
L 541.287482 58.721484 
L 539.768718 58.721484 
z
" style="fill:#1f77b4;"/>
   </g>
   <g id="patch_288">
    <path clip-path="url(#pbf80f6dae4)" d="M 541.464576 58.721484 
L 542.98334 58.721484 
L 542.98334 58.721484 
L 541.464576 58.721484 
z
" style="fill:#1f77b4;"/>
   </g>
   <g id="patch_289">
    <path clip-path="url(#pbf80f6dae4)" d="M 543.152195 58.721484 
L 544.670959 58.721484 
L 544.670959 58.721484 
L 543.152195 58.721484 
z
" style="fill:#1f77b4;"/>
   </g>
   <g id="patch_290">
    <path clip-path="url(#pbf80f6dae4)" d="M 544.839813 58.721484 
L 546.358577 58.721484 
L 546.358577 58.721484 
L 544.839813 58.721484 
z
" style="fill:#1f77b4;"/>
   </g>
   <g id="patch_291">
    <path clip-path="url(#pbf80f6dae4)" d="M 546.527432 58.721484 
L 548.046196 58.721484 
L 548.046196 58.721484 
L 546.527432 58.721484 
z
" style="fill:#1f77b4;"/>
   </g>
   <g id="patch_292">
    <path clip-path="url(#pbf80f6dae4)" d="M 548.22329 58.721484 
L 549.742054 58.721484 
L 549.742054 58.721484 
L 548.22329 58.721484 
z
" style="fill:#1f77b4;"/>
   </g>
   <g id="patch_293">
    <path clip-path="url(#pbf80f6dae4)" d="M 549.910909 58.721484 
L 551.429673 58.721484 
L 551.429673 58.721484 
L 549.910909 58.721484 
z
" style="fill:#1f77b4;"/>
   </g>
   <g id="patch_294">
    <path clip-path="url(#pbf80f6dae4)" d="M 551.598528 58.721484 
L 553.117292 58.721484 
L 553.117292 58.721484 
L 551.598528 58.721484 
z
" style="fill:#1f77b4;"/>
   </g>
   <g id="patch_295">
    <path clip-path="url(#pbf80f6dae4)" d="M 553.285631 58.721484 
L 554.804395 58.721484 
L 554.804395 58.721484 
L 553.285631 58.721484 
z
" style="fill:#1f77b4;"/>
   </g>
   <g id="patch_296">
    <path clip-path="url(#pbf80f6dae4)" d="M 554.97325 58.721484 
L 556.492014 58.721484 
L 556.492014 58.721484 
L 554.97325 58.721484 
z
" style="fill:#1f77b4;"/>
   </g>
   <g id="patch_297">
    <path clip-path="url(#pbf80f6dae4)" d="M 556.660869 58.721484 
L 558.179633 58.721484 
L 558.179633 58.721484 
L 556.660869 58.721484 
z
" style="fill:#1f77b4;"/>
   </g>
   <g id="patch_298">
    <path clip-path="url(#pbf80f6dae4)" d="M 558.348487 58.721484 
L 559.867251 58.721484 
L 559.867251 58.721484 
L 558.348487 58.721484 
z
" style="fill:#1f77b4;"/>
   </g>
   <g id="patch_299">
    <path clip-path="url(#pbf80f6dae4)" d="M 560.052585 58.721484 
L 561.571349 58.721484 
L 561.571349 58.721484 
L 560.052585 58.721484 
z
" style="fill:#1f77b4;"/>
   </g>
   <g id="patch_300">
    <path clip-path="url(#pbf80f6dae4)" d="M 561.866891 58.721484 
L 563.385655 58.721484 
L 563.385655 58.721484 
L 561.866891 58.721484 
z
" style="fill:#1f77b4;"/>
   </g>
   <g id="patch_301">
    <path clip-path="url(#pbf80f6dae4)" d="M 563.55451 58.721484 
L 565.073274 58.721484 
L 565.073274 58.721484 
L 563.55451 58.721484 
z
" style="fill:#1f77b4;"/>
   </g>
   <g id="patch_302">
    <path clip-path="url(#pbf80f6dae4)" d="M 565.241614 58.721484 
L 566.760378 58.721484 
L 566.760378 58.721484 
L 565.241614 58.721484 
z
" style="fill:#1f77b4;"/>
   </g>
   <g id="matplotlib.axis_1">
    <g id="xtick_1">
     <g id="line2d_1">
      <defs>
       <path d="M 0 0 
L 0 3.5 
" id="ma7e9fb32cb" style="stroke:#000000;stroke-width:0.8;"/>
      </defs>
      <g>
       <use style="stroke:#000000;stroke-width:0.8;" x="52.582813" xlink:href="#ma7e9fb32cb" y="102.84375"/>
      </g>
     </g>
     <g id="text_1">
      <!-- 0 -->
      <defs>
       <path d="M 31.78125 66.40625 
Q 24.171875 66.40625 20.328125 58.90625 
Q 16.5 51.421875 16.5 36.375 
Q 16.5 21.390625 20.328125 13.890625 
Q 24.171875 6.390625 31.78125 6.390625 
Q 39.453125 6.390625 43.28125 13.890625 
Q 47.125 21.390625 47.125 36.375 
Q 47.125 51.421875 43.28125 58.90625 
Q 39.453125 66.40625 31.78125 66.40625 
z
M 31.78125 74.21875 
Q 44.046875 74.21875 50.515625 64.515625 
Q 56.984375 54.828125 56.984375 36.375 
Q 56.984375 17.96875 50.515625 8.265625 
Q 44.046875 -1.421875 31.78125 -1.421875 
Q 19.53125 -1.421875 13.0625 8.265625 
Q 6.59375 17.96875 6.59375 36.375 
Q 6.59375 54.828125 13.0625 64.515625 
Q 19.53125 74.21875 31.78125 74.21875 
z
" id="DejaVuSans-48"/>
      </defs>
      <g transform="translate(49.401563 117.442187)scale(0.1 -0.1)">
       <use xlink:href="#DejaVuSans-48"/>
      </g>
     </g>
    </g>
    <g id="xtick_2">
     <g id="line2d_2">
      <g>
       <use style="stroke:#000000;stroke-width:0.8;" x="136.958594" xlink:href="#ma7e9fb32cb" y="102.84375"/>
      </g>
     </g>
     <g id="text_2">
      <!-- 10 -->
      <defs>
       <path d="M 12.40625 8.296875 
L 28.515625 8.296875 
L 28.515625 63.921875 
L 10.984375 60.40625 
L 10.984375 69.390625 
L 28.421875 72.90625 
L 38.28125 72.90625 
L 38.28125 8.296875 
L 54.390625 8.296875 
L 54.390625 0 
L 12.40625 0 
z
" id="DejaVuSans-49"/>
      </defs>
      <g transform="translate(130.596094 117.442187)scale(0.1 -0.1)">
       <use xlink:href="#DejaVuSans-49"/>
       <use x="63.623047" xlink:href="#DejaVuSans-48"/>
      </g>
     </g>
    </g>
    <g id="xtick_3">
     <g id="line2d_3">
      <g>
       <use style="stroke:#000000;stroke-width:0.8;" x="221.334375" xlink:href="#ma7e9fb32cb" y="102.84375"/>
      </g>
     </g>
     <g id="text_3">
      <!-- 20 -->
      <defs>
       <path d="M 19.1875 8.296875 
L 53.609375 8.296875 
L 53.609375 0 
L 7.328125 0 
L 7.328125 8.296875 
Q 12.9375 14.109375 22.625 23.890625 
Q 32.328125 33.6875 34.8125 36.53125 
Q 39.546875 41.84375 41.421875 45.53125 
Q 43.3125 49.21875 43.3125 52.78125 
Q 43.3125 58.59375 39.234375 62.25 
Q 35.15625 65.921875 28.609375 65.921875 
Q 23.96875 65.921875 18.8125 64.3125 
Q 13.671875 62.703125 7.8125 59.421875 
L 7.8125 69.390625 
Q 13.765625 71.78125 18.9375 73 
Q 24.125 74.21875 28.421875 74.21875 
Q 39.75 74.21875 46.484375 68.546875 
Q 53.21875 62.890625 53.21875 53.421875 
Q 53.21875 48.921875 51.53125 44.890625 
Q 49.859375 40.875 45.40625 35.40625 
Q 44.1875 33.984375 37.640625 27.21875 
Q 31.109375 20.453125 19.1875 8.296875 
z
" id="DejaVuSans-50"/>
      </defs>
      <g transform="translate(214.971875 117.442187)scale(0.1 -0.1)">
       <use xlink:href="#DejaVuSans-50"/>
       <use x="63.623047" xlink:href="#DejaVuSans-48"/>
      </g>
     </g>
    </g>
    <g id="xtick_4">
     <g id="line2d_4">
      <g>
       <use style="stroke:#000000;stroke-width:0.8;" x="305.710156" xlink:href="#ma7e9fb32cb" y="102.84375"/>
      </g>
     </g>
     <g id="text_4">
      <!-- 30 -->
      <defs>
       <path d="M 40.578125 39.3125 
Q 47.65625 37.796875 51.625 33 
Q 55.609375 28.21875 55.609375 21.1875 
Q 55.609375 10.40625 48.1875 4.484375 
Q 40.765625 -1.421875 27.09375 -1.421875 
Q 22.515625 -1.421875 17.65625 -0.515625 
Q 12.796875 0.390625 7.625 2.203125 
L 7.625 11.71875 
Q 11.71875 9.328125 16.59375 8.109375 
Q 21.484375 6.890625 26.8125 6.890625 
Q 36.078125 6.890625 40.9375 10.546875 
Q 45.796875 14.203125 45.796875 21.1875 
Q 45.796875 27.640625 41.28125 31.265625 
Q 36.765625 34.90625 28.71875 34.90625 
L 20.21875 34.90625 
L 20.21875 43.015625 
L 29.109375 43.015625 
Q 36.375 43.015625 40.234375 45.921875 
Q 44.09375 48.828125 44.09375 54.296875 
Q 44.09375 59.90625 40.109375 62.90625 
Q 36.140625 65.921875 28.71875 65.921875 
Q 24.65625 65.921875 20.015625 65.03125 
Q 15.375 64.15625 9.8125 62.3125 
L 9.8125 71.09375 
Q 15.4375 72.65625 20.34375 73.4375 
Q 25.25 74.21875 29.59375 74.21875 
Q 40.828125 74.21875 47.359375 69.109375 
Q 53.90625 64.015625 53.90625 55.328125 
Q 53.90625 49.265625 50.4375 45.09375 
Q 46.96875 40.921875 40.578125 39.3125 
z
" id="DejaVuSans-51"/>
      </defs>
      <g transform="translate(299.347656 117.442187)scale(0.1 -0.1)">
       <use xlink:href="#DejaVuSans-51"/>
       <use x="63.623047" xlink:href="#DejaVuSans-48"/>
      </g>
     </g>
    </g>
    <g id="xtick_5">
     <g id="line2d_5">
      <g>
       <use style="stroke:#000000;stroke-width:0.8;" x="390.085938" xlink:href="#ma7e9fb32cb" y="102.84375"/>
      </g>
     </g>
     <g id="text_5">
      <!-- 40 -->
      <defs>
       <path d="M 37.796875 64.3125 
L 12.890625 25.390625 
L 37.796875 25.390625 
z
M 35.203125 72.90625 
L 47.609375 72.90625 
L 47.609375 25.390625 
L 58.015625 25.390625 
L 58.015625 17.1875 
L 47.609375 17.1875 
L 47.609375 0 
L 37.796875 0 
L 37.796875 17.1875 
L 4.890625 17.1875 
L 4.890625 26.703125 
z
" id="DejaVuSans-52"/>
      </defs>
      <g transform="translate(383.723438 117.442187)scale(0.1 -0.1)">
       <use xlink:href="#DejaVuSans-52"/>
       <use x="63.623047" xlink:href="#DejaVuSans-48"/>
      </g>
     </g>
    </g>
    <g id="xtick_6">
     <g id="line2d_6">
      <g>
       <use style="stroke:#000000;stroke-width:0.8;" x="474.461719" xlink:href="#ma7e9fb32cb" y="102.84375"/>
      </g>
     </g>
     <g id="text_6">
      <!-- 50 -->
      <defs>
       <path d="M 10.796875 72.90625 
L 49.515625 72.90625 
L 49.515625 64.59375 
L 19.828125 64.59375 
L 19.828125 46.734375 
Q 21.96875 47.46875 24.109375 47.828125 
Q 26.265625 48.1875 28.421875 48.1875 
Q 40.625 48.1875 47.75 41.5 
Q 54.890625 34.8125 54.890625 23.390625 
Q 54.890625 11.625 47.5625 5.09375 
Q 40.234375 -1.421875 26.90625 -1.421875 
Q 22.3125 -1.421875 17.546875 -0.640625 
Q 12.796875 0.140625 7.71875 1.703125 
L 7.71875 11.625 
Q 12.109375 9.234375 16.796875 8.0625 
Q 21.484375 6.890625 26.703125 6.890625 
Q 35.15625 6.890625 40.078125 11.328125 
Q 45.015625 15.765625 45.015625 23.390625 
Q 45.015625 31 40.078125 35.4375 
Q 35.15625 39.890625 26.703125 39.890625 
Q 22.75 39.890625 18.8125 39.015625 
Q 14.890625 38.140625 10.796875 36.28125 
z
" id="DejaVuSans-53"/>
      </defs>
      <g transform="translate(468.099219 117.442187)scale(0.1 -0.1)">
       <use xlink:href="#DejaVuSans-53"/>
       <use x="63.623047" xlink:href="#DejaVuSans-48"/>
      </g>
     </g>
    </g>
    <g id="xtick_7">
     <g id="line2d_7">
      <g>
       <use style="stroke:#000000;stroke-width:0.8;" x="558.8375" xlink:href="#ma7e9fb32cb" y="102.84375"/>
      </g>
     </g>
     <g id="text_7">
      <!-- 60 -->
      <defs>
       <path d="M 33.015625 40.375 
Q 26.375 40.375 22.484375 35.828125 
Q 18.609375 31.296875 18.609375 23.390625 
Q 18.609375 15.53125 22.484375 10.953125 
Q 26.375 6.390625 33.015625 6.390625 
Q 39.65625 6.390625 43.53125 10.953125 
Q 47.40625 15.53125 47.40625 23.390625 
Q 47.40625 31.296875 43.53125 35.828125 
Q 39.65625 40.375 33.015625 40.375 
z
M 52.59375 71.296875 
L 52.59375 62.3125 
Q 48.875 64.0625 45.09375 64.984375 
Q 41.3125 65.921875 37.59375 65.921875 
Q 27.828125 65.921875 22.671875 59.328125 
Q 17.53125 52.734375 16.796875 39.40625 
Q 19.671875 43.65625 24.015625 45.921875 
Q 28.375 48.1875 33.59375 48.1875 
Q 44.578125 48.1875 50.953125 41.515625 
Q 57.328125 34.859375 57.328125 23.390625 
Q 57.328125 12.15625 50.6875 5.359375 
Q 44.046875 -1.421875 33.015625 -1.421875 
Q 20.359375 -1.421875 13.671875 8.265625 
Q 6.984375 17.96875 6.984375 36.375 
Q 6.984375 53.65625 15.1875 63.9375 
Q 23.390625 74.21875 37.203125 74.21875 
Q 40.921875 74.21875 44.703125 73.484375 
Q 48.484375 72.75 52.59375 71.296875 
z
" id="DejaVuSans-54"/>
      </defs>
      <g transform="translate(552.475 117.442187)scale(0.1 -0.1)">
       <use xlink:href="#DejaVuSans-54"/>
       <use x="63.623047" xlink:href="#DejaVuSans-48"/>
      </g>
     </g>
    </g>
    <g id="text_8">
     <!-- time [s] -->
     <defs>
      <path d="M 18.3125 70.21875 
L 18.3125 54.6875 
L 36.8125 54.6875 
L 36.8125 47.703125 
L 18.3125 47.703125 
L 18.3125 18.015625 
Q 18.3125 11.328125 20.140625 9.421875 
Q 21.96875 7.515625 27.59375 7.515625 
L 36.8125 7.515625 
L 36.8125 0 
L 27.59375 0 
Q 17.1875 0 13.234375 3.875 
Q 9.28125 7.765625 9.28125 18.015625 
L 9.28125 47.703125 
L 2.6875 47.703125 
L 2.6875 54.6875 
L 9.28125 54.6875 
L 9.28125 70.21875 
z
" id="DejaVuSans-116"/>
      <path d="M 9.421875 54.6875 
L 18.40625 54.6875 
L 18.40625 0 
L 9.421875 0 
z
M 9.421875 75.984375 
L 18.40625 75.984375 
L 18.40625 64.59375 
L 9.421875 64.59375 
z
" id="DejaVuSans-105"/>
      <path d="M 52 44.1875 
Q 55.375 50.25 60.0625 53.125 
Q 64.75 56 71.09375 56 
Q 79.640625 56 84.28125 50.015625 
Q 88.921875 44.046875 88.921875 33.015625 
L 88.921875 0 
L 79.890625 0 
L 79.890625 32.71875 
Q 79.890625 40.578125 77.09375 44.375 
Q 74.3125 48.1875 68.609375 48.1875 
Q 61.625 48.1875 57.5625 43.546875 
Q 53.515625 38.921875 53.515625 30.90625 
L 53.515625 0 
L 44.484375 0 
L 44.484375 32.71875 
Q 44.484375 40.625 41.703125 44.40625 
Q 38.921875 48.1875 33.109375 48.1875 
Q 26.21875 48.1875 22.15625 43.53125 
Q 18.109375 38.875 18.109375 30.90625 
L 18.109375 0 
L 9.078125 0 
L 9.078125 54.6875 
L 18.109375 54.6875 
L 18.109375 46.1875 
Q 21.1875 51.21875 25.484375 53.609375 
Q 29.78125 56 35.6875 56 
Q 41.65625 56 45.828125 52.96875 
Q 50 49.953125 52 44.1875 
z
" id="DejaVuSans-109"/>
      <path d="M 56.203125 29.59375 
L 56.203125 25.203125 
L 14.890625 25.203125 
Q 15.484375 15.921875 20.484375 11.0625 
Q 25.484375 6.203125 34.421875 6.203125 
Q 39.59375 6.203125 44.453125 7.46875 
Q 49.3125 8.734375 54.109375 11.28125 
L 54.109375 2.78125 
Q 49.265625 0.734375 44.1875 -0.34375 
Q 39.109375 -1.421875 33.890625 -1.421875 
Q 20.796875 -1.421875 13.15625 6.1875 
Q 5.515625 13.8125 5.515625 26.8125 
Q 5.515625 40.234375 12.765625 48.109375 
Q 20.015625 56 32.328125 56 
Q 43.359375 56 49.78125 48.890625 
Q 56.203125 41.796875 56.203125 29.59375 
z
M 47.21875 32.234375 
Q 47.125 39.59375 43.09375 43.984375 
Q 39.0625 48.390625 32.421875 48.390625 
Q 24.90625 48.390625 20.390625 44.140625 
Q 15.875 39.890625 15.1875 32.171875 
z
" id="DejaVuSans-101"/>
      <path id="DejaVuSans-32"/>
      <path d="M 8.59375 75.984375 
L 29.296875 75.984375 
L 29.296875 69 
L 17.578125 69 
L 17.578125 -6.203125 
L 29.296875 -6.203125 
L 29.296875 -13.1875 
L 8.59375 -13.1875 
z
" id="DejaVuSans-91"/>
      <path d="M 44.28125 53.078125 
L 44.28125 44.578125 
Q 40.484375 46.53125 36.375 47.5 
Q 32.28125 48.484375 27.875 48.484375 
Q 21.1875 48.484375 17.84375 46.4375 
Q 14.5 44.390625 14.5 40.28125 
Q 14.5 37.15625 16.890625 35.375 
Q 19.28125 33.59375 26.515625 31.984375 
L 29.59375 31.296875 
Q 39.15625 29.25 43.1875 25.515625 
Q 47.21875 21.78125 47.21875 15.09375 
Q 47.21875 7.46875 41.1875 3.015625 
Q 35.15625 -1.421875 24.609375 -1.421875 
Q 20.21875 -1.421875 15.453125 -0.5625 
Q 10.6875 0.296875 5.421875 2 
L 5.421875 11.28125 
Q 10.40625 8.6875 15.234375 7.390625 
Q 20.0625 6.109375 24.8125 6.109375 
Q 31.15625 6.109375 34.5625 8.28125 
Q 37.984375 10.453125 37.984375 14.40625 
Q 37.984375 18.0625 35.515625 20.015625 
Q 33.0625 21.96875 24.703125 23.78125 
L 21.578125 24.515625 
Q 13.234375 26.265625 9.515625 29.90625 
Q 5.8125 33.546875 5.8125 39.890625 
Q 5.8125 47.609375 11.28125 51.796875 
Q 16.75 56 26.8125 56 
Q 31.78125 56 36.171875 55.265625 
Q 40.578125 54.546875 44.28125 53.078125 
z
" id="DejaVuSans-115"/>
      <path d="M 30.421875 75.984375 
L 30.421875 -13.1875 
L 9.71875 -13.1875 
L 9.71875 -6.203125 
L 21.390625 -6.203125 
L 21.390625 69 
L 9.71875 69 
L 9.71875 75.984375 
z
" id="DejaVuSans-93"/>
     </defs>
     <g transform="translate(286.31875 131.120312)scale(0.1 -0.1)">
      <use xlink:href="#DejaVuSans-116"/>
      <use x="39.208984" xlink:href="#DejaVuSans-105"/>
      <use x="66.992188" xlink:href="#DejaVuSans-109"/>
      <use x="164.404297" xlink:href="#DejaVuSans-101"/>
      <use x="225.927734" xlink:href="#DejaVuSans-32"/>
      <use x="257.714844" xlink:href="#DejaVuSans-91"/>
      <use x="296.728516" xlink:href="#DejaVuSans-115"/>
      <use x="348.828125" xlink:href="#DejaVuSans-93"/>
     </g>
    </g>
   </g>
   <g id="matplotlib.axis_2">
    <g id="ytick_1">
     <g id="line2d_8">
      <defs>
       <path d="M 0 0 
L -3.5 0 
" id="m4ce109f1dc" style="stroke:#000000;stroke-width:0.8;"/>
      </defs>
      <g>
       <use style="stroke:#000000;stroke-width:0.8;" x="52.582813" xlink:href="#m4ce109f1dc" y="102.84375"/>
      </g>
     </g>
     <g id="text_9">
      <!-- 10 -->
      <defs>
       <path d="M 10.59375 35.5 
L 73.1875 35.5 
L 73.1875 27.203125 
L 10.59375 27.203125 
z
" id="DejaVuSans-8722"/>
      </defs>
      <g transform="translate(24.478125 106.642969)scale(0.1 -0.1)">
       <use xlink:href="#DejaVuSans-8722"/>
       <use x="83.789062" xlink:href="#DejaVuSans-49"/>
       <use x="147.412109" xlink:href="#DejaVuSans-48"/>
      </g>
     </g>
    </g>
    <g id="ytick_2">
     <g id="line2d_9">
      <g>
       <use style="stroke:#000000;stroke-width:0.8;" x="52.582813" xlink:href="#m4ce109f1dc" y="80.782617"/>
      </g>
     </g>
     <g id="text_10">
      <!-- 5 -->
      <g transform="translate(30.840625 84.581836)scale(0.1 -0.1)">
       <use xlink:href="#DejaVuSans-8722"/>
       <use x="83.789062" xlink:href="#DejaVuSans-53"/>
      </g>
     </g>
    </g>
    <g id="ytick_3">
     <g id="line2d_10">
      <g>
       <use style="stroke:#000000;stroke-width:0.8;" x="52.582813" xlink:href="#m4ce109f1dc" y="58.721484"/>
      </g>
     </g>
     <g id="text_11">
      <!-- 0 -->
      <g transform="translate(39.220313 62.520703)scale(0.1 -0.1)">
       <use xlink:href="#DejaVuSans-48"/>
      </g>
     </g>
    </g>
    <g id="ytick_4">
     <g id="line2d_11">
      <g>
       <use style="stroke:#000000;stroke-width:0.8;" x="52.582813" xlink:href="#m4ce109f1dc" y="36.660352"/>
      </g>
     </g>
     <g id="text_12">
      <!-- 5 -->
      <g transform="translate(39.220313 40.45957)scale(0.1 -0.1)">
       <use xlink:href="#DejaVuSans-53"/>
      </g>
     </g>
    </g>
    <g id="ytick_5">
     <g id="line2d_12">
      <g>
       <use style="stroke:#000000;stroke-width:0.8;" x="52.582813" xlink:href="#m4ce109f1dc" y="14.599219"/>
      </g>
     </g>
     <g id="text_13">
      <!-- 10 -->
      <g transform="translate(32.857813 18.398437)scale(0.1 -0.1)">
       <use xlink:href="#DejaVuSans-49"/>
       <use x="63.623047" xlink:href="#DejaVuSans-48"/>
      </g>
     </g>
    </g>
    <g id="text_14">
     <!-- error [ms] -->
     <defs>
      <path d="M 41.109375 46.296875 
Q 39.59375 47.171875 37.8125 47.578125 
Q 36.03125 48 33.890625 48 
Q 26.265625 48 22.1875 43.046875 
Q 18.109375 38.09375 18.109375 28.8125 
L 18.109375 0 
L 9.078125 0 
L 9.078125 54.6875 
L 18.109375 54.6875 
L 18.109375 46.1875 
Q 20.953125 51.171875 25.484375 53.578125 
Q 30.03125 56 36.53125 56 
Q 37.453125 56 38.578125 55.875 
Q 39.703125 55.765625 41.0625 55.515625 
z
" id="DejaVuSans-114"/>
      <path d="M 30.609375 48.390625 
Q 23.390625 48.390625 19.1875 42.75 
Q 14.984375 37.109375 14.984375 27.296875 
Q 14.984375 17.484375 19.15625 11.84375 
Q 23.34375 6.203125 30.609375 6.203125 
Q 37.796875 6.203125 41.984375 11.859375 
Q 46.1875 17.53125 46.1875 27.296875 
Q 46.1875 37.015625 41.984375 42.703125 
Q 37.796875 48.390625 30.609375 48.390625 
z
M 30.609375 56 
Q 42.328125 56 49.015625 48.375 
Q 55.71875 40.765625 55.71875 27.296875 
Q 55.71875 13.875 49.015625 6.21875 
Q 42.328125 -1.421875 30.609375 -1.421875 
Q 18.84375 -1.421875 12.171875 6.21875 
Q 5.515625 13.875 5.515625 27.296875 
Q 5.515625 40.765625 12.171875 48.375 
Q 18.84375 56 30.609375 56 
z
" id="DejaVuSans-111"/>
     </defs>
     <g transform="translate(18.398438 83.789453)rotate(-90)scale(0.1 -0.1)">
      <use xlink:href="#DejaVuSans-101"/>
      <use x="61.523438" xlink:href="#DejaVuSans-114"/>
      <use x="100.886719" xlink:href="#DejaVuSans-114"/>
      <use x="139.75" xlink:href="#DejaVuSans-111"/>
      <use x="200.931641" xlink:href="#DejaVuSans-114"/>
      <use x="242.044922" xlink:href="#DejaVuSans-32"/>
      <use x="273.832031" xlink:href="#DejaVuSans-91"/>
      <use x="312.845703" xlink:href="#DejaVuSans-109"/>
      <use x="410.257812" xlink:href="#DejaVuSans-115"/>
      <use x="462.357422" xlink:href="#DejaVuSans-93"/>
     </g>
    </g>
   </g>
   <g id="LineCollection_1">
    <path clip-path="url(#pbf80f6dae4)" d="M 52.582813 58.721484 
L 558.8375 58.721484 
" style="fill:none;stroke:#000000;stroke-width:0.2;"/>
   </g>
   <g id="patch_303">
    <path d="M 52.582813 102.84375 
L 52.582813 14.599219 
" style="fill:none;stroke:#000000;stroke-linecap:square;stroke-linejoin:miter;stroke-width:0.8;"/>
   </g>
   <g id="patch_304">
    <path d="M 558.8375 102.84375 
L 558.8375 14.599219 
" style="fill:none;stroke:#000000;stroke-linecap:square;stroke-linejoin:miter;stroke-width:0.8;"/>
   </g>
   <g id="patch_305">
    <path d="M 52.582813 102.84375 
L 558.8375 102.84375 
" style="fill:none;stroke:#000000;stroke-linecap:square;stroke-linejoin:miter;stroke-width:0.8;"/>
   </g>
   <g id="patch_306">
    <path d="M 52.582813 14.599219 
L 558.8375 14.599219 
" style="fill:none;stroke:#000000;stroke-linecap:square;stroke-linejoin:miter;stroke-width:0.8;"/>
   </g>
  </g>
 </g>
 <defs>
  <clipPath id="pbf80f6dae4">
   <rect height="88.244531" width="506.254688" x="52.582813" y="14.599219"/>
  </clipPath>
 </defs>
</svg>
