<?xml version="1.0" encoding="utf-8" standalone="no"?>
<!DOCTYPE svg PUBLIC "-//W3C//DTD SVG 1.1//EN"
  "http://www.w3.org/Graphics/SVG/1.1/DTD/svg11.dtd">
<!-- Created with matplotlib (https://matplotlib.org/) -->
<svg height="288pt" version="1.1" viewBox="0 0 576 288" width="576pt" xmlns="http://www.w3.org/2000/svg" xmlns:xlink="http://www.w3.org/1999/xlink">
 <defs>
  <style type="text/css">
*{stroke-linecap:butt;stroke-linejoin:round;}
  </style>
 </defs>
 <g id="figure_1">
  <g id="patch_1">
   <path d="M 0 288 
L 576 288 
L 576 0 
L 0 0 
z
" style="fill:#ffffff;"/>
  </g>
  <g id="axes_1">
   <g id="patch_2">
    <path d="M 50.565625 246.84375 
L 554.067187 246.84375 
L 554.067187 25.970625 
L 50.565625 25.970625 
z
" style="fill:#ffffff;"/>
   </g>
   <g id="patch_3">
    <path clip-path="url(#p5ddd8e434a)" d="M 53.083133 246.84375 
L 58.118148 246.84375 
L 58.118148 244.635019 
L 53.083133 244.635019 
z
" style="fill:#1f77b4;"/>
   </g>
   <g id="patch_4">
    <path clip-path="url(#p5ddd8e434a)" d="M 63.153164 246.84375 
L 68.18818 246.84375 
L 68.18818 246.84375 
L 63.153164 246.84375 
z
" style="fill:#1f77b4;"/>
   </g>
   <g id="patch_5">
    <path clip-path="url(#p5ddd8e434a)" d="M 73.223195 246.84375 
L 78.258211 246.84375 
L 78.258211 246.84375 
L 73.223195 246.84375 
z
" style="fill:#1f77b4;"/>
   </g>
   <g id="patch_6">
    <path clip-path="url(#p5ddd8e434a)" d="M 83.293227 246.84375 
L 88.328242 246.84375 
L 88.328242 246.84375 
L 83.293227 246.84375 
z
" style="fill:#1f77b4;"/>
   </g>
   <g id="patch_7">
    <path clip-path="url(#p5ddd8e434a)" d="M 93.363258 246.84375 
L 98.398273 246.84375 
L 98.398273 246.84375 
L 93.363258 246.84375 
z
" style="fill:#1f77b4;"/>
   </g>
   <g id="patch_8">
    <path clip-path="url(#p5ddd8e434a)" d="M 103.433289 246.84375 
L 108.468305 246.84375 
L 108.468305 246.84375 
L 103.433289 246.84375 
z
" style="fill:#1f77b4;"/>
   </g>
   <g id="patch_9">
    <path clip-path="url(#p5ddd8e434a)" d="M 113.50332 246.84375 
L 118.538336 246.84375 
L 118.538336 246.84375 
L 113.50332 246.84375 
z
" style="fill:#1f77b4;"/>
   </g>
   <g id="patch_10">
    <path clip-path="url(#p5ddd8e434a)" d="M 123.573352 246.84375 
L 128.608367 246.84375 
L 128.608367 246.84375 
L 123.573352 246.84375 
z
" style="fill:#1f77b4;"/>
   </g>
   <g id="patch_11">
    <path clip-path="url(#p5ddd8e434a)" d="M 133.643383 246.84375 
L 138.678398 246.84375 
L 138.678398 246.84375 
L 133.643383 246.84375 
z
" style="fill:#1f77b4;"/>
   </g>
   <g id="patch_12">
    <path clip-path="url(#p5ddd8e434a)" d="M 143.713414 246.84375 
L 148.74843 246.84375 
L 148.74843 246.84375 
L 143.713414 246.84375 
z
" style="fill:#1f77b4;"/>
   </g>
   <g id="patch_13">
    <path clip-path="url(#p5ddd8e434a)" d="M 153.783445 246.84375 
L 158.818461 246.84375 
L 158.818461 246.84375 
L 153.783445 246.84375 
z
" style="fill:#1f77b4;"/>
   </g>
   <g id="patch_14">
    <path clip-path="url(#p5ddd8e434a)" d="M 163.853477 246.84375 
L 168.888492 246.84375 
L 168.888492 246.84375 
L 163.853477 246.84375 
z
" style="fill:#1f77b4;"/>
   </g>
   <g id="patch_15">
    <path clip-path="url(#p5ddd8e434a)" d="M 173.923508 246.84375 
L 178.958523 246.84375 
L 178.958523 246.84375 
L 173.923508 246.84375 
z
" style="fill:#1f77b4;"/>
   </g>
   <g id="patch_16">
    <path clip-path="url(#p5ddd8e434a)" d="M 183.993539 246.84375 
L 189.028555 246.84375 
L 189.028555 246.84375 
L 183.993539 246.84375 
z
" style="fill:#1f77b4;"/>
   </g>
   <g id="patch_17">
    <path clip-path="url(#p5ddd8e434a)" d="M 194.06357 246.84375 
L 199.098586 246.84375 
L 199.098586 246.84375 
L 194.06357 246.84375 
z
" style="fill:#1f77b4;"/>
   </g>
   <g id="patch_18">
    <path clip-path="url(#p5ddd8e434a)" d="M 204.133602 246.84375 
L 209.168617 246.84375 
L 209.168617 242.426288 
L 204.133602 242.426288 
z
" style="fill:#1f77b4;"/>
   </g>
   <g id="patch_19">
    <path clip-path="url(#p5ddd8e434a)" d="M 214.203633 246.84375 
L 219.238648 246.84375 
L 219.238648 242.426288 
L 214.203633 242.426288 
z
" style="fill:#1f77b4;"/>
   </g>
   <g id="patch_20">
    <path clip-path="url(#p5ddd8e434a)" d="M 224.273664 246.84375 
L 229.30868 246.84375 
L 229.30868 240.217556 
L 224.273664 240.217556 
z
" style="fill:#1f77b4;"/>
   </g>
   <g id="patch_21">
    <path clip-path="url(#p5ddd8e434a)" d="M 234.343695 246.84375 
L 239.378711 246.84375 
L 239.378711 246.84375 
L 234.343695 246.84375 
z
" style="fill:#1f77b4;"/>
   </g>
   <g id="patch_22">
    <path clip-path="url(#p5ddd8e434a)" d="M 244.413727 246.84375 
L 249.448742 246.84375 
L 249.448742 246.84375 
L 244.413727 246.84375 
z
" style="fill:#1f77b4;"/>
   </g>
   <g id="patch_23">
    <path clip-path="url(#p5ddd8e434a)" d="M 254.483758 246.84375 
L 259.518773 246.84375 
L 259.518773 246.84375 
L 254.483758 246.84375 
z
" style="fill:#1f77b4;"/>
   </g>
   <g id="patch_24">
    <path clip-path="url(#p5ddd8e434a)" d="M 264.553789 246.84375 
L 269.588805 246.84375 
L 269.588805 246.84375 
L 264.553789 246.84375 
z
" style="fill:#1f77b4;"/>
   </g>
   <g id="patch_25">
    <path clip-path="url(#p5ddd8e434a)" d="M 274.62382 246.84375 
L 279.658836 246.84375 
L 279.658836 246.84375 
L 274.62382 246.84375 
z
" style="fill:#1f77b4;"/>
   </g>
   <g id="patch_26">
    <path clip-path="url(#p5ddd8e434a)" d="M 284.693852 246.84375 
L 289.728867 246.84375 
L 289.728867 246.84375 
L 284.693852 246.84375 
z
" style="fill:#1f77b4;"/>
   </g>
   <g id="patch_27">
    <path clip-path="url(#p5ddd8e434a)" d="M 294.763883 246.84375 
L 299.798898 246.84375 
L 299.798898 246.84375 
L 294.763883 246.84375 
z
" style="fill:#1f77b4;"/>
   </g>
   <g id="patch_28">
    <path clip-path="url(#p5ddd8e434a)" d="M 304.833914 246.84375 
L 309.86893 246.84375 
L 309.86893 246.84375 
L 304.833914 246.84375 
z
" style="fill:#1f77b4;"/>
   </g>
   <g id="patch_29">
    <path clip-path="url(#p5ddd8e434a)" d="M 314.903945 246.84375 
L 319.938961 246.84375 
L 319.938961 246.84375 
L 314.903945 246.84375 
z
" style="fill:#1f77b4;"/>
   </g>
   <g id="patch_30">
    <path clip-path="url(#p5ddd8e434a)" d="M 324.973977 246.84375 
L 330.008992 246.84375 
L 330.008992 244.635019 
L 324.973977 244.635019 
z
" style="fill:#1f77b4;"/>
   </g>
   <g id="patch_31">
    <path clip-path="url(#p5ddd8e434a)" d="M 335.044008 246.84375 
L 340.079023 246.84375 
L 340.079023 246.84375 
L 335.044008 246.84375 
z
" style="fill:#1f77b4;"/>
   </g>
   <g id="patch_32">
    <path clip-path="url(#p5ddd8e434a)" d="M 345.114039 246.84375 
L 350.149055 246.84375 
L 350.149055 246.84375 
L 345.114039 246.84375 
z
" style="fill:#1f77b4;"/>
   </g>
   <g id="patch_33">
    <path clip-path="url(#p5ddd8e434a)" d="M 355.18407 246.84375 
L 360.219086 246.84375 
L 360.219086 244.635019 
L 355.18407 244.635019 
z
" style="fill:#1f77b4;"/>
   </g>
   <g id="patch_34">
    <path clip-path="url(#p5ddd8e434a)" d="M 365.254102 246.84375 
L 370.289117 246.84375 
L 370.289117 235.800094 
L 365.254102 235.800094 
z
" style="fill:#1f77b4;"/>
   </g>
   <g id="patch_35">
    <path clip-path="url(#p5ddd8e434a)" d="M 375.324133 246.84375 
L 380.359148 246.84375 
L 380.359148 167.329425 
L 375.324133 167.329425 
z
" style="fill:#1f77b4;"/>
   </g>
   <g id="patch_36">
    <path clip-path="url(#p5ddd8e434a)" d="M 385.394164 246.84375 
L 390.42918 246.84375 
L 390.42918 109.902412 
L 385.394164 109.902412 
z
" style="fill:#1f77b4;"/>
   </g>
   <g id="patch_37">
    <path clip-path="url(#p5ddd8e434a)" d="M 395.464195 246.84375 
L 400.499211 246.84375 
L 400.499211 147.450844 
L 395.464195 147.450844 
z
" style="fill:#1f77b4;"/>
   </g>
   <g id="patch_38">
    <path clip-path="url(#p5ddd8e434a)" d="M 405.534227 246.84375 
L 410.569242 246.84375 
L 410.569242 233.591363 
L 405.534227 233.591363 
z
" style="fill:#1f77b4;"/>
   </g>
   <g id="patch_39">
    <path clip-path="url(#p5ddd8e434a)" d="M 415.604258 246.84375 
L 420.639273 246.84375 
L 420.639273 246.84375 
L 415.604258 246.84375 
z
" style="fill:#1f77b4;"/>
   </g>
   <g id="patch_40">
    <path clip-path="url(#p5ddd8e434a)" d="M 425.674289 246.84375 
L 430.709305 246.84375 
L 430.709305 246.84375 
L 425.674289 246.84375 
z
" style="fill:#1f77b4;"/>
   </g>
   <g id="patch_41">
    <path clip-path="url(#p5ddd8e434a)" d="M 435.74432 246.84375 
L 440.779336 246.84375 
L 440.779336 246.84375 
L 435.74432 246.84375 
z
" style="fill:#1f77b4;"/>
   </g>
   <g id="patch_42">
    <path clip-path="url(#p5ddd8e434a)" d="M 445.814352 246.84375 
L 450.849367 246.84375 
L 450.849367 246.84375 
L 445.814352 246.84375 
z
" style="fill:#1f77b4;"/>
   </g>
   <g id="patch_43">
    <path clip-path="url(#p5ddd8e434a)" d="M 455.884383 246.84375 
L 460.919398 246.84375 
L 460.919398 246.84375 
L 455.884383 246.84375 
z
" style="fill:#1f77b4;"/>
   </g>
   <g id="patch_44">
    <path clip-path="url(#p5ddd8e434a)" d="M 465.954414 246.84375 
L 470.98943 246.84375 
L 470.98943 246.84375 
L 465.954414 246.84375 
z
" style="fill:#1f77b4;"/>
   </g>
   <g id="patch_45">
    <path clip-path="url(#p5ddd8e434a)" d="M 476.024445 246.84375 
L 481.059461 246.84375 
L 481.059461 246.84375 
L 476.024445 246.84375 
z
" style="fill:#1f77b4;"/>
   </g>
   <g id="patch_46">
    <path clip-path="url(#p5ddd8e434a)" d="M 486.094477 246.84375 
L 491.129492 246.84375 
L 491.129492 246.84375 
L 486.094477 246.84375 
z
" style="fill:#1f77b4;"/>
   </g>
   <g id="patch_47">
    <path clip-path="url(#p5ddd8e434a)" d="M 496.164508 246.84375 
L 501.199523 246.84375 
L 501.199523 246.84375 
L 496.164508 246.84375 
z
" style="fill:#1f77b4;"/>
   </g>
   <g id="patch_48">
    <path clip-path="url(#p5ddd8e434a)" d="M 506.234539 246.84375 
L 511.269555 246.84375 
L 511.269555 246.84375 
L 506.234539 246.84375 
z
" style="fill:#1f77b4;"/>
   </g>
   <g id="patch_49">
    <path clip-path="url(#p5ddd8e434a)" d="M 516.30457 246.84375 
L 521.339586 246.84375 
L 521.339586 246.84375 
L 516.30457 246.84375 
z
" style="fill:#1f77b4;"/>
   </g>
   <g id="patch_50">
    <path clip-path="url(#p5ddd8e434a)" d="M 526.374602 246.84375 
L 531.409617 246.84375 
L 531.409617 246.84375 
L 526.374602 246.84375 
z
" style="fill:#1f77b4;"/>
   </g>
   <g id="patch_51">
    <path clip-path="url(#p5ddd8e434a)" d="M 536.444633 246.84375 
L 541.479648 246.84375 
L 541.479648 246.84375 
L 536.444633 246.84375 
z
" style="fill:#1f77b4;"/>
   </g>
   <g id="patch_52">
    <path clip-path="url(#p5ddd8e434a)" d="M 546.514664 246.84375 
L 551.54968 246.84375 
L 551.54968 246.84375 
L 546.514664 246.84375 
z
" style="fill:#1f77b4;"/>
   </g>
   <g id="matplotlib.axis_1">
    <g id="xtick_1">
     <g id="line2d_1">
      <defs>
       <path d="M 0 0 
L 0 3.5 
" id="md937caf093" style="stroke:#000000;stroke-width:0.8;"/>
      </defs>
      <g>
       <use style="stroke:#000000;stroke-width:0.8;" x="50.565625" xlink:href="#md937caf093" y="246.84375"/>
      </g>
     </g>
     <g id="text_1">
      <!-- 0.10 -->
      <defs>
       <path d="M 31.78125 66.40625 
Q 24.171875 66.40625 20.328125 58.90625 
Q 16.5 51.421875 16.5 36.375 
Q 16.5 21.390625 20.328125 13.890625 
Q 24.171875 6.390625 31.78125 6.390625 
Q 39.453125 6.390625 43.28125 13.890625 
Q 47.125 21.390625 47.125 36.375 
Q 47.125 51.421875 43.28125 58.90625 
Q 39.453125 66.40625 31.78125 66.40625 
z
M 31.78125 74.21875 
Q 44.046875 74.21875 50.515625 64.515625 
Q 56.984375 54.828125 56.984375 36.375 
Q 56.984375 17.96875 50.515625 8.265625 
Q 44.046875 -1.421875 31.78125 -1.421875 
Q 19.53125 -1.421875 13.0625 8.265625 
Q 6.59375 17.96875 6.59375 36.375 
Q 6.59375 54.828125 13.0625 64.515625 
Q 19.53125 74.21875 31.78125 74.21875 
z
" id="DejaVuSans-48"/>
       <path d="M 10.6875 12.40625 
L 21 12.40625 
L 21 0 
L 10.6875 0 
z
" id="DejaVuSans-46"/>
       <path d="M 12.40625 8.296875 
L 28.515625 8.296875 
L 28.515625 63.921875 
L 10.984375 60.40625 
L 10.984375 69.390625 
L 28.421875 72.90625 
L 38.28125 72.90625 
L 38.28125 8.296875 
L 54.390625 8.296875 
L 54.390625 0 
L 12.40625 0 
z
" id="DejaVuSans-49"/>
      </defs>
      <g transform="translate(39.432813 261.442187)scale(0.1 -0.1)">
       <use xlink:href="#DejaVuSans-48"/>
       <use x="63.623047" xlink:href="#DejaVuSans-46"/>
       <use x="95.410156" xlink:href="#DejaVuSans-49"/>
       <use x="159.033203" xlink:href="#DejaVuSans-48"/>
      </g>
     </g>
    </g>
    <g id="xtick_2">
     <g id="line2d_2">
      <g>
       <use style="stroke:#000000;stroke-width:0.8;" x="151.265938" xlink:href="#md937caf093" y="246.84375"/>
      </g>
     </g>
     <g id="text_2">
      <!-- 0.11 -->
      <g transform="translate(140.133125 261.442187)scale(0.1 -0.1)">
       <use xlink:href="#DejaVuSans-48"/>
       <use x="63.623047" xlink:href="#DejaVuSans-46"/>
       <use x="95.410156" xlink:href="#DejaVuSans-49"/>
       <use x="159.033203" xlink:href="#DejaVuSans-49"/>
      </g>
     </g>
    </g>
    <g id="xtick_3">
     <g id="line2d_3">
      <g>
       <use style="stroke:#000000;stroke-width:0.8;" x="251.96625" xlink:href="#md937caf093" y="246.84375"/>
      </g>
     </g>
     <g id="text_3">
      <!-- 0.12 -->
      <defs>
       <path d="M 19.1875 8.296875 
L 53.609375 8.296875 
L 53.609375 0 
L 7.328125 0 
L 7.328125 8.296875 
Q 12.9375 14.109375 22.625 23.890625 
Q 32.328125 33.6875 34.8125 36.53125 
Q 39.546875 41.84375 41.421875 45.53125 
Q 43.3125 49.21875 43.3125 52.78125 
Q 43.3125 58.59375 39.234375 62.25 
Q 35.15625 65.921875 28.609375 65.921875 
Q 23.96875 65.921875 18.8125 64.3125 
Q 13.671875 62.703125 7.8125 59.421875 
L 7.8125 69.390625 
Q 13.765625 71.78125 18.9375 73 
Q 24.125 74.21875 28.421875 74.21875 
Q 39.75 74.21875 46.484375 68.546875 
Q 53.21875 62.890625 53.21875 53.421875 
Q 53.21875 48.921875 51.53125 44.890625 
Q 49.859375 40.875 45.40625 35.40625 
Q 44.1875 33.984375 37.640625 27.21875 
Q 31.109375 20.453125 19.1875 8.296875 
z
" id="DejaVuSans-50"/>
      </defs>
      <g transform="translate(240.833438 261.442187)scale(0.1 -0.1)">
       <use xlink:href="#DejaVuSans-48"/>
       <use x="63.623047" xlink:href="#DejaVuSans-46"/>
       <use x="95.410156" xlink:href="#DejaVuSans-49"/>
       <use x="159.033203" xlink:href="#DejaVuSans-50"/>
      </g>
     </g>
    </g>
    <g id="xtick_4">
     <g id="line2d_4">
      <g>
       <use style="stroke:#000000;stroke-width:0.8;" x="352.666563" xlink:href="#md937caf093" y="246.84375"/>
      </g>
     </g>
     <g id="text_4">
      <!-- 0.13 -->
      <defs>
       <path d="M 40.578125 39.3125 
Q 47.65625 37.796875 51.625 33 
Q 55.609375 28.21875 55.609375 21.1875 
Q 55.609375 10.40625 48.1875 4.484375 
Q 40.765625 -1.421875 27.09375 -1.421875 
Q 22.515625 -1.421875 17.65625 -0.515625 
Q 12.796875 0.390625 7.625 2.203125 
L 7.625 11.71875 
Q 11.71875 9.328125 16.59375 8.109375 
Q 21.484375 6.890625 26.8125 6.890625 
Q 36.078125 6.890625 40.9375 10.546875 
Q 45.796875 14.203125 45.796875 21.1875 
Q 45.796875 27.640625 41.28125 31.265625 
Q 36.765625 34.90625 28.71875 34.90625 
L 20.21875 34.90625 
L 20.21875 43.015625 
L 29.109375 43.015625 
Q 36.375 43.015625 40.234375 45.921875 
Q 44.09375 48.828125 44.09375 54.296875 
Q 44.09375 59.90625 40.109375 62.90625 
Q 36.140625 65.921875 28.71875 65.921875 
Q 24.65625 65.921875 20.015625 65.03125 
Q 15.375 64.15625 9.8125 62.3125 
L 9.8125 71.09375 
Q 15.4375 72.65625 20.34375 73.4375 
Q 25.25 74.21875 29.59375 74.21875 
Q 40.828125 74.21875 47.359375 69.109375 
Q 53.90625 64.015625 53.90625 55.328125 
Q 53.90625 49.265625 50.4375 45.09375 
Q 46.96875 40.921875 40.578125 39.3125 
z
" id="DejaVuSans-51"/>
      </defs>
      <g transform="translate(341.53375 261.442187)scale(0.1 -0.1)">
       <use xlink:href="#DejaVuSans-48"/>
       <use x="63.623047" xlink:href="#DejaVuSans-46"/>
       <use x="95.410156" xlink:href="#DejaVuSans-49"/>
       <use x="159.033203" xlink:href="#DejaVuSans-51"/>
      </g>
     </g>
    </g>
    <g id="xtick_5">
     <g id="line2d_5">
      <g>
       <use style="stroke:#000000;stroke-width:0.8;" x="453.366875" xlink:href="#md937caf093" y="246.84375"/>
      </g>
     </g>
     <g id="text_5">
      <!-- 0.14 -->
      <defs>
       <path d="M 37.796875 64.3125 
L 12.890625 25.390625 
L 37.796875 25.390625 
z
M 35.203125 72.90625 
L 47.609375 72.90625 
L 47.609375 25.390625 
L 58.015625 25.390625 
L 58.015625 17.1875 
L 47.609375 17.1875 
L 47.609375 0 
L 37.796875 0 
L 37.796875 17.1875 
L 4.890625 17.1875 
L 4.890625 26.703125 
z
" id="DejaVuSans-52"/>
      </defs>
      <g transform="translate(442.234063 261.442187)scale(0.1 -0.1)">
       <use xlink:href="#DejaVuSans-48"/>
       <use x="63.623047" xlink:href="#DejaVuSans-46"/>
       <use x="95.410156" xlink:href="#DejaVuSans-49"/>
       <use x="159.033203" xlink:href="#DejaVuSans-52"/>
      </g>
     </g>
    </g>
    <g id="xtick_6">
     <g id="line2d_6">
      <g>
       <use style="stroke:#000000;stroke-width:0.8;" x="554.067188" xlink:href="#md937caf093" y="246.84375"/>
      </g>
     </g>
     <g id="text_6">
      <!-- 0.15 -->
      <defs>
       <path d="M 10.796875 72.90625 
L 49.515625 72.90625 
L 49.515625 64.59375 
L 19.828125 64.59375 
L 19.828125 46.734375 
Q 21.96875 47.46875 24.109375 47.828125 
Q 26.265625 48.1875 28.421875 48.1875 
Q 40.625 48.1875 47.75 41.5 
Q 54.890625 34.8125 54.890625 23.390625 
Q 54.890625 11.625 47.5625 5.09375 
Q 40.234375 -1.421875 26.90625 -1.421875 
Q 22.3125 -1.421875 17.546875 -0.640625 
Q 12.796875 0.140625 7.71875 1.703125 
L 7.71875 11.625 
Q 12.109375 9.234375 16.796875 8.0625 
Q 21.484375 6.890625 26.703125 6.890625 
Q 35.15625 6.890625 40.078125 11.328125 
Q 45.015625 15.765625 45.015625 23.390625 
Q 45.015625 31 40.078125 35.4375 
Q 35.15625 39.890625 26.703125 39.890625 
Q 22.75 39.890625 18.8125 39.015625 
Q 14.890625 38.140625 10.796875 36.28125 
z
" id="DejaVuSans-53"/>
      </defs>
      <g transform="translate(542.934375 261.442187)scale(0.1 -0.1)">
       <use xlink:href="#DejaVuSans-48"/>
       <use x="63.623047" xlink:href="#DejaVuSans-46"/>
       <use x="95.410156" xlink:href="#DejaVuSans-49"/>
       <use x="159.033203" xlink:href="#DejaVuSans-53"/>
      </g>
     </g>
    </g>
    <g id="text_7">
     <!-- time (sec) -->
     <defs>
      <path d="M 18.3125 70.21875 
L 18.3125 54.6875 
L 36.8125 54.6875 
L 36.8125 47.703125 
L 18.3125 47.703125 
L 18.3125 18.015625 
Q 18.3125 11.328125 20.140625 9.421875 
Q 21.96875 7.515625 27.59375 7.515625 
L 36.8125 7.515625 
L 36.8125 0 
L 27.59375 0 
Q 17.1875 0 13.234375 3.875 
Q 9.28125 7.765625 9.28125 18.015625 
L 9.28125 47.703125 
L 2.6875 47.703125 
L 2.6875 54.6875 
L 9.28125 54.6875 
L 9.28125 70.21875 
z
" id="DejaVuSans-116"/>
      <path d="M 9.421875 54.6875 
L 18.40625 54.6875 
L 18.40625 0 
L 9.421875 0 
z
M 9.421875 75.984375 
L 18.40625 75.984375 
L 18.40625 64.59375 
L 9.421875 64.59375 
z
" id="DejaVuSans-105"/>
      <path d="M 52 44.1875 
Q 55.375 50.25 60.0625 53.125 
Q 64.75 56 71.09375 56 
Q 79.640625 56 84.28125 50.015625 
Q 88.921875 44.046875 88.921875 33.015625 
L 88.921875 0 
L 79.890625 0 
L 79.890625 32.71875 
Q 79.890625 40.578125 77.09375 44.375 
Q 74.3125 48.1875 68.609375 48.1875 
Q 61.625 48.1875 57.5625 43.546875 
Q 53.515625 38.921875 53.515625 30.90625 
L 53.515625 0 
L 44.484375 0 
L 44.484375 32.71875 
Q 44.484375 40.625 41.703125 44.40625 
Q 38.921875 48.1875 33.109375 48.1875 
Q 26.21875 48.1875 22.15625 43.53125 
Q 18.109375 38.875 18.109375 30.90625 
L 18.109375 0 
L 9.078125 0 
L 9.078125 54.6875 
L 18.109375 54.6875 
L 18.109375 46.1875 
Q 21.1875 51.21875 25.484375 53.609375 
Q 29.78125 56 35.6875 56 
Q 41.65625 56 45.828125 52.96875 
Q 50 49.953125 52 44.1875 
z
" id="DejaVuSans-109"/>
      <path d="M 56.203125 29.59375 
L 56.203125 25.203125 
L 14.890625 25.203125 
Q 15.484375 15.921875 20.484375 11.0625 
Q 25.484375 6.203125 34.421875 6.203125 
Q 39.59375 6.203125 44.453125 7.46875 
Q 49.3125 8.734375 54.109375 11.28125 
L 54.109375 2.78125 
Q 49.265625 0.734375 44.1875 -0.34375 
Q 39.109375 -1.421875 33.890625 -1.421875 
Q 20.796875 -1.421875 13.15625 6.1875 
Q 5.515625 13.8125 5.515625 26.8125 
Q 5.515625 40.234375 12.765625 48.109375 
Q 20.015625 56 32.328125 56 
Q 43.359375 56 49.78125 48.890625 
Q 56.203125 41.796875 56.203125 29.59375 
z
M 47.21875 32.234375 
Q 47.125 39.59375 43.09375 43.984375 
Q 39.0625 48.390625 32.421875 48.390625 
Q 24.90625 48.390625 20.390625 44.140625 
Q 15.875 39.890625 15.1875 32.171875 
z
" id="DejaVuSans-101"/>
      <path id="DejaVuSans-32"/>
      <path d="M 31 75.875 
Q 24.46875 64.65625 21.28125 53.65625 
Q 18.109375 42.671875 18.109375 31.390625 
Q 18.109375 20.125 21.3125 9.0625 
Q 24.515625 -2 31 -13.1875 
L 23.1875 -13.1875 
Q 15.875 -1.703125 12.234375 9.375 
Q 8.59375 20.453125 8.59375 31.390625 
Q 8.59375 42.28125 12.203125 53.3125 
Q 15.828125 64.359375 23.1875 75.875 
z
" id="DejaVuSans-40"/>
      <path d="M 44.28125 53.078125 
L 44.28125 44.578125 
Q 40.484375 46.53125 36.375 47.5 
Q 32.28125 48.484375 27.875 48.484375 
Q 21.1875 48.484375 17.84375 46.4375 
Q 14.5 44.390625 14.5 40.28125 
Q 14.5 37.15625 16.890625 35.375 
Q 19.28125 33.59375 26.515625 31.984375 
L 29.59375 31.296875 
Q 39.15625 29.25 43.1875 25.515625 
Q 47.21875 21.78125 47.21875 15.09375 
Q 47.21875 7.46875 41.1875 3.015625 
Q 35.15625 -1.421875 24.609375 -1.421875 
Q 20.21875 -1.421875 15.453125 -0.5625 
Q 10.6875 0.296875 5.421875 2 
L 5.421875 11.28125 
Q 10.40625 8.6875 15.234375 7.390625 
Q 20.0625 6.109375 24.8125 6.109375 
Q 31.15625 6.109375 34.5625 8.28125 
Q 37.984375 10.453125 37.984375 14.40625 
Q 37.984375 18.0625 35.515625 20.015625 
Q 33.0625 21.96875 24.703125 23.78125 
L 21.578125 24.515625 
Q 13.234375 26.265625 9.515625 29.90625 
Q 5.8125 33.546875 5.8125 39.890625 
Q 5.8125 47.609375 11.28125 51.796875 
Q 16.75 56 26.8125 56 
Q 31.78125 56 36.171875 55.265625 
Q 40.578125 54.546875 44.28125 53.078125 
z
" id="DejaVuSans-115"/>
      <path d="M 48.78125 52.59375 
L 48.78125 44.1875 
Q 44.96875 46.296875 41.140625 47.34375 
Q 37.3125 48.390625 33.40625 48.390625 
Q 24.65625 48.390625 19.8125 42.84375 
Q 14.984375 37.3125 14.984375 27.296875 
Q 14.984375 17.28125 19.8125 11.734375 
Q 24.65625 6.203125 33.40625 6.203125 
Q 37.3125 6.203125 41.140625 7.25 
Q 44.96875 8.296875 48.78125 10.40625 
L 48.78125 2.09375 
Q 45.015625 0.34375 40.984375 -0.53125 
Q 36.96875 -1.421875 32.421875 -1.421875 
Q 20.0625 -1.421875 12.78125 6.34375 
Q 5.515625 14.109375 5.515625 27.296875 
Q 5.515625 40.671875 12.859375 48.328125 
Q 20.21875 56 33.015625 56 
Q 37.15625 56 41.109375 55.140625 
Q 45.0625 54.296875 48.78125 52.59375 
z
" id="DejaVuSans-99"/>
      <path d="M 8.015625 75.875 
L 15.828125 75.875 
Q 23.140625 64.359375 26.78125 53.3125 
Q 30.421875 42.28125 30.421875 31.390625 
Q 30.421875 20.453125 26.78125 9.375 
Q 23.140625 -1.703125 15.828125 -13.1875 
L 8.015625 -13.1875 
Q 14.5 -2 17.703125 9.0625 
Q 20.90625 20.125 20.90625 31.390625 
Q 20.90625 42.671875 17.703125 53.65625 
Q 14.5 64.65625 8.015625 75.875 
z
" id="DejaVuSans-41"/>
     </defs>
     <g transform="translate(277.099219 275.120313)scale(0.1 -0.1)">
      <use xlink:href="#DejaVuSans-116"/>
      <use x="39.208984" xlink:href="#DejaVuSans-105"/>
      <use x="66.992188" xlink:href="#DejaVuSans-109"/>
      <use x="164.404297" xlink:href="#DejaVuSans-101"/>
      <use x="225.927734" xlink:href="#DejaVuSans-32"/>
      <use x="257.714844" xlink:href="#DejaVuSans-40"/>
      <use x="296.728516" xlink:href="#DejaVuSans-115"/>
      <use x="348.828125" xlink:href="#DejaVuSans-101"/>
      <use x="410.351562" xlink:href="#DejaVuSans-99"/>
      <use x="465.332031" xlink:href="#DejaVuSans-41"/>
     </g>
    </g>
   </g>
   <g id="matplotlib.axis_2">
    <g id="ytick_1">
     <g id="line2d_7">
      <defs>
       <path d="M 0 0 
L -3.5 0 
" id="mdd3d2651d8" style="stroke:#000000;stroke-width:0.8;"/>
      </defs>
      <g>
       <use style="stroke:#000000;stroke-width:0.8;" x="50.565625" xlink:href="#mdd3d2651d8" y="246.84375"/>
      </g>
     </g>
     <g id="text_8">
      <!-- 0 -->
      <g transform="translate(37.203125 250.642969)scale(0.1 -0.1)">
       <use xlink:href="#DejaVuSans-48"/>
      </g>
     </g>
    </g>
    <g id="ytick_2">
     <g id="line2d_8">
      <g>
       <use style="stroke:#000000;stroke-width:0.8;" x="50.565625" xlink:href="#mdd3d2651d8" y="202.669125"/>
      </g>
     </g>
     <g id="text_9">
      <!-- 20 -->
      <g transform="translate(30.840625 206.468344)scale(0.1 -0.1)">
       <use xlink:href="#DejaVuSans-50"/>
       <use x="63.623047" xlink:href="#DejaVuSans-48"/>
      </g>
     </g>
    </g>
    <g id="ytick_3">
     <g id="line2d_9">
      <g>
       <use style="stroke:#000000;stroke-width:0.8;" x="50.565625" xlink:href="#mdd3d2651d8" y="158.4945"/>
      </g>
     </g>
     <g id="text_10">
      <!-- 40 -->
      <g transform="translate(30.840625 162.293719)scale(0.1 -0.1)">
       <use xlink:href="#DejaVuSans-52"/>
       <use x="63.623047" xlink:href="#DejaVuSans-48"/>
      </g>
     </g>
    </g>
    <g id="ytick_4">
     <g id="line2d_10">
      <g>
       <use style="stroke:#000000;stroke-width:0.8;" x="50.565625" xlink:href="#mdd3d2651d8" y="114.319875"/>
      </g>
     </g>
     <g id="text_11">
      <!-- 60 -->
      <defs>
       <path d="M 33.015625 40.375 
Q 26.375 40.375 22.484375 35.828125 
Q 18.609375 31.296875 18.609375 23.390625 
Q 18.609375 15.53125 22.484375 10.953125 
Q 26.375 6.390625 33.015625 6.390625 
Q 39.65625 6.390625 43.53125 10.953125 
Q 47.40625 15.53125 47.40625 23.390625 
Q 47.40625 31.296875 43.53125 35.828125 
Q 39.65625 40.375 33.015625 40.375 
z
M 52.59375 71.296875 
L 52.59375 62.3125 
Q 48.875 64.0625 45.09375 64.984375 
Q 41.3125 65.921875 37.59375 65.921875 
Q 27.828125 65.921875 22.671875 59.328125 
Q 17.53125 52.734375 16.796875 39.40625 
Q 19.671875 43.65625 24.015625 45.921875 
Q 28.375 48.1875 33.59375 48.1875 
Q 44.578125 48.1875 50.953125 41.515625 
Q 57.328125 34.859375 57.328125 23.390625 
Q 57.328125 12.15625 50.6875 5.359375 
Q 44.046875 -1.421875 33.015625 -1.421875 
Q 20.359375 -1.421875 13.671875 8.265625 
Q 6.984375 17.96875 6.984375 36.375 
Q 6.984375 53.65625 15.1875 63.9375 
Q 23.390625 74.21875 37.203125 74.21875 
Q 40.921875 74.21875 44.703125 73.484375 
Q 48.484375 72.75 52.59375 71.296875 
z
" id="DejaVuSans-54"/>
      </defs>
      <g transform="translate(30.840625 118.119094)scale(0.1 -0.1)">
       <use xlink:href="#DejaVuSans-54"/>
       <use x="63.623047" xlink:href="#DejaVuSans-48"/>
      </g>
     </g>
    </g>
    <g id="ytick_5">
     <g id="line2d_11">
      <g>
       <use style="stroke:#000000;stroke-width:0.8;" x="50.565625" xlink:href="#mdd3d2651d8" y="70.14525"/>
      </g>
     </g>
     <g id="text_12">
      <!-- 80 -->
      <defs>
       <path d="M 31.78125 34.625 
Q 24.75 34.625 20.71875 30.859375 
Q 16.703125 27.09375 16.703125 20.515625 
Q 16.703125 13.921875 20.71875 10.15625 
Q 24.75 6.390625 31.78125 6.390625 
Q 38.8125 6.390625 42.859375 10.171875 
Q 46.921875 13.96875 46.921875 20.515625 
Q 46.921875 27.09375 42.890625 30.859375 
Q 38.875 34.625 31.78125 34.625 
z
M 21.921875 38.8125 
Q 15.578125 40.375 12.03125 44.71875 
Q 8.5 49.078125 8.5 55.328125 
Q 8.5 64.0625 14.71875 69.140625 
Q 20.953125 74.21875 31.78125 74.21875 
Q 42.671875 74.21875 48.875 69.140625 
Q 55.078125 64.0625 55.078125 55.328125 
Q 55.078125 49.078125 51.53125 44.71875 
Q 48 40.375 41.703125 38.8125 
Q 48.828125 37.15625 52.796875 32.3125 
Q 56.78125 27.484375 56.78125 20.515625 
Q 56.78125 9.90625 50.3125 4.234375 
Q 43.84375 -1.421875 31.78125 -1.421875 
Q 19.734375 -1.421875 13.25 4.234375 
Q 6.78125 9.90625 6.78125 20.515625 
Q 6.78125 27.484375 10.78125 32.3125 
Q 14.796875 37.15625 21.921875 38.8125 
z
M 18.3125 54.390625 
Q 18.3125 48.734375 21.84375 45.5625 
Q 25.390625 42.390625 31.78125 42.390625 
Q 38.140625 42.390625 41.71875 45.5625 
Q 45.3125 48.734375 45.3125 54.390625 
Q 45.3125 60.0625 41.71875 63.234375 
Q 38.140625 66.40625 31.78125 66.40625 
Q 25.390625 66.40625 21.84375 63.234375 
Q 18.3125 60.0625 18.3125 54.390625 
z
" id="DejaVuSans-56"/>
      </defs>
      <g transform="translate(30.840625 73.944469)scale(0.1 -0.1)">
       <use xlink:href="#DejaVuSans-56"/>
       <use x="63.623047" xlink:href="#DejaVuSans-48"/>
      </g>
     </g>
    </g>
    <g id="ytick_6">
     <g id="line2d_12">
      <g>
       <use style="stroke:#000000;stroke-width:0.8;" x="50.565625" xlink:href="#mdd3d2651d8" y="25.970625"/>
      </g>
     </g>
     <g id="text_13">
      <!-- 100 -->
      <g transform="translate(24.478125 29.769844)scale(0.1 -0.1)">
       <use xlink:href="#DejaVuSans-49"/>
       <use x="63.623047" xlink:href="#DejaVuSans-48"/>
       <use x="127.246094" xlink:href="#DejaVuSans-48"/>
      </g>
     </g>
    </g>
    <g id="text_14">
     <!-- frequency -->
     <defs>
      <path d="M 37.109375 75.984375 
L 37.109375 68.5 
L 28.515625 68.5 
Q 23.6875 68.5 21.796875 66.546875 
Q 19.921875 64.59375 19.921875 59.515625 
L 19.921875 54.6875 
L 34.71875 54.6875 
L 34.71875 47.703125 
L 19.921875 47.703125 
L 19.921875 0 
L 10.890625 0 
L 10.890625 47.703125 
L 2.296875 47.703125 
L 2.296875 54.6875 
L 10.890625 54.6875 
L 10.890625 58.5 
Q 10.890625 67.625 15.140625 71.796875 
Q 19.390625 75.984375 28.609375 75.984375 
z
" id="DejaVuSans-102"/>
      <path d="M 41.109375 46.296875 
Q 39.59375 47.171875 37.8125 47.578125 
Q 36.03125 48 33.890625 48 
Q 26.265625 48 22.1875 43.046875 
Q 18.109375 38.09375 18.109375 28.8125 
L 18.109375 0 
L 9.078125 0 
L 9.078125 54.6875 
L 18.109375 54.6875 
L 18.109375 46.1875 
Q 20.953125 51.171875 25.484375 53.578125 
Q 30.03125 56 36.53125 56 
Q 37.453125 56 38.578125 55.875 
Q 39.703125 55.765625 41.0625 55.515625 
z
" id="DejaVuSans-114"/>
      <path d="M 14.796875 27.296875 
Q 14.796875 17.390625 18.875 11.75 
Q 22.953125 6.109375 30.078125 6.109375 
Q 37.203125 6.109375 41.296875 11.75 
Q 45.40625 17.390625 45.40625 27.296875 
Q 45.40625 37.203125 41.296875 42.84375 
Q 37.203125 48.484375 30.078125 48.484375 
Q 22.953125 48.484375 18.875 42.84375 
Q 14.796875 37.203125 14.796875 27.296875 
z
M 45.40625 8.203125 
Q 42.578125 3.328125 38.25 0.953125 
Q 33.9375 -1.421875 27.875 -1.421875 
Q 17.96875 -1.421875 11.734375 6.484375 
Q 5.515625 14.40625 5.515625 27.296875 
Q 5.515625 40.1875 11.734375 48.09375 
Q 17.96875 56 27.875 56 
Q 33.9375 56 38.25 53.625 
Q 42.578125 51.265625 45.40625 46.390625 
L 45.40625 54.6875 
L 54.390625 54.6875 
L 54.390625 -20.796875 
L 45.40625 -20.796875 
z
" id="DejaVuSans-113"/>
      <path d="M 8.5 21.578125 
L 8.5 54.6875 
L 17.484375 54.6875 
L 17.484375 21.921875 
Q 17.484375 14.15625 20.5 10.265625 
Q 23.53125 6.390625 29.59375 6.390625 
Q 36.859375 6.390625 41.078125 11.03125 
Q 45.3125 15.671875 45.3125 23.6875 
L 45.3125 54.6875 
L 54.296875 54.6875 
L 54.296875 0 
L 45.3125 0 
L 45.3125 8.40625 
Q 42.046875 3.421875 37.71875 1 
Q 33.40625 -1.421875 27.6875 -1.421875 
Q 18.265625 -1.421875 13.375 4.4375 
Q 8.5 10.296875 8.5 21.578125 
z
M 31.109375 56 
z
" id="DejaVuSans-117"/>
      <path d="M 54.890625 33.015625 
L 54.890625 0 
L 45.90625 0 
L 45.90625 32.71875 
Q 45.90625 40.484375 42.875 44.328125 
Q 39.84375 48.1875 33.796875 48.1875 
Q 26.515625 48.1875 22.3125 43.546875 
Q 18.109375 38.921875 18.109375 30.90625 
L 18.109375 0 
L 9.078125 0 
L 9.078125 54.6875 
L 18.109375 54.6875 
L 18.109375 46.1875 
Q 21.34375 51.125 25.703125 53.5625 
Q 30.078125 56 35.796875 56 
Q 45.21875 56 50.046875 50.171875 
Q 54.890625 44.34375 54.890625 33.015625 
z
" id="DejaVuSans-110"/>
      <path d="M 32.171875 -5.078125 
Q 28.375 -14.84375 24.75 -17.8125 
Q 21.140625 -20.796875 15.09375 -20.796875 
L 7.90625 -20.796875 
L 7.90625 -13.28125 
L 13.1875 -13.28125 
Q 16.890625 -13.28125 18.9375 -11.515625 
Q 21 -9.765625 23.484375 -3.21875 
L 25.09375 0.875 
L 2.984375 54.6875 
L 12.5 54.6875 
L 29.59375 11.921875 
L 46.6875 54.6875 
L 56.203125 54.6875 
z
" id="DejaVuSans-121"/>
     </defs>
     <g transform="translate(18.398438 161.48375)rotate(-90)scale(0.1 -0.1)">
      <use xlink:href="#DejaVuSans-102"/>
      <use x="35.205078" xlink:href="#DejaVuSans-114"/>
      <use x="74.068359" xlink:href="#DejaVuSans-101"/>
      <use x="135.591797" xlink:href="#DejaVuSans-113"/>
      <use x="199.068359" xlink:href="#DejaVuSans-117"/>
      <use x="262.447266" xlink:href="#DejaVuSans-101"/>
      <use x="323.970703" xlink:href="#DejaVuSans-110"/>
      <use x="387.349609" xlink:href="#DejaVuSans-99"/>
      <use x="442.330078" xlink:href="#DejaVuSans-121"/>
     </g>
    </g>
   </g>
   <g id="LineCollection_1">
    <path clip-path="url(#p5ddd8e434a)" d="M 387.517439 246.84375 
L 387.517439 25.970625 
" style="fill:none;stroke:#000000;stroke-width:0.5;"/>
   </g>
   <g id="line2d_13">
    <path clip-path="url(#p5ddd8e434a)" d="M 356.8698 246.783533 
L 358.120724 246.729579 
L 359.371648 246.632979 
L 360.622572 246.464879 
L 361.873496 246.180625 
L 363.12442 245.713635 
L 364.375344 244.968439 
L 365.626268 243.813713 
L 366.877192 242.07674 
L 368.128116 239.541312 
L 369.37904 235.951608 
L 370.629964 231.024628 
L 371.880888 224.473281 
L 373.131813 216.040861 
L 374.382737 205.54552 
L 375.633661 192.930556 
L 376.884585 178.313499 
L 378.135509 162.024735 
L 379.386433 144.625659 
L 380.637357 126.897702 
L 381.888281 109.797311 
L 383.139205 94.37768 
L 384.390129 81.684731 
L 385.641053 72.640995 
L 386.891977 67.935082 
L 388.142901 67.935082 
L 389.393825 72.640995 
L 390.644749 81.684731 
L 391.895673 94.37768 
L 393.146597 109.797311 
L 394.397521 126.897702 
L 395.648445 144.625659 
L 396.899369 162.024735 
L 398.150293 178.313499 
L 399.401217 192.930556 
L 400.652141 205.54552 
L 401.903065 216.040861 
L 403.153989 224.473281 
L 404.404913 231.024628 
L 405.655837 235.951608 
L 406.906761 239.541312 
L 408.157685 242.07674 
L 409.40861 243.813713 
L 410.659534 244.968439 
L 411.910458 245.713635 
L 413.161382 246.180625 
L 414.412306 246.464879 
L 415.66323 246.632979 
L 416.914154 246.729579 
L 418.165078 246.783533 
" style="fill:none;stroke:#ff7f0e;stroke-linecap:square;stroke-width:0.8;"/>
   </g>
   <g id="patch_53">
    <path d="M 50.565625 246.84375 
L 50.565625 25.970625 
" style="fill:none;stroke:#000000;stroke-linecap:square;stroke-linejoin:miter;stroke-width:0.8;"/>
   </g>
   <g id="patch_54">
    <path d="M 554.067187 246.84375 
L 554.067187 25.970625 
" style="fill:none;stroke:#000000;stroke-linecap:square;stroke-linejoin:miter;stroke-width:0.8;"/>
   </g>
   <g id="patch_55">
    <path d="M 50.565625 246.84375 
L 554.067187 246.84375 
" style="fill:none;stroke:#000000;stroke-linecap:square;stroke-linejoin:miter;stroke-width:0.8;"/>
   </g>
   <g id="patch_56">
    <path d="M 50.565625 25.970625 
L 554.067187 25.970625 
" style="fill:none;stroke:#000000;stroke-linecap:square;stroke-linejoin:miter;stroke-width:0.8;"/>
   </g>
   <g id="text_15">
    <!-- avg.=0.133 -->
    <defs>
     <path d="M 34.28125 27.484375 
Q 23.390625 27.484375 19.1875 25 
Q 14.984375 22.515625 14.984375 16.5 
Q 14.984375 11.71875 18.140625 8.90625 
Q 21.296875 6.109375 26.703125 6.109375 
Q 34.1875 6.109375 38.703125 11.40625 
Q 43.21875 16.703125 43.21875 25.484375 
L 43.21875 27.484375 
z
M 52.203125 31.203125 
L 52.203125 0 
L 43.21875 0 
L 43.21875 8.296875 
Q 40.140625 3.328125 35.546875 0.953125 
Q 30.953125 -1.421875 24.3125 -1.421875 
Q 15.921875 -1.421875 10.953125 3.296875 
Q 6 8.015625 6 15.921875 
Q 6 25.140625 12.171875 29.828125 
Q 18.359375 34.515625 30.609375 34.515625 
L 43.21875 34.515625 
L 43.21875 35.40625 
Q 43.21875 41.609375 39.140625 45 
Q 35.0625 48.390625 27.6875 48.390625 
Q 23 48.390625 18.546875 47.265625 
Q 14.109375 46.140625 10.015625 43.890625 
L 10.015625 52.203125 
Q 14.9375 54.109375 19.578125 55.046875 
Q 24.21875 56 28.609375 56 
Q 40.484375 56 46.34375 49.84375 
Q 52.203125 43.703125 52.203125 31.203125 
z
" id="DejaVuSans-97"/>
     <path d="M 2.984375 54.6875 
L 12.5 54.6875 
L 29.59375 8.796875 
L 46.6875 54.6875 
L 56.203125 54.6875 
L 35.6875 0 
L 23.484375 0 
z
" id="DejaVuSans-118"/>
     <path d="M 45.40625 27.984375 
Q 45.40625 37.75 41.375 43.109375 
Q 37.359375 48.484375 30.078125 48.484375 
Q 22.859375 48.484375 18.828125 43.109375 
Q 14.796875 37.75 14.796875 27.984375 
Q 14.796875 18.265625 18.828125 12.890625 
Q 22.859375 7.515625 30.078125 7.515625 
Q 37.359375 7.515625 41.375 12.890625 
Q 45.40625 18.265625 45.40625 27.984375 
z
M 54.390625 6.78125 
Q 54.390625 -7.171875 48.1875 -13.984375 
Q 42 -20.796875 29.203125 -20.796875 
Q 24.46875 -20.796875 20.265625 -20.09375 
Q 16.0625 -19.390625 12.109375 -17.921875 
L 12.109375 -9.1875 
Q 16.0625 -11.328125 19.921875 -12.34375 
Q 23.78125 -13.375 27.78125 -13.375 
Q 36.625 -13.375 41.015625 -8.765625 
Q 45.40625 -4.15625 45.40625 5.171875 
L 45.40625 9.625 
Q 42.625 4.78125 38.28125 2.390625 
Q 33.9375 0 27.875 0 
Q 17.828125 0 11.671875 7.65625 
Q 5.515625 15.328125 5.515625 27.984375 
Q 5.515625 40.671875 11.671875 48.328125 
Q 17.828125 56 27.875 56 
Q 33.9375 56 38.28125 53.609375 
Q 42.625 51.21875 45.40625 46.390625 
L 45.40625 54.6875 
L 54.390625 54.6875 
z
" id="DejaVuSans-103"/>
     <path d="M 10.59375 45.40625 
L 73.1875 45.40625 
L 73.1875 37.203125 
L 10.59375 37.203125 
z
M 10.59375 25.484375 
L 73.1875 25.484375 
L 73.1875 17.1875 
L 10.59375 17.1875 
z
" id="DejaVuSans-61"/>
    </defs>
    <g transform="translate(423.156781 70.14525)scale(0.1 -0.1)">
     <use xlink:href="#DejaVuSans-97"/>
     <use x="61.279297" xlink:href="#DejaVuSans-118"/>
     <use x="120.458984" xlink:href="#DejaVuSans-103"/>
     <use x="183.935547" xlink:href="#DejaVuSans-46"/>
     <use x="215.722656" xlink:href="#DejaVuSans-61"/>
     <use x="299.511719" xlink:href="#DejaVuSans-48"/>
     <use x="363.134766" xlink:href="#DejaVuSans-46"/>
     <use x="394.921875" xlink:href="#DejaVuSans-49"/>
     <use x="458.544922" xlink:href="#DejaVuSans-51"/>
     <use x="522.167969" xlink:href="#DejaVuSans-51"/>
    </g>
   </g>
   <g id="text_16">
    <!-- std.=0.000761 -->
    <defs>
     <path d="M 45.40625 46.390625 
L 45.40625 75.984375 
L 54.390625 75.984375 
L 54.390625 0 
L 45.40625 0 
L 45.40625 8.203125 
Q 42.578125 3.328125 38.25 0.953125 
Q 33.9375 -1.421875 27.875 -1.421875 
Q 17.96875 -1.421875 11.734375 6.484375 
Q 5.515625 14.40625 5.515625 27.296875 
Q 5.515625 40.1875 11.734375 48.09375 
Q 17.96875 56 27.875 56 
Q 33.9375 56 38.25 53.625 
Q 42.578125 51.265625 45.40625 46.390625 
z
M 14.796875 27.296875 
Q 14.796875 17.390625 18.875 11.75 
Q 22.953125 6.109375 30.078125 6.109375 
Q 37.203125 6.109375 41.296875 11.75 
Q 45.40625 17.390625 45.40625 27.296875 
Q 45.40625 37.203125 41.296875 42.84375 
Q 37.203125 48.484375 30.078125 48.484375 
Q 22.953125 48.484375 18.875 42.84375 
Q 14.796875 37.203125 14.796875 27.296875 
z
" id="DejaVuSans-100"/>
     <path d="M 8.203125 72.90625 
L 55.078125 72.90625 
L 55.078125 68.703125 
L 28.609375 0 
L 18.3125 0 
L 43.21875 64.59375 
L 8.203125 64.59375 
z
" id="DejaVuSans-55"/>
    </defs>
    <g transform="translate(423.156781 87.8151)scale(0.1 -0.1)">
     <use xlink:href="#DejaVuSans-115"/>
     <use x="52.099609" xlink:href="#DejaVuSans-116"/>
     <use x="91.308594" xlink:href="#DejaVuSans-100"/>
     <use x="154.785156" xlink:href="#DejaVuSans-46"/>
     <use x="186.572266" xlink:href="#DejaVuSans-61"/>
     <use x="270.361328" xlink:href="#DejaVuSans-48"/>
     <use x="333.984375" xlink:href="#DejaVuSans-46"/>
     <use x="365.771484" xlink:href="#DejaVuSans-48"/>
     <use x="429.394531" xlink:href="#DejaVuSans-48"/>
     <use x="493.017578" xlink:href="#DejaVuSans-48"/>
     <use x="556.640625" xlink:href="#DejaVuSans-55"/>
     <use x="620.263672" xlink:href="#DejaVuSans-54"/>
     <use x="683.886719" xlink:href="#DejaVuSans-49"/>
    </g>
   </g>
   <g id="text_17">
    <!-- 射撃イベント受信までの時間 -->
    <defs>
     <path d="M 14.84375 27.390625 
L 14.84375 58.984375 
L 14.65625 71 
Q 14.65625 71.6875 15.328125 71.6875 
L 24.90625 71.484375 
Q 26.078125 74.125 27.09375 77.296875 
Q 28.078125 80.328125 28.328125 83.0625 
Q 31.5 82.515625 33.109375 81.984375 
Q 34.125 81.640625 34.125 80.953125 
Q 34.125 80.46875 33.296875 79.6875 
Q 32.515625 78.90625 32.125 77.78125 
Q 30.375 73.578125 29.296875 71.484375 
L 34.71875 71.484375 
L 44.390625 71.6875 
Q 45.125 71.6875 45.125 71 
L 44.921875 57.625 
L 44.921875 35.0625 
Q 46.53125 37.40625 47.703125 39.15625 
Q 48.53125 40.53125 49.03125 42.390625 
Q 50.6875 41.609375 52.484375 40.375 
Q 53.21875 39.84375 53.21875 39.40625 
Q 53.21875 38.671875 52.203125 38.1875 
Q 51.265625 37.59375 50.203125 36.078125 
Q 46.390625 31 44.921875 29.203125 
L 44.921875 15.375 
L 45.125 2.203125 
Q 45.125 -1.46875 43.40625 -3.328125 
Q 42.09375 -4.78125 39.359375 -5.28125 
Q 37.203125 -5.671875 32.328125 -5.71875 
Q 31.0625 -5.71875 30.8125 -5.46875 
Q 30.609375 -5.28125 30.328125 -4.109375 
Q 29.78125 -2.34375 28.609375 -0.6875 
Q 32.421875 -1.125 36.078125 -1.125 
Q 40.71875 -1.125 40.71875 3.21875 
L 40.71875 24.265625 
Q 28.078125 10.25 7.8125 -0.296875 
Q 6.890625 -0.828125 6.59375 -0.828125 
Q 6.25 -0.828125 5.515625 0.296875 
Q 4.59375 1.703125 3.328125 2.484375 
Q 25.78125 12.984375 39.796875 28.859375 
Q 30.71875 26.421875 13.140625 22.796875 
Q 9.578125 22.078125 8.9375 21.578125 
Q 8.25 21.09375 7.71875 21.09375 
Q 7.28125 21.09375 6.84375 22.21875 
Q 6.15625 24.03125 5.609375 26.375 
Q 7.953125 26.46875 14.015625 27.296875 
z
M 19.046875 28.078125 
Q 30.90625 30.03125 40.71875 32.46875 
L 40.71875 40.578125 
L 19.046875 40.578125 
z
M 19.046875 57.90625 
L 40.71875 57.90625 
L 40.71875 67.671875 
L 19.046875 67.671875 
z
M 40.71875 54.296875 
L 19.046875 54.296875 
L 19.046875 44.1875 
L 40.71875 44.1875 
z
M 79.15625 54.890625 
L 63.8125 54.890625 
L 51.3125 54.6875 
Q 50.640625 54.6875 50.640625 55.375 
L 50.640625 58.59375 
Q 50.640625 59.28125 51.3125 59.28125 
L 63.8125 59.078125 
L 79.15625 59.078125 
L 79.15625 69.875 
Q 79.15625 77.984375 78.421875 81.390625 
Q 81.109375 81.25 83.734375 80.765625 
Q 84.859375 80.609375 84.859375 80.078125 
Q 84.859375 79.59375 84.234375 78.171875 
Q 83.6875 76.8125 83.6875 69.96875 
L 83.6875 59.078125 
L 95.40625 59.28125 
Q 96.1875 59.28125 96.1875 58.59375 
L 96.1875 55.375 
Q 96.1875 54.6875 95.40625 54.6875 
L 83.6875 54.890625 
L 83.6875 16.796875 
L 83.84375 3.375 
Q 83.84375 -0.09375 83.15625 -1.65625 
Q 82.625 -2.984375 81.203125 -3.90625 
Q 78.765625 -5.671875 71.046875 -5.671875 
Q 69.390625 -5.671875 67.625 -5.609375 
Q 66.359375 -5.609375 66.0625 -5.375 
Q 65.828125 -5.171875 65.53125 -4.109375 
Q 64.984375 -2.203125 63.8125 -0.59375 
Q 67.09375 -1.078125 70.125 -1.078125 
Q 70.953125 -1.078125 72.21875 -1.03125 
Q 76.765625 -1.03125 78.03125 0.09375 
Q 79.15625 1.078125 79.15625 4.203125 
z
M 60.6875 43.21875 
Q 67.28125 34.515625 71.296875 24.421875 
Q 71.34375 24.171875 71.34375 24.03125 
Q 71.34375 23.640625 70.40625 23.09375 
L 68.890625 22.3125 
Q 67.828125 21.6875 67.578125 21.6875 
Q 67.328125 21.6875 67.09375 22.265625 
Q 63.375 32.421875 57.078125 40.921875 
Q 56.84375 41.21875 56.84375 41.40625 
Q 56.84375 41.65625 57.90625 42.28125 
L 59.28125 43.109375 
Q 60.015625 43.5 60.203125 43.5 
Q 60.40625 43.5 60.6875 43.21875 
z
" id="YuGothic-Regular-23556"/>
     <path d="M 27.203125 46.09375 
L 23.390625 46.09375 
L 12.703125 45.90625 
Q 12.015625 45.90625 12.015625 46.578125 
L 12.203125 53.421875 
L 12.203125 59.234375 
L 12.015625 66.109375 
Q 12.015625 66.796875 12.703125 66.796875 
L 23.390625 66.609375 
L 27.203125 66.609375 
L 27.203125 72.015625 
L 20.21875 72.015625 
L 8.203125 71.828125 
Q 7.515625 71.828125 7.515625 72.515625 
L 7.515625 74.515625 
Q 7.515625 75.203125 8.203125 75.203125 
L 20.21875 75 
L 27.203125 75 
Q 27.203125 79.890625 26.609375 82.421875 
Q 28.765625 82.28125 31 81.890625 
Q 31.890625 81.734375 31.890625 81.203125 
Q 31.890625 80.90625 31.6875 80.421875 
Q 31.453125 79.828125 31.390625 79.6875 
Q 31 78.515625 31 75.203125 
L 31 75 
L 36.921875 75 
L 48.921875 75.203125 
Q 49.609375 75.203125 49.609375 74.515625 
L 49.609375 72.515625 
Q 49.609375 71.828125 48.921875 71.828125 
L 36.921875 72.015625 
L 31 72.015625 
L 31 66.609375 
L 35.203125 66.609375 
L 45.796875 66.796875 
Q 46.484375 66.796875 46.484375 66.109375 
L 46.296875 59.234375 
L 46.296875 53.421875 
L 46.484375 46.578125 
Q 46.484375 45.90625 45.796875 45.90625 
L 35.203125 46.09375 
L 31 46.09375 
L 31 40.671875 
L 36.921875 40.671875 
L 49.21875 40.875 
Q 49.90625 40.875 49.90625 40.1875 
L 49.90625 38.09375 
Q 49.90625 37.40625 49.21875 37.40625 
L 36.921875 37.59375 
L 31 37.59375 
Q 31.0625 35.25 31.15625 33.203125 
Q 31.203125 31.890625 31.203125 31.78125 
Q 31.203125 31.109375 30.515625 31.109375 
L 27.78125 31.109375 
Q 27 31.109375 27 31.78125 
Q 27 31.84375 27.046875 33.59375 
Q 27.15625 35.453125 27.203125 37.59375 
L 19.390625 37.59375 
L 7.234375 37.40625 
Q 6.5 37.40625 6.5 38.09375 
L 6.5 40.1875 
Q 6.5 40.875 7.234375 40.875 
L 19.390625 40.671875 
L 27.203125 40.671875 
z
M 27.296875 57.8125 
L 27.296875 63.921875 
L 15.828125 63.921875 
L 15.828125 57.8125 
z
M 31 57.8125 
L 42.828125 57.8125 
L 42.828125 63.921875 
L 31 63.921875 
z
M 27.296875 55.21875 
L 15.828125 55.21875 
L 15.828125 48.78125 
L 27.296875 48.78125 
z
M 31 55.21875 
L 31 48.78125 
L 42.828125 48.78125 
L 42.828125 55.21875 
z
M 67.390625 42.09375 
Q 61.765625 46.875 57.71875 53.859375 
Q 55.421875 53.8125 53.5625 53.71875 
Q 52.296875 53.65625 52.203125 53.65625 
Q 51.515625 53.65625 51.515625 54.34375 
L 51.515625 56.59375 
Q 51.515625 57.28125 52.203125 57.28125 
L 62.703125 57.078125 
L 80.328125 57.078125 
Q 81.25 57.078125 81.984375 57.375 
Q 82.375 57.5625 82.90625 57.5625 
Q 83.40625 57.5625 84.671875 56.25 
Q 86.1875 54.59375 86.1875 53.953125 
Q 86.1875 53.265625 85.5 52.875 
Q 84.515625 52.390625 82.671875 50.296875 
Q 78.21875 45.171875 73.6875 41.890625 
Q 81.890625 36.859375 95.125 34.625 
Q 93.890625 33.546875 93.21875 31.984375 
Q 92.71875 30.953125 92.1875 30.953125 
Q 91.9375 30.953125 91.3125 31.109375 
Q 79.109375 33.640625 70.40625 39.703125 
Q 62.890625 35.0625 52.9375 32.671875 
Q 52.09375 32.46875 51.859375 32.46875 
Q 51.375 32.46875 50.59375 33.6875 
Q 49.8125 34.96875 48.6875 35.59375 
Q 58.984375 37.3125 67.390625 42.09375 
z
M 70.515625 44 
Q 76.8125 48.25 80.71875 53.859375 
L 61.53125 53.859375 
Q 65.28125 47.90625 70.515625 44 
z
M 48.6875 6.890625 
L 19.828125 6.890625 
L 6.6875 6.6875 
Q 6 6.6875 6 7.375 
L 6 9.8125 
Q 6 10.5 6.6875 10.5 
L 19.828125 10.296875 
L 48.6875 10.296875 
L 48.6875 16.3125 
L 30.328125 16.3125 
L 16.109375 16.109375 
Q 15.4375 16.109375 15.4375 16.796875 
L 15.4375 19.046875 
Q 15.4375 19.828125 16.109375 19.828125 
L 30.328125 19.625 
L 48.6875 19.625 
L 48.6875 25.53125 
Q 41.0625 25.046875 22.90625 24.609375 
Q 21.734375 24.609375 21.484375 24.8125 
Q 21.234375 25 20.796875 26.03125 
Q 20.359375 26.859375 19.28125 28.125 
Q 24.703125 28.03125 28.375 28.03125 
Q 39.265625 28.03125 50.09375 28.8125 
Q 60.84375 29.59375 69.921875 31.25 
Q 72.171875 31.640625 74.515625 32.71875 
Q 76.703125 31.109375 77.640625 30.21875 
Q 78.21875 29.640625 78.21875 29.25 
Q 78.21875 28.421875 76.90625 28.421875 
Q 74.703125 28.421875 73.4375 28.21875 
Q 63.09375 26.515625 53.03125 25.828125 
L 53.03125 19.625 
L 69.828125 19.625 
L 84.078125 19.828125 
Q 84.8125 19.828125 84.8125 19.046875 
L 84.8125 16.796875 
Q 84.8125 16.109375 84.078125 16.109375 
L 69.828125 16.3125 
L 53.03125 16.3125 
L 53.03125 10.296875 
L 80.125 10.296875 
L 93.21875 10.5 
Q 94 10.5 94 9.8125 
L 94 7.375 
Q 94 6.6875 93.21875 6.6875 
L 80.125 6.890625 
L 53.03125 6.890625 
Q 53.21875 0.6875 53.21875 0.390625 
Q 53.21875 -2.78125 51.515625 -4.640625 
Q 49.125 -7.03125 39.109375 -6.9375 
Q 37.9375 -6.9375 37.640625 -6.640625 
Q 37.40625 -6.390625 37.109375 -5.328125 
Q 36.71875 -3.71875 35.40625 -2.203125 
Q 38.625 -2.734375 43.890625 -2.734375 
Q 46.625 -2.734375 47.65625 -1.65625 
Q 48.6875 -0.53125 48.6875 2.09375 
z
M 48.6875 62.109375 
Q 54.546875 64.265625 56.78125 67.390625 
Q 58.84375 70.265625 58.984375 75.203125 
L 58.796875 78.515625 
Q 58.796875 79.296875 59.46875 79.296875 
L 66.40625 79.109375 
L 71.734375 79.109375 
L 78.8125 79.296875 
Q 79.5 79.296875 79.5 78.515625 
L 79.296875 72.90625 
L 79.296875 69.875 
Q 79.296875 66.3125 80.328125 65.765625 
Q 81.5 65.1875 84.71875 65.1875 
Q 88.765625 65.1875 89.984375 67 
Q 91.015625 68.40625 91.015625 73.6875 
Q 91.796875 72.75 93.5 72.078125 
Q 94.828125 71.578125 94.828125 70.703125 
Q 94.828125 70.40625 94.78125 69.96875 
Q 94.234375 65.53125 92.578125 63.875 
Q 90.140625 61.765625 84.375 61.765625 
Q 79.640625 61.765625 77.6875 62.453125 
Q 76.265625 63.09375 75.78125 64.265625 
Q 75.203125 65.578125 75.203125 68.3125 
L 75.203125 75.6875 
L 62.984375 75.6875 
Q 62.984375 69.09375 60.109375 65.140625 
Q 57.765625 62.015625 53.03125 59.8125 
Q 52.09375 59.421875 51.859375 59.421875 
Q 51.46875 59.421875 50.59375 60.59375 
Q 49.953125 61.46875 48.6875 62.109375 
z
" id="YuGothic-Regular-25731"/>
     <path d="M 58.015625 52.984375 
L 58.015625 16.40625 
Q 58.015625 8.109375 58.296875 -0.6875 
Q 58.296875 -1.703125 57.421875 -1.703125 
Q 56.453125 -1.765625 55.21875 -1.765625 
Q 54 -1.765625 52.984375 -1.703125 
Q 52.203125 -1.703125 52.203125 -0.6875 
Q 52.484375 7.8125 52.484375 16.109375 
L 52.484375 48.09375 
Q 38.03125 35.015625 19.671875 24.421875 
Q 19.28125 24.171875 18.953125 24.171875 
Q 18.40625 24.171875 17.875 24.703125 
Q 16.40625 26.375 14.109375 27.296875 
Q 32.375 37.453125 45.21875 48.484375 
Q 57.421875 59.078125 65.09375 68.609375 
Q 69.53125 74.125 70.796875 78.421875 
Q 74.703125 76.46875 76.421875 74.609375 
Q 76.953125 74.078125 76.953125 73.4375 
Q 76.953125 72.609375 76.125 72.21875 
Q 74.3125 71.1875 70.703125 67 
Q 65.09375 60.0625 58.015625 52.984375 
z
" id="YuGothic-Regular-12452"/>
     <path d="M 62.5 63.28125 
L 65.53125 65.375 
Q 65.71875 65.578125 65.921875 65.578125 
Q 66.0625 65.578125 66.3125 65.4375 
Q 72.078125 61.53125 77.59375 53.328125 
Q 77.78125 53.078125 77.78125 52.875 
Q 77.78125 52.6875 77.484375 52.390625 
L 75.09375 50.390625 
Q 74.90625 50.203125 74.65625 50.203125 
Q 74.3125 50.203125 74.03125 50.640625 
Q 68.953125 58.640625 62.5 63.28125 
z
M 70.90625 69.484375 
L 73.484375 71.484375 
Q 73.828125 71.734375 74.03125 71.734375 
Q 74.21875 71.734375 74.421875 71.578125 
Q 81.203125 66.65625 85.6875 60.109375 
Q 85.890625 59.8125 85.890625 59.578125 
Q 85.890625 59.28125 85.5 58.984375 
L 83.203125 56.984375 
Q 82.953125 56.84375 82.765625 56.84375 
Q 82.46875 56.84375 82.234375 57.234375 
Q 77.4375 64.65625 70.90625 69.484375 
z
M 10.109375 30.90625 
Q 13.875 32.90625 19.28125 38.484375 
Q 25.4375 44.484375 34.90625 54.296875 
Q 37.40625 56.78125 39.703125 56.78125 
Q 42.328125 56.78125 45.015625 54.5 
Q 63.625 38.375 91.015625 21.484375 
Q 91.703125 21.046875 91.703125 20.5625 
Q 91.703125 20.3125 91.5 19.875 
Q 90.375 17.4375 89.203125 16.015625 
Q 88.921875 15.53125 88.578125 15.53125 
Q 88.28125 15.53125 87.703125 15.875 
Q 61.234375 33.796875 42.4375 49.75 
Q 41.015625 50.984375 39.984375 50.984375 
Q 38.921875 50.984375 37.984375 50.09375 
Q 30.5625 42.671875 21.1875 32.5625 
Q 19.1875 30.46875 17 26.953125 
Q 16.453125 26.265625 15.875 26.265625 
Q 15.4375 26.265625 14.984375 26.5625 
Q 12.25 28.765625 10.109375 30.90625 
z
" id="YuGothic-Regular-12505"/>
     <path d="M 17.828125 63.375 
Q 19.140625 65.09375 20.90625 66.890625 
Q 21.34375 67.328125 21.78125 67.328125 
Q 22.015625 67.328125 22.515625 67.09375 
Q 32.171875 61.375 40.046875 54.109375 
Q 40.578125 53.5625 40.578125 53.171875 
Q 40.578125 52.875 40.328125 52.484375 
Q 39.109375 50.6875 37.640625 49.21875 
Q 37.203125 48.78125 36.921875 48.78125 
Q 36.671875 48.78125 36.328125 49.125 
Q 27.09375 57.859375 17.828125 63.375 
z
M 20.21875 10.015625 
Q 25.484375 11.375 29.828125 13.71875 
Q 46.578125 22.46875 58.734375 32.171875 
Q 75.203125 45.40625 85.40625 58.6875 
Q 85.640625 56.296875 86.921875 53.8125 
Q 87.203125 53.21875 87.203125 52.734375 
Q 87.203125 51.859375 86.328125 50.78125 
Q 75.875 38.625 61.71875 27.484375 
Q 49.03125 17.578125 31.84375 8.109375 
Q 28.421875 6.15625 26.703125 4.296875 
Q 26.125 3.71875 25.640625 3.71875 
Q 25.140625 3.71875 24.515625 4.296875 
Q 22.515625 6.34375 20.21875 10.015625 
z
" id="YuGothic-Regular-12531"/>
     <path d="M 44.390625 48.578125 
Q 61.46875 43.890625 77.046875 34.71875 
Q 77.734375 34.328125 77.734375 33.890625 
Q 77.734375 33.734375 77.6875 33.5 
Q 76.859375 31.390625 75.875 29.890625 
Q 75.4375 29.296875 75 29.296875 
Q 74.65625 29.296875 74.171875 29.59375 
Q 60.40625 38.484375 44.390625 43.109375 
L 44.390625 17.828125 
Q 44.390625 17 44.671875 -1.21875 
Q 44.671875 -2.4375 43.5625 -2.4375 
Q 42.671875 -2.484375 41.65625 -2.484375 
Q 40.578125 -2.484375 39.65625 -2.4375 
Q 38.421875 -2.4375 38.421875 -1.125 
Q 38.875 10.890625 38.875 17.671875 
L 38.875 65.1875 
Q 38.875 73.578125 37.75 78.609375 
Q 42.1875 78.265625 44.625 77.484375 
Q 45.65625 77.203125 45.65625 76.3125 
Q 45.65625 75.828125 45.265625 74.90625 
Q 44.390625 72.953125 44.390625 65.71875 
z
" id="YuGothic-Regular-12488"/>
     <path d="M 29.890625 32.8125 
Q 25.875 32.765625 22.5625 32.671875 
Q 20.40625 32.625 20.359375 32.625 
Q 19.671875 32.625 19.671875 33.296875 
L 19.671875 36.625 
Q 19.671875 37.3125 20.359375 37.3125 
L 34.1875 37.109375 
L 68.5625 37.109375 
Q 70.171875 37.109375 70.796875 37.3125 
Q 70.953125 37.359375 71.390625 37.5 
Q 71.6875 37.59375 71.78125 37.59375 
Q 72.703125 37.59375 74.265625 35.890625 
Q 75.78125 34.375 75.78125 33.6875 
Q 75.78125 33.0625 75 32.625 
Q 73.578125 31.890625 72.46875 30.328125 
Q 64.796875 18.890625 54.59375 11.53125 
Q 67.78125 3.65625 94.484375 -1.5625 
Q 93.0625 -2.984375 92.1875 -4.78125 
Q 91.453125 -6.203125 90.921875 -6.203125 
Q 90.671875 -6.203125 89.796875 -5.953125 
Q 62.75 0.484375 50.484375 8.6875 
Q 36.421875 -0.046875 11.578125 -5.375 
Q 10.75 -5.609375 10.5 -5.609375 
Q 10.015625 -5.609375 9.375 -4.203125 
Q 8.296875 -2.046875 7.171875 -1.171875 
Q 31.25 2.78125 46.484375 11.625 
Q 36.578125 19.53125 29.890625 32.8125 
z
M 34.671875 32.8125 
Q 40.875 21.234375 50.484375 14.203125 
Q 61.140625 21.390625 68.703125 32.8125 
z
M 64.703125 52.59375 
Q 69.28125 59.03125 72.65625 66.796875 
Q 73.578125 68.953125 73.875 71.09375 
Q 76.609375 70.125 78.078125 69.390625 
Q 79.046875 68.890625 79.046875 68.40625 
Q 79.046875 67.875 78.078125 66.890625 
Q 77.296875 66.109375 76.265625 64.203125 
Q 73.484375 58.5 69.484375 52.59375 
L 76.5625 52.59375 
L 90.484375 52.78125 
Q 91.15625 52.78125 91.15625 52.09375 
L 90.96875 47.703125 
L 90.96875 43.796875 
L 91.15625 34.078125 
Q 91.15625 33.40625 90.484375 33.40625 
L 87.0625 33.40625 
Q 86.375 33.40625 86.375 34.078125 
L 86.375 48.484375 
L 13.578125 48.484375 
L 13.578125 34.078125 
Q 13.578125 33.40625 12.890625 33.40625 
L 9.578125 33.40625 
Q 8.890625 33.40625 8.890625 34.078125 
L 9.078125 43.796875 
L 9.078125 47.171875 
L 8.890625 52.09375 
Q 8.890625 52.78125 9.578125 52.78125 
L 23.484375 52.59375 
z
M 78.5625 81.890625 
Q 80.515625 80.765625 82.71875 78.90625 
Q 83.40625 78.21875 83.40625 77.6875 
Q 83.40625 76.8125 82.171875 76.8125 
Q 80.609375 76.8125 78.609375 76.421875 
Q 64.984375 73.6875 50.09375 72.015625 
Q 31.546875 70.265625 17.484375 69.625 
Q 17.046875 69.578125 16.890625 69.578125 
Q 16.0625 69.578125 15.484375 71.1875 
Q 14.703125 73.09375 13.671875 74.125 
Q 30.953125 74.359375 50 76.3125 
Q 63.8125 77.734375 71.390625 79.59375 
Q 75.78125 80.71875 78.5625 81.890625 
z
M 25.6875 67.09375 
Q 26.21875 67.328125 26.515625 67.328125 
Q 26.8125 67.328125 27.09375 66.890625 
Q 30.328125 62.0625 32.46875 56.59375 
Q 32.5625 56.296875 32.5625 56.15625 
Q 32.5625 55.859375 31.59375 55.421875 
L 29.890625 54.6875 
Q 29.046875 54.390625 28.765625 54.390625 
Q 28.328125 54.390625 28.078125 55.078125 
Q 26.46875 60.453125 23.390625 65.09375 
Q 23.140625 65.4375 23.140625 65.671875 
Q 23.140625 66.0625 23.96875 66.40625 
z
M 47.46875 68.40625 
Q 48.09375 68.609375 48.296875 68.609375 
Q 48.640625 68.609375 48.875 68.109375 
Q 51.8125 62.75 53.421875 56.78125 
Q 53.46875 56.59375 53.46875 56.453125 
Q 53.46875 56.109375 52.296875 55.71875 
L 50.6875 55.171875 
Q 49.859375 54.9375 49.5625 54.9375 
Q 49.171875 54.9375 48.96875 55.609375 
Q 47.65625 61.234375 44.875 66.609375 
Q 44.734375 66.9375 44.734375 67.046875 
Q 44.734375 67.328125 45.90625 67.828125 
z
" id="YuGothic-Regular-21463"/>
     <path d="M 21.4375 60.296875 
L 21.4375 9.90625 
L 21.625 -6 
Q 21.625 -6.6875 20.90625 -6.6875 
L 17.328125 -6.6875 
Q 16.75 -6.6875 16.75 -6 
L 16.9375 9.90625 
L 16.9375 36.53125 
Q 16.9375 41.703125 17.140625 51.90625 
Q 12.84375 44.046875 7.125 36.921875 
Q 6.453125 36.03125 6.109375 36.03125 
Q 5.8125 36.03125 5.21875 36.921875 
Q 4.203125 38.375 3.03125 39.109375 
Q 16.015625 54.5 23 76.21875 
Q 24.125 79.828125 24.3125 83.109375 
Q 26.859375 82.5625 29 81.6875 
Q 30.03125 81.25 30.03125 80.71875 
Q 30.03125 80.078125 29.296875 79.390625 
Q 28.609375 78.65625 27.484375 75.6875 
Q 24.859375 67.78125 21.4375 60.296875 
z
M 41.9375 -0.875 
L 41.9375 -5.765625 
Q 41.9375 -6.5 41.21875 -6.5 
L 38.03125 -6.5 
Q 37.359375 -6.5 37.359375 -5.765625 
L 37.546875 6.25 
L 37.546875 13.71875 
L 37.359375 21.828125 
Q 37.359375 22.515625 38.03125 22.515625 
L 50.921875 22.3125 
L 70.796875 22.3125 
L 83.6875 22.515625 
Q 84.328125 22.515625 84.328125 21.828125 
L 84.125 14.703125 
L 84.125 6.546875 
L 84.328125 -5.46875 
Q 84.328125 -6.109375 83.734375 -6.109375 
L 80.421875 -6.109375 
Q 79.734375 -6.109375 79.734375 -5.46875 
L 79.734375 -0.875 
z
M 41.9375 3.03125 
L 79.734375 3.03125 
L 79.734375 18.3125 
L 41.9375 18.3125 
z
M 52.203125 35.59375 
L 69.53125 35.59375 
L 81.59375 35.796875 
Q 82.328125 35.796875 82.328125 35.109375 
L 82.328125 32.171875 
Q 82.328125 31.5 81.59375 31.5 
L 69.53125 31.6875 
L 52.203125 31.6875 
L 39.984375 31.5 
Q 39.3125 31.5 39.3125 32.171875 
L 39.3125 35.109375 
Q 39.3125 35.796875 39.984375 35.796875 
z
M 52.203125 49.125 
L 69.53125 49.125 
L 81.59375 49.3125 
Q 82.328125 49.3125 82.328125 48.640625 
L 82.328125 45.703125 
Q 82.328125 45.015625 81.59375 45.015625 
L 69.53125 45.21875 
L 52.203125 45.21875 
L 39.984375 45.015625 
Q 39.3125 45.015625 39.3125 45.703125 
L 39.3125 48.640625 
Q 39.3125 49.3125 39.984375 49.3125 
z
M 52.484375 76.125 
L 70.21875 76.125 
L 82.421875 76.3125 
Q 83.203125 76.3125 83.203125 75.640625 
L 83.203125 72.609375 
Q 83.203125 72.015625 82.421875 72.015625 
L 70.21875 72.21875 
L 52.484375 72.21875 
L 40.328125 72.015625 
Q 39.59375 72.015625 39.59375 72.609375 
L 39.59375 75.640625 
Q 39.59375 76.3125 40.328125 76.3125 
z
M 44.4375 58.59375 
L 30.328125 58.40625 
Q 29.59375 58.40625 29.59375 59.078125 
L 29.59375 62.203125 
Q 29.59375 62.890625 30.328125 62.890625 
L 44.4375 62.703125 
L 79.5 62.703125 
L 93.609375 62.890625 
Q 94.34375 62.890625 94.34375 62.203125 
L 94.34375 59.078125 
Q 94.34375 58.40625 93.609375 58.40625 
L 79.5 58.59375 
z
" id="YuGothic-Regular-20449"/>
     <path d="M 48.828125 18.703125 
Q 48.296875 25.4375 48.140625 36.28125 
Q 42.625 36.03125 37.84375 36.03125 
Q 30.8125 36.03125 24.8125 36.625 
Q 23.921875 36.71875 23.828125 37.59375 
Q 23.640625 39.59375 23.640625 41.5 
Q 30.375 40.671875 39.15625 40.671875 
Q 43.609375 40.671875 48.046875 40.921875 
Q 47.90625 45.796875 47.90625 57.078125 
Q 42 56.78125 36.578125 56.78125 
Q 28.375 56.78125 20.796875 57.46875 
Q 20.21875 57.625 20.125 58.296875 
Q 19.828125 61.921875 19.828125 62.40625 
Q 28.375 61.421875 37.796875 61.421875 
Q 42.671875 61.421875 47.90625 61.71875 
Q 47.90625 68.609375 47.796875 72.40625 
Q 47.703125 76.703125 46.828125 78.8125 
Q 51.46875 78.265625 53.515625 77.59375 
Q 54.59375 77.203125 54.59375 76.3125 
Q 54.59375 75.921875 54.34375 75.59375 
Q 53.265625 74.078125 53.125 71.09375 
Q 52.828125 65.71875 52.828125 61.921875 
Q 65.625 62.59375 77.6875 65.1875 
Q 77.984375 65.234375 78.078125 65.234375 
Q 78.515625 65.234375 78.609375 64.703125 
Q 78.90625 62.890625 78.90625 61.078125 
Q 78.90625 60.5 78.328125 60.40625 
Q 67.578125 58.40625 52.828125 57.421875 
Q 52.828125 46.296875 52.9375 41.21875 
Q 65.625 42.046875 75.640625 44.28125 
Q 75.828125 44.34375 75.921875 44.34375 
Q 76.421875 44.34375 76.515625 43.890625 
Q 76.515625 41.5 76.515625 40.28125 
Q 76.515625 39.546875 75.734375 39.40625 
Q 66.21875 37.453125 53.03125 36.625 
Q 53.03125 27.875 53.8125 17.484375 
Q 67.828125 13.671875 80.71875 4.5 
Q 81.15625 4.046875 81.15625 3.65625 
Q 81.15625 3.421875 81 3.078125 
Q 80.328125 1.609375 79.203125 0 
Q 78.859375 -0.4375 78.515625 -0.4375 
Q 78.328125 -0.4375 78.03125 -0.296875 
Q 65.96875 8.9375 54 12.59375 
Q 54.046875 12.015625 54.046875 11.765625 
Q 54.046875 3.46875 49.21875 0.046875 
Q 45.171875 -2.875 36.8125 -2.875 
Q 27.9375 -2.875 23.53125 0.484375 
Q 19.921875 3.265625 19.921875 8.015625 
Q 19.921875 13.421875 25.203125 16.65625 
Q 30.03125 19.578125 37.9375 19.578125 
Q 43.890625 19.578125 48.828125 18.703125 
z
M 48.828125 13.921875 
Q 42.390625 15.28125 37.703125 15.28125 
Q 30.90625 15.28125 27.34375 13.03125 
Q 24.421875 11.1875 24.421875 8.296875 
Q 24.421875 1.609375 36.140625 1.609375 
Q 43.953125 1.609375 46.78125 4.6875 
Q 48.921875 7.03125 48.921875 11.96875 
Q 48.921875 12.984375 48.828125 13.921875 
z
" id="YuGothic-Regular-12414"/>
     <path d="M 71.578125 46.09375 
L 74.609375 48.1875 
Q 74.8125 48.34375 75 48.34375 
Q 75.140625 48.34375 75.390625 48.1875 
Q 81.15625 44.28125 86.671875 36.078125 
Q 86.859375 35.84375 86.859375 35.6875 
Q 86.859375 35.5 86.625 35.203125 
L 84.234375 33.203125 
Q 83.984375 32.953125 83.734375 32.953125 
Q 83.453125 32.953125 83.109375 33.40625 
Q 78.078125 41.40625 71.578125 46.09375 
z
M 80.03125 52.296875 
L 82.625 54.296875 
Q 82.90625 54.546875 83.15625 54.546875 
Q 83.296875 54.546875 83.5 54.390625 
Q 90.28125 49.46875 94.78125 42.921875 
Q 94.96875 42.625 94.96875 42.390625 
Q 94.96875 42.09375 94.625 41.796875 
L 92.28125 39.796875 
Q 92.09375 39.65625 91.890625 39.65625 
Q 91.609375 39.65625 91.3125 40.046875 
Q 86.53125 47.46875 80.03125 52.296875 
z
M 10.203125 59.8125 
Q 10.75 59.765625 11.1875 59.765625 
Q 15.578125 59.765625 22.40625 60.796875 
Q 53.8125 65.71875 83.984375 69.390625 
Q 84.125 69.4375 84.375 69.4375 
Q 85.25 69.4375 85.5 68.703125 
Q 85.984375 67.046875 85.984375 64.890625 
Q 85.984375 64.015625 84.859375 63.921875 
Q 75.6875 63.421875 69.390625 60.59375 
Q 57.5625 55.375 50.484375 46.390625 
Q 43.796875 37.84375 43.796875 28.375 
Q 43.796875 15.765625 54.890625 9.96875 
Q 61.625 6.453125 73.484375 5.171875 
Q 74.90625 5.078125 74.90625 4.390625 
Q 74.90625 2.78125 74.515625 0.78125 
Q 74.265625 -0.4375 73.390625 -0.4375 
Q 73.1875 -0.4375 73 -0.4375 
Q 57.171875 1.03125 48.34375 7.671875 
Q 38.625 14.9375 38.625 27.78125 
Q 38.625 39.15625 46.390625 48.53125 
Q 53.125 56.734375 64.984375 62.5 
L 64.890625 62.796875 
Q 38.421875 58.84375 21.390625 55.171875 
Q 17.234375 54.34375 15.828125 53.5625 
Q 14.59375 52.875 14.015625 52.875 
Q 13.09375 52.875 12.703125 53.65625 
Q 11.1875 56.5 10.203125 59.8125 
z
" id="YuGothic-Regular-12391"/>
     <path d="M 53.125 63.921875 
Q 51.65625 50.4375 47.75 37.890625 
Q 44.34375 26.859375 39.984375 19.921875 
Q 33.734375 9.90625 25.734375 9.90625 
Q 19.96875 9.90625 15.921875 16.3125 
Q 12.109375 22.40625 12.109375 31.59375 
Q 12.109375 39.015625 15.578125 46.34375 
Q 18.65625 52.984375 23.828125 57.625 
Q 35.453125 68.109375 52.78125 68.109375 
Q 70.21875 68.109375 79.6875 58.296875 
Q 87.796875 49.953125 87.796875 36.71875 
Q 87.796875 23.53125 79.296875 14.546875 
Q 71.234375 5.953125 56.296875 2.390625 
Q 55.953125 2.34375 55.765625 2.34375 
Q 54.828125 2.34375 54.296875 3.421875 
Q 53.375 5.078125 51.609375 6.109375 
Q 67.921875 9.46875 75.6875 18.609375 
Q 82.28125 26.375 82.28125 37.703125 
Q 82.28125 50.203125 73.296875 57.71875 
Q 65.875 63.921875 55.421875 63.921875 
Q 53.71875 63.921875 53.125 63.921875 
z
M 47.796875 63.625 
Q 35.546875 62.40625 27.203125 54.390625 
Q 21.734375 49.171875 19.09375 42.140625 
Q 17.09375 36.765625 17.09375 31.546875 
Q 17.09375 23.09375 20.515625 18.5 
Q 23 15.234375 26.078125 15.234375 
Q 31.25 15.234375 35.890625 23.140625 
Q 40.375 30.8125 43.796875 42.671875 
Q 46.875 53.46875 47.796875 63.625 
z
" id="YuGothic-Regular-12398"/>
     <path d="M 75.78125 29.109375 
L 52.203125 29.109375 
L 38.484375 28.90625 
Q 37.796875 28.90625 37.796875 29.59375 
L 37.796875 32.71875 
Q 37.796875 33.296875 38.484375 33.296875 
L 52.203125 33.203125 
L 75.78125 33.203125 
L 75.78125 33.890625 
Q 75.78125 41.359375 75.09375 44.578125 
Q 78.21875 44.4375 80.171875 44 
Q 81.390625 43.84375 81.390625 43.3125 
Q 81.390625 42.828125 80.765625 41.609375 
Q 80.28125 40.328125 80.28125 34.078125 
L 80.28125 33.203125 
L 92.875 33.296875 
Q 93.5625 33.296875 93.5625 32.71875 
L 93.5625 29.59375 
Q 93.5625 28.90625 92.875 28.90625 
L 80.28125 29.109375 
L 80.28125 14.203125 
L 80.375 1.3125 
Q 80.375 -3.078125 77.78125 -4.890625 
Q 75.59375 -6.390625 68.359375 -6.390625 
Q 67.875 -6.390625 66.703125 -6.390625 
Q 65.4375 -6.390625 65.1875 -6.15625 
Q 64.9375 -5.90625 64.59375 -4.78125 
Q 63.96875 -2.6875 62.890625 -1.3125 
Q 66.109375 -1.703125 69.875 -1.703125 
Q 70.90625 -1.703125 72.171875 -1.65625 
Q 75.78125 -1.65625 75.78125 2.203125 
z
M 15.1875 11.53125 
L 15.1875 3.03125 
Q 15.1875 2.4375 14.5 2.4375 
L 11.28125 2.4375 
Q 10.59375 2.4375 10.59375 3.03125 
L 10.796875 33.796875 
L 10.796875 52.875 
L 10.59375 76.125 
Q 10.59375 76.8125 11.28125 76.8125 
L 19.09375 76.609375 
L 25.484375 76.609375 
L 33.296875 76.8125 
Q 33.984375 76.8125 33.984375 76.125 
L 33.796875 55.90625 
L 33.796875 35.6875 
L 33.984375 6.34375 
Q 33.984375 5.609375 33.296875 5.609375 
L 30.171875 5.609375 
Q 29.5 5.609375 29.5 6.34375 
L 29.5 11.53125 
z
M 15.1875 46.78125 
L 29.5 46.78125 
L 29.5 72.515625 
L 15.1875 72.515625 
z
M 15.1875 42.78125 
L 15.1875 15.53125 
L 29.5 15.53125 
L 29.5 42.78125 
z
M 61.71875 50.59375 
L 61.71875 64.984375 
L 55.03125 64.984375 
L 42.140625 64.796875 
Q 41.3125 64.796875 41.3125 65.484375 
L 41.3125 68.5 
Q 41.3125 69.1875 42.140625 69.1875 
L 55.03125 69 
L 61.71875 69 
L 61.71875 69.484375 
Q 61.71875 78.421875 61.03125 82.375 
Q 62.890625 82.328125 66.21875 81.890625 
Q 67.1875 81.734375 67.1875 81.109375 
Q 67.1875 80.8125 66.796875 79.390625 
Q 66.21875 77.734375 66.21875 69.671875 
L 66.21875 69 
L 76.03125 69 
L 88.921875 69.1875 
Q 89.59375 69.1875 89.59375 68.5 
L 89.59375 65.484375 
Q 89.59375 64.796875 88.921875 64.796875 
L 76.03125 64.984375 
L 66.21875 64.984375 
L 66.21875 50.59375 
L 80.21875 50.59375 
L 94.09375 50.78125 
Q 94.828125 50.78125 94.828125 50.09375 
L 94.828125 47.078125 
Q 94.828125 46.390625 94.09375 46.390625 
L 80.21875 46.578125 
L 51.703125 46.578125 
L 37.9375 46.390625 
Q 37.203125 46.390625 37.203125 47.078125 
L 37.203125 50.09375 
Q 37.203125 50.78125 37.9375 50.78125 
L 51.703125 50.59375 
z
M 50.390625 22.40625 
Q 56.390625 17.140625 60.59375 10.109375 
Q 60.75 9.859375 60.75 9.625 
Q 60.75 9.28125 60.109375 8.796875 
L 58.40625 7.625 
Q 57.46875 6.984375 57.28125 6.984375 
Q 57.03125 6.984375 56.78125 7.421875 
Q 52.78125 14.453125 47.015625 19.921875 
Q 46.6875 20.171875 46.6875 20.359375 
Q 46.6875 20.65625 47.609375 21.296875 
L 48.96875 22.3125 
Q 49.609375 22.703125 49.859375 22.703125 
Q 50.046875 22.703125 50.390625 22.40625 
z
" id="YuGothic-Regular-26178"/>
     <path d="M 37.3125 8.203125 
L 37.3125 2.484375 
Q 37.3125 1.8125 36.625 1.8125 
L 33.59375 1.8125 
Q 32.90625 1.8125 32.90625 2.484375 
L 33.109375 20.015625 
L 33.109375 28.328125 
L 32.90625 39.59375 
Q 32.90625 40.28125 33.59375 40.28125 
L 43.890625 40.09375 
L 54.890625 40.09375 
L 65.1875 40.28125 
Q 65.765625 40.28125 65.765625 39.59375 
L 65.578125 29.6875 
L 65.578125 20.703125 
L 65.765625 3.609375 
Q 65.765625 2.875 65.1875 2.875 
L 62.0625 2.875 
Q 61.375 2.875 61.375 3.609375 
L 61.375 8.203125 
z
M 37.3125 26.3125 
L 61.375 26.3125 
L 61.375 36.28125 
L 37.3125 36.28125 
z
M 37.3125 22.515625 
L 37.3125 11.921875 
L 61.375 11.921875 
L 61.375 22.515625 
z
M 84.625 49.078125 
L 65.828125 49.078125 
L 55.078125 48.875 
Q 54.390625 48.875 54.390625 49.5625 
L 54.5 58.203125 
L 54.5 69.4375 
L 54.390625 78.03125 
Q 54.390625 78.71875 55.078125 78.71875 
L 65.828125 78.515625 
L 77.9375 78.515625 
L 88.625 78.71875 
Q 89.3125 78.71875 89.3125 78.03125 
L 89.109375 63.71875 
L 89.109375 17.1875 
L 89.40625 4.109375 
Q 89.40625 0.78125 88.765625 -0.78125 
Q 88.234375 -2 86.921875 -3.03125 
Q 84.71875 -4.734375 77.15625 -4.734375 
Q 76.515625 -4.734375 75 -4.734375 
Q 73.828125 -4.734375 73.578125 -4.5 
Q 73.390625 -4.296875 73.09375 -3.21875 
Q 72.5625 -1.3125 71.484375 0.203125 
Q 74.859375 -0.25 78.90625 -0.25 
Q 82.71875 -0.25 83.734375 0.875 
Q 84.625 1.859375 84.625 4.984375 
z
M 84.625 52.78125 
L 84.625 62.203125 
L 58.890625 62.203125 
L 58.890625 52.78125 
z
M 84.625 65.921875 
L 84.625 74.703125 
L 58.890625 74.703125 
L 58.890625 65.921875 
z
M 22.3125 78.515625 
L 33.40625 78.515625 
L 43.40625 78.71875 
Q 44.09375 78.71875 44.09375 78.03125 
L 43.890625 69 
L 43.890625 58.6875 
L 44.09375 49.5625 
Q 44.09375 48.875 43.40625 48.875 
L 33.40625 49.078125 
L 15.1875 49.078125 
L 15.1875 14.890625 
L 15.375 -5.421875 
Q 15.375 -6.109375 14.703125 -6.109375 
L 11.1875 -6.109375 
Q 10.5 -6.109375 10.5 -5.421875 
L 10.6875 14.890625 
L 10.6875 57.46875 
L 10.5 78.03125 
Q 10.5 78.71875 11.1875 78.71875 
z
M 15.1875 62.203125 
L 15.1875 52.78125 
L 39.5 52.78125 
L 39.5 62.203125 
z
M 15.1875 65.921875 
L 39.5 65.921875 
L 39.5 74.703125 
L 15.1875 74.703125 
z
" id="YuGothic-Regular-38291"/>
    </defs>
    <g transform="translate(224.316406 19.970625)scale(0.12 -0.12)">
     <use xlink:href="#YuGothic-Regular-23556"/>
     <use x="100" xlink:href="#YuGothic-Regular-25731"/>
     <use x="200" xlink:href="#YuGothic-Regular-12452"/>
     <use x="300" xlink:href="#YuGothic-Regular-12505"/>
     <use x="400" xlink:href="#YuGothic-Regular-12531"/>
     <use x="500" xlink:href="#YuGothic-Regular-12488"/>
     <use x="600" xlink:href="#YuGothic-Regular-21463"/>
     <use x="700" xlink:href="#YuGothic-Regular-20449"/>
     <use x="800" xlink:href="#YuGothic-Regular-12414"/>
     <use x="900" xlink:href="#YuGothic-Regular-12391"/>
     <use x="1000" xlink:href="#YuGothic-Regular-12398"/>
     <use x="1100" xlink:href="#YuGothic-Regular-26178"/>
     <use x="1200" xlink:href="#YuGothic-Regular-38291"/>
    </g>
   </g>
  </g>
 </g>
 <defs>
  <clipPath id="p5ddd8e434a">
   <rect height="220.873125" width="503.501562" x="50.565625" y="25.970625"/>
  </clipPath>
 </defs>
</svg>
