<?xml version="1.0" encoding="utf-8" standalone="no"?>
<!DOCTYPE svg PUBLIC "-//W3C//DTD SVG 1.1//EN"
  "http://www.w3.org/Graphics/SVG/1.1/DTD/svg11.dtd">
<!-- Created with matplotlib (https://matplotlib.org/) -->
<svg height="288pt" version="1.1" viewBox="0 0 576 288" width="576pt" xmlns="http://www.w3.org/2000/svg" xmlns:xlink="http://www.w3.org/1999/xlink">
 <defs>
  <style type="text/css">
*{stroke-linecap:butt;stroke-linejoin:round;}
  </style>
 </defs>
 <g id="figure_1">
  <g id="patch_1">
   <path d="M 0 288 
L 576 288 
L 576 0 
L 0 0 
z
" style="fill:#ffffff;"/>
  </g>
  <g id="axes_1">
   <g id="patch_2">
    <path d="M 44.203125 246.84375 
L 557.248438 246.84375 
L 557.248438 25.970625 
L 44.203125 25.970625 
z
" style="fill:#ffffff;"/>
   </g>
   <g id="patch_3">
    <path clip-path="url(#p23916fe7c3)" d="M 47.409658 246.84375 
L 53.822725 246.84375 
L 53.822725 48.057937 
L 47.409658 48.057937 
z
" style="fill:#1f77b4;"/>
   </g>
   <g id="patch_4">
    <path clip-path="url(#p23916fe7c3)" d="M 60.235791 246.84375 
L 66.648857 246.84375 
L 66.648857 141.929016 
L 60.235791 141.929016 
z
" style="fill:#1f77b4;"/>
   </g>
   <g id="patch_5">
    <path clip-path="url(#p23916fe7c3)" d="M 73.061924 246.84375 
L 79.47499 246.84375 
L 79.47499 197.147297 
L 73.061924 197.147297 
z
" style="fill:#1f77b4;"/>
   </g>
   <g id="patch_6">
    <path clip-path="url(#p23916fe7c3)" d="M 85.888057 246.84375 
L 92.301123 246.84375 
L 92.301123 219.234609 
L 85.888057 219.234609 
z
" style="fill:#1f77b4;"/>
   </g>
   <g id="patch_7">
    <path clip-path="url(#p23916fe7c3)" d="M 98.714189 246.84375 
L 105.127256 246.84375 
L 105.127256 235.800094 
L 98.714189 235.800094 
z
" style="fill:#1f77b4;"/>
   </g>
   <g id="patch_8">
    <path clip-path="url(#p23916fe7c3)" d="M 111.540322 246.84375 
L 117.953389 246.84375 
L 117.953389 246.84375 
L 111.540322 246.84375 
z
" style="fill:#1f77b4;"/>
   </g>
   <g id="patch_9">
    <path clip-path="url(#p23916fe7c3)" d="M 124.366455 246.84375 
L 130.779521 246.84375 
L 130.779521 241.321922 
L 124.366455 241.321922 
z
" style="fill:#1f77b4;"/>
   </g>
   <g id="patch_10">
    <path clip-path="url(#p23916fe7c3)" d="M 137.192588 246.84375 
L 143.605654 246.84375 
L 143.605654 235.800094 
L 137.192588 235.800094 
z
" style="fill:#1f77b4;"/>
   </g>
   <g id="patch_11">
    <path clip-path="url(#p23916fe7c3)" d="M 150.018721 246.84375 
L 156.431787 246.84375 
L 156.431787 235.800094 
L 150.018721 235.800094 
z
" style="fill:#1f77b4;"/>
   </g>
   <g id="patch_12">
    <path clip-path="url(#p23916fe7c3)" d="M 162.844854 246.84375 
L 169.25792 246.84375 
L 169.25792 241.321922 
L 162.844854 241.321922 
z
" style="fill:#1f77b4;"/>
   </g>
   <g id="patch_13">
    <path clip-path="url(#p23916fe7c3)" d="M 175.670986 246.84375 
L 182.084053 246.84375 
L 182.084053 213.712781 
L 175.670986 213.712781 
z
" style="fill:#1f77b4;"/>
   </g>
   <g id="patch_14">
    <path clip-path="url(#p23916fe7c3)" d="M 188.497119 246.84375 
L 194.910186 246.84375 
L 194.910186 191.625469 
L 188.497119 191.625469 
z
" style="fill:#1f77b4;"/>
   </g>
   <g id="patch_15">
    <path clip-path="url(#p23916fe7c3)" d="M 201.323252 246.84375 
L 207.736318 246.84375 
L 207.736318 208.190953 
L 201.323252 208.190953 
z
" style="fill:#1f77b4;"/>
   </g>
   <g id="patch_16">
    <path clip-path="url(#p23916fe7c3)" d="M 214.149385 246.84375 
L 220.562451 246.84375 
L 220.562451 213.712781 
L 214.149385 213.712781 
z
" style="fill:#1f77b4;"/>
   </g>
   <g id="patch_17">
    <path clip-path="url(#p23916fe7c3)" d="M 226.975518 246.84375 
L 233.388584 246.84375 
L 233.388584 191.625469 
L 226.975518 191.625469 
z
" style="fill:#1f77b4;"/>
   </g>
   <g id="patch_18">
    <path clip-path="url(#p23916fe7c3)" d="M 239.80165 246.84375 
L 246.214717 246.84375 
L 246.214717 202.669125 
L 239.80165 202.669125 
z
" style="fill:#1f77b4;"/>
   </g>
   <g id="patch_19">
    <path clip-path="url(#p23916fe7c3)" d="M 252.627783 246.84375 
L 259.04085 246.84375 
L 259.04085 219.234609 
L 252.627783 219.234609 
z
" style="fill:#1f77b4;"/>
   </g>
   <g id="patch_20">
    <path clip-path="url(#p23916fe7c3)" d="M 265.453916 246.84375 
L 271.866982 246.84375 
L 271.866982 208.190953 
L 265.453916 208.190953 
z
" style="fill:#1f77b4;"/>
   </g>
   <g id="patch_21">
    <path clip-path="url(#p23916fe7c3)" d="M 278.280049 246.84375 
L 284.693115 246.84375 
L 284.693115 219.234609 
L 278.280049 219.234609 
z
" style="fill:#1f77b4;"/>
   </g>
   <g id="patch_22">
    <path clip-path="url(#p23916fe7c3)" d="M 291.106182 246.84375 
L 297.519248 246.84375 
L 297.519248 235.800094 
L 291.106182 235.800094 
z
" style="fill:#1f77b4;"/>
   </g>
   <g id="patch_23">
    <path clip-path="url(#p23916fe7c3)" d="M 303.932314 246.84375 
L 310.345381 246.84375 
L 310.345381 235.800094 
L 303.932314 235.800094 
z
" style="fill:#1f77b4;"/>
   </g>
   <g id="patch_24">
    <path clip-path="url(#p23916fe7c3)" d="M 316.758447 246.84375 
L 323.171514 246.84375 
L 323.171514 224.756438 
L 316.758447 224.756438 
z
" style="fill:#1f77b4;"/>
   </g>
   <g id="patch_25">
    <path clip-path="url(#p23916fe7c3)" d="M 329.58458 246.84375 
L 335.997646 246.84375 
L 335.997646 246.84375 
L 329.58458 246.84375 
z
" style="fill:#1f77b4;"/>
   </g>
   <g id="patch_26">
    <path clip-path="url(#p23916fe7c3)" d="M 342.410713 246.84375 
L 348.823779 246.84375 
L 348.823779 241.321922 
L 342.410713 241.321922 
z
" style="fill:#1f77b4;"/>
   </g>
   <g id="patch_27">
    <path clip-path="url(#p23916fe7c3)" d="M 355.236846 246.84375 
L 361.649912 246.84375 
L 361.649912 230.278266 
L 355.236846 230.278266 
z
" style="fill:#1f77b4;"/>
   </g>
   <g id="patch_28">
    <path clip-path="url(#p23916fe7c3)" d="M 368.062979 246.84375 
L 374.476045 246.84375 
L 374.476045 241.321922 
L 368.062979 241.321922 
z
" style="fill:#1f77b4;"/>
   </g>
   <g id="patch_29">
    <path clip-path="url(#p23916fe7c3)" d="M 380.889111 246.84375 
L 387.302178 246.84375 
L 387.302178 230.278266 
L 380.889111 230.278266 
z
" style="fill:#1f77b4;"/>
   </g>
   <g id="patch_30">
    <path clip-path="url(#p23916fe7c3)" d="M 393.715244 246.84375 
L 400.128311 246.84375 
L 400.128311 230.278266 
L 393.715244 230.278266 
z
" style="fill:#1f77b4;"/>
   </g>
   <g id="patch_31">
    <path clip-path="url(#p23916fe7c3)" d="M 406.541377 246.84375 
L 412.954443 246.84375 
L 412.954443 246.84375 
L 406.541377 246.84375 
z
" style="fill:#1f77b4;"/>
   </g>
   <g id="patch_32">
    <path clip-path="url(#p23916fe7c3)" d="M 419.36751 246.84375 
L 425.780576 246.84375 
L 425.780576 241.321922 
L 419.36751 241.321922 
z
" style="fill:#1f77b4;"/>
   </g>
   <g id="patch_33">
    <path clip-path="url(#p23916fe7c3)" d="M 432.193643 246.84375 
L 438.606709 246.84375 
L 438.606709 241.321922 
L 432.193643 241.321922 
z
" style="fill:#1f77b4;"/>
   </g>
   <g id="patch_34">
    <path clip-path="url(#p23916fe7c3)" d="M 445.019775 246.84375 
L 451.432842 246.84375 
L 451.432842 241.321922 
L 445.019775 241.321922 
z
" style="fill:#1f77b4;"/>
   </g>
   <g id="patch_35">
    <path clip-path="url(#p23916fe7c3)" d="M 457.845908 246.84375 
L 464.258975 246.84375 
L 464.258975 241.321922 
L 457.845908 241.321922 
z
" style="fill:#1f77b4;"/>
   </g>
   <g id="patch_36">
    <path clip-path="url(#p23916fe7c3)" d="M 470.672041 246.84375 
L 477.085107 246.84375 
L 477.085107 246.84375 
L 470.672041 246.84375 
z
" style="fill:#1f77b4;"/>
   </g>
   <g id="patch_37">
    <path clip-path="url(#p23916fe7c3)" d="M 483.498174 246.84375 
L 489.91124 246.84375 
L 489.91124 246.84375 
L 483.498174 246.84375 
z
" style="fill:#1f77b4;"/>
   </g>
   <g id="patch_38">
    <path clip-path="url(#p23916fe7c3)" d="M 496.324307 246.84375 
L 502.737373 246.84375 
L 502.737373 246.84375 
L 496.324307 246.84375 
z
" style="fill:#1f77b4;"/>
   </g>
   <g id="patch_39">
    <path clip-path="url(#p23916fe7c3)" d="M 509.150439 246.84375 
L 515.563506 246.84375 
L 515.563506 246.84375 
L 509.150439 246.84375 
z
" style="fill:#1f77b4;"/>
   </g>
   <g id="patch_40">
    <path clip-path="url(#p23916fe7c3)" d="M 521.976572 246.84375 
L 528.389639 246.84375 
L 528.389639 246.84375 
L 521.976572 246.84375 
z
" style="fill:#1f77b4;"/>
   </g>
   <g id="patch_41">
    <path clip-path="url(#p23916fe7c3)" d="M 534.802705 246.84375 
L 541.215771 246.84375 
L 541.215771 246.84375 
L 534.802705 246.84375 
z
" style="fill:#1f77b4;"/>
   </g>
   <g id="patch_42">
    <path clip-path="url(#p23916fe7c3)" d="M 547.628838 246.84375 
L 554.041904 246.84375 
L 554.041904 246.84375 
L 547.628838 246.84375 
z
" style="fill:#1f77b4;"/>
   </g>
   <g id="matplotlib.axis_1">
    <g id="xtick_1">
     <g id="line2d_1">
      <defs>
       <path d="M 0 0 
L 0 3.5 
" id="mfd6cdb908a" style="stroke:#000000;stroke-width:0.8;"/>
      </defs>
      <g>
       <use style="stroke:#000000;stroke-width:0.8;" x="44.203125" xlink:href="#mfd6cdb908a" y="246.84375"/>
      </g>
     </g>
     <g id="text_1">
      <!-- 0.0 -->
      <defs>
       <path d="M 31.78125 66.40625 
Q 24.171875 66.40625 20.328125 58.90625 
Q 16.5 51.421875 16.5 36.375 
Q 16.5 21.390625 20.328125 13.890625 
Q 24.171875 6.390625 31.78125 6.390625 
Q 39.453125 6.390625 43.28125 13.890625 
Q 47.125 21.390625 47.125 36.375 
Q 47.125 51.421875 43.28125 58.90625 
Q 39.453125 66.40625 31.78125 66.40625 
z
M 31.78125 74.21875 
Q 44.046875 74.21875 50.515625 64.515625 
Q 56.984375 54.828125 56.984375 36.375 
Q 56.984375 17.96875 50.515625 8.265625 
Q 44.046875 -1.421875 31.78125 -1.421875 
Q 19.53125 -1.421875 13.0625 8.265625 
Q 6.59375 17.96875 6.59375 36.375 
Q 6.59375 54.828125 13.0625 64.515625 
Q 19.53125 74.21875 31.78125 74.21875 
z
" id="DejaVuSans-48"/>
       <path d="M 10.6875 12.40625 
L 21 12.40625 
L 21 0 
L 10.6875 0 
z
" id="DejaVuSans-46"/>
      </defs>
      <g transform="translate(36.251563 261.442187)scale(0.1 -0.1)">
       <use xlink:href="#DejaVuSans-48"/>
       <use x="63.623047" xlink:href="#DejaVuSans-46"/>
       <use x="95.410156" xlink:href="#DejaVuSans-48"/>
      </g>
     </g>
    </g>
    <g id="xtick_2">
     <g id="line2d_2">
      <g>
       <use style="stroke:#000000;stroke-width:0.8;" x="108.333789" xlink:href="#mfd6cdb908a" y="246.84375"/>
      </g>
     </g>
     <g id="text_2">
      <!-- 0.5 -->
      <defs>
       <path d="M 10.796875 72.90625 
L 49.515625 72.90625 
L 49.515625 64.59375 
L 19.828125 64.59375 
L 19.828125 46.734375 
Q 21.96875 47.46875 24.109375 47.828125 
Q 26.265625 48.1875 28.421875 48.1875 
Q 40.625 48.1875 47.75 41.5 
Q 54.890625 34.8125 54.890625 23.390625 
Q 54.890625 11.625 47.5625 5.09375 
Q 40.234375 -1.421875 26.90625 -1.421875 
Q 22.3125 -1.421875 17.546875 -0.640625 
Q 12.796875 0.140625 7.71875 1.703125 
L 7.71875 11.625 
Q 12.109375 9.234375 16.796875 8.0625 
Q 21.484375 6.890625 26.703125 6.890625 
Q 35.15625 6.890625 40.078125 11.328125 
Q 45.015625 15.765625 45.015625 23.390625 
Q 45.015625 31 40.078125 35.4375 
Q 35.15625 39.890625 26.703125 39.890625 
Q 22.75 39.890625 18.8125 39.015625 
Q 14.890625 38.140625 10.796875 36.28125 
z
" id="DejaVuSans-53"/>
      </defs>
      <g transform="translate(100.382227 261.442187)scale(0.1 -0.1)">
       <use xlink:href="#DejaVuSans-48"/>
       <use x="63.623047" xlink:href="#DejaVuSans-46"/>
       <use x="95.410156" xlink:href="#DejaVuSans-53"/>
      </g>
     </g>
    </g>
    <g id="xtick_3">
     <g id="line2d_3">
      <g>
       <use style="stroke:#000000;stroke-width:0.8;" x="172.464453" xlink:href="#mfd6cdb908a" y="246.84375"/>
      </g>
     </g>
     <g id="text_3">
      <!-- 1.0 -->
      <defs>
       <path d="M 12.40625 8.296875 
L 28.515625 8.296875 
L 28.515625 63.921875 
L 10.984375 60.40625 
L 10.984375 69.390625 
L 28.421875 72.90625 
L 38.28125 72.90625 
L 38.28125 8.296875 
L 54.390625 8.296875 
L 54.390625 0 
L 12.40625 0 
z
" id="DejaVuSans-49"/>
      </defs>
      <g transform="translate(164.512891 261.442187)scale(0.1 -0.1)">
       <use xlink:href="#DejaVuSans-49"/>
       <use x="63.623047" xlink:href="#DejaVuSans-46"/>
       <use x="95.410156" xlink:href="#DejaVuSans-48"/>
      </g>
     </g>
    </g>
    <g id="xtick_4">
     <g id="line2d_4">
      <g>
       <use style="stroke:#000000;stroke-width:0.8;" x="236.595117" xlink:href="#mfd6cdb908a" y="246.84375"/>
      </g>
     </g>
     <g id="text_4">
      <!-- 1.5 -->
      <g transform="translate(228.643555 261.442187)scale(0.1 -0.1)">
       <use xlink:href="#DejaVuSans-49"/>
       <use x="63.623047" xlink:href="#DejaVuSans-46"/>
       <use x="95.410156" xlink:href="#DejaVuSans-53"/>
      </g>
     </g>
    </g>
    <g id="xtick_5">
     <g id="line2d_5">
      <g>
       <use style="stroke:#000000;stroke-width:0.8;" x="300.725781" xlink:href="#mfd6cdb908a" y="246.84375"/>
      </g>
     </g>
     <g id="text_5">
      <!-- 2.0 -->
      <defs>
       <path d="M 19.1875 8.296875 
L 53.609375 8.296875 
L 53.609375 0 
L 7.328125 0 
L 7.328125 8.296875 
Q 12.9375 14.109375 22.625 23.890625 
Q 32.328125 33.6875 34.8125 36.53125 
Q 39.546875 41.84375 41.421875 45.53125 
Q 43.3125 49.21875 43.3125 52.78125 
Q 43.3125 58.59375 39.234375 62.25 
Q 35.15625 65.921875 28.609375 65.921875 
Q 23.96875 65.921875 18.8125 64.3125 
Q 13.671875 62.703125 7.8125 59.421875 
L 7.8125 69.390625 
Q 13.765625 71.78125 18.9375 73 
Q 24.125 74.21875 28.421875 74.21875 
Q 39.75 74.21875 46.484375 68.546875 
Q 53.21875 62.890625 53.21875 53.421875 
Q 53.21875 48.921875 51.53125 44.890625 
Q 49.859375 40.875 45.40625 35.40625 
Q 44.1875 33.984375 37.640625 27.21875 
Q 31.109375 20.453125 19.1875 8.296875 
z
" id="DejaVuSans-50"/>
      </defs>
      <g transform="translate(292.774219 261.442187)scale(0.1 -0.1)">
       <use xlink:href="#DejaVuSans-50"/>
       <use x="63.623047" xlink:href="#DejaVuSans-46"/>
       <use x="95.410156" xlink:href="#DejaVuSans-48"/>
      </g>
     </g>
    </g>
    <g id="xtick_6">
     <g id="line2d_6">
      <g>
       <use style="stroke:#000000;stroke-width:0.8;" x="364.856445" xlink:href="#mfd6cdb908a" y="246.84375"/>
      </g>
     </g>
     <g id="text_6">
      <!-- 2.5 -->
      <g transform="translate(356.904883 261.442187)scale(0.1 -0.1)">
       <use xlink:href="#DejaVuSans-50"/>
       <use x="63.623047" xlink:href="#DejaVuSans-46"/>
       <use x="95.410156" xlink:href="#DejaVuSans-53"/>
      </g>
     </g>
    </g>
    <g id="xtick_7">
     <g id="line2d_7">
      <g>
       <use style="stroke:#000000;stroke-width:0.8;" x="428.987109" xlink:href="#mfd6cdb908a" y="246.84375"/>
      </g>
     </g>
     <g id="text_7">
      <!-- 3.0 -->
      <defs>
       <path d="M 40.578125 39.3125 
Q 47.65625 37.796875 51.625 33 
Q 55.609375 28.21875 55.609375 21.1875 
Q 55.609375 10.40625 48.1875 4.484375 
Q 40.765625 -1.421875 27.09375 -1.421875 
Q 22.515625 -1.421875 17.65625 -0.515625 
Q 12.796875 0.390625 7.625 2.203125 
L 7.625 11.71875 
Q 11.71875 9.328125 16.59375 8.109375 
Q 21.484375 6.890625 26.8125 6.890625 
Q 36.078125 6.890625 40.9375 10.546875 
Q 45.796875 14.203125 45.796875 21.1875 
Q 45.796875 27.640625 41.28125 31.265625 
Q 36.765625 34.90625 28.71875 34.90625 
L 20.21875 34.90625 
L 20.21875 43.015625 
L 29.109375 43.015625 
Q 36.375 43.015625 40.234375 45.921875 
Q 44.09375 48.828125 44.09375 54.296875 
Q 44.09375 59.90625 40.109375 62.90625 
Q 36.140625 65.921875 28.71875 65.921875 
Q 24.65625 65.921875 20.015625 65.03125 
Q 15.375 64.15625 9.8125 62.3125 
L 9.8125 71.09375 
Q 15.4375 72.65625 20.34375 73.4375 
Q 25.25 74.21875 29.59375 74.21875 
Q 40.828125 74.21875 47.359375 69.109375 
Q 53.90625 64.015625 53.90625 55.328125 
Q 53.90625 49.265625 50.4375 45.09375 
Q 46.96875 40.921875 40.578125 39.3125 
z
" id="DejaVuSans-51"/>
      </defs>
      <g transform="translate(421.035547 261.442187)scale(0.1 -0.1)">
       <use xlink:href="#DejaVuSans-51"/>
       <use x="63.623047" xlink:href="#DejaVuSans-46"/>
       <use x="95.410156" xlink:href="#DejaVuSans-48"/>
      </g>
     </g>
    </g>
    <g id="xtick_8">
     <g id="line2d_8">
      <g>
       <use style="stroke:#000000;stroke-width:0.8;" x="493.117773" xlink:href="#mfd6cdb908a" y="246.84375"/>
      </g>
     </g>
     <g id="text_8">
      <!-- 3.5 -->
      <g transform="translate(485.166211 261.442187)scale(0.1 -0.1)">
       <use xlink:href="#DejaVuSans-51"/>
       <use x="63.623047" xlink:href="#DejaVuSans-46"/>
       <use x="95.410156" xlink:href="#DejaVuSans-53"/>
      </g>
     </g>
    </g>
    <g id="xtick_9">
     <g id="line2d_9">
      <g>
       <use style="stroke:#000000;stroke-width:0.8;" x="557.248438" xlink:href="#mfd6cdb908a" y="246.84375"/>
      </g>
     </g>
     <g id="text_9">
      <!-- 4.0 -->
      <defs>
       <path d="M 37.796875 64.3125 
L 12.890625 25.390625 
L 37.796875 25.390625 
z
M 35.203125 72.90625 
L 47.609375 72.90625 
L 47.609375 25.390625 
L 58.015625 25.390625 
L 58.015625 17.1875 
L 47.609375 17.1875 
L 47.609375 0 
L 37.796875 0 
L 37.796875 17.1875 
L 4.890625 17.1875 
L 4.890625 26.703125 
z
" id="DejaVuSans-52"/>
      </defs>
      <g transform="translate(549.296875 261.442187)scale(0.1 -0.1)">
       <use xlink:href="#DejaVuSans-52"/>
       <use x="63.623047" xlink:href="#DejaVuSans-46"/>
       <use x="95.410156" xlink:href="#DejaVuSans-48"/>
      </g>
     </g>
    </g>
    <g id="text_10">
     <!-- time (sec) -->
     <defs>
      <path d="M 18.3125 70.21875 
L 18.3125 54.6875 
L 36.8125 54.6875 
L 36.8125 47.703125 
L 18.3125 47.703125 
L 18.3125 18.015625 
Q 18.3125 11.328125 20.140625 9.421875 
Q 21.96875 7.515625 27.59375 7.515625 
L 36.8125 7.515625 
L 36.8125 0 
L 27.59375 0 
Q 17.1875 0 13.234375 3.875 
Q 9.28125 7.765625 9.28125 18.015625 
L 9.28125 47.703125 
L 2.6875 47.703125 
L 2.6875 54.6875 
L 9.28125 54.6875 
L 9.28125 70.21875 
z
" id="DejaVuSans-116"/>
      <path d="M 9.421875 54.6875 
L 18.40625 54.6875 
L 18.40625 0 
L 9.421875 0 
z
M 9.421875 75.984375 
L 18.40625 75.984375 
L 18.40625 64.59375 
L 9.421875 64.59375 
z
" id="DejaVuSans-105"/>
      <path d="M 52 44.1875 
Q 55.375 50.25 60.0625 53.125 
Q 64.75 56 71.09375 56 
Q 79.640625 56 84.28125 50.015625 
Q 88.921875 44.046875 88.921875 33.015625 
L 88.921875 0 
L 79.890625 0 
L 79.890625 32.71875 
Q 79.890625 40.578125 77.09375 44.375 
Q 74.3125 48.1875 68.609375 48.1875 
Q 61.625 48.1875 57.5625 43.546875 
Q 53.515625 38.921875 53.515625 30.90625 
L 53.515625 0 
L 44.484375 0 
L 44.484375 32.71875 
Q 44.484375 40.625 41.703125 44.40625 
Q 38.921875 48.1875 33.109375 48.1875 
Q 26.21875 48.1875 22.15625 43.53125 
Q 18.109375 38.875 18.109375 30.90625 
L 18.109375 0 
L 9.078125 0 
L 9.078125 54.6875 
L 18.109375 54.6875 
L 18.109375 46.1875 
Q 21.1875 51.21875 25.484375 53.609375 
Q 29.78125 56 35.6875 56 
Q 41.65625 56 45.828125 52.96875 
Q 50 49.953125 52 44.1875 
z
" id="DejaVuSans-109"/>
      <path d="M 56.203125 29.59375 
L 56.203125 25.203125 
L 14.890625 25.203125 
Q 15.484375 15.921875 20.484375 11.0625 
Q 25.484375 6.203125 34.421875 6.203125 
Q 39.59375 6.203125 44.453125 7.46875 
Q 49.3125 8.734375 54.109375 11.28125 
L 54.109375 2.78125 
Q 49.265625 0.734375 44.1875 -0.34375 
Q 39.109375 -1.421875 33.890625 -1.421875 
Q 20.796875 -1.421875 13.15625 6.1875 
Q 5.515625 13.8125 5.515625 26.8125 
Q 5.515625 40.234375 12.765625 48.109375 
Q 20.015625 56 32.328125 56 
Q 43.359375 56 49.78125 48.890625 
Q 56.203125 41.796875 56.203125 29.59375 
z
M 47.21875 32.234375 
Q 47.125 39.59375 43.09375 43.984375 
Q 39.0625 48.390625 32.421875 48.390625 
Q 24.90625 48.390625 20.390625 44.140625 
Q 15.875 39.890625 15.1875 32.171875 
z
" id="DejaVuSans-101"/>
      <path id="DejaVuSans-32"/>
      <path d="M 31 75.875 
Q 24.46875 64.65625 21.28125 53.65625 
Q 18.109375 42.671875 18.109375 31.390625 
Q 18.109375 20.125 21.3125 9.0625 
Q 24.515625 -2 31 -13.1875 
L 23.1875 -13.1875 
Q 15.875 -1.703125 12.234375 9.375 
Q 8.59375 20.453125 8.59375 31.390625 
Q 8.59375 42.28125 12.203125 53.3125 
Q 15.828125 64.359375 23.1875 75.875 
z
" id="DejaVuSans-40"/>
      <path d="M 44.28125 53.078125 
L 44.28125 44.578125 
Q 40.484375 46.53125 36.375 47.5 
Q 32.28125 48.484375 27.875 48.484375 
Q 21.1875 48.484375 17.84375 46.4375 
Q 14.5 44.390625 14.5 40.28125 
Q 14.5 37.15625 16.890625 35.375 
Q 19.28125 33.59375 26.515625 31.984375 
L 29.59375 31.296875 
Q 39.15625 29.25 43.1875 25.515625 
Q 47.21875 21.78125 47.21875 15.09375 
Q 47.21875 7.46875 41.1875 3.015625 
Q 35.15625 -1.421875 24.609375 -1.421875 
Q 20.21875 -1.421875 15.453125 -0.5625 
Q 10.6875 0.296875 5.421875 2 
L 5.421875 11.28125 
Q 10.40625 8.6875 15.234375 7.390625 
Q 20.0625 6.109375 24.8125 6.109375 
Q 31.15625 6.109375 34.5625 8.28125 
Q 37.984375 10.453125 37.984375 14.40625 
Q 37.984375 18.0625 35.515625 20.015625 
Q 33.0625 21.96875 24.703125 23.78125 
L 21.578125 24.515625 
Q 13.234375 26.265625 9.515625 29.90625 
Q 5.8125 33.546875 5.8125 39.890625 
Q 5.8125 47.609375 11.28125 51.796875 
Q 16.75 56 26.8125 56 
Q 31.78125 56 36.171875 55.265625 
Q 40.578125 54.546875 44.28125 53.078125 
z
" id="DejaVuSans-115"/>
      <path d="M 48.78125 52.59375 
L 48.78125 44.1875 
Q 44.96875 46.296875 41.140625 47.34375 
Q 37.3125 48.390625 33.40625 48.390625 
Q 24.65625 48.390625 19.8125 42.84375 
Q 14.984375 37.3125 14.984375 27.296875 
Q 14.984375 17.28125 19.8125 11.734375 
Q 24.65625 6.203125 33.40625 6.203125 
Q 37.3125 6.203125 41.140625 7.25 
Q 44.96875 8.296875 48.78125 10.40625 
L 48.78125 2.09375 
Q 45.015625 0.34375 40.984375 -0.53125 
Q 36.96875 -1.421875 32.421875 -1.421875 
Q 20.0625 -1.421875 12.78125 6.34375 
Q 5.515625 14.109375 5.515625 27.296875 
Q 5.515625 40.671875 12.859375 48.328125 
Q 20.21875 56 33.015625 56 
Q 37.15625 56 41.109375 55.140625 
Q 45.0625 54.296875 48.78125 52.59375 
z
" id="DejaVuSans-99"/>
      <path d="M 8.015625 75.875 
L 15.828125 75.875 
Q 23.140625 64.359375 26.78125 53.3125 
Q 30.421875 42.28125 30.421875 31.390625 
Q 30.421875 20.453125 26.78125 9.375 
Q 23.140625 -1.703125 15.828125 -13.1875 
L 8.015625 -13.1875 
Q 14.5 -2 17.703125 9.0625 
Q 20.90625 20.125 20.90625 31.390625 
Q 20.90625 42.671875 17.703125 53.65625 
Q 14.5 64.65625 8.015625 75.875 
z
" id="DejaVuSans-41"/>
     </defs>
     <g transform="translate(275.508594 275.120313)scale(0.1 -0.1)">
      <use xlink:href="#DejaVuSans-116"/>
      <use x="39.208984" xlink:href="#DejaVuSans-105"/>
      <use x="66.992188" xlink:href="#DejaVuSans-109"/>
      <use x="164.404297" xlink:href="#DejaVuSans-101"/>
      <use x="225.927734" xlink:href="#DejaVuSans-32"/>
      <use x="257.714844" xlink:href="#DejaVuSans-40"/>
      <use x="296.728516" xlink:href="#DejaVuSans-115"/>
      <use x="348.828125" xlink:href="#DejaVuSans-101"/>
      <use x="410.351562" xlink:href="#DejaVuSans-99"/>
      <use x="465.332031" xlink:href="#DejaVuSans-41"/>
     </g>
    </g>
   </g>
   <g id="matplotlib.axis_2">
    <g id="ytick_1">
     <g id="line2d_10">
      <defs>
       <path d="M 0 0 
L -3.5 0 
" id="mb3c65f6e01" style="stroke:#000000;stroke-width:0.8;"/>
      </defs>
      <g>
       <use style="stroke:#000000;stroke-width:0.8;" x="44.203125" xlink:href="#mb3c65f6e01" y="246.84375"/>
      </g>
     </g>
     <g id="text_11">
      <!-- 0 -->
      <g transform="translate(30.840625 250.642969)scale(0.1 -0.1)">
       <use xlink:href="#DejaVuSans-48"/>
      </g>
     </g>
    </g>
    <g id="ytick_2">
     <g id="line2d_11">
      <g>
       <use style="stroke:#000000;stroke-width:0.8;" x="44.203125" xlink:href="#mb3c65f6e01" y="219.234609"/>
      </g>
     </g>
     <g id="text_12">
      <!-- 5 -->
      <g transform="translate(30.840625 223.033828)scale(0.1 -0.1)">
       <use xlink:href="#DejaVuSans-53"/>
      </g>
     </g>
    </g>
    <g id="ytick_3">
     <g id="line2d_12">
      <g>
       <use style="stroke:#000000;stroke-width:0.8;" x="44.203125" xlink:href="#mb3c65f6e01" y="191.625469"/>
      </g>
     </g>
     <g id="text_13">
      <!-- 10 -->
      <g transform="translate(24.478125 195.424687)scale(0.1 -0.1)">
       <use xlink:href="#DejaVuSans-49"/>
       <use x="63.623047" xlink:href="#DejaVuSans-48"/>
      </g>
     </g>
    </g>
    <g id="ytick_4">
     <g id="line2d_13">
      <g>
       <use style="stroke:#000000;stroke-width:0.8;" x="44.203125" xlink:href="#mb3c65f6e01" y="164.016328"/>
      </g>
     </g>
     <g id="text_14">
      <!-- 15 -->
      <g transform="translate(24.478125 167.815547)scale(0.1 -0.1)">
       <use xlink:href="#DejaVuSans-49"/>
       <use x="63.623047" xlink:href="#DejaVuSans-53"/>
      </g>
     </g>
    </g>
    <g id="ytick_5">
     <g id="line2d_14">
      <g>
       <use style="stroke:#000000;stroke-width:0.8;" x="44.203125" xlink:href="#mb3c65f6e01" y="136.407187"/>
      </g>
     </g>
     <g id="text_15">
      <!-- 20 -->
      <g transform="translate(24.478125 140.206406)scale(0.1 -0.1)">
       <use xlink:href="#DejaVuSans-50"/>
       <use x="63.623047" xlink:href="#DejaVuSans-48"/>
      </g>
     </g>
    </g>
    <g id="ytick_6">
     <g id="line2d_15">
      <g>
       <use style="stroke:#000000;stroke-width:0.8;" x="44.203125" xlink:href="#mb3c65f6e01" y="108.798047"/>
      </g>
     </g>
     <g id="text_16">
      <!-- 25 -->
      <g transform="translate(24.478125 112.597266)scale(0.1 -0.1)">
       <use xlink:href="#DejaVuSans-50"/>
       <use x="63.623047" xlink:href="#DejaVuSans-53"/>
      </g>
     </g>
    </g>
    <g id="ytick_7">
     <g id="line2d_16">
      <g>
       <use style="stroke:#000000;stroke-width:0.8;" x="44.203125" xlink:href="#mb3c65f6e01" y="81.188906"/>
      </g>
     </g>
     <g id="text_17">
      <!-- 30 -->
      <g transform="translate(24.478125 84.988125)scale(0.1 -0.1)">
       <use xlink:href="#DejaVuSans-51"/>
       <use x="63.623047" xlink:href="#DejaVuSans-48"/>
      </g>
     </g>
    </g>
    <g id="ytick_8">
     <g id="line2d_17">
      <g>
       <use style="stroke:#000000;stroke-width:0.8;" x="44.203125" xlink:href="#mb3c65f6e01" y="53.579766"/>
      </g>
     </g>
     <g id="text_18">
      <!-- 35 -->
      <g transform="translate(24.478125 57.378984)scale(0.1 -0.1)">
       <use xlink:href="#DejaVuSans-51"/>
       <use x="63.623047" xlink:href="#DejaVuSans-53"/>
      </g>
     </g>
    </g>
    <g id="ytick_9">
     <g id="line2d_18">
      <g>
       <use style="stroke:#000000;stroke-width:0.8;" x="44.203125" xlink:href="#mb3c65f6e01" y="25.970625"/>
      </g>
     </g>
     <g id="text_19">
      <!-- 40 -->
      <g transform="translate(24.478125 29.769844)scale(0.1 -0.1)">
       <use xlink:href="#DejaVuSans-52"/>
       <use x="63.623047" xlink:href="#DejaVuSans-48"/>
      </g>
     </g>
    </g>
    <g id="text_20">
     <!-- frequency -->
     <defs>
      <path d="M 37.109375 75.984375 
L 37.109375 68.5 
L 28.515625 68.5 
Q 23.6875 68.5 21.796875 66.546875 
Q 19.921875 64.59375 19.921875 59.515625 
L 19.921875 54.6875 
L 34.71875 54.6875 
L 34.71875 47.703125 
L 19.921875 47.703125 
L 19.921875 0 
L 10.890625 0 
L 10.890625 47.703125 
L 2.296875 47.703125 
L 2.296875 54.6875 
L 10.890625 54.6875 
L 10.890625 58.5 
Q 10.890625 67.625 15.140625 71.796875 
Q 19.390625 75.984375 28.609375 75.984375 
z
" id="DejaVuSans-102"/>
      <path d="M 41.109375 46.296875 
Q 39.59375 47.171875 37.8125 47.578125 
Q 36.03125 48 33.890625 48 
Q 26.265625 48 22.1875 43.046875 
Q 18.109375 38.09375 18.109375 28.8125 
L 18.109375 0 
L 9.078125 0 
L 9.078125 54.6875 
L 18.109375 54.6875 
L 18.109375 46.1875 
Q 20.953125 51.171875 25.484375 53.578125 
Q 30.03125 56 36.53125 56 
Q 37.453125 56 38.578125 55.875 
Q 39.703125 55.765625 41.0625 55.515625 
z
" id="DejaVuSans-114"/>
      <path d="M 14.796875 27.296875 
Q 14.796875 17.390625 18.875 11.75 
Q 22.953125 6.109375 30.078125 6.109375 
Q 37.203125 6.109375 41.296875 11.75 
Q 45.40625 17.390625 45.40625 27.296875 
Q 45.40625 37.203125 41.296875 42.84375 
Q 37.203125 48.484375 30.078125 48.484375 
Q 22.953125 48.484375 18.875 42.84375 
Q 14.796875 37.203125 14.796875 27.296875 
z
M 45.40625 8.203125 
Q 42.578125 3.328125 38.25 0.953125 
Q 33.9375 -1.421875 27.875 -1.421875 
Q 17.96875 -1.421875 11.734375 6.484375 
Q 5.515625 14.40625 5.515625 27.296875 
Q 5.515625 40.1875 11.734375 48.09375 
Q 17.96875 56 27.875 56 
Q 33.9375 56 38.25 53.625 
Q 42.578125 51.265625 45.40625 46.390625 
L 45.40625 54.6875 
L 54.390625 54.6875 
L 54.390625 -20.796875 
L 45.40625 -20.796875 
z
" id="DejaVuSans-113"/>
      <path d="M 8.5 21.578125 
L 8.5 54.6875 
L 17.484375 54.6875 
L 17.484375 21.921875 
Q 17.484375 14.15625 20.5 10.265625 
Q 23.53125 6.390625 29.59375 6.390625 
Q 36.859375 6.390625 41.078125 11.03125 
Q 45.3125 15.671875 45.3125 23.6875 
L 45.3125 54.6875 
L 54.296875 54.6875 
L 54.296875 0 
L 45.3125 0 
L 45.3125 8.40625 
Q 42.046875 3.421875 37.71875 1 
Q 33.40625 -1.421875 27.6875 -1.421875 
Q 18.265625 -1.421875 13.375 4.4375 
Q 8.5 10.296875 8.5 21.578125 
z
M 31.109375 56 
z
" id="DejaVuSans-117"/>
      <path d="M 54.890625 33.015625 
L 54.890625 0 
L 45.90625 0 
L 45.90625 32.71875 
Q 45.90625 40.484375 42.875 44.328125 
Q 39.84375 48.1875 33.796875 48.1875 
Q 26.515625 48.1875 22.3125 43.546875 
Q 18.109375 38.921875 18.109375 30.90625 
L 18.109375 0 
L 9.078125 0 
L 9.078125 54.6875 
L 18.109375 54.6875 
L 18.109375 46.1875 
Q 21.34375 51.125 25.703125 53.5625 
Q 30.078125 56 35.796875 56 
Q 45.21875 56 50.046875 50.171875 
Q 54.890625 44.34375 54.890625 33.015625 
z
" id="DejaVuSans-110"/>
      <path d="M 32.171875 -5.078125 
Q 28.375 -14.84375 24.75 -17.8125 
Q 21.140625 -20.796875 15.09375 -20.796875 
L 7.90625 -20.796875 
L 7.90625 -13.28125 
L 13.1875 -13.28125 
Q 16.890625 -13.28125 18.9375 -11.515625 
Q 21 -9.765625 23.484375 -3.21875 
L 25.09375 0.875 
L 2.984375 54.6875 
L 12.5 54.6875 
L 29.59375 11.921875 
L 46.6875 54.6875 
L 56.203125 54.6875 
z
" id="DejaVuSans-121"/>
     </defs>
     <g transform="translate(18.398438 161.48375)rotate(-90)scale(0.1 -0.1)">
      <use xlink:href="#DejaVuSans-102"/>
      <use x="35.205078" xlink:href="#DejaVuSans-114"/>
      <use x="74.068359" xlink:href="#DejaVuSans-101"/>
      <use x="135.591797" xlink:href="#DejaVuSans-113"/>
      <use x="199.068359" xlink:href="#DejaVuSans-117"/>
      <use x="262.447266" xlink:href="#DejaVuSans-101"/>
      <use x="323.970703" xlink:href="#DejaVuSans-110"/>
      <use x="387.349609" xlink:href="#DejaVuSans-99"/>
      <use x="442.330078" xlink:href="#DejaVuSans-121"/>
     </g>
    </g>
   </g>
   <g id="patch_43">
    <path d="M 44.203125 246.84375 
L 44.203125 25.970625 
" style="fill:none;stroke:#000000;stroke-linecap:square;stroke-linejoin:miter;stroke-width:0.8;"/>
   </g>
   <g id="patch_44">
    <path d="M 557.248438 246.84375 
L 557.248438 25.970625 
" style="fill:none;stroke:#000000;stroke-linecap:square;stroke-linejoin:miter;stroke-width:0.8;"/>
   </g>
   <g id="patch_45">
    <path d="M 44.203125 246.84375 
L 557.248438 246.84375 
" style="fill:none;stroke:#000000;stroke-linecap:square;stroke-linejoin:miter;stroke-width:0.8;"/>
   </g>
   <g id="patch_46">
    <path d="M 44.203125 25.970625 
L 557.248438 25.970625 
" style="fill:none;stroke:#000000;stroke-linecap:square;stroke-linejoin:miter;stroke-width:0.8;"/>
   </g>
   <g id="text_21">
    <!-- 射撃イベント受信から射撃結果イベント受信までの時間 -->
    <defs>
     <path d="M 14.84375 27.390625 
L 14.84375 58.984375 
L 14.65625 71 
Q 14.65625 71.6875 15.328125 71.6875 
L 24.90625 71.484375 
Q 26.078125 74.125 27.09375 77.296875 
Q 28.078125 80.328125 28.328125 83.0625 
Q 31.5 82.515625 33.109375 81.984375 
Q 34.125 81.640625 34.125 80.953125 
Q 34.125 80.46875 33.296875 79.6875 
Q 32.515625 78.90625 32.125 77.78125 
Q 30.375 73.578125 29.296875 71.484375 
L 34.71875 71.484375 
L 44.390625 71.6875 
Q 45.125 71.6875 45.125 71 
L 44.921875 57.625 
L 44.921875 35.0625 
Q 46.53125 37.40625 47.703125 39.15625 
Q 48.53125 40.53125 49.03125 42.390625 
Q 50.6875 41.609375 52.484375 40.375 
Q 53.21875 39.84375 53.21875 39.40625 
Q 53.21875 38.671875 52.203125 38.1875 
Q 51.265625 37.59375 50.203125 36.078125 
Q 46.390625 31 44.921875 29.203125 
L 44.921875 15.375 
L 45.125 2.203125 
Q 45.125 -1.46875 43.40625 -3.328125 
Q 42.09375 -4.78125 39.359375 -5.28125 
Q 37.203125 -5.671875 32.328125 -5.71875 
Q 31.0625 -5.71875 30.8125 -5.46875 
Q 30.609375 -5.28125 30.328125 -4.109375 
Q 29.78125 -2.34375 28.609375 -0.6875 
Q 32.421875 -1.125 36.078125 -1.125 
Q 40.71875 -1.125 40.71875 3.21875 
L 40.71875 24.265625 
Q 28.078125 10.25 7.8125 -0.296875 
Q 6.890625 -0.828125 6.59375 -0.828125 
Q 6.25 -0.828125 5.515625 0.296875 
Q 4.59375 1.703125 3.328125 2.484375 
Q 25.78125 12.984375 39.796875 28.859375 
Q 30.71875 26.421875 13.140625 22.796875 
Q 9.578125 22.078125 8.9375 21.578125 
Q 8.25 21.09375 7.71875 21.09375 
Q 7.28125 21.09375 6.84375 22.21875 
Q 6.15625 24.03125 5.609375 26.375 
Q 7.953125 26.46875 14.015625 27.296875 
z
M 19.046875 28.078125 
Q 30.90625 30.03125 40.71875 32.46875 
L 40.71875 40.578125 
L 19.046875 40.578125 
z
M 19.046875 57.90625 
L 40.71875 57.90625 
L 40.71875 67.671875 
L 19.046875 67.671875 
z
M 40.71875 54.296875 
L 19.046875 54.296875 
L 19.046875 44.1875 
L 40.71875 44.1875 
z
M 79.15625 54.890625 
L 63.8125 54.890625 
L 51.3125 54.6875 
Q 50.640625 54.6875 50.640625 55.375 
L 50.640625 58.59375 
Q 50.640625 59.28125 51.3125 59.28125 
L 63.8125 59.078125 
L 79.15625 59.078125 
L 79.15625 69.875 
Q 79.15625 77.984375 78.421875 81.390625 
Q 81.109375 81.25 83.734375 80.765625 
Q 84.859375 80.609375 84.859375 80.078125 
Q 84.859375 79.59375 84.234375 78.171875 
Q 83.6875 76.8125 83.6875 69.96875 
L 83.6875 59.078125 
L 95.40625 59.28125 
Q 96.1875 59.28125 96.1875 58.59375 
L 96.1875 55.375 
Q 96.1875 54.6875 95.40625 54.6875 
L 83.6875 54.890625 
L 83.6875 16.796875 
L 83.84375 3.375 
Q 83.84375 -0.09375 83.15625 -1.65625 
Q 82.625 -2.984375 81.203125 -3.90625 
Q 78.765625 -5.671875 71.046875 -5.671875 
Q 69.390625 -5.671875 67.625 -5.609375 
Q 66.359375 -5.609375 66.0625 -5.375 
Q 65.828125 -5.171875 65.53125 -4.109375 
Q 64.984375 -2.203125 63.8125 -0.59375 
Q 67.09375 -1.078125 70.125 -1.078125 
Q 70.953125 -1.078125 72.21875 -1.03125 
Q 76.765625 -1.03125 78.03125 0.09375 
Q 79.15625 1.078125 79.15625 4.203125 
z
M 60.6875 43.21875 
Q 67.28125 34.515625 71.296875 24.421875 
Q 71.34375 24.171875 71.34375 24.03125 
Q 71.34375 23.640625 70.40625 23.09375 
L 68.890625 22.3125 
Q 67.828125 21.6875 67.578125 21.6875 
Q 67.328125 21.6875 67.09375 22.265625 
Q 63.375 32.421875 57.078125 40.921875 
Q 56.84375 41.21875 56.84375 41.40625 
Q 56.84375 41.65625 57.90625 42.28125 
L 59.28125 43.109375 
Q 60.015625 43.5 60.203125 43.5 
Q 60.40625 43.5 60.6875 43.21875 
z
" id="YuGothic-Regular-23556"/>
     <path d="M 27.203125 46.09375 
L 23.390625 46.09375 
L 12.703125 45.90625 
Q 12.015625 45.90625 12.015625 46.578125 
L 12.203125 53.421875 
L 12.203125 59.234375 
L 12.015625 66.109375 
Q 12.015625 66.796875 12.703125 66.796875 
L 23.390625 66.609375 
L 27.203125 66.609375 
L 27.203125 72.015625 
L 20.21875 72.015625 
L 8.203125 71.828125 
Q 7.515625 71.828125 7.515625 72.515625 
L 7.515625 74.515625 
Q 7.515625 75.203125 8.203125 75.203125 
L 20.21875 75 
L 27.203125 75 
Q 27.203125 79.890625 26.609375 82.421875 
Q 28.765625 82.28125 31 81.890625 
Q 31.890625 81.734375 31.890625 81.203125 
Q 31.890625 80.90625 31.6875 80.421875 
Q 31.453125 79.828125 31.390625 79.6875 
Q 31 78.515625 31 75.203125 
L 31 75 
L 36.921875 75 
L 48.921875 75.203125 
Q 49.609375 75.203125 49.609375 74.515625 
L 49.609375 72.515625 
Q 49.609375 71.828125 48.921875 71.828125 
L 36.921875 72.015625 
L 31 72.015625 
L 31 66.609375 
L 35.203125 66.609375 
L 45.796875 66.796875 
Q 46.484375 66.796875 46.484375 66.109375 
L 46.296875 59.234375 
L 46.296875 53.421875 
L 46.484375 46.578125 
Q 46.484375 45.90625 45.796875 45.90625 
L 35.203125 46.09375 
L 31 46.09375 
L 31 40.671875 
L 36.921875 40.671875 
L 49.21875 40.875 
Q 49.90625 40.875 49.90625 40.1875 
L 49.90625 38.09375 
Q 49.90625 37.40625 49.21875 37.40625 
L 36.921875 37.59375 
L 31 37.59375 
Q 31.0625 35.25 31.15625 33.203125 
Q 31.203125 31.890625 31.203125 31.78125 
Q 31.203125 31.109375 30.515625 31.109375 
L 27.78125 31.109375 
Q 27 31.109375 27 31.78125 
Q 27 31.84375 27.046875 33.59375 
Q 27.15625 35.453125 27.203125 37.59375 
L 19.390625 37.59375 
L 7.234375 37.40625 
Q 6.5 37.40625 6.5 38.09375 
L 6.5 40.1875 
Q 6.5 40.875 7.234375 40.875 
L 19.390625 40.671875 
L 27.203125 40.671875 
z
M 27.296875 57.8125 
L 27.296875 63.921875 
L 15.828125 63.921875 
L 15.828125 57.8125 
z
M 31 57.8125 
L 42.828125 57.8125 
L 42.828125 63.921875 
L 31 63.921875 
z
M 27.296875 55.21875 
L 15.828125 55.21875 
L 15.828125 48.78125 
L 27.296875 48.78125 
z
M 31 55.21875 
L 31 48.78125 
L 42.828125 48.78125 
L 42.828125 55.21875 
z
M 67.390625 42.09375 
Q 61.765625 46.875 57.71875 53.859375 
Q 55.421875 53.8125 53.5625 53.71875 
Q 52.296875 53.65625 52.203125 53.65625 
Q 51.515625 53.65625 51.515625 54.34375 
L 51.515625 56.59375 
Q 51.515625 57.28125 52.203125 57.28125 
L 62.703125 57.078125 
L 80.328125 57.078125 
Q 81.25 57.078125 81.984375 57.375 
Q 82.375 57.5625 82.90625 57.5625 
Q 83.40625 57.5625 84.671875 56.25 
Q 86.1875 54.59375 86.1875 53.953125 
Q 86.1875 53.265625 85.5 52.875 
Q 84.515625 52.390625 82.671875 50.296875 
Q 78.21875 45.171875 73.6875 41.890625 
Q 81.890625 36.859375 95.125 34.625 
Q 93.890625 33.546875 93.21875 31.984375 
Q 92.71875 30.953125 92.1875 30.953125 
Q 91.9375 30.953125 91.3125 31.109375 
Q 79.109375 33.640625 70.40625 39.703125 
Q 62.890625 35.0625 52.9375 32.671875 
Q 52.09375 32.46875 51.859375 32.46875 
Q 51.375 32.46875 50.59375 33.6875 
Q 49.8125 34.96875 48.6875 35.59375 
Q 58.984375 37.3125 67.390625 42.09375 
z
M 70.515625 44 
Q 76.8125 48.25 80.71875 53.859375 
L 61.53125 53.859375 
Q 65.28125 47.90625 70.515625 44 
z
M 48.6875 6.890625 
L 19.828125 6.890625 
L 6.6875 6.6875 
Q 6 6.6875 6 7.375 
L 6 9.8125 
Q 6 10.5 6.6875 10.5 
L 19.828125 10.296875 
L 48.6875 10.296875 
L 48.6875 16.3125 
L 30.328125 16.3125 
L 16.109375 16.109375 
Q 15.4375 16.109375 15.4375 16.796875 
L 15.4375 19.046875 
Q 15.4375 19.828125 16.109375 19.828125 
L 30.328125 19.625 
L 48.6875 19.625 
L 48.6875 25.53125 
Q 41.0625 25.046875 22.90625 24.609375 
Q 21.734375 24.609375 21.484375 24.8125 
Q 21.234375 25 20.796875 26.03125 
Q 20.359375 26.859375 19.28125 28.125 
Q 24.703125 28.03125 28.375 28.03125 
Q 39.265625 28.03125 50.09375 28.8125 
Q 60.84375 29.59375 69.921875 31.25 
Q 72.171875 31.640625 74.515625 32.71875 
Q 76.703125 31.109375 77.640625 30.21875 
Q 78.21875 29.640625 78.21875 29.25 
Q 78.21875 28.421875 76.90625 28.421875 
Q 74.703125 28.421875 73.4375 28.21875 
Q 63.09375 26.515625 53.03125 25.828125 
L 53.03125 19.625 
L 69.828125 19.625 
L 84.078125 19.828125 
Q 84.8125 19.828125 84.8125 19.046875 
L 84.8125 16.796875 
Q 84.8125 16.109375 84.078125 16.109375 
L 69.828125 16.3125 
L 53.03125 16.3125 
L 53.03125 10.296875 
L 80.125 10.296875 
L 93.21875 10.5 
Q 94 10.5 94 9.8125 
L 94 7.375 
Q 94 6.6875 93.21875 6.6875 
L 80.125 6.890625 
L 53.03125 6.890625 
Q 53.21875 0.6875 53.21875 0.390625 
Q 53.21875 -2.78125 51.515625 -4.640625 
Q 49.125 -7.03125 39.109375 -6.9375 
Q 37.9375 -6.9375 37.640625 -6.640625 
Q 37.40625 -6.390625 37.109375 -5.328125 
Q 36.71875 -3.71875 35.40625 -2.203125 
Q 38.625 -2.734375 43.890625 -2.734375 
Q 46.625 -2.734375 47.65625 -1.65625 
Q 48.6875 -0.53125 48.6875 2.09375 
z
M 48.6875 62.109375 
Q 54.546875 64.265625 56.78125 67.390625 
Q 58.84375 70.265625 58.984375 75.203125 
L 58.796875 78.515625 
Q 58.796875 79.296875 59.46875 79.296875 
L 66.40625 79.109375 
L 71.734375 79.109375 
L 78.8125 79.296875 
Q 79.5 79.296875 79.5 78.515625 
L 79.296875 72.90625 
L 79.296875 69.875 
Q 79.296875 66.3125 80.328125 65.765625 
Q 81.5 65.1875 84.71875 65.1875 
Q 88.765625 65.1875 89.984375 67 
Q 91.015625 68.40625 91.015625 73.6875 
Q 91.796875 72.75 93.5 72.078125 
Q 94.828125 71.578125 94.828125 70.703125 
Q 94.828125 70.40625 94.78125 69.96875 
Q 94.234375 65.53125 92.578125 63.875 
Q 90.140625 61.765625 84.375 61.765625 
Q 79.640625 61.765625 77.6875 62.453125 
Q 76.265625 63.09375 75.78125 64.265625 
Q 75.203125 65.578125 75.203125 68.3125 
L 75.203125 75.6875 
L 62.984375 75.6875 
Q 62.984375 69.09375 60.109375 65.140625 
Q 57.765625 62.015625 53.03125 59.8125 
Q 52.09375 59.421875 51.859375 59.421875 
Q 51.46875 59.421875 50.59375 60.59375 
Q 49.953125 61.46875 48.6875 62.109375 
z
" id="YuGothic-Regular-25731"/>
     <path d="M 58.015625 52.984375 
L 58.015625 16.40625 
Q 58.015625 8.109375 58.296875 -0.6875 
Q 58.296875 -1.703125 57.421875 -1.703125 
Q 56.453125 -1.765625 55.21875 -1.765625 
Q 54 -1.765625 52.984375 -1.703125 
Q 52.203125 -1.703125 52.203125 -0.6875 
Q 52.484375 7.8125 52.484375 16.109375 
L 52.484375 48.09375 
Q 38.03125 35.015625 19.671875 24.421875 
Q 19.28125 24.171875 18.953125 24.171875 
Q 18.40625 24.171875 17.875 24.703125 
Q 16.40625 26.375 14.109375 27.296875 
Q 32.375 37.453125 45.21875 48.484375 
Q 57.421875 59.078125 65.09375 68.609375 
Q 69.53125 74.125 70.796875 78.421875 
Q 74.703125 76.46875 76.421875 74.609375 
Q 76.953125 74.078125 76.953125 73.4375 
Q 76.953125 72.609375 76.125 72.21875 
Q 74.3125 71.1875 70.703125 67 
Q 65.09375 60.0625 58.015625 52.984375 
z
" id="YuGothic-Regular-12452"/>
     <path d="M 62.5 63.28125 
L 65.53125 65.375 
Q 65.71875 65.578125 65.921875 65.578125 
Q 66.0625 65.578125 66.3125 65.4375 
Q 72.078125 61.53125 77.59375 53.328125 
Q 77.78125 53.078125 77.78125 52.875 
Q 77.78125 52.6875 77.484375 52.390625 
L 75.09375 50.390625 
Q 74.90625 50.203125 74.65625 50.203125 
Q 74.3125 50.203125 74.03125 50.640625 
Q 68.953125 58.640625 62.5 63.28125 
z
M 70.90625 69.484375 
L 73.484375 71.484375 
Q 73.828125 71.734375 74.03125 71.734375 
Q 74.21875 71.734375 74.421875 71.578125 
Q 81.203125 66.65625 85.6875 60.109375 
Q 85.890625 59.8125 85.890625 59.578125 
Q 85.890625 59.28125 85.5 58.984375 
L 83.203125 56.984375 
Q 82.953125 56.84375 82.765625 56.84375 
Q 82.46875 56.84375 82.234375 57.234375 
Q 77.4375 64.65625 70.90625 69.484375 
z
M 10.109375 30.90625 
Q 13.875 32.90625 19.28125 38.484375 
Q 25.4375 44.484375 34.90625 54.296875 
Q 37.40625 56.78125 39.703125 56.78125 
Q 42.328125 56.78125 45.015625 54.5 
Q 63.625 38.375 91.015625 21.484375 
Q 91.703125 21.046875 91.703125 20.5625 
Q 91.703125 20.3125 91.5 19.875 
Q 90.375 17.4375 89.203125 16.015625 
Q 88.921875 15.53125 88.578125 15.53125 
Q 88.28125 15.53125 87.703125 15.875 
Q 61.234375 33.796875 42.4375 49.75 
Q 41.015625 50.984375 39.984375 50.984375 
Q 38.921875 50.984375 37.984375 50.09375 
Q 30.5625 42.671875 21.1875 32.5625 
Q 19.1875 30.46875 17 26.953125 
Q 16.453125 26.265625 15.875 26.265625 
Q 15.4375 26.265625 14.984375 26.5625 
Q 12.25 28.765625 10.109375 30.90625 
z
" id="YuGothic-Regular-12505"/>
     <path d="M 17.828125 63.375 
Q 19.140625 65.09375 20.90625 66.890625 
Q 21.34375 67.328125 21.78125 67.328125 
Q 22.015625 67.328125 22.515625 67.09375 
Q 32.171875 61.375 40.046875 54.109375 
Q 40.578125 53.5625 40.578125 53.171875 
Q 40.578125 52.875 40.328125 52.484375 
Q 39.109375 50.6875 37.640625 49.21875 
Q 37.203125 48.78125 36.921875 48.78125 
Q 36.671875 48.78125 36.328125 49.125 
Q 27.09375 57.859375 17.828125 63.375 
z
M 20.21875 10.015625 
Q 25.484375 11.375 29.828125 13.71875 
Q 46.578125 22.46875 58.734375 32.171875 
Q 75.203125 45.40625 85.40625 58.6875 
Q 85.640625 56.296875 86.921875 53.8125 
Q 87.203125 53.21875 87.203125 52.734375 
Q 87.203125 51.859375 86.328125 50.78125 
Q 75.875 38.625 61.71875 27.484375 
Q 49.03125 17.578125 31.84375 8.109375 
Q 28.421875 6.15625 26.703125 4.296875 
Q 26.125 3.71875 25.640625 3.71875 
Q 25.140625 3.71875 24.515625 4.296875 
Q 22.515625 6.34375 20.21875 10.015625 
z
" id="YuGothic-Regular-12531"/>
     <path d="M 44.390625 48.578125 
Q 61.46875 43.890625 77.046875 34.71875 
Q 77.734375 34.328125 77.734375 33.890625 
Q 77.734375 33.734375 77.6875 33.5 
Q 76.859375 31.390625 75.875 29.890625 
Q 75.4375 29.296875 75 29.296875 
Q 74.65625 29.296875 74.171875 29.59375 
Q 60.40625 38.484375 44.390625 43.109375 
L 44.390625 17.828125 
Q 44.390625 17 44.671875 -1.21875 
Q 44.671875 -2.4375 43.5625 -2.4375 
Q 42.671875 -2.484375 41.65625 -2.484375 
Q 40.578125 -2.484375 39.65625 -2.4375 
Q 38.421875 -2.4375 38.421875 -1.125 
Q 38.875 10.890625 38.875 17.671875 
L 38.875 65.1875 
Q 38.875 73.578125 37.75 78.609375 
Q 42.1875 78.265625 44.625 77.484375 
Q 45.65625 77.203125 45.65625 76.3125 
Q 45.65625 75.828125 45.265625 74.90625 
Q 44.390625 72.953125 44.390625 65.71875 
z
" id="YuGothic-Regular-12488"/>
     <path d="M 29.890625 32.8125 
Q 25.875 32.765625 22.5625 32.671875 
Q 20.40625 32.625 20.359375 32.625 
Q 19.671875 32.625 19.671875 33.296875 
L 19.671875 36.625 
Q 19.671875 37.3125 20.359375 37.3125 
L 34.1875 37.109375 
L 68.5625 37.109375 
Q 70.171875 37.109375 70.796875 37.3125 
Q 70.953125 37.359375 71.390625 37.5 
Q 71.6875 37.59375 71.78125 37.59375 
Q 72.703125 37.59375 74.265625 35.890625 
Q 75.78125 34.375 75.78125 33.6875 
Q 75.78125 33.0625 75 32.625 
Q 73.578125 31.890625 72.46875 30.328125 
Q 64.796875 18.890625 54.59375 11.53125 
Q 67.78125 3.65625 94.484375 -1.5625 
Q 93.0625 -2.984375 92.1875 -4.78125 
Q 91.453125 -6.203125 90.921875 -6.203125 
Q 90.671875 -6.203125 89.796875 -5.953125 
Q 62.75 0.484375 50.484375 8.6875 
Q 36.421875 -0.046875 11.578125 -5.375 
Q 10.75 -5.609375 10.5 -5.609375 
Q 10.015625 -5.609375 9.375 -4.203125 
Q 8.296875 -2.046875 7.171875 -1.171875 
Q 31.25 2.78125 46.484375 11.625 
Q 36.578125 19.53125 29.890625 32.8125 
z
M 34.671875 32.8125 
Q 40.875 21.234375 50.484375 14.203125 
Q 61.140625 21.390625 68.703125 32.8125 
z
M 64.703125 52.59375 
Q 69.28125 59.03125 72.65625 66.796875 
Q 73.578125 68.953125 73.875 71.09375 
Q 76.609375 70.125 78.078125 69.390625 
Q 79.046875 68.890625 79.046875 68.40625 
Q 79.046875 67.875 78.078125 66.890625 
Q 77.296875 66.109375 76.265625 64.203125 
Q 73.484375 58.5 69.484375 52.59375 
L 76.5625 52.59375 
L 90.484375 52.78125 
Q 91.15625 52.78125 91.15625 52.09375 
L 90.96875 47.703125 
L 90.96875 43.796875 
L 91.15625 34.078125 
Q 91.15625 33.40625 90.484375 33.40625 
L 87.0625 33.40625 
Q 86.375 33.40625 86.375 34.078125 
L 86.375 48.484375 
L 13.578125 48.484375 
L 13.578125 34.078125 
Q 13.578125 33.40625 12.890625 33.40625 
L 9.578125 33.40625 
Q 8.890625 33.40625 8.890625 34.078125 
L 9.078125 43.796875 
L 9.078125 47.171875 
L 8.890625 52.09375 
Q 8.890625 52.78125 9.578125 52.78125 
L 23.484375 52.59375 
z
M 78.5625 81.890625 
Q 80.515625 80.765625 82.71875 78.90625 
Q 83.40625 78.21875 83.40625 77.6875 
Q 83.40625 76.8125 82.171875 76.8125 
Q 80.609375 76.8125 78.609375 76.421875 
Q 64.984375 73.6875 50.09375 72.015625 
Q 31.546875 70.265625 17.484375 69.625 
Q 17.046875 69.578125 16.890625 69.578125 
Q 16.0625 69.578125 15.484375 71.1875 
Q 14.703125 73.09375 13.671875 74.125 
Q 30.953125 74.359375 50 76.3125 
Q 63.8125 77.734375 71.390625 79.59375 
Q 75.78125 80.71875 78.5625 81.890625 
z
M 25.6875 67.09375 
Q 26.21875 67.328125 26.515625 67.328125 
Q 26.8125 67.328125 27.09375 66.890625 
Q 30.328125 62.0625 32.46875 56.59375 
Q 32.5625 56.296875 32.5625 56.15625 
Q 32.5625 55.859375 31.59375 55.421875 
L 29.890625 54.6875 
Q 29.046875 54.390625 28.765625 54.390625 
Q 28.328125 54.390625 28.078125 55.078125 
Q 26.46875 60.453125 23.390625 65.09375 
Q 23.140625 65.4375 23.140625 65.671875 
Q 23.140625 66.0625 23.96875 66.40625 
z
M 47.46875 68.40625 
Q 48.09375 68.609375 48.296875 68.609375 
Q 48.640625 68.609375 48.875 68.109375 
Q 51.8125 62.75 53.421875 56.78125 
Q 53.46875 56.59375 53.46875 56.453125 
Q 53.46875 56.109375 52.296875 55.71875 
L 50.6875 55.171875 
Q 49.859375 54.9375 49.5625 54.9375 
Q 49.171875 54.9375 48.96875 55.609375 
Q 47.65625 61.234375 44.875 66.609375 
Q 44.734375 66.9375 44.734375 67.046875 
Q 44.734375 67.328125 45.90625 67.828125 
z
" id="YuGothic-Regular-21463"/>
     <path d="M 21.4375 60.296875 
L 21.4375 9.90625 
L 21.625 -6 
Q 21.625 -6.6875 20.90625 -6.6875 
L 17.328125 -6.6875 
Q 16.75 -6.6875 16.75 -6 
L 16.9375 9.90625 
L 16.9375 36.53125 
Q 16.9375 41.703125 17.140625 51.90625 
Q 12.84375 44.046875 7.125 36.921875 
Q 6.453125 36.03125 6.109375 36.03125 
Q 5.8125 36.03125 5.21875 36.921875 
Q 4.203125 38.375 3.03125 39.109375 
Q 16.015625 54.5 23 76.21875 
Q 24.125 79.828125 24.3125 83.109375 
Q 26.859375 82.5625 29 81.6875 
Q 30.03125 81.25 30.03125 80.71875 
Q 30.03125 80.078125 29.296875 79.390625 
Q 28.609375 78.65625 27.484375 75.6875 
Q 24.859375 67.78125 21.4375 60.296875 
z
M 41.9375 -0.875 
L 41.9375 -5.765625 
Q 41.9375 -6.5 41.21875 -6.5 
L 38.03125 -6.5 
Q 37.359375 -6.5 37.359375 -5.765625 
L 37.546875 6.25 
L 37.546875 13.71875 
L 37.359375 21.828125 
Q 37.359375 22.515625 38.03125 22.515625 
L 50.921875 22.3125 
L 70.796875 22.3125 
L 83.6875 22.515625 
Q 84.328125 22.515625 84.328125 21.828125 
L 84.125 14.703125 
L 84.125 6.546875 
L 84.328125 -5.46875 
Q 84.328125 -6.109375 83.734375 -6.109375 
L 80.421875 -6.109375 
Q 79.734375 -6.109375 79.734375 -5.46875 
L 79.734375 -0.875 
z
M 41.9375 3.03125 
L 79.734375 3.03125 
L 79.734375 18.3125 
L 41.9375 18.3125 
z
M 52.203125 35.59375 
L 69.53125 35.59375 
L 81.59375 35.796875 
Q 82.328125 35.796875 82.328125 35.109375 
L 82.328125 32.171875 
Q 82.328125 31.5 81.59375 31.5 
L 69.53125 31.6875 
L 52.203125 31.6875 
L 39.984375 31.5 
Q 39.3125 31.5 39.3125 32.171875 
L 39.3125 35.109375 
Q 39.3125 35.796875 39.984375 35.796875 
z
M 52.203125 49.125 
L 69.53125 49.125 
L 81.59375 49.3125 
Q 82.328125 49.3125 82.328125 48.640625 
L 82.328125 45.703125 
Q 82.328125 45.015625 81.59375 45.015625 
L 69.53125 45.21875 
L 52.203125 45.21875 
L 39.984375 45.015625 
Q 39.3125 45.015625 39.3125 45.703125 
L 39.3125 48.640625 
Q 39.3125 49.3125 39.984375 49.3125 
z
M 52.484375 76.125 
L 70.21875 76.125 
L 82.421875 76.3125 
Q 83.203125 76.3125 83.203125 75.640625 
L 83.203125 72.609375 
Q 83.203125 72.015625 82.421875 72.015625 
L 70.21875 72.21875 
L 52.484375 72.21875 
L 40.328125 72.015625 
Q 39.59375 72.015625 39.59375 72.609375 
L 39.59375 75.640625 
Q 39.59375 76.3125 40.328125 76.3125 
z
M 44.4375 58.59375 
L 30.328125 58.40625 
Q 29.59375 58.40625 29.59375 59.078125 
L 29.59375 62.203125 
Q 29.59375 62.890625 30.328125 62.890625 
L 44.4375 62.703125 
L 79.5 62.703125 
L 93.609375 62.890625 
Q 94.34375 62.890625 94.34375 62.203125 
L 94.34375 59.078125 
Q 94.34375 58.40625 93.609375 58.40625 
L 79.5 58.59375 
z
" id="YuGothic-Regular-20449"/>
     <path d="M 35.40625 52.9375 
Q 37.703125 60.546875 39.15625 67 
Q 40.046875 70.796875 40.046875 74.46875 
Q 40.046875 75.734375 39.984375 76.8125 
Q 43.84375 75.828125 46.78125 74.3125 
Q 47.515625 73.875 47.515625 73.1875 
Q 47.515625 72.609375 46.96875 72.125 
Q 45.703125 70.84375 45.171875 68.890625 
Q 42.921875 60.640625 40.671875 53.515625 
Q 46.625 54.390625 50.875 54.390625 
Q 57.953125 54.390625 60.796875 50.53125 
Q 63.484375 46.96875 63.484375 39.109375 
Q 63.484375 18.3125 58.0625 7.03125 
Q 54.4375 -0.59375 47.65625 -0.59375 
Q 42.140625 -0.59375 37.3125 1.21875 
Q 36.375 1.515625 36.375 2.484375 
Q 36.375 4.734375 35.40625 7.328125 
Q 41.65625 4.59375 46.78125 4.59375 
Q 51.078125 4.59375 53.515625 9.671875 
Q 58.296875 20.015625 58.296875 39.015625 
Q 58.296875 45.5625 56.5 47.90625 
Q 54.828125 50.09375 50.875 50.09375 
Q 46.828125 50.09375 39.40625 49.03125 
Q 31.390625 24.46875 19 1.421875 
Q 18.75 0.828125 18.21875 0.828125 
Q 17.921875 0.828125 17.71875 0.984375 
Q 17.53125 1.125 16.015625 2.15625 
Q 14.9375 2.875 14.5 3.21875 
Q 14.15625 3.421875 14.15625 3.71875 
Q 14.15625 3.953125 14.40625 4.390625 
Q 25.640625 23.78125 33.984375 48.1875 
Q 24.75 46.875 20.90625 46.1875 
Q 17.390625 45.609375 15.375 44.625 
Q 14.546875 44.234375 14.0625 44.234375 
Q 13.28125 44.234375 12.890625 45.015625 
Q 11.71875 47.5625 10.984375 50.640625 
Q 12.15625 50.53125 13.375 50.53125 
Q 16.84375 50.53125 21.09375 51.03125 
Q 25.78125 51.515625 35.40625 52.9375 
z
M 71.296875 56.84375 
Q 73.140625 58.296875 74.8125 59.125 
Q 75.046875 59.234375 75.25 59.234375 
Q 75.6875 59.234375 76.171875 58.84375 
Q 87.15625 49.3125 92 34.625 
Q 92.140625 34.03125 92.140625 33.84375 
Q 92.140625 33.40625 91.796875 33.0625 
Q 90.765625 32.171875 88.671875 31.15625 
Q 88.234375 30.90625 87.890625 30.90625 
Q 87.25 30.90625 87.0625 31.734375 
Q 82.375 47.015625 71.296875 56.84375 
z
" id="YuGothic-Regular-12363"/>
     <path d="M 33.9375 75.78125 
Q 34.859375 77.34375 36.53125 79 
Q 36.921875 79.390625 37.25 79.390625 
Q 37.453125 79.390625 37.796875 79.296875 
Q 46.875 75.4375 55.515625 68.109375 
Q 55.90625 67.78125 55.90625 67.484375 
Q 55.90625 67.234375 55.71875 66.890625 
Q 55.125 66.015625 53.125 63.8125 
Q 52.828125 63.53125 52.546875 63.53125 
Q 52.203125 63.53125 51.8125 63.921875 
Q 44.140625 71.296875 33.9375 75.78125 
z
M 25.734375 57.625 
Q 29 56.640625 31.25 54.984375 
Q 32.125 54.4375 32.125 53.71875 
Q 32.125 53.265625 31.734375 52.78125 
Q 30.765625 51.859375 30.125 48.1875 
Q 27.296875 33.5 27 23.296875 
Q 34.765625 32.953125 45.609375 38.28125 
Q 54.5 42.671875 62.5 42.671875 
Q 72.859375 42.671875 78.609375 36.921875 
Q 83.5 31.984375 83.5 24.265625 
Q 83.5 10.890625 68.40625 3.375 
Q 58.453125 -1.515625 44.828125 -2.984375 
Q 44.53125 -3.03125 44.28125 -3.03125 
Q 43.21875 -3.03125 42.71875 -2.203125 
Q 41.40625 -0.09375 39.109375 1.515625 
Q 56.109375 2.875 65.671875 7.8125 
Q 77.875 14.15625 77.875 24.703125 
Q 77.875 31.25 73.53125 34.71875 
Q 69.4375 37.984375 61.921875 37.984375 
Q 54.25 37.984375 45.65625 33.203125 
Q 38.328125 29.109375 31.9375 22.40625 
Q 28.859375 19.09375 27.296875 16.3125 
Q 27 15.765625 26.609375 15.765625 
Q 26.46875 15.765625 26.03125 15.921875 
Q 24.5625 16.453125 22.796875 17.4375 
Q 22.21875 17.71875 22.21875 18.609375 
Q 22.609375 32.171875 25.09375 49.609375 
Q 25.734375 53.953125 25.734375 56.59375 
Q 25.734375 57.28125 25.734375 57.625 
z
" id="YuGothic-Regular-12425"/>
     <path d="M 20.90625 49.3125 
Q 13.1875 58.734375 5.8125 65.28125 
Q 5.375 65.625 5.375 65.875 
Q 5.375 66.109375 6.109375 66.890625 
L 7.078125 68.109375 
Q 7.71875 68.796875 7.953125 68.796875 
Q 8.109375 68.796875 8.5 68.5 
Q 10.109375 67 12.890625 64.40625 
Q 17.875 72.078125 20.40625 77.09375 
Q 22.265625 80.859375 22.703125 82.8125 
Q 24.953125 82.03125 27 80.8125 
Q 27.984375 80.21875 27.984375 79.6875 
Q 27.984375 79.109375 27.203125 78.609375 
Q 26.171875 78.03125 25.390625 76.609375 
Q 20.796875 68.703125 15.828125 61.53125 
Q 20.21875 56.9375 23.390625 53.21875 
Q 26.3125 57.5625 31.296875 66.21875 
Q 33.5 70.015625 34.28125 72.796875 
Q 36.71875 71.921875 38.625 70.703125 
Q 39.40625 70.171875 39.40625 69.578125 
Q 39.40625 69.046875 38.625 68.40625 
Q 37.5 67.53125 35.109375 63.71875 
Q 26.03125 49.21875 17.671875 38.375 
Q 33.0625 39.40625 36.1875 39.703125 
Q 34.421875 43.890625 32.515625 47.21875 
Q 32.375 47.46875 32.375 47.5625 
Q 32.375 47.859375 33.5 48.390625 
L 34.578125 48.875 
Q 35.25 49.265625 35.453125 49.265625 
Q 35.6875 49.265625 35.984375 48.78125 
Q 40.375 41.40625 43.609375 31.984375 
Q 43.75 31.640625 43.75 31.5 
Q 43.75 31.15625 42.484375 30.609375 
L 41.3125 30.078125 
Q 40.4375 29.6875 40.140625 29.6875 
Q 39.75 29.6875 39.59375 30.28125 
Q 38.625 33.734375 37.5 36.375 
L 27.484375 35.296875 
L 27.484375 8.6875 
L 27.6875 -6.390625 
Q 27.6875 -6.984375 27 -6.984375 
L 23.578125 -6.984375 
Q 22.90625 -6.984375 22.90625 -6.390625 
L 23.09375 8.6875 
L 23.09375 34.90625 
Q 15.484375 34.328125 12.015625 33.984375 
Q 9.46875 33.796875 8.109375 33.109375 
Q 7.28125 32.71875 7.078125 32.71875 
Q 6.390625 32.71875 6.109375 33.9375 
Q 5.671875 35.40625 5.421875 38.28125 
Q 7.765625 38.03125 9.515625 38.03125 
Q 10.40625 38.03125 11.28125 38.09375 
Q 12.40625 38.09375 12.890625 38.1875 
Q 17.4375 44 20.90625 49.3125 
z
M 52.09375 0.59375 
L 52.09375 -5.515625 
Q 52.09375 -6.203125 51.421875 -6.203125 
L 48.1875 -6.203125 
Q 47.515625 -6.203125 47.515625 -5.515625 
L 47.703125 11.28125 
L 47.703125 18.890625 
L 47.515625 29.390625 
Q 47.515625 30.078125 48.1875 30.078125 
L 60.015625 29.890625 
L 75.390625 29.890625 
L 87.3125 30.078125 
Q 87.984375 30.078125 87.984375 29.390625 
L 87.796875 20.0625 
L 87.796875 11.46875 
L 87.984375 -5.21875 
Q 87.984375 -5.90625 87.3125 -5.90625 
L 83.890625 -5.90625 
Q 83.296875 -5.90625 83.296875 -5.21875 
L 83.296875 0.59375 
z
M 52.09375 4.59375 
L 83.296875 4.59375 
L 83.296875 25.875 
L 52.09375 25.875 
z
M 64.59375 45.609375 
L 64.59375 62.109375 
L 55.71875 62.109375 
L 42.390625 61.921875 
Q 41.703125 61.921875 41.703125 62.5 
L 41.703125 65.625 
Q 41.703125 66.3125 42.390625 66.3125 
L 55.71875 66.109375 
L 64.59375 66.109375 
L 64.59375 69.921875 
Q 64.59375 78.46875 64.015625 82.421875 
Q 66.9375 82.28125 69.09375 81.84375 
Q 70.0625 81.640625 70.0625 81 
Q 70.0625 80.765625 69.921875 80.328125 
Q 69.734375 79.6875 69.671875 79.390625 
Q 69.09375 77.640625 69.09375 70.125 
L 69.09375 66.109375 
L 79.984375 66.109375 
L 93.40625 66.3125 
Q 94.09375 66.3125 94.09375 65.625 
L 94.09375 62.5 
Q 94.09375 61.921875 93.40625 61.921875 
L 79.984375 62.109375 
L 69.09375 62.109375 
L 69.09375 45.609375 
L 76.609375 45.609375 
L 88.875 45.796875 
Q 89.59375 45.796875 89.59375 45.125 
L 89.59375 42.09375 
Q 89.59375 41.40625 88.875 41.40625 
L 76.609375 41.609375 
L 58.296875 41.609375 
L 45.90625 41.40625 
Q 45.21875 41.40625 45.21875 42.09375 
L 45.21875 45.125 
Q 45.21875 45.796875 45.90625 45.796875 
L 58.296875 45.609375 
z
M 5.8125 2.296875 
Q 9.46875 10.59375 10.890625 20.609375 
Q 11.328125 23.578125 11.328125 25.640625 
Q 11.328125 26.03125 11.28125 26.90625 
Q 14.15625 26.421875 15.28125 25.984375 
Q 16.703125 25.53125 16.703125 25 
Q 16.703125 24.46875 16.21875 23.78125 
Q 15.53125 22.90625 15.09375 20.015625 
Q 13.625 10.296875 10.5 1.609375 
Q 10.109375 0.484375 9.765625 0.484375 
Q 9.46875 0.484375 8.5 1.21875 
Q 7.28125 2.09375 5.8125 2.296875 
z
M 35.5 27 
Q 36.078125 27.203125 36.28125 27.203125 
Q 36.53125 27.203125 36.765625 26.703125 
Q 39.984375 19.34375 42 8.890625 
Q 42.046875 8.59375 42.046875 8.5 
Q 42.046875 8.0625 40.96875 7.625 
L 39.59375 7.078125 
Q 38.578125 6.6875 38.28125 6.6875 
Q 37.984375 6.6875 37.890625 7.328125 
Q 36.421875 17.53125 33.203125 25.484375 
Q 33.109375 25.78125 33.109375 25.828125 
Q 33.109375 26.125 34.28125 26.609375 
z
" id="YuGothic-Regular-32080"/>
     <path d="M 51.078125 25 
L 51.65625 -6.296875 
Q 51.65625 -6.984375 50.984375 -6.984375 
L 47.265625 -6.984375 
Q 46.484375 -6.984375 46.484375 -6.296875 
L 47.171875 24.609375 
Q 39.453125 14.3125 29.34375 7.625 
Q 21.578125 2.4375 9.96875 -2.09375 
Q 8.984375 -2.484375 8.6875 -2.484375 
Q 8.25 -2.484375 7.5625 -1.3125 
Q 6.6875 0.203125 5.171875 1.125 
Q 19.234375 6.25 28.171875 12.109375 
Q 37.203125 18.015625 43.84375 26.3125 
L 20.453125 26.3125 
L 7.28125 26.125 
Q 6.546875 26.125 6.546875 26.8125 
L 6.546875 30.03125 
Q 6.546875 30.609375 7.28125 30.609375 
L 20.453125 30.421875 
L 46.875 30.421875 
L 46.875 40.28125 
L 34.765625 40.28125 
L 20.75 40.09375 
Q 20.0625 40.09375 20.0625 40.765625 
L 20.265625 50.6875 
L 20.265625 66.5 
L 20.0625 76.515625 
Q 20.0625 77.203125 20.75 77.203125 
L 34.765625 77 
L 65.09375 77 
L 79.203125 77.203125 
Q 79.890625 77.203125 79.890625 76.515625 
L 79.6875 66.5 
L 79.6875 50.6875 
L 79.890625 40.765625 
Q 79.890625 40.09375 79.203125 40.09375 
L 65.09375 40.28125 
L 51.375 40.28125 
L 51.375 30.421875 
L 79.890625 30.421875 
L 93.0625 30.609375 
Q 93.796875 30.609375 93.796875 30.03125 
L 93.796875 26.8125 
Q 93.796875 26.125 93.0625 26.125 
L 79.890625 26.3125 
L 54.25 26.3125 
Q 69 10.15625 95.0625 2.203125 
Q 93.5625 1.125 92.671875 -0.59375 
Q 92 -1.859375 91.5 -1.859375 
Q 91.21875 -1.859375 90.28125 -1.46875 
Q 76.953125 3.328125 68.0625 9.234375 
Q 58.40625 15.671875 51.078125 25 
z
M 46.875 60.6875 
L 46.875 73 
L 24.75 73 
L 24.75 60.6875 
z
M 51.375 60.6875 
L 75.203125 60.6875 
L 75.203125 73 
L 51.375 73 
z
M 46.875 56.78125 
L 24.75 56.78125 
L 24.75 44.1875 
L 46.875 44.1875 
z
M 51.375 56.78125 
L 51.375 44.1875 
L 75.203125 44.1875 
L 75.203125 56.78125 
z
" id="YuGothic-Regular-26524"/>
     <path d="M 48.828125 18.703125 
Q 48.296875 25.4375 48.140625 36.28125 
Q 42.625 36.03125 37.84375 36.03125 
Q 30.8125 36.03125 24.8125 36.625 
Q 23.921875 36.71875 23.828125 37.59375 
Q 23.640625 39.59375 23.640625 41.5 
Q 30.375 40.671875 39.15625 40.671875 
Q 43.609375 40.671875 48.046875 40.921875 
Q 47.90625 45.796875 47.90625 57.078125 
Q 42 56.78125 36.578125 56.78125 
Q 28.375 56.78125 20.796875 57.46875 
Q 20.21875 57.625 20.125 58.296875 
Q 19.828125 61.921875 19.828125 62.40625 
Q 28.375 61.421875 37.796875 61.421875 
Q 42.671875 61.421875 47.90625 61.71875 
Q 47.90625 68.609375 47.796875 72.40625 
Q 47.703125 76.703125 46.828125 78.8125 
Q 51.46875 78.265625 53.515625 77.59375 
Q 54.59375 77.203125 54.59375 76.3125 
Q 54.59375 75.921875 54.34375 75.59375 
Q 53.265625 74.078125 53.125 71.09375 
Q 52.828125 65.71875 52.828125 61.921875 
Q 65.625 62.59375 77.6875 65.1875 
Q 77.984375 65.234375 78.078125 65.234375 
Q 78.515625 65.234375 78.609375 64.703125 
Q 78.90625 62.890625 78.90625 61.078125 
Q 78.90625 60.5 78.328125 60.40625 
Q 67.578125 58.40625 52.828125 57.421875 
Q 52.828125 46.296875 52.9375 41.21875 
Q 65.625 42.046875 75.640625 44.28125 
Q 75.828125 44.34375 75.921875 44.34375 
Q 76.421875 44.34375 76.515625 43.890625 
Q 76.515625 41.5 76.515625 40.28125 
Q 76.515625 39.546875 75.734375 39.40625 
Q 66.21875 37.453125 53.03125 36.625 
Q 53.03125 27.875 53.8125 17.484375 
Q 67.828125 13.671875 80.71875 4.5 
Q 81.15625 4.046875 81.15625 3.65625 
Q 81.15625 3.421875 81 3.078125 
Q 80.328125 1.609375 79.203125 0 
Q 78.859375 -0.4375 78.515625 -0.4375 
Q 78.328125 -0.4375 78.03125 -0.296875 
Q 65.96875 8.9375 54 12.59375 
Q 54.046875 12.015625 54.046875 11.765625 
Q 54.046875 3.46875 49.21875 0.046875 
Q 45.171875 -2.875 36.8125 -2.875 
Q 27.9375 -2.875 23.53125 0.484375 
Q 19.921875 3.265625 19.921875 8.015625 
Q 19.921875 13.421875 25.203125 16.65625 
Q 30.03125 19.578125 37.9375 19.578125 
Q 43.890625 19.578125 48.828125 18.703125 
z
M 48.828125 13.921875 
Q 42.390625 15.28125 37.703125 15.28125 
Q 30.90625 15.28125 27.34375 13.03125 
Q 24.421875 11.1875 24.421875 8.296875 
Q 24.421875 1.609375 36.140625 1.609375 
Q 43.953125 1.609375 46.78125 4.6875 
Q 48.921875 7.03125 48.921875 11.96875 
Q 48.921875 12.984375 48.828125 13.921875 
z
" id="YuGothic-Regular-12414"/>
     <path d="M 71.578125 46.09375 
L 74.609375 48.1875 
Q 74.8125 48.34375 75 48.34375 
Q 75.140625 48.34375 75.390625 48.1875 
Q 81.15625 44.28125 86.671875 36.078125 
Q 86.859375 35.84375 86.859375 35.6875 
Q 86.859375 35.5 86.625 35.203125 
L 84.234375 33.203125 
Q 83.984375 32.953125 83.734375 32.953125 
Q 83.453125 32.953125 83.109375 33.40625 
Q 78.078125 41.40625 71.578125 46.09375 
z
M 80.03125 52.296875 
L 82.625 54.296875 
Q 82.90625 54.546875 83.15625 54.546875 
Q 83.296875 54.546875 83.5 54.390625 
Q 90.28125 49.46875 94.78125 42.921875 
Q 94.96875 42.625 94.96875 42.390625 
Q 94.96875 42.09375 94.625 41.796875 
L 92.28125 39.796875 
Q 92.09375 39.65625 91.890625 39.65625 
Q 91.609375 39.65625 91.3125 40.046875 
Q 86.53125 47.46875 80.03125 52.296875 
z
M 10.203125 59.8125 
Q 10.75 59.765625 11.1875 59.765625 
Q 15.578125 59.765625 22.40625 60.796875 
Q 53.8125 65.71875 83.984375 69.390625 
Q 84.125 69.4375 84.375 69.4375 
Q 85.25 69.4375 85.5 68.703125 
Q 85.984375 67.046875 85.984375 64.890625 
Q 85.984375 64.015625 84.859375 63.921875 
Q 75.6875 63.421875 69.390625 60.59375 
Q 57.5625 55.375 50.484375 46.390625 
Q 43.796875 37.84375 43.796875 28.375 
Q 43.796875 15.765625 54.890625 9.96875 
Q 61.625 6.453125 73.484375 5.171875 
Q 74.90625 5.078125 74.90625 4.390625 
Q 74.90625 2.78125 74.515625 0.78125 
Q 74.265625 -0.4375 73.390625 -0.4375 
Q 73.1875 -0.4375 73 -0.4375 
Q 57.171875 1.03125 48.34375 7.671875 
Q 38.625 14.9375 38.625 27.78125 
Q 38.625 39.15625 46.390625 48.53125 
Q 53.125 56.734375 64.984375 62.5 
L 64.890625 62.796875 
Q 38.421875 58.84375 21.390625 55.171875 
Q 17.234375 54.34375 15.828125 53.5625 
Q 14.59375 52.875 14.015625 52.875 
Q 13.09375 52.875 12.703125 53.65625 
Q 11.1875 56.5 10.203125 59.8125 
z
" id="YuGothic-Regular-12391"/>
     <path d="M 53.125 63.921875 
Q 51.65625 50.4375 47.75 37.890625 
Q 44.34375 26.859375 39.984375 19.921875 
Q 33.734375 9.90625 25.734375 9.90625 
Q 19.96875 9.90625 15.921875 16.3125 
Q 12.109375 22.40625 12.109375 31.59375 
Q 12.109375 39.015625 15.578125 46.34375 
Q 18.65625 52.984375 23.828125 57.625 
Q 35.453125 68.109375 52.78125 68.109375 
Q 70.21875 68.109375 79.6875 58.296875 
Q 87.796875 49.953125 87.796875 36.71875 
Q 87.796875 23.53125 79.296875 14.546875 
Q 71.234375 5.953125 56.296875 2.390625 
Q 55.953125 2.34375 55.765625 2.34375 
Q 54.828125 2.34375 54.296875 3.421875 
Q 53.375 5.078125 51.609375 6.109375 
Q 67.921875 9.46875 75.6875 18.609375 
Q 82.28125 26.375 82.28125 37.703125 
Q 82.28125 50.203125 73.296875 57.71875 
Q 65.875 63.921875 55.421875 63.921875 
Q 53.71875 63.921875 53.125 63.921875 
z
M 47.796875 63.625 
Q 35.546875 62.40625 27.203125 54.390625 
Q 21.734375 49.171875 19.09375 42.140625 
Q 17.09375 36.765625 17.09375 31.546875 
Q 17.09375 23.09375 20.515625 18.5 
Q 23 15.234375 26.078125 15.234375 
Q 31.25 15.234375 35.890625 23.140625 
Q 40.375 30.8125 43.796875 42.671875 
Q 46.875 53.46875 47.796875 63.625 
z
" id="YuGothic-Regular-12398"/>
     <path d="M 75.78125 29.109375 
L 52.203125 29.109375 
L 38.484375 28.90625 
Q 37.796875 28.90625 37.796875 29.59375 
L 37.796875 32.71875 
Q 37.796875 33.296875 38.484375 33.296875 
L 52.203125 33.203125 
L 75.78125 33.203125 
L 75.78125 33.890625 
Q 75.78125 41.359375 75.09375 44.578125 
Q 78.21875 44.4375 80.171875 44 
Q 81.390625 43.84375 81.390625 43.3125 
Q 81.390625 42.828125 80.765625 41.609375 
Q 80.28125 40.328125 80.28125 34.078125 
L 80.28125 33.203125 
L 92.875 33.296875 
Q 93.5625 33.296875 93.5625 32.71875 
L 93.5625 29.59375 
Q 93.5625 28.90625 92.875 28.90625 
L 80.28125 29.109375 
L 80.28125 14.203125 
L 80.375 1.3125 
Q 80.375 -3.078125 77.78125 -4.890625 
Q 75.59375 -6.390625 68.359375 -6.390625 
Q 67.875 -6.390625 66.703125 -6.390625 
Q 65.4375 -6.390625 65.1875 -6.15625 
Q 64.9375 -5.90625 64.59375 -4.78125 
Q 63.96875 -2.6875 62.890625 -1.3125 
Q 66.109375 -1.703125 69.875 -1.703125 
Q 70.90625 -1.703125 72.171875 -1.65625 
Q 75.78125 -1.65625 75.78125 2.203125 
z
M 15.1875 11.53125 
L 15.1875 3.03125 
Q 15.1875 2.4375 14.5 2.4375 
L 11.28125 2.4375 
Q 10.59375 2.4375 10.59375 3.03125 
L 10.796875 33.796875 
L 10.796875 52.875 
L 10.59375 76.125 
Q 10.59375 76.8125 11.28125 76.8125 
L 19.09375 76.609375 
L 25.484375 76.609375 
L 33.296875 76.8125 
Q 33.984375 76.8125 33.984375 76.125 
L 33.796875 55.90625 
L 33.796875 35.6875 
L 33.984375 6.34375 
Q 33.984375 5.609375 33.296875 5.609375 
L 30.171875 5.609375 
Q 29.5 5.609375 29.5 6.34375 
L 29.5 11.53125 
z
M 15.1875 46.78125 
L 29.5 46.78125 
L 29.5 72.515625 
L 15.1875 72.515625 
z
M 15.1875 42.78125 
L 15.1875 15.53125 
L 29.5 15.53125 
L 29.5 42.78125 
z
M 61.71875 50.59375 
L 61.71875 64.984375 
L 55.03125 64.984375 
L 42.140625 64.796875 
Q 41.3125 64.796875 41.3125 65.484375 
L 41.3125 68.5 
Q 41.3125 69.1875 42.140625 69.1875 
L 55.03125 69 
L 61.71875 69 
L 61.71875 69.484375 
Q 61.71875 78.421875 61.03125 82.375 
Q 62.890625 82.328125 66.21875 81.890625 
Q 67.1875 81.734375 67.1875 81.109375 
Q 67.1875 80.8125 66.796875 79.390625 
Q 66.21875 77.734375 66.21875 69.671875 
L 66.21875 69 
L 76.03125 69 
L 88.921875 69.1875 
Q 89.59375 69.1875 89.59375 68.5 
L 89.59375 65.484375 
Q 89.59375 64.796875 88.921875 64.796875 
L 76.03125 64.984375 
L 66.21875 64.984375 
L 66.21875 50.59375 
L 80.21875 50.59375 
L 94.09375 50.78125 
Q 94.828125 50.78125 94.828125 50.09375 
L 94.828125 47.078125 
Q 94.828125 46.390625 94.09375 46.390625 
L 80.21875 46.578125 
L 51.703125 46.578125 
L 37.9375 46.390625 
Q 37.203125 46.390625 37.203125 47.078125 
L 37.203125 50.09375 
Q 37.203125 50.78125 37.9375 50.78125 
L 51.703125 50.59375 
z
M 50.390625 22.40625 
Q 56.390625 17.140625 60.59375 10.109375 
Q 60.75 9.859375 60.75 9.625 
Q 60.75 9.28125 60.109375 8.796875 
L 58.40625 7.625 
Q 57.46875 6.984375 57.28125 6.984375 
Q 57.03125 6.984375 56.78125 7.421875 
Q 52.78125 14.453125 47.015625 19.921875 
Q 46.6875 20.171875 46.6875 20.359375 
Q 46.6875 20.65625 47.609375 21.296875 
L 48.96875 22.3125 
Q 49.609375 22.703125 49.859375 22.703125 
Q 50.046875 22.703125 50.390625 22.40625 
z
" id="YuGothic-Regular-26178"/>
     <path d="M 37.3125 8.203125 
L 37.3125 2.484375 
Q 37.3125 1.8125 36.625 1.8125 
L 33.59375 1.8125 
Q 32.90625 1.8125 32.90625 2.484375 
L 33.109375 20.015625 
L 33.109375 28.328125 
L 32.90625 39.59375 
Q 32.90625 40.28125 33.59375 40.28125 
L 43.890625 40.09375 
L 54.890625 40.09375 
L 65.1875 40.28125 
Q 65.765625 40.28125 65.765625 39.59375 
L 65.578125 29.6875 
L 65.578125 20.703125 
L 65.765625 3.609375 
Q 65.765625 2.875 65.1875 2.875 
L 62.0625 2.875 
Q 61.375 2.875 61.375 3.609375 
L 61.375 8.203125 
z
M 37.3125 26.3125 
L 61.375 26.3125 
L 61.375 36.28125 
L 37.3125 36.28125 
z
M 37.3125 22.515625 
L 37.3125 11.921875 
L 61.375 11.921875 
L 61.375 22.515625 
z
M 84.625 49.078125 
L 65.828125 49.078125 
L 55.078125 48.875 
Q 54.390625 48.875 54.390625 49.5625 
L 54.5 58.203125 
L 54.5 69.4375 
L 54.390625 78.03125 
Q 54.390625 78.71875 55.078125 78.71875 
L 65.828125 78.515625 
L 77.9375 78.515625 
L 88.625 78.71875 
Q 89.3125 78.71875 89.3125 78.03125 
L 89.109375 63.71875 
L 89.109375 17.1875 
L 89.40625 4.109375 
Q 89.40625 0.78125 88.765625 -0.78125 
Q 88.234375 -2 86.921875 -3.03125 
Q 84.71875 -4.734375 77.15625 -4.734375 
Q 76.515625 -4.734375 75 -4.734375 
Q 73.828125 -4.734375 73.578125 -4.5 
Q 73.390625 -4.296875 73.09375 -3.21875 
Q 72.5625 -1.3125 71.484375 0.203125 
Q 74.859375 -0.25 78.90625 -0.25 
Q 82.71875 -0.25 83.734375 0.875 
Q 84.625 1.859375 84.625 4.984375 
z
M 84.625 52.78125 
L 84.625 62.203125 
L 58.890625 62.203125 
L 58.890625 52.78125 
z
M 84.625 65.921875 
L 84.625 74.703125 
L 58.890625 74.703125 
L 58.890625 65.921875 
z
M 22.3125 78.515625 
L 33.40625 78.515625 
L 43.40625 78.71875 
Q 44.09375 78.71875 44.09375 78.03125 
L 43.890625 69 
L 43.890625 58.6875 
L 44.09375 49.5625 
Q 44.09375 48.875 43.40625 48.875 
L 33.40625 49.078125 
L 15.1875 49.078125 
L 15.1875 14.890625 
L 15.375 -5.421875 
Q 15.375 -6.109375 14.703125 -6.109375 
L 11.1875 -6.109375 
Q 10.5 -6.109375 10.5 -5.421875 
L 10.6875 14.890625 
L 10.6875 57.46875 
L 10.5 78.03125 
Q 10.5 78.71875 11.1875 78.71875 
z
M 15.1875 62.203125 
L 15.1875 52.78125 
L 39.5 52.78125 
L 39.5 62.203125 
z
M 15.1875 65.921875 
L 39.5 65.921875 
L 39.5 74.703125 
L 15.1875 74.703125 
z
" id="YuGothic-Regular-38291"/>
    </defs>
    <g transform="translate(150.725781 19.970625)scale(0.12 -0.12)">
     <use xlink:href="#YuGothic-Regular-23556"/>
     <use x="100" xlink:href="#YuGothic-Regular-25731"/>
     <use x="200" xlink:href="#YuGothic-Regular-12452"/>
     <use x="300" xlink:href="#YuGothic-Regular-12505"/>
     <use x="400" xlink:href="#YuGothic-Regular-12531"/>
     <use x="500" xlink:href="#YuGothic-Regular-12488"/>
     <use x="600" xlink:href="#YuGothic-Regular-21463"/>
     <use x="700" xlink:href="#YuGothic-Regular-20449"/>
     <use x="800" xlink:href="#YuGothic-Regular-12363"/>
     <use x="900" xlink:href="#YuGothic-Regular-12425"/>
     <use x="1000" xlink:href="#YuGothic-Regular-23556"/>
     <use x="1100" xlink:href="#YuGothic-Regular-25731"/>
     <use x="1200" xlink:href="#YuGothic-Regular-32080"/>
     <use x="1300" xlink:href="#YuGothic-Regular-26524"/>
     <use x="1400" xlink:href="#YuGothic-Regular-12452"/>
     <use x="1500" xlink:href="#YuGothic-Regular-12505"/>
     <use x="1600" xlink:href="#YuGothic-Regular-12531"/>
     <use x="1700" xlink:href="#YuGothic-Regular-12488"/>
     <use x="1800" xlink:href="#YuGothic-Regular-21463"/>
     <use x="1900" xlink:href="#YuGothic-Regular-20449"/>
     <use x="2000" xlink:href="#YuGothic-Regular-12414"/>
     <use x="2100" xlink:href="#YuGothic-Regular-12391"/>
     <use x="2200" xlink:href="#YuGothic-Regular-12398"/>
     <use x="2300" xlink:href="#YuGothic-Regular-26178"/>
     <use x="2400" xlink:href="#YuGothic-Regular-38291"/>
    </g>
   </g>
  </g>
 </g>
 <defs>
  <clipPath id="p23916fe7c3">
   <rect height="220.873125" width="513.045313" x="44.203125" y="25.970625"/>
  </clipPath>
 </defs>
</svg>
